<?xml version="1.0" standalone="no"?>
<!DOCTYPE svg PUBLIC "-//W3C//DTD SVG 1.1//EN" "http://www.w3.org/Graphics/SVG/1.1/DTD/svg11.dtd" >
<svg xmlns="http://www.w3.org/2000/svg" xmlns:xlink="http://www.w3.org/1999/xlink" version="1.1">
<metadata>
Created by FontForge 20200314 at Tue Apr 14 18:04:58 2015
 By Unknown
Copyright (c) 2013 by Andriy Konstantynov. All rights reserved.
</metadata>
<defs>
<font id="ClinicaW01-ExtraLightItalic" horiz-adv-x="601" >
  <font-face 
    font-family="ClinicaW01-ExtraLightItalic"
    font-weight="300"
    font-style="italic"
    font-stretch="normal"
    units-per-em="1000"
    panose-1="2 11 0 3 3 2 0 2 0 4"
    ascent="800"
    descent="-200"
    x-height="500"
    cap-height="700"
    bbox="-49 -218 1107 924"
    underline-thickness="50"
    underline-position="-175"
    unicode-range="U+0020-2122"
  />
<missing-glyph horiz-adv-x="225" 
 />
    <glyph glyph-name=".notdef" horiz-adv-x="225" 
 />
    <glyph glyph-name=".null" horiz-adv-x="0" 
 />
    <glyph glyph-name="nonmarkingreturn" horiz-adv-x="333" 
 />
    <glyph glyph-name="space" unicode=" " horiz-adv-x="225" 
 />
    <glyph glyph-name="exclam" unicode="!" horiz-adv-x="216" 
d="M128 0h-40l16 98h39zM159 203h-39l78 497h40z" />
    <glyph glyph-name="quotedbl" unicode="&#x22;" horiz-adv-x="354" 
d="M198 494h-29l29 206h35zM342 494h-29l29 206h35z" />
    <glyph glyph-name="numbersign" unicode="#" horiz-adv-x="675" 
d="M467 177h-263l-58 -177h-37l58 177h-95l5 30h101l93 286h-95l4 30h102l58 177h36l-59 -177h265l58 177h36l-59 -177h96l-4 -30h-101l-95 -286h97l-5 -30h-101l-58 -177h-37zM213 207h265l93 286h-263z" />
    <glyph glyph-name="dollar" unicode="$" horiz-adv-x="613" 
d="M280 -1q-48 3 -87 19.5t-65 44t-37 65.5t-3 84h39q-6 -41 4.5 -74.5t35 -57.5t60.5 -37t81 -13t83.5 10.5t67.5 30.5t48 48.5t25 64.5q7 43 -7.5 69.5t-42 43t-64.5 26.5t-76.5 18.5t-76.5 19.5t-64.5 29.5t-41.5 48t-6 76.5q7 43 27.5 77t52 58t72 37t87.5 15l15 98h37
l-15 -99q43 -3 78 -19t58 -42t33.5 -61t3.5 -77h-39q6 37 -3.5 68t-31.5 53.5t-55 34.5t-73 12q-41 0 -76 -10.5t-62.5 -30.5t-45 -48.5t-23.5 -64.5q-6 -41 8.5 -66t42.5 -40.5t65.5 -24.5t76.5 -17.5t76 -19.5t64.5 -31t41 -51.5t5.5 -80.5q-7 -44 -28.5 -78t-55.5 -57.5
t-77.5 -37t-94.5 -14.5l-15 -98h-37z" />
    <glyph glyph-name="percent" unicode="%" horiz-adv-x="745" 
d="M669 700h37l-520 -700h-37zM141 570q11 63 52.5 98t100.5 35q60 0 90.5 -35t20.5 -98q-10 -62 -51.5 -96.5t-101.5 -34.5q-59 0 -90 34.5t-21 96.5zM171 570q-8 -50 15.5 -76.5t71.5 -26.5q47 0 78.5 26.5t39.5 76.5q8 51 -15 77.5t-70 26.5q-48 0 -80 -26.5t-40 -77.5z
M448 129q11 63 52 97.5t101 34.5t91 -34.5t21 -97.5t-52 -97.5t-102 -34.5t-90.5 34.5t-20.5 97.5zM478 129q-8 -50 15 -76.5t71 -26.5q47 0 79 26.5t40 76.5q8 51 -15.5 77.5t-70.5 26.5t-79 -26.5t-40 -77.5z" />
    <glyph glyph-name="ampersand" unicode="&#x26;" horiz-adv-x="602" 
d="M591 323q-10 -61 -35 -113.5t-61 -93.5l85 -116h-45l-66 93q-47 -45 -106.5 -70.5t-125.5 -25.5q-91 0 -138 49t-33 139q7 44 25.5 76.5t44.5 57.5t57.5 43.5t64.5 34.5q-21 42 -31.5 85t-3.5 83q10 65 54 101.5t107 36.5q29 0 52.5 -8t39 -24t22.5 -40t2 -56
q-6 -38 -23.5 -66t-43.5 -50t-58 -39t-66 -34l162 -244q65 74 83 181h37zM242 29q56 0 109 23t95 65l-172 252q-30 -15 -58 -31.5t-51 -38.5t-39 -50t-22 -65q-11 -72 26 -113.5t112 -41.5zM261 563q-5 -34 3.5 -72t28.5 -77q31 15 60 30t51.5 33.5t37.5 42.5t20 56
q8 51 -17.5 73t-63.5 22q-45 0 -78.5 -27.5t-41.5 -80.5z" />
    <glyph glyph-name="quotesingle" unicode="'" horiz-adv-x="211" 
d="M198 494h-29l29 206h35z" />
    <glyph glyph-name="parenleft" unicode="(" horiz-adv-x="265" 
d="M205 -132q-34 0 -57 30t-34 86.5t-9.5 138.5t18.5 187q16 105 40.5 187t53.5 139t62 87t67 30l-5 -30q-26 0 -51.5 -28t-49 -81t-44 -129.5t-36.5 -174.5q-15 -98 -19 -174.5t2.5 -129.5t23.5 -81t43 -28z" />
    <glyph glyph-name="parenright" unicode=")" horiz-adv-x="265" 
d="M166 753q34 0 57 -30t34 -87t9 -139t-18 -187q-17 -105 -41 -187t-53 -138.5t-62 -86.5t-67 -30l5 29q26 0 51.5 28t49.5 81t44.5 129.5t35.5 174.5t19 174.5t-3 129.5t-24 81t-43 28z" />
    <glyph glyph-name="asterisk" unicode="*" horiz-adv-x="472" 
d="M187 624l120 -77l24 153h30l-24 -153l145 77l11 -27l-144 -75l119 -76l-19 -26l-120 76l-24 -153h-30l24 153l-145 -76l-10 26l144 76l-120 75z" />
    <glyph glyph-name="plus" unicode="+" horiz-adv-x="489" 
d="M116 314h163l27 168h30l-27 -168h163l-5 -30h-163l-26 -167h-30l26 167h-164z" />
    <glyph glyph-name="comma" unicode="," horiz-adv-x="205" 
d="M88 84h59l-12 -84q-5 -28 -13.5 -52t-19 -41.5t-23.5 -27.5t-27 -10l5 29q14 0 26.5 29t20.5 73h-29z" />
    <glyph glyph-name="hyphen" unicode="-" horiz-adv-x="334" 
d="M112 290h202l-5 -30h-203z" />
    <glyph glyph-name="period" unicode="." horiz-adv-x="205" 
d="M88 84h59l-12 -84h-60z" />
    <glyph glyph-name="slash" unicode="/" horiz-adv-x="373" 
d="M402 700h39l-376 -800h-39z" />
    <glyph glyph-name="zero" unicode="0" horiz-adv-x="657" 
d="M124 350q13 83 42.5 148.5t71 111t93 69.5t108.5 24q58 0 102 -24t71 -69.5t35.5 -111t-4.5 -148.5t-42.5 -148.5t-71 -111t-93 -69.5t-109.5 -24q-57 0 -101 24t-71 69.5t-35.5 111t4.5 148.5zM164 350q-12 -76 -5.5 -135.5t29 -101t59.5 -63t85 -21.5q49 0 93 21.5
t79.5 63t61 101t37.5 135.5t5.5 135.5t-29 101t-59.5 63t-86 21.5q-48 0 -92 -21.5t-79.5 -63t-61 -101t-37.5 -135.5z" />
    <glyph glyph-name="one" unicode="1" horiz-adv-x="312" 
d="M151 631q39 0 64.5 3.5t41.5 11.5t24 21t11 33h36l-110 -700h-40l95 604h-127z" />
    <glyph glyph-name="two" unicode="2" horiz-adv-x="581" 
d="M75 32q6 40 41 76t85 70.5t107 70.5t107.5 74.5t87 82.5t44.5 96q6 39 -1.5 70.5t-27.5 53t-51 33.5t-70 12t-75 -12.5t-64.5 -35t-48 -53.5t-25.5 -69h-39q7 45 30 82.5t57.5 64t78.5 41t92 14.5t85.5 -13.5t62 -39.5t34 -63.5t2.5 -84.5q-9 -57 -46 -104.5t-87 -87.5
t-107 -75.5t-106.5 -68.5t-84 -66t-39.5 -68h404l-4 -32h-446l4 32v0z" />
    <glyph glyph-name="three" unicode="3" horiz-adv-x="609" 
d="M288 375h66q38 0 71.5 10t59 29.5t42.5 46.5t23 62q11 69 -27.5 108.5t-116.5 39.5q-38 0 -72.5 -11t-62 -31.5t-45.5 -49t-23 -63.5h-39q7 42 29 76.5t55 59t74.5 38t88.5 13.5q96 0 144 -47t35 -131q-10 -60 -47.5 -101t-93.5 -60q65 -14 98.5 -60.5t22.5 -118.5
q-7 -44 -29.5 -79t-57 -59t-79 -37t-96.5 -13q-48 0 -87 13.5t-65.5 39t-38 60.5t-4.5 79h39q-6 -36 3.5 -65.5t31 -50.5t54 -32.5t72.5 -11.5q42 0 79 10.5t65.5 31t47.5 49.5t25 66q12 74 -30 116t-120 42h-97z" />
    <glyph glyph-name="four" unicode="4" horiz-adv-x="583" 
d="M435 147h-366l5 32l433 521h53l-83 -521h81l-5 -32h-81l-22 -147h-38zM440 179l76 479l-402 -479h326z" />
    <glyph glyph-name="five" unicode="5" horiz-adv-x="609" 
d="M245 700h367l-5 -32h-331l-76 -280q33 31 79 47.5t98 16.5t92 -17t66.5 -47.5t37 -72.5t2.5 -93q-9 -53 -32 -94.5t-58 -70.5t-80 -44.5t-97 -15.5q-48 0 -87 13.5t-65.5 38.5t-38 60.5t-4.5 78.5h39q-6 -36 3.5 -65t31 -50t54 -32.5t72.5 -11.5q42 0 79.5 13t67 38
t49 61t27.5 81q7 43 -2 80t-31 63.5t-56.5 41.5t-78.5 15q-57 0 -104.5 -22t-74.5 -60h-40z" />
    <glyph glyph-name="six" unicode="6" horiz-adv-x="596" 
d="M564 222q-9 -53 -32.5 -94.5t-58.5 -70.5t-80 -44.5t-96 -15.5q-77 0 -117 32t-56 83t-13 113.5t13 124.5q13 81 40.5 146.5t65.5 111t84.5 70.5t97.5 25q42 0 76 -11.5t57 -32t33.5 -49.5t5.5 -64h-38q8 56 -31.5 90.5t-107.5 34.5q-41 0 -79.5 -20.5t-71.5 -64
t-58.5 -110t-40.5 -157.5q13 24 33 47t47 41.5t61 29.5t75 11q50 0 89 -15t64.5 -44t35.5 -71t2 -96zM154 222q-8 -45 -0.5 -81t27 -61t50.5 -38t71 -13q42 0 79 13t66.5 38t49 61t27.5 81q14 93 -31 143.5t-130 50.5q-40 0 -75 -13t-62.5 -38t-46 -61t-25.5 -82z" />
    <glyph glyph-name="seven" unicode="7" horiz-adv-x="551" 
d="M157 700h453l-5 -32l-380 -668h-42l380 668h-411z" />
    <glyph glyph-name="eight" unicode="8" horiz-adv-x="582" 
d="M173 534q6 40 26 71.5t50 53t69 33t84 11.5t80 -11.5t58.5 -33t33 -53t3.5 -71.5q-10 -60 -47.5 -99t-94.5 -56q62 -17 93 -64.5t20 -121.5q-7 -46 -29.5 -82.5t-56.5 -61.5t-78 -38.5t-94 -13.5t-89.5 13.5t-65.5 38.5t-37 61.5t-4 82.5q12 74 58.5 121.5t112.5 64.5
q-51 17 -76.5 56t-15.5 99zM135 196q-6 -40 2.5 -71t29.5 -52.5t53.5 -32.5t74.5 -11t78 11t64 32.5t46.5 52.5t24.5 71q6 39 -2.5 70t-29.5 52.5t-53.5 32.5t-74.5 11q-84 0 -142 -43.5t-71 -122.5zM212 531q-5 -32 2.5 -57.5t26.5 -43t47.5 -27t64.5 -9.5t67.5 9.5
t55.5 27t40 43t21 57.5q11 67 -28 103.5t-112 36.5q-36 0 -67.5 -9.5t-56 -27.5t-40.5 -44t-21 -59z" />
    <glyph glyph-name="nine" unicode="9" horiz-adv-x="582" 
d="M146 487q8 51 30.5 91t56 68t76.5 42.5t92 14.5q50 0 83.5 -14t54.5 -38.5t30.5 -58t11.5 -72.5t-2 -82.5t-11 -87.5q-13 -83 -38 -148.5t-61.5 -111t-84 -69.5t-105.5 -24q-42 0 -76 11.5t-57 32t-33.5 49.5t-5.5 64h39q-5 -28 3.5 -51t27 -39.5t46 -25.5t61.5 -9
q48 0 89 21.5t73 66t54.5 113t34.5 162.5q-10 -20 -29 -41t-45.5 -39t-60 -29.5t-72.5 -11.5q-48 0 -85.5 14.5t-61.5 42t-33.5 68t-1.5 91.5zM540 487q7 43 -0.5 77.5t-26.5 58t-48.5 36t-68.5 12.5q-81 0 -138.5 -48t-71.5 -136t28.5 -136t123.5 -48q38 0 72 12.5t60.5 36
t44.5 57.5t25 78z" />
    <glyph glyph-name="colon" unicode=":" horiz-adv-x="197" 
d="M83 84h56l-13 -84h-55zM150 500h55l-14 -84h-55z" />
    <glyph glyph-name="semicolon" unicode=";" horiz-adv-x="197" 
d="M150 500h55l-14 -84h-55zM83 80h56l-13 -80q-5 -28 -13.5 -52t-19 -41.5t-23.5 -27.5t-27 -10l5 29q14 0 27 29t20 73h-24z" />
    <glyph glyph-name="less" unicode="&#x3c;" horiz-adv-x="596" 
d="M96 306l6 37l534 213l-7 -38l-485 -194l424 -193l-6 -39z" />
    <glyph glyph-name="equal" unicode="=" horiz-adv-x="539" 
d="M103 234h406l-4 -30h-407zM136 445h407l-5 -29h-407z" />
    <glyph glyph-name="greater" unicode="&#x3e;" horiz-adv-x="596" 
d="M602 343l-6 -37l-534 -214l6 39l485 193l-424 194l7 38z" />
    <glyph glyph-name="question" unicode="?" horiz-adv-x="563" 
d="M296 223q7 42 25 69t42 46.5t51 34.5t50.5 33t41.5 42.5t25 63.5q5 37 -2.5 66.5t-26.5 50t-48 31.5t-66 11q-38 0 -72 -12.5t-61.5 -35t-46 -53.5t-24.5 -69h-39q7 45 29.5 82.5t55.5 64t75 41t88 14.5t82 -13t59.5 -37.5t33 -60t2.5 -80.5t-25.5 -73t-42.5 -47
t-50.5 -33.5t-50.5 -32t-42 -41.5t-24 -62l-2 -20h-40zM277 98h39l-15 -98h-39z" />
    <glyph glyph-name="at" unicode="@" horiz-adv-x="830" 
d="M612 349q7 42 1.5 75t-21.5 56t-41 35t-57 12q-70 0 -120 -46.5t-64 -131.5q-14 -84 21.5 -130.5t105.5 -46.5q65 0 113 46.5t62 130.5zM602 250q-28 -51 -73 -78t-99 -27q-41 0 -73 14t-52.5 40t-28 64t0.5 86q7 48 27 86.5t48.5 64.5t65 40t77.5 14q52 0 87.5 -26
t46.5 -75l17 95h31l-53 -332q-3 -20 7.5 -32.5t30.5 -12.5t38.5 7t34 27t28 54.5t21.5 90.5q12 76 -1.5 136.5t-48.5 101.5t-90 63t-125 22q-69 0 -130 -22t-109 -63t-80 -101.5t-44 -136.5q-12 -77 0.5 -137t47 -101t88.5 -63t124 -22q48 0 92 11.5t82 32.5l15 -26
q-42 -23 -91 -35.5t-103 -12.5q-76 0 -135.5 24t-97.5 69.5t-52.5 111t-1.5 148.5t48.5 148.5t88 111t119.5 69.5t143 24q78 0 138.5 -24t99 -69.5t53.5 -111t2 -148.5q-10 -61 -25 -100.5t-34.5 -63t-44.5 -32.5t-54 -9q-35 0 -51 18t-11 47z" />
    <glyph glyph-name="A" unicode="A" horiz-adv-x="670" 
d="M422 700h46l165 -700h-41l-52 215h-343l-118 -215h-42zM213 248h321l-95 411z" />
    <glyph glyph-name="B" unicode="B" horiz-adv-x="633" 
d="M204 700h229q95 0 144 -46t36 -130q-10 -60 -47.5 -100.5t-93.5 -59.5q66 -14 99 -60t22 -118q-7 -44 -28 -78.5t-52.5 -58.5t-72 -36.5t-86.5 -12.5h-260zM355 32q39 0 72.5 10.5t59.5 30.5t43.5 49t23.5 66q11 74 -30.5 115t-119.5 41h-215l-49 -312h215zM240 668
l-46 -292h183q38 0 71.5 10t59 29t42.5 46t23 61q11 69 -29.5 107.5t-119.5 38.5h-184z" />
    <glyph glyph-name="C" unicode="C" horiz-adv-x="708" 
d="M483 670q-60 0 -112.5 -21.5t-94.5 -62.5t-71 -100.5t-41 -135.5t-2 -135.5t39 -100.5t74.5 -62.5t105.5 -21.5q46 0 87 13.5t73.5 37.5t54.5 58t28 76h40q-8 -49 -33.5 -89.5t-64 -69t-87 -44t-102.5 -15.5q-69 0 -122 24t-86.5 69.5t-45.5 111t1 148.5t46 148.5t81 111
t108.5 69.5t129.5 24q54 0 97.5 -15.5t72.5 -44t42 -69t5 -89.5h-39q6 42 -4.5 76t-35.5 58t-61.5 37.5t-82.5 13.5z" />
    <glyph glyph-name="D" unicode="D" horiz-adv-x="678" 
d="M182 700h237q67 0 118.5 -23.5t84 -68.5t44 -110t-1.5 -148t-45 -148t-78.5 -110t-105.5 -68.5t-126 -23.5h-237zM312 32q58 0 109.5 21.5t92.5 62t69.5 100t40.5 134.5t2 134.5t-38 100t-73 62t-103 21.5h-194l-101 -636h195z" />
    <glyph glyph-name="E" unicode="E" horiz-adv-x="584" 
d="M204 700h434l-5 -32h-393l-46 -292h361l-5 -32h-361l-49 -312h398l-5 -32h-439z" />
    <glyph glyph-name="F" unicode="F" horiz-adv-x="558" 
d="M533 344h-344l-54 -344h-41l110 700h413l-5 -32h-372l-46 -292h344z" />
    <glyph glyph-name="G" unicode="G" horiz-adv-x="708" 
d="M461 355h225l-56 -355h-35l16 121q-37 -60 -98.5 -92t-135.5 -32q-69 0 -122 24t-86.5 69.5t-45.5 111t1 148.5t46 148.5t81 111t108.5 69.5t129.5 24q54 0 97.5 -15.5t72.5 -44t42 -68.5t6 -89h-40q6 42 -4.5 76t-35.5 58t-61.5 37t-82.5 13q-60 0 -112.5 -21.5
t-94.5 -62.5t-71 -100.5t-41 -135.5t-2 -135.5t39 -100.5t74.5 -62.5t105.5 -21.5q48 0 90 15t75 43t55.5 68.5t30.5 92.5l12 74h-188z" />
    <glyph glyph-name="H" unicode="H" horiz-adv-x="693" 
d="M613 344h-424l-54 -344h-41l110 700h41l-51 -324h424l51 324h40l-110 -700h-40z" />
    <glyph glyph-name="I" unicode="I" horiz-adv-x="229" 
d="M204 700h41l-110 -700h-41z" />
    <glyph glyph-name="J" unicode="J" horiz-adv-x="562" 
d="M538 700h40l-81 -517q-7 -42 -27.5 -76.5t-51.5 -58.5t-69.5 -37.5t-80.5 -13.5t-76.5 13.5t-57 37.5t-32.5 58.5t-3 76.5l6 40h40l-6 -40q-5 -34 2.5 -62t25.5 -48.5t45 -31.5t61 -11t64.5 11t55.5 31.5t41.5 48.5t21.5 62z" />
    <glyph glyph-name="K" unicode="K" horiz-adv-x="600" 
d="M290 368l-114 -103l-41 -265h-41l110 700h41l-61 -381l414 381h49l-328 -303l245 -397h-48z" />
    <glyph glyph-name="L" unicode="L" horiz-adv-x="567" 
d="M520 0h-426l110 700h41l-105 -668h385z" />
    <glyph glyph-name="M" unicode="M" horiz-adv-x="870" 
d="M204 700h57l182 -651l386 651h56l-110 -700h-39l101 640l-381 -640h-42l-179 640l-101 -640h-40z" />
    <glyph glyph-name="N" unicode="N" horiz-adv-x="716" 
d="M134 0h-40l110 700h40l348 -635l100 635h39l-110 -700h-40l-347 635z" />
    <glyph glyph-name="O" unicode="O" horiz-adv-x="755" 
d="M124 350q13 83 46 148.5t81 111t108.5 69.5t129.5 24t122 -24t86.5 -69.5t45.5 -111t-1 -148.5t-46 -148.5t-81 -111t-108.5 -69.5t-129.5 -24t-122 24t-86.5 69.5t-45.5 111t1 148.5zM164 350q-12 -76 -2 -135.5t39 -100.5t75 -62.5t106 -21.5t112.5 21.5t94.5 62.5
t71 100.5t41 135.5t2 135.5t-39 100.5t-74.5 62.5t-105.5 21.5t-113 -21.5t-95 -62.5t-71 -100.5t-41 -135.5z" />
    <glyph glyph-name="P" unicode="P" horiz-adv-x="613" 
d="M204 700h241q94 0 143.5 -51t35.5 -145q-8 -46 -29 -82.5t-52.5 -61.5t-72.5 -38.5t-87 -13.5h-200l-48 -308h-41zM240 668l-51 -328h195q39 0 72.5 11.5t60 32.5t44 51.5t23.5 68.5q12 78 -29 121t-119 43h-196z" />
    <glyph glyph-name="Q" unicode="Q" horiz-adv-x="755" 
d="M124 350q13 83 46 148.5t81 111t108.5 69.5t129.5 24t122 -24t86.5 -69.5t45.5 -111t-1 -148.5q-14 -87 -48.5 -153.5t-85.5 -111.5l87 -84l-25 -25l-90 87q-89 -66 -203 -66q-69 0 -122 24t-86.5 69.5t-45.5 111t1 148.5zM476 213l107 -104q45 42 75 102.5t43 138.5
q12 76 2 135.5t-39 100.5t-74.5 62.5t-105.5 21.5t-113 -21.5t-95 -62.5t-71 -100.5t-41 -135.5t-2 -135.5t39 -100.5t75 -62.5t106 -21.5q48 0 92.5 14t81.5 42l-104 101z" />
    <glyph glyph-name="R" unicode="R" horiz-adv-x="614" 
d="M204 700h241q94 0 143.5 -51t35.5 -144q-7 -44 -26 -78.5t-48.5 -60t-66.5 -40t-80 -17.5l163 -309h-47l-157 309h-179l-48 -309h-41zM240 668l-51 -327h195q39 0 73 11t60 32t43.5 51.5t23.5 69.5q12 78 -29 120.5t-119 42.5h-196z" />
    <glyph glyph-name="S" unicode="S" horiz-adv-x="613" 
d="M127 212q-6 -41 4.5 -74.5t35 -57.5t60.5 -37t81 -13t83.5 10.5t67.5 30.5t48 48.5t25 64.5q7 43 -7.5 69.5t-42 43t-64.5 26.5t-76.5 18.5t-76.5 19.5t-64.5 29.5t-41.5 48t-6 76.5q7 44 28.5 79t54.5 59t76 37t92 13t89 -14.5t66.5 -41t38 -63.5t4.5 -82h-39
q6 37 -3.5 68t-31.5 53.5t-55 34.5t-73 12q-41 0 -76 -10.5t-62.5 -30.5t-45 -48.5t-23.5 -64.5q-6 -41 8.5 -66t42.5 -40.5t65.5 -24.5t76.5 -17.5t76 -19.5t64.5 -31t41 -51.5t5.5 -80.5q-7 -45 -30.5 -80t-59 -59t-81.5 -36.5t-98 -12.5q-54 0 -97 15.5t-72 43.5t-42 68
t-5 88h39z" />
    <glyph glyph-name="T" unicode="T" horiz-adv-x="648" 
d="M161 700h546l-5 -32h-253l-105 -668h-40l105 668h-253z" />
    <glyph glyph-name="U" unicode="U" horiz-adv-x="718" 
d="M694 700h41l-74 -468q-9 -53 -36 -96.5t-67.5 -74t-91.5 -47.5t-108 -17t-102.5 17t-76.5 47.5t-44 74t-5 96.5l74 468h40l-74 -468q-7 -45 4 -82.5t37 -64t65 -41t87 -14.5t91.5 14.5t78 41t57.5 64t30 82.5z" />
    <glyph glyph-name="V" unicode="V" horiz-adv-x="681" 
d="M363 0h-45l-171 700h41l159 -659l366 659h41z" />
    <glyph glyph-name="W" unicode="W" horiz-adv-x="1034" 
d="M617 645l-303 -645h-44l-123 700h41l111 -653l306 653h41l101 -653l318 653h42l-345 -700h-45z" />
    <glyph glyph-name="X" unicode="X" horiz-adv-x="677" 
d="M369 353l-208 347h48l190 -318l291 318h48l-320 -347l214 -353h-48l-194 325l-297 -325h-48z" />
    <glyph glyph-name="Y" unicode="Y" horiz-adv-x="676" 
d="M364 293l-203 407h47l181 -370l301 370h47l-333 -407l-46 -293h-40z" />
    <glyph glyph-name="Z" unicode="Z" horiz-adv-x="636" 
d="M176 700h518l-5 -31l-577 -637h473l-5 -32h-519l5 31l577 637h-472z" />
    <glyph glyph-name="bracketleft" unicode="[" horiz-adv-x="279" 
d="M206 750h153l-4 -30h-117l-129 -820h116l-5 -30h-153z" />
    <glyph glyph-name="backslash" unicode="\" horiz-adv-x="373" 
d="M315 -100h-39l-124 800h39z" />
    <glyph glyph-name="bracketright" unicode="]" horiz-adv-x="279" 
d="M169 -130h-153l6 30h116l129 820h-116l5 30h152z" />
    <glyph glyph-name="asciicircum" unicode="^" horiz-adv-x="507" 
d="M549 500h-45l-144 176l-199 -176h-44l226 200h41z" />
    <glyph glyph-name="underscore" unicode="_" horiz-adv-x="407" 
d="M-7 -50h406l-6 -30h-406z" />
    <glyph glyph-name="grave" unicode="`" horiz-adv-x="216" 
d="M282 572h-39l-107 128h44z" />
    <glyph glyph-name="a" unicode="a" 
d="M517 0h-37l16 122q-33 -60 -86.5 -92.5t-118.5 -32.5q-50 0 -89.5 17t-64.5 49.5t-34 79.5t0 107q10 60 34 107t59.5 79.5t80 49.5t94.5 17q65 0 108 -32t59 -92l21 121h37zM517 250q8 52 1.5 93.5t-25.5 70t-50 43.5t-71 15q-43 0 -81 -15t-68 -43.5t-51 -70t-29 -93.5
q-8 -53 -0.5 -94t28.5 -69.5t54 -43.5t76 -15q81 0 140 58t76 164z" />
    <glyph glyph-name="b" unicode="b" horiz-adv-x="606" 
d="M202 725h40l-54 -345q33 60 86.5 91.5t117.5 31.5q51 0 90 -17t64 -49.5t34 -79.5t0 -107t-33.5 -107t-59.5 -79.5t-79.5 -49.5t-95.5 -17q-64 0 -107 32t-59 92l-20 -121h-38zM167 250q-8 -53 -1.5 -94t25.5 -69.5t50 -43.5t71 -15q43 0 81 15t68 43.5t51 69.5t29 94
q8 52 0.5 93.5t-28.5 70t-54.5 43.5t-76.5 15q-40 0 -75.5 -15t-63.5 -43.5t-48 -70t-28 -93.5z" />
    <glyph glyph-name="c" unicode="c" horiz-adv-x="562" 
d="M372 472q-43 0 -81 -15t-68 -43.5t-51 -70t-29 -93.5q-8 -53 -0.5 -94t28.5 -69.5t54.5 -43.5t76.5 -15q32 0 61.5 9t52.5 26t38 40t20 52h38q-5 -36 -24 -65t-48 -49.5t-66 -32t-77 -11.5q-52 0 -92 17t-66 49.5t-35.5 79.5t-0.5 107q10 60 34.5 107t60.5 79.5
t81.5 49.5t97.5 17q40 0 73 -11.5t55.5 -32t32.5 -49.5t5 -65h-39q4 28 -3.5 51.5t-25.5 40.5t-44 26t-59 9z" />
    <glyph glyph-name="d" unicode="d" 
d="M517 0h-37l16 122q-33 -60 -86.5 -92.5t-118.5 -32.5q-50 0 -89.5 17t-64.5 49.5t-34 79.5t0 107q10 60 34 107t59.5 79.5t80 49.5t94.5 17q65 0 108 -31.5t59 -91.5l54 345h39zM517 250q8 52 1.5 93.5t-25.5 70t-50 43.5t-71 15q-43 0 -81 -15t-68 -43.5t-51 -70
t-29 -93.5q-8 -53 -0.5 -94t28.5 -69.5t54 -43.5t76 -15q81 0 140 58t76 164z" />
    <glyph glyph-name="e" unicode="e" horiz-adv-x="576" 
d="M377 503q45 0 80.5 -16t57.5 -49t29.5 -82.5t-4.5 -115.5h-398q-14 -100 30 -156t130 -56q34 0 65 9t55.5 25.5t40.5 39t20 50.5h38q-5 -35 -25 -63.5t-50 -49t-68 -31.5t-81 -11q-52 0 -92 17t-66 49.5t-35.5 79.5t-0.5 107q10 60 34 107t59.5 79.5t81.5 49.5t99 17z
M372 472q-41 0 -78.5 -13.5t-67.5 -39.5t-51 -63.5t-28 -85.5h358q7 48 0.5 85.5t-24.5 63.5t-46 39.5t-63 13.5z" />
    <glyph glyph-name="f" unicode="f" horiz-adv-x="344" 
d="M370 728q11 0 20.5 -1t20.5 -3l-5 -30q-18 3 -39 3q-47 0 -78.5 -22.5t-38.5 -64.5l-17 -110h143l-5 -30h-143l-109 -685h-40l110 685h-82l5 30h81l17 108q9 58 51.5 89t108.5 31z" />
    <glyph glyph-name="g" unicode="g" horiz-adv-x="606" 
d="M267 -187q40 0 75.5 12.5t63 36.5t46.5 58t26 78l18 122q-34 -60 -87 -91.5t-118 -31.5q-50 0 -89.5 17t-64.5 49.5t-34 79.5t0 107q10 60 34 107t59.5 79.5t80 49.5t94.5 17q65 0 108 -32t59 -92l21 121h37l-79 -502q-8 -51 -30.5 -91t-56 -67.5t-76.5 -42.5t-91 -15
q-47 0 -85 11.5t-63.5 32.5t-37.5 50.5t-6 65.5h38q-5 -29 5 -52.5t31 -40.5t52.5 -26.5t69.5 -9.5zM517 250q8 52 1.5 93.5t-25.5 70t-50 43.5t-71 15q-43 0 -81 -15t-68 -43.5t-51 -70t-29 -93.5q-8 -53 -0.5 -94t28.5 -69.5t54 -43.5t76 -15q81 0 140 58t76 164z" />
    <glyph glyph-name="h" unicode="h" horiz-adv-x="583" 
d="M128 0h-40l114 725h40l-55 -346q34 60 87.5 92t118.5 32q82 0 125.5 -48t30.5 -134l-50 -321h-39l50 321q11 72 -24.5 111.5t-103.5 39.5q-40 0 -75.5 -15t-63.5 -43.5t-48 -70t-28 -93.5z" />
    <glyph glyph-name="i" unicode="i" horiz-adv-x="227" 
d="M198 700h40l-15 -96h-39zM167 500h40l-67 -419q-4 -25 7.5 -39t34.5 -14l-4 -31q-43 0 -63.5 21t-14.5 62z" />
    <glyph glyph-name="j" unicode="j" horiz-adv-x="216" 
d="M198 700h40l-15 -96h-39zM113 -92q-10 -60 -53.5 -93t-108.5 -33l5 31q45 0 77.5 24t39.5 69l94 594h40z" />
    <glyph glyph-name="k" unicode="k" horiz-adv-x="484" 
d="M234 249l-80 -75l-26 -174h-40l114 725h40l-79 -497l285 272h48l-235 -223l182 -277h-46z" />
    <glyph glyph-name="l" unicode="l" horiz-adv-x="236" 
d="M202 725h40l-100 -634q-5 -30 8 -46.5t38 -16.5l-5 -31q-45 0 -67 23.5t-14 68.5z" />
    <glyph glyph-name="m" unicode="m" horiz-adv-x="847" 
d="M128 0h-40l79 500h38l-18 -122q31 60 76.5 92.5t100.5 32.5q58 0 93 -34t36 -94q32 63 81 95.5t105 32.5q35 0 62.5 -12.5t44.5 -35.5t23.5 -57t-0.5 -77l-50 -321h-39l50 321q11 72 -17 111.5t-85 39.5q-66 0 -117.5 -58t-68.5 -164l-39 -250h-39l50 321
q11 72 -17 111.5t-85 39.5q-33 0 -63 -15t-54.5 -43.5t-42 -70t-25.5 -93.5z" />
    <glyph glyph-name="n" unicode="n" horiz-adv-x="587" 
d="M128 0h-40l79 500h38l-18 -122q34 60 87.5 92.5t118.5 32.5q82 0 125.5 -48t30.5 -134l-50 -321h-39l50 321q11 72 -24.5 111.5t-103.5 39.5q-40 0 -75.5 -15t-63.5 -43.5t-48 -70t-28 -93.5z" />
    <glyph glyph-name="o" unicode="o" horiz-adv-x="597" 
d="M103 250q10 60 34.5 107t60.5 79.5t81.5 49.5t97.5 17t92.5 -17t66 -49.5t35 -79.5t0.5 -107t-33.5 -107t-60.5 -79.5t-82 -49.5t-98 -17t-92 17t-66 49.5t-35.5 79.5t-0.5 107zM143 250q-8 -53 -0.5 -94t28.5 -69.5t54.5 -43.5t76.5 -15t81.5 15t68.5 43.5t51 69.5
t29 94q8 52 0.5 93.5t-28.5 70t-54.5 43.5t-76.5 15q-88 0 -150.5 -58t-79.5 -164z" />
    <glyph glyph-name="p" unicode="p" horiz-adv-x="606" 
d="M167 500h38l-18 -122q34 60 87.5 92.5t117.5 32.5q51 0 90 -17t64 -49.5t34 -79.5t0 -107t-33.5 -107t-59.5 -79.5t-79.5 -49.5t-95.5 -17q-64 0 -107 31.5t-59 91.5l-53 -335h-40zM167 250q-8 -53 -1.5 -94t25.5 -69.5t50 -43.5t71 -15q43 0 81 15t68 43.5t51 69.5
t29 94q8 52 0.5 93.5t-28.5 70t-54.5 43.5t-76.5 15q-40 0 -75.5 -15t-63.5 -43.5t-48 -70t-28 -93.5z" />
    <glyph glyph-name="q" unicode="q" 
d="M482 -215h-39l53 335q-34 -60 -87 -91.5t-118 -31.5q-50 0 -89.5 17t-64.5 49.5t-34 79.5t0 107q10 60 34 107t59.5 79.5t80 49.5t94.5 17q65 0 108 -32t59 -92l21 121h37zM517 250q8 52 1.5 93.5t-25.5 70t-50 43.5t-71 15q-43 0 -81 -15t-68 -43.5t-51 -70t-29 -93.5
q-8 -53 -0.5 -94t28.5 -69.5t54 -43.5t76 -15q81 0 140 58t76 164z" />
    <glyph glyph-name="r" unicode="r" horiz-adv-x="372" 
d="M128 0h-40l79 500h37l-17 -124q34 62 88 94.5t120 32.5l-5 -33q-41 0 -78 -15.5t-67 -44.5t-50.5 -71t-28.5 -95z" />
    <glyph glyph-name="s" unicode="s" horiz-adv-x="499" 
d="M122 152q-8 -56 29.5 -90t102.5 -34q64 0 108.5 27.5t52.5 76.5q6 40 -14.5 60t-55 31t-75 18t-74.5 20t-54 37t-13 70q11 64 64 99.5t129 35.5q37 0 67.5 -10.5t51 -29.5t30 -45.5t4.5 -59.5h-38q8 51 -26.5 82.5t-93.5 31.5q-58 0 -99 -27.5t-49 -76.5q-5 -29 6 -46
t32 -27.5t49 -17t57.5 -12.5t57.5 -14t48 -22.5t30.5 -37.5t4.5 -59q-5 -32 -22.5 -57t-44.5 -42.5t-62.5 -26.5t-75.5 -9q-41 0 -73.5 11t-55 31.5t-32.5 49t-5 63.5h39z" />
    <glyph glyph-name="t" unicode="t" horiz-adv-x="362" 
d="M263 -3q-66 0 -98 31t-24 89l57 353h-91l5 30h90l16 105h40l-16 -105h143l-5 -30h-143l-57 -355q-6 -42 18.5 -64.5t71.5 -22.5q21 0 41 3l-5 -30q-11 -2 -21.5 -3t-21.5 -1z" />
    <glyph glyph-name="u" unicode="u" horiz-adv-x="587" 
d="M539 500h39l-79 -500h-38l17 122q-34 -60 -87.5 -92.5t-118.5 -32.5q-41 0 -73 12t-52.5 35.5t-29 57t-1.5 76.5l51 322h40l-52 -322q-11 -72 24.5 -111t103.5 -39q40 0 75.5 15t64 43.5t48 69.5t28.5 94z" />
    <glyph glyph-name="v" unicode="v" horiz-adv-x="530" 
d="M287 0h-44l-132 500h40l120 -460l265 460h41z" />
    <glyph glyph-name="w" unicode="w" horiz-adv-x="793" 
d="M466 447l-217 -447h-43l-95 500h40l83 -456l221 456h40l75 -456l229 456h42l-256 -500h-42z" />
    <glyph glyph-name="x" unicode="x" horiz-adv-x="535" 
d="M284 253l-159 247h46l140 -220l210 220h47l-238 -247l164 -253h-46l-146 227l-215 -227h-46z" />
    <glyph glyph-name="y" unicode="y" horiz-adv-x="528" 
d="M230 -94q-35 -60 -90.5 -92t-120.5 -32l5 31q49 0 94.5 24.5t71.5 68.5l57 94h-5l-131 500h41l118 -459l264 459h41z" />
    <glyph glyph-name="z" unicode="z" horiz-adv-x="511" 
d="M139 500h391l-5 -30l-420 -440h356l-5 -30h-401l5 30l420 440h-346z" />
    <glyph glyph-name="braceleft" unicode="{" horiz-adv-x="331" 
d="M184 203q6 44 -18.5 68.5t-72.5 24.5l5 30q47 0 80 24t39 69l33 209q10 60 53 92.5t109 32.5l-5 -30q-47 0 -79.5 -24t-40.5 -69l-33 -206q-6 -43 -30 -71t-60 -42q32 -14 47 -42.5t8 -70.5l-32 -205q-8 -45 17.5 -69t72.5 -24l-5 -30q-65 0 -98.5 32.5t-23.5 92.5z" />
    <glyph glyph-name="bar" unicode="|" horiz-adv-x="213" 
d="M198 700h37l-126 -800h-37z" />
    <glyph glyph-name="braceright" unicode="}" horiz-adv-x="331" 
d="M244 419q-6 -44 18.5 -68.5t72.5 -24.5l-5 -30q-47 0 -80 -24.5t-39 -68.5l-34 -208q-10 -60 -52.5 -92.5t-107.5 -32.5l5 30q47 0 79 24t40 69l32 205q7 42 31 70.5t61 42.5q-33 14 -48 42t-8 71l32 206q8 45 -17 69t-72 24l5 30q65 0 97.5 -32.5t22.5 -92.5z" />
    <glyph glyph-name="asciitilde" unicode="~" horiz-adv-x="438" 
d="M87 254q8 50 40 76.5t70 26.5q27 0 43.5 -13t30 -28t28 -28t39.5 -13q28 0 49.5 19t26.5 53h31q-4 -24 -14.5 -43.5t-25.5 -32.5t-32.5 -20t-35.5 -7q-29 0 -46.5 13t-31 28t-28 28t-37.5 13q-29 0 -50 -18.5t-26 -53.5h-31v0z" />
    <glyph glyph-name="exclamdown" unicode="&#xa1;" horiz-adv-x="216" 
d="M167 500h40l-17 -98h-39zM135 297h39l-78 -497h-40z" />
    <glyph glyph-name="cent" unicode="&#xa2;" horiz-adv-x="562" 
d="M279 -1q-96 5 -144.5 70.5t-31.5 180.5q9 57 32 102.5t56.5 77.5t76 50t91.5 21l16 99h37l-17 -99q36 -2 66 -14.5t50 -32.5t28.5 -48t3.5 -61h-39q4 28 -3.5 51.5t-25.5 40.5t-44 26t-59 9q-43 0 -81 -15t-68 -43.5t-51 -70t-29 -93.5q-8 -53 -0.5 -94t28.5 -69.5
t54.5 -43.5t76.5 -15q32 0 61.5 9t52.5 26t38 40t20 52h38q-5 -33 -22.5 -61t-43.5 -48.5t-59.5 -32.5t-70.5 -14l-15 -99h-37z" />
    <glyph glyph-name="sterling" unicode="&#xa3;" horiz-adv-x="574" 
d="M100 340h70l28 178q7 42 27.5 76t51 58t69 37.5t80.5 13.5t76 -13.5t56.5 -37.5t32.5 -58t3 -76l-6 -41h-40l6 41q5 34 -2.5 62t-25 48t-44.5 31t-61 11t-64.5 -11t-55 -31t-41 -48t-21.5 -62l-28 -178h260l-6 -32h-260l-43 -276h369l-5 -32h-480l5 32h71l43 276h-71z
" />
    <glyph glyph-name="currency" unicode="&#xa4;" horiz-adv-x="512" 
d="M147 325q5 32 17.5 59.5t30.5 47.5l-68 82l24 21l68 -82q47 38 115 38q65 0 100 -38l95 82l17 -21l-94 -82q25 -40 16 -107q-5 -33 -18 -60t-31 -47l68 -82l-24 -21l-70 81q-46 -37 -112 -37q-64 0 -103 37l-92 -81l-18 21l94 82q-26 41 -15 107zM179 325
q-11 -64 19 -100t87 -36q58 0 99 36t51 100q11 64 -19 100t-88 36q-57 0 -98 -36t-51 -100z" />
    <glyph glyph-name="yen" unicode="&#xa5;" horiz-adv-x="676" 
d="M211 243h145l8 50l-203 407h47l181 -370l301 370h47l-333 -407l-8 -50h146l-5 -28h-146l-14 -89h145l-4 -27h-145l-15 -99h-40l15 99h-146l4 27h146l14 89h-145z" />
    <glyph glyph-name="brokenbar" unicode="&#xa6;" horiz-adv-x="213" 
d="M127 250h37l-55 -350h-37zM180 350h-37l55 350h37z" />
    <glyph glyph-name="section" unicode="&#xa7;" horiz-adv-x="539" 
d="M88 -63q-4 -28 5.5 -50.5t30 -39t50.5 -25.5t67 -9q36 0 67.5 9t55.5 25.5t40 40.5t21 53q6 37 -6 60t-35.5 37t-55 22t-64 15.5t-63.5 17t-54 26.5t-34.5 44t-4.5 70q10 62 48 103.5t95 56.5q-23 8 -43 19t-33 27.5t-18.5 39.5t-0.5 56q6 39 25 70.5t48 53t66 33
t79 11.5q41 0 75 -10.5t57.5 -29.5t34 -45.5t5.5 -59.5h-37q4 25 -5 46t-27.5 36t-46.5 23.5t-61 8.5q-67 0 -115 -36.5t-58 -97.5q-6 -36 6 -58.5t35.5 -36.5t54.5 -22t64 -15.5t64 -17.5t54 -27.5t34 -46t4 -72.5q-10 -60 -50 -100t-100 -55q24 -8 45.5 -18.5t35.5 -27.5
t20.5 -41.5t0.5 -59.5q-6 -37 -25.5 -66.5t-49.5 -49.5t-69 -31t-84 -11t-82 11t-62 31.5t-36.5 49t-6.5 63.5h39zM474 241q5 36 -6.5 59t-34 37t-53 22.5t-62.5 15.5q-67 -2 -114 -40t-57 -101q-6 -36 5 -58t32.5 -35.5t50.5 -21t60 -14.5q34 1 64.5 11t54 27.5t39.5 42.5
t21 55z" />
    <glyph glyph-name="dieresis" unicode="&#xa8;" horiz-adv-x="414" 
d="M194 672h35l-14 -85h-35zM398 672h35l-14 -85h-35z" />
    <glyph glyph-name="copyright" unicode="&#xa9;" horiz-adv-x="807" 
d="M124 350q13 83 48 148.5t86.5 111t116.5 69.5t139 24q75 0 133 -24t95 -69.5t51 -111t1 -148.5t-48 -148.5t-86.5 -111t-117 -69.5t-140.5 -24q-74 0 -132 24t-94.5 69.5t-50.5 111t-1 148.5zM157 350q-12 -77 0.5 -136.5t45.5 -101t85 -63t119 -21.5t126 21.5t105.5 63
t78 101t43.5 136.5q12 76 -0.5 136t-45.5 101.5t-85 63t-119 21.5t-126 -21.5t-105.5 -63t-78 -101.5t-43.5 -136zM503 537q-37 0 -69.5 -12.5t-58 -36.5t-43.5 -59t-25 -79q-14 -89 24.5 -138t113.5 -49q56 0 98 32t50 84h33q-5 -32 -21.5 -58.5t-41.5 -45.5t-57 -29
t-66 -10q-45 0 -79.5 14.5t-57 42t-30.5 67t0 90.5q17 102 80.5 158t153.5 56q34 0 62.5 -10.5t48 -29t28 -45t3.5 -58.5h-33q8 52 -24 84t-89 32z" />
    <glyph glyph-name="ordfeminine" unicode="&#xaa;" horiz-adv-x="404" 
d="M365 431q-25 -40 -63 -61.5t-86 -21.5q-47 0 -73.5 23.5t-19.5 66.5q8 56 69 87t164 31h29l5 31q7 42 -17.5 65.5t-69.5 23.5q-44 0 -77.5 -22t-38.5 -59h-35q4 24 18 44t34.5 34t47 21.5t55.5 7.5q60 0 93 -30.5t25 -84.5l-38 -237h-33zM353 532q-88 0 -137.5 -24
t-56.5 -68q-5 -32 13.5 -49t53.5 -17q57 0 99.5 38t53.5 107l2 13h-28z" />
    <glyph glyph-name="guillemotleft" unicode="&#xab;" horiz-adv-x="459" 
d="M456 450l-8 -43l-154 -132l113 -132l-7 -43l-136 157l6 36zM297 450l-7 -43l-155 -132l114 -132l-8 -43l-136 157l6 36z" />
    <glyph glyph-name="logicalnot" unicode="&#xac;" horiz-adv-x="513" 
d="M124 365h357l-27 -165h-35l21 135h-322z" />
    <glyph glyph-name="uni00AD" unicode="&#xad;" horiz-adv-x="359" 
d="M112 290h227l-5 -30h-228z" />
    <glyph glyph-name="registered" unicode="&#xae;" horiz-adv-x="807" 
d="M124 350q13 83 48 148.5t86.5 111t116.5 69.5t139 24q75 0 133 -24t95 -69.5t51 -111t1 -148.5t-48 -148.5t-86.5 -111t-117 -69.5t-140.5 -24q-74 0 -132 24t-94.5 69.5t-50.5 111t-1 148.5zM157 350q-12 -77 0.5 -136.5t45.5 -101t85 -63t119 -21.5t126 21.5t105.5 63
t78 101t43.5 136.5q12 76 -0.5 136t-45.5 101.5t-85 63t-119 21.5t-126 -21.5t-105.5 -63t-78 -101.5t-43.5 -136zM379 531h129q48 0 74 -26t18 -73q-7 -44 -36 -69t-72 -30l80 -152h-35l-74 152h-85l-24 -152h-31zM406 509l-25 -154h93q38 0 64 20t31 57q6 37 -13.5 57
t-57.5 20h-92z" />
    <glyph glyph-name="macron" unicode="&#xaf;" horiz-adv-x="414" 
d="M192 643h234l-5 -30h-234z" />
    <glyph glyph-name="degree" unicode="&#xb0;" horiz-adv-x="334" 
d="M159 600q8 48 40.5 75.5t78.5 27.5t70 -27.5t16 -75.5t-40.5 -74.5t-78.5 -26.5t-70 26.5t-16 74.5zM186 600q-5 -36 11.5 -55.5t51.5 -19.5q34 0 58 19.5t29 55.5q6 37 -11 56.5t-51 19.5q-35 0 -58.5 -19.5t-29.5 -56.5z" />
    <glyph glyph-name="plusminus" unicode="&#xb1;" horiz-adv-x="489" 
d="M120 343h164l26 168h30l-27 -168h164l-5 -30h-163l-27 -168h-30l27 168h-163zM82 107h357l-5 -30h-356z" />
    <glyph glyph-name="uni00B2" unicode="&#xb2;" horiz-adv-x="317" 
d="M101 372q3 19 20.5 36.5t42.5 34.5t53.5 35t54 37t43.5 40t22 46q5 35 -14.5 56.5t-56.5 21.5q-38 0 -66.5 -22t-34.5 -57h-30q8 46 46 73.5t89 27.5t78 -26t19 -74q-4 -28 -22.5 -51t-43.5 -43.5t-53.5 -38t-53 -33.5t-41.5 -31.5t-20 -31.5h201l-3 -22h-233l3 22v0z
" />
    <glyph glyph-name="uni00B3" unicode="&#xb3;" horiz-adv-x="329" 
d="M212 541h32q37 0 62.5 18.5t30.5 51.5q6 32 -12.5 50t-55.5 18t-64.5 -20t-32.5 -53h-29q8 44 44.5 69.5t86.5 25.5t75.5 -23.5t19.5 -65.5q-5 -29 -24 -50t-47 -30q32 -8 48.5 -31.5t11.5 -58.5q-8 -45 -44 -69t-92 -24q-51 0 -81 26t-23 71h30q-6 -34 16 -54.5
t61 -20.5q41 0 69 19t34 54q5 35 -14.5 55t-57.5 20h-48z" />
    <glyph glyph-name="acute" unicode="&#xb4;" horiz-adv-x="216" 
d="M257 700h44l-146 -128h-39z" />
    <glyph glyph-name="mu" unicode="&#xb5;" horiz-adv-x="587" 
d="M167 500h40l-52 -322q-11 -72 24.5 -111t103.5 -39q40 0 75.5 15t64 43.5t48 69.5t28.5 94l40 250h39l-79 -500h-38l17 122q-33 -60 -86.5 -92.5t-117.5 -32.5q-51 0 -86 21t-49 60l-35 -228h-40z" />
    <glyph glyph-name="paragraph" unicode="&#xb6;" horiz-adv-x="594" 
d="M331 -100h-39l64 408h-30q-94 0 -143 51.5t-35 144.5q7 46 28 82.5t52.5 62t72 38.5t87.5 13h69zM572 700h38l-126 -800h-38z" />
    <glyph glyph-name="periodcentered" unicode="&#xb7;" horiz-adv-x="197" 
d="M119 307h55l-12 -76h-55z" />
    <glyph glyph-name="cedilla" unicode="&#xb8;" horiz-adv-x="301" 
d="M167 0l-4 -20q-4 -27 5 -39.5t21 -21.5t21.5 -19.5t5.5 -33.5q-5 -32 -29.5 -50.5t-57.5 -18.5q-24 0 -40 9t-26 23l4 27q12 -14 27.5 -23t36.5 -9q24 0 38.5 12t17.5 30q3 17 -7 25t-22 17t-20.5 24.5t-3.5 47.5l4 20h29z" />
    <glyph glyph-name="uni00B9" unicode="&#xb9;" horiz-adv-x="184" 
d="M138 664q41 0 56 7.5t19 28.5h27l-55 -350h-31l47 295h-66z" />
    <glyph glyph-name="ordmasculine" unicode="&#xba;" horiz-adv-x="447" 
d="M137 525q6 42 23.5 74.5t44 55.5t59.5 35t71 12q75 0 114.5 -46.5t26.5 -130.5q-7 -42 -24.5 -74.5t-43.5 -55.5t-59 -35t-70 -12q-38 0 -67.5 12t-48 35t-26 55.5t-0.5 74.5zM172 525q-11 -72 19.5 -111.5t90.5 -39.5q61 0 105 39.5t55 111.5t-20 111.5t-91 39.5
q-30 0 -56.5 -10t-47.5 -29.5t-35.5 -47.5t-19.5 -64z" />
    <glyph glyph-name="guillemotright" unicode="&#xbb;" horiz-adv-x="459" 
d="M90 100l7 43l155 132l-114 132l7 43l136 -157l-5 -36zM248 100l8 43l154 132l-113 132l7 43l136 -157l-5 -36z" />
    <glyph glyph-name="onequarter" unicode="&#xbc;" horiz-adv-x="614" 
d="M138 664q41 0 56 7.5t19 28.5h27l-55 -350h-31l47 295h-66zM555 700h36l-460 -700h-36zM516 72h-185l4 23l214 255h39l-40 -255h39l-4 -23h-39l-11 -72h-28zM520 95l35 225l-191 -225h156z" />
    <glyph glyph-name="onehalf" unicode="&#xbd;" horiz-adv-x="659" 
d="M138 664q41 0 56 7.5t19 28.5h27l-55 -350h-31l47 295h-66zM556 700h36l-460 -700h-36zM387 22q3 19 20.5 36.5t42.5 34.5t53.5 35t53.5 37t43 40t22 46q5 35 -14 56.5t-57 21.5t-66.5 -22t-34.5 -57h-30q8 46 46 73.5t89 27.5t78 -26t19 -74q-4 -28 -22.5 -51
t-43.5 -43.5t-53 -38t-52.5 -33.5t-42 -31.5t-19.5 -31.5h201l-3 -22h-233z" />
    <glyph glyph-name="threequarters" unicode="&#xbe;" horiz-adv-x="712" 
d="M212 541h32q37 0 62.5 18.5t30.5 51.5q6 32 -12.5 50t-55.5 18t-64.5 -20t-32.5 -53h-29q8 44 44.5 69.5t86.5 25.5t75.5 -23.5t19.5 -65.5q-5 -29 -24 -50t-47 -30q32 -8 48.5 -31.5t11.5 -58.5q-8 -45 -44 -69t-92 -24q-51 0 -81 26t-23 71h30q-6 -34 16 -54.5
t61 -20.5q41 0 69 19t34 54q5 35 -14.5 55t-57.5 20h-48zM651 700h36l-460 -700h-36zM614 72h-185l4 23l214 255h39l-40 -255h38l-4 -23h-38l-11 -72h-28zM618 95l35 225l-192 -225h157z" />
    <glyph glyph-name="questiondown" unicode="&#xbf;" horiz-adv-x="563" 
d="M346 277q-7 -42 -25 -69t-42 -46.5t-50.5 -34.5t-50.5 -33t-42 -42.5t-24 -63.5q-11 -74 29 -116.5t115 -42.5q37 0 71.5 12.5t61.5 35t46 54t25 69.5h38q-8 -45 -30 -82.5t-55 -64.5t-75 -41.5t-88 -14.5t-82 13t-59.5 37.5t-33.5 60t-3 80.5q7 44 25.5 72.5t42.5 47.5
t51 33.5t50.5 32t41.5 41.5t24 62l3 20h39zM365 402h-39l16 98h40z" />
    <glyph glyph-name="Agrave" unicode="&#xc0;" horiz-adv-x="670" 
d="M422 700h46l165 -700h-41l-52 215h-343l-118 -215h-42zM213 248h321l-95 411zM529 772h-39l-107 128h44z" />
    <glyph glyph-name="Aacute" unicode="&#xc1;" horiz-adv-x="670" 
d="M422 700h46l165 -700h-41l-52 215h-343l-118 -215h-42zM213 248h321l-95 411zM515 900h44l-146 -128h-39z" />
    <glyph glyph-name="Acircumflex" unicode="&#xc2;" horiz-adv-x="670" 
d="M422 700h46l165 -700h-41l-52 215h-343l-118 -215h-42zM213 248h321l-95 411zM600 772h-41l-87 108l-119 -108h-41l143 128h41z" />
    <glyph glyph-name="Atilde" unicode="&#xc3;" horiz-adv-x="670" 
d="M422 700h46l165 -700h-41l-52 215h-343l-118 -215h-42zM213 248h321l-95 411zM312 794q6 37 32 57.5t59 20.5q26 0 40.5 -8.5t25.5 -19t23.5 -19t34.5 -8.5q24 0 40.5 13.5t20.5 36.5h29q-6 -37 -33 -57.5t-59 -20.5q-25 0 -39.5 8.5t-26.5 18.5t-24.5 18.5t-32.5 8.5
q-24 0 -40.5 -13t-20.5 -36h-29z" />
    <glyph glyph-name="Adieresis" unicode="&#xc4;" horiz-adv-x="670" 
d="M422 700h46l165 -700h-41l-52 215h-343l-118 -215h-42zM213 248h321l-95 411zM353 872h35l-14 -85h-35zM557 872h35l-14 -85h-35z" />
    <glyph glyph-name="Aring" unicode="&#xc5;" horiz-adv-x="670" 
d="M422 700h46l165 -700h-41l-52 215h-343l-118 -215h-42zM213 248h321l-95 411zM379 836q7 42 34.5 65t66.5 23t60 -23t13 -65q-6 -41 -33.5 -63.5t-66.5 -22.5t-60 22.5t-14 63.5zM405 836q-4 -29 9.5 -45t41.5 -16t47 16t23 45q5 30 -8.5 46t-41.5 16t-47 -16t-24 -46z
" />
    <glyph glyph-name="AE" unicode="&#xc6;" horiz-adv-x="765" 
d="M370 215h-173l-118 -215h-42l383 700h399l-5 -32h-333l-46 -292h301l-5 -32h-301l-50 -312h338l-4 -32h-377zM375 248l67 420h-3l-226 -420h162z" />
    <glyph glyph-name="Ccedilla" unicode="&#xc7;" horiz-adv-x="708" 
d="M483 670q-60 0 -112.5 -21.5t-94.5 -62.5t-71 -100.5t-41 -135.5t-2 -135.5t39 -100.5t74.5 -62.5t105.5 -21.5q46 0 87 13.5t73.5 37.5t54.5 58t28 76h40q-8 -48 -32.5 -87.5t-61.5 -68t-83.5 -45t-98.5 -17.5l-3 -17q-4 -27 5 -39.5t21 -21.5t21.5 -19.5t5.5 -33.5
q-5 -32 -29.5 -50.5t-57.5 -18.5q-24 0 -40 9t-26 23l4 27q12 -14 27.5 -23t36.5 -9q24 0 38.5 12t17.5 30q3 17 -7 25t-22 17t-20.5 24.5t-3.5 47.5l3 18q-65 3 -114.5 28t-80.5 70t-42 109t2 145q13 83 46 148.5t81 111t108.5 69.5t129.5 24q54 0 97.5 -15.5t72.5 -44
t42 -69t5 -89.5h-39q6 42 -4.5 76t-35.5 58t-61.5 37.5t-82.5 13.5z" />
    <glyph glyph-name="Egrave" unicode="&#xc8;" horiz-adv-x="584" 
d="M204 700h434l-5 -32h-393l-46 -292h361l-5 -32h-361l-49 -312h398l-5 -32h-439zM511 772h-39l-107 128h44z" />
    <glyph glyph-name="Eacute" unicode="&#xc9;" horiz-adv-x="584" 
d="M204 700h434l-5 -32h-393l-46 -292h361l-5 -32h-361l-49 -312h398l-5 -32h-439zM506 900h44l-146 -128h-39z" />
    <glyph glyph-name="Ecircumflex" unicode="&#xca;" horiz-adv-x="584" 
d="M204 700h434l-5 -32h-393l-46 -292h361l-5 -32h-361l-49 -312h398l-5 -32h-439zM581 772h-41l-87 108l-119 -108h-41l143 128h41z" />
    <glyph glyph-name="Edieresis" unicode="&#xcb;" horiz-adv-x="584" 
d="M204 700h434l-5 -32h-393l-46 -292h361l-5 -32h-361l-49 -312h398l-5 -32h-439zM334 872h35l-14 -85h-35zM538 872h35l-14 -85h-35z" />
    <glyph glyph-name="Igrave" unicode="&#xcc;" horiz-adv-x="229" 
d="M204 700h41l-110 -700h-41zM309 772h-39l-107 128h44z" />
    <glyph glyph-name="Iacute" unicode="&#xcd;" horiz-adv-x="229" 
d="M204 700h41l-110 -700h-41zM304 900h44l-146 -128h-39z" />
    <glyph glyph-name="Icircumflex" unicode="&#xce;" horiz-adv-x="229" 
d="M204 700h41l-110 -700h-41zM381 772h-41l-87 108l-119 -108h-41l143 128h41z" />
    <glyph glyph-name="Idieresis" unicode="&#xcf;" horiz-adv-x="229" 
d="M204 700h41l-110 -700h-41zM134 872h35l-14 -85h-35zM338 872h35l-14 -85h-35z" />
    <glyph glyph-name="Eth" unicode="&#xd0;" horiz-adv-x="729" 
d="M178 348h-90l4 31h91l50 321h237q67 0 118.5 -23.5t84 -68.5t44 -110t-1.5 -148t-45 -148t-78.5 -110t-105.5 -68.5t-126 -23.5h-237zM363 32q58 0 109.5 21.5t92.5 62t69.5 100t40.5 134.5t2 134.5t-38 100t-73 62t-103 21.5h-194l-46 -289h198l-4 -31h-198l-50 -316
h194z" />
    <glyph glyph-name="Ntilde" unicode="&#xd1;" horiz-adv-x="716" 
d="M134 0h-40l110 700h40l348 -635l100 635h39l-110 -700h-40l-347 635zM336 794q6 37 32 57.5t59 20.5q26 0 40.5 -8.5t25.5 -19t23.5 -19t34.5 -8.5q24 0 40.5 13.5t20.5 36.5h29q-6 -37 -33 -57.5t-59 -20.5q-25 0 -39.5 8.5t-26.5 18.5t-24.5 18.5t-32.5 8.5
q-24 0 -40.5 -13t-20.5 -36h-29z" />
    <glyph glyph-name="Ograve" unicode="&#xd2;" horiz-adv-x="755" 
d="M124 350q13 83 46 148.5t81 111t108.5 69.5t129.5 24t122 -24t86.5 -69.5t45.5 -111t-1 -148.5t-46 -148.5t-81 -111t-108.5 -69.5t-129.5 -24t-122 24t-86.5 69.5t-45.5 111t1 148.5zM164 350q-12 -76 -2 -135.5t39 -100.5t75 -62.5t106 -21.5t112.5 21.5t94.5 62.5
t71 100.5t41 135.5t2 135.5t-39 100.5t-74.5 62.5t-105.5 21.5t-113 -21.5t-95 -62.5t-71 -100.5t-41 -135.5zM572 772h-39l-107 128h44z" />
    <glyph glyph-name="Oacute" unicode="&#xd3;" horiz-adv-x="755" 
d="M124 350q13 83 46 148.5t81 111t108.5 69.5t129.5 24t122 -24t86.5 -69.5t45.5 -111t-1 -148.5t-46 -148.5t-81 -111t-108.5 -69.5t-129.5 -24t-122 24t-86.5 69.5t-45.5 111t1 148.5zM164 350q-12 -76 -2 -135.5t39 -100.5t75 -62.5t106 -21.5t112.5 21.5t94.5 62.5
t71 100.5t41 135.5t2 135.5t-39 100.5t-74.5 62.5t-105.5 21.5t-113 -21.5t-95 -62.5t-71 -100.5t-41 -135.5zM567 900h44l-146 -128h-39z" />
    <glyph glyph-name="Ocircumflex" unicode="&#xd4;" horiz-adv-x="755" 
d="M124 350q13 83 46 148.5t81 111t108.5 69.5t129.5 24t122 -24t86.5 -69.5t45.5 -111t-1 -148.5t-46 -148.5t-81 -111t-108.5 -69.5t-129.5 -24t-122 24t-86.5 69.5t-45.5 111t1 148.5zM164 350q-12 -76 -2 -135.5t39 -100.5t75 -62.5t106 -21.5t112.5 21.5t94.5 62.5
t71 100.5t41 135.5t2 135.5t-39 100.5t-74.5 62.5t-105.5 21.5t-113 -21.5t-95 -62.5t-71 -100.5t-41 -135.5zM643 772h-41l-87 108l-119 -108h-41l143 128h41z" />
    <glyph glyph-name="Otilde" unicode="&#xd5;" horiz-adv-x="755" 
d="M124 350q13 83 46 148.5t81 111t108.5 69.5t129.5 24t122 -24t86.5 -69.5t45.5 -111t-1 -148.5t-46 -148.5t-81 -111t-108.5 -69.5t-129.5 -24t-122 24t-86.5 69.5t-45.5 111t1 148.5zM164 350q-12 -76 -2 -135.5t39 -100.5t75 -62.5t106 -21.5t112.5 21.5t94.5 62.5
t71 100.5t41 135.5t2 135.5t-39 100.5t-74.5 62.5t-105.5 21.5t-113 -21.5t-95 -62.5t-71 -100.5t-41 -135.5zM355 794q6 37 32 57.5t59 20.5q26 0 40.5 -8.5t25.5 -19t23.5 -19t34.5 -8.5q24 0 40.5 13.5t20.5 36.5h29q-6 -37 -33 -57.5t-59 -20.5q-25 0 -39.5 8.5
t-26.5 18.5t-24.5 18.5t-32.5 8.5q-24 0 -40.5 -13t-20.5 -36h-29z" />
    <glyph glyph-name="Odieresis" unicode="&#xd6;" horiz-adv-x="755" 
d="M124 350q13 83 46 148.5t81 111t108.5 69.5t129.5 24t122 -24t86.5 -69.5t45.5 -111t-1 -148.5t-46 -148.5t-81 -111t-108.5 -69.5t-129.5 -24t-122 24t-86.5 69.5t-45.5 111t1 148.5zM164 350q-12 -76 -2 -135.5t39 -100.5t75 -62.5t106 -21.5t112.5 21.5t94.5 62.5
t71 100.5t41 135.5t2 135.5t-39 100.5t-74.5 62.5t-105.5 21.5t-113 -21.5t-95 -62.5t-71 -100.5t-41 -135.5zM396 872h35l-14 -85h-35zM600 872h35l-14 -85h-35z" />
    <glyph glyph-name="multiply" unicode="&#xd7;" horiz-adv-x="490" 
d="M186 450l109 -130l151 130l17 -21l-150 -130l109 -129l-24 -21l-109 129l-151 -129l-18 21l151 129l-109 130z" />
    <glyph glyph-name="Oslash" unicode="&#xd8;" horiz-adv-x="755" 
d="M174 83q-37 46 -50.5 112.5t0.5 154.5q13 83 46 148.5t81 111t108.5 69.5t129.5 24q57 0 102.5 -16.5t79.5 -47.5l55 61h40l-75 -83q37 -46 51 -113t0 -154q-13 -83 -46 -148.5t-81 -111t-108.5 -69.5t-129.5 -24q-116 0 -184 65l-55 -62h-39zM702 350q12 77 2 136
t-39 101l-446 -497q59 -61 162 -61q60 0 113 21.5t95.5 63t71.5 101t41 135.5zM163 350q-12 -77 -2 -136t39 -101l445 497q-59 61 -161 61q-60 0 -113 -21.5t-95.5 -63t-71.5 -101t-41 -135.5z" />
    <glyph glyph-name="Ugrave" unicode="&#xd9;" horiz-adv-x="718" 
d="M694 700h41l-74 -468q-9 -53 -36 -96.5t-67.5 -74t-91.5 -47.5t-108 -17t-102.5 17t-76.5 47.5t-44 74t-5 96.5l74 468h40l-74 -468q-7 -45 4 -82.5t37 -64t65 -41t87 -14.5t91.5 14.5t78 41t57.5 64t30 82.5zM553 772h-39l-107 128h44z" />
    <glyph glyph-name="Uacute" unicode="&#xda;" horiz-adv-x="718" 
d="M694 700h41l-74 -468q-9 -53 -36 -96.5t-67.5 -74t-91.5 -47.5t-108 -17t-102.5 17t-76.5 47.5t-44 74t-5 96.5l74 468h40l-74 -468q-7 -45 4 -82.5t37 -64t65 -41t87 -14.5t91.5 14.5t78 41t57.5 64t30 82.5zM548 900h44l-146 -128h-39z" />
    <glyph glyph-name="Ucircumflex" unicode="&#xdb;" horiz-adv-x="718" 
d="M694 700h41l-74 -468q-9 -53 -36 -96.5t-67.5 -74t-91.5 -47.5t-108 -17t-102.5 17t-76.5 47.5t-44 74t-5 96.5l74 468h40l-74 -468q-7 -45 4 -82.5t37 -64t65 -41t87 -14.5t91.5 14.5t78 41t57.5 64t30 82.5zM625 772h-41l-87 108l-119 -108h-41l143 128h41z" />
    <glyph glyph-name="Udieresis" unicode="&#xdc;" horiz-adv-x="718" 
d="M694 700h41l-74 -468q-9 -53 -36 -96.5t-67.5 -74t-91.5 -47.5t-108 -17t-102.5 17t-76.5 47.5t-44 74t-5 96.5l74 468h40l-74 -468q-7 -45 4 -82.5t37 -64t65 -41t87 -14.5t91.5 14.5t78 41t57.5 64t30 82.5zM377 872h35l-14 -85h-35zM581 872h35l-14 -85h-35z" />
    <glyph glyph-name="Yacute" unicode="&#xdd;" horiz-adv-x="676" 
d="M364 293l-203 407h47l181 -370l301 370h47l-333 -407l-46 -293h-40zM527 900h44l-146 -128h-39z" />
    <glyph glyph-name="Thorn" unicode="&#xde;" horiz-adv-x="584" 
d="M204 698h40l-23 -149h171q46 0 83 -13t60.5 -38t33 -61.5t2.5 -82.5t-28 -82t-53 -61t-72.5 -38.5t-86.5 -13.5h-172l-24 -159h-41zM216 517l-52 -326h167q39 0 73 11t60.5 32t44 51.5t23.5 68.5q12 78 -29.5 120.5t-119.5 42.5h-167z" />
    <glyph glyph-name="germandbls" unicode="&#xdf;" 
d="M253 152q-9 -56 24.5 -90t93.5 -34q57 0 97.5 27.5t48.5 76.5q6 39 -9.5 59t-42 31t-58 18t-57.5 20t-41 37.5t-8 70.5q6 42 27 70t45 51.5t44.5 47t26.5 57.5q7 46 -16 74.5t-78 28.5q-51 0 -86 -27t-42 -76l-129 -809h-40l129 808q10 66 56 100.5t118 34.5
q38 0 64.5 -10t42 -28t20 -42.5t0.5 -53.5q-6 -40 -27 -66.5t-45 -49.5t-44.5 -48t-26.5 -62q-4 -28 4 -45.5t24.5 -28.5t38 -17t44.5 -12.5t44.5 -14.5t37 -22.5t22.5 -37.5t1 -58q-10 -64 -62 -99.5t-127 -35.5q-38 0 -68 11t-50.5 31.5t-29 49t-3.5 63.5h37z" />
    <glyph glyph-name="agrave" unicode="&#xe0;" 
d="M517 0h-37l16 122q-33 -60 -86.5 -92.5t-118.5 -32.5q-50 0 -89.5 17t-64.5 49.5t-34 79.5t0 107q10 60 34 107t59.5 79.5t80 49.5t94.5 17q65 0 108 -32t59 -92l21 121h37zM517 250q8 52 1.5 93.5t-25.5 70t-50 43.5t-71 15q-43 0 -81 -15t-68 -43.5t-51 -70t-29 -93.5
q-8 -53 -0.5 -94t28.5 -69.5t54 -43.5t76 -15q81 0 140 58t76 164zM464 572h-39l-107 128h44z" />
    <glyph glyph-name="aacute" unicode="&#xe1;" 
d="M517 0h-37l16 122q-33 -60 -86.5 -92.5t-118.5 -32.5q-50 0 -89.5 17t-64.5 49.5t-34 79.5t0 107q10 60 34 107t59.5 79.5t80 49.5t94.5 17q65 0 108 -32t59 -92l21 121h37zM517 250q8 52 1.5 93.5t-25.5 70t-50 43.5t-71 15q-43 0 -81 -15t-68 -43.5t-51 -70t-29 -93.5
q-8 -53 -0.5 -94t28.5 -69.5t54 -43.5t76 -15q81 0 140 58t76 164zM459 700h44l-146 -128h-39z" />
    <glyph glyph-name="acircumflex" unicode="&#xe2;" 
d="M517 0h-37l16 122q-33 -60 -86.5 -92.5t-118.5 -32.5q-50 0 -89.5 17t-64.5 49.5t-34 79.5t0 107q10 60 34 107t59.5 79.5t80 49.5t94.5 17q65 0 108 -32t59 -92l21 121h37zM517 250q8 52 1.5 93.5t-25.5 70t-50 43.5t-71 15q-43 0 -81 -15t-68 -43.5t-51 -70t-29 -93.5
q-8 -53 -0.5 -94t28.5 -69.5t54 -43.5t76 -15q81 0 140 58t76 164zM533 572h-41l-87 108l-119 -108h-41l143 128h41z" />
    <glyph glyph-name="atilde" unicode="&#xe3;" 
d="M517 0h-37l16 122q-33 -60 -86.5 -92.5t-118.5 -32.5q-50 0 -89.5 17t-64.5 49.5t-34 79.5t0 107q10 60 34 107t59.5 79.5t80 49.5t94.5 17q65 0 108 -32t59 -92l21 121h37zM517 250q8 52 1.5 93.5t-25.5 70t-50 43.5t-71 15q-43 0 -81 -15t-68 -43.5t-51 -70t-29 -93.5
q-8 -53 -0.5 -94t28.5 -69.5t54 -43.5t76 -15q81 0 140 58t76 164zM245 594q6 37 32 57.5t59 20.5q26 0 40.5 -8.5t25.5 -19t23.5 -19t34.5 -8.5q24 0 40.5 13.5t20.5 36.5h29q-6 -37 -33 -57.5t-59 -20.5q-25 0 -39.5 8.5t-26.5 18.5t-24.5 18.5t-32.5 8.5q-24 0 -40.5 -13
t-20.5 -36h-29z" />
    <glyph glyph-name="adieresis" unicode="&#xe4;" 
d="M517 0h-37l16 122q-33 -60 -86.5 -92.5t-118.5 -32.5q-50 0 -89.5 17t-64.5 49.5t-34 79.5t0 107q10 60 34 107t59.5 79.5t80 49.5t94.5 17q65 0 108 -32t59 -92l21 121h37zM517 250q8 52 1.5 93.5t-25.5 70t-50 43.5t-71 15q-43 0 -81 -15t-68 -43.5t-51 -70t-29 -93.5
q-8 -53 -0.5 -94t28.5 -69.5t54 -43.5t76 -15q81 0 140 58t76 164zM285 672h35l-14 -85h-35zM489 672h35l-14 -85h-35z" />
    <glyph glyph-name="aring" unicode="&#xe5;" 
d="M517 0h-37l16 122q-33 -60 -86.5 -92.5t-118.5 -32.5q-50 0 -89.5 17t-64.5 49.5t-34 79.5t0 107q10 60 34 107t59.5 79.5t80 49.5t94.5 17q65 0 108 -32t59 -92l21 121h37zM517 250q8 52 1.5 93.5t-25.5 70t-50 43.5t-71 15q-43 0 -81 -15t-68 -43.5t-51 -70t-29 -93.5
q-8 -53 -0.5 -94t28.5 -69.5t54 -43.5t76 -15q81 0 140 58t76 164zM309 636q7 42 34.5 65t66.5 23t60 -23t13 -65q-6 -41 -33.5 -63.5t-66.5 -22.5t-60 22.5t-14 63.5zM335 636q-4 -29 9.5 -45t41.5 -16t47 16t23 45q5 30 -8.5 46t-41.5 16t-47 -16t-24 -46z" />
    <glyph glyph-name="ae" unicode="&#xe6;" horiz-adv-x="915" 
d="M716 503q45 0 80.5 -16t57.5 -49t29 -82.5t-5 -115.5h-397q-14 -100 30 -156t130 -56q34 0 65 9t55.5 25.5t40.5 39t20 50.5h38q-5 -35 -25 -63.5t-50 -49t-68 -31.5t-81 -11q-80 0 -129.5 41.5t-58.5 117.5q-31 -71 -90 -115t-148 -44q-32 0 -58 8.5t-42.5 25
t-23.5 40.5t-2 54q13 80 97 123.5t229 43.5h40l7 46q10 63 -24.5 98.5t-99.5 35.5q-32 0 -60.5 -9t-51 -24.5t-38 -37.5t-19.5 -49h-38q5 34 24 62t47.5 47.5t64.5 30.5t76 11q70 0 111.5 -34.5t41.5 -97.5q35 63 92.5 97.5t132.5 34.5zM711 472q-41 0 -78.5 -13.5
t-67.5 -39.5t-51 -63.5t-28 -85.5h358q7 48 0.5 85.5t-24.5 63.5t-46 39.5t-63 13.5zM405 263q-128 0 -199.5 -36t-82.5 -100q-7 -48 19.5 -73.5t77.5 -25.5q42 0 79 14.5t66 42.5t49.5 68t28.5 91l3 19h-41z" />
    <glyph glyph-name="ccedilla" unicode="&#xe7;" horiz-adv-x="562" 
d="M372 472q-43 0 -81 -15t-68 -43.5t-51 -70t-29 -93.5q-8 -53 -0.5 -94t28.5 -69.5t54.5 -43.5t76.5 -15q32 0 61.5 9t52.5 26t38 40t20 52h38q-5 -34 -23 -62t-44.5 -48.5t-60.5 -32.5t-72 -14l-3 -18q-4 -27 5 -39.5t21 -21.5t21.5 -19.5t5.5 -33.5q-5 -32 -29.5 -50.5
t-57.5 -18.5q-24 0 -40 9t-26 23l4 27q12 -14 27.5 -23t36.5 -9q24 0 38.5 12t17.5 30q3 17 -7 25t-22 17t-20.5 24.5t-3.5 47.5l3 17q-48 2 -85.5 20.5t-61.5 50.5t-33 78t0 104q10 60 34.5 107t60.5 79.5t81.5 49.5t97.5 17q40 0 73 -11.5t55.5 -32t32.5 -49.5t5 -65h-39
q4 28 -3.5 51.5t-25.5 40.5t-44 26t-59 9z" />
    <glyph glyph-name="egrave" unicode="&#xe8;" horiz-adv-x="576" 
d="M377 503q45 0 80.5 -16t57.5 -49t29.5 -82.5t-4.5 -115.5h-398q-14 -100 30 -156t130 -56q34 0 65 9t55.5 25.5t40.5 39t20 50.5h38q-5 -35 -25 -63.5t-50 -49t-68 -31.5t-81 -11q-52 0 -92 17t-66 49.5t-35.5 79.5t-0.5 107q10 60 34 107t59.5 79.5t81.5 49.5t99 17z
M372 472q-41 0 -78.5 -13.5t-67.5 -39.5t-51 -63.5t-28 -85.5h358q7 48 0.5 85.5t-24.5 63.5t-46 39.5t-63 13.5zM470 572h-39l-107 128h44z" />
    <glyph glyph-name="eacute" unicode="&#xe9;" horiz-adv-x="576" 
d="M377 503q45 0 80.5 -16t57.5 -49t29.5 -82.5t-4.5 -115.5h-398q-14 -100 30 -156t130 -56q34 0 65 9t55.5 25.5t40.5 39t20 50.5h38q-5 -35 -25 -63.5t-50 -49t-68 -31.5t-81 -11q-52 0 -92 17t-66 49.5t-35.5 79.5t-0.5 107q10 60 34 107t59.5 79.5t81.5 49.5t99 17z
M372 472q-41 0 -78.5 -13.5t-67.5 -39.5t-51 -63.5t-28 -85.5h358q7 48 0.5 85.5t-24.5 63.5t-46 39.5t-63 13.5zM447 700h44l-146 -128h-39z" />
    <glyph glyph-name="ecircumflex" unicode="&#xea;" horiz-adv-x="576" 
d="M377 503q45 0 80.5 -16t57.5 -49t29.5 -82.5t-4.5 -115.5h-398q-14 -100 30 -156t130 -56q34 0 65 9t55.5 25.5t40.5 39t20 50.5h38q-5 -35 -25 -63.5t-50 -49t-68 -31.5t-81 -11q-52 0 -92 17t-66 49.5t-35.5 79.5t-0.5 107q10 60 34 107t59.5 79.5t81.5 49.5t99 17z
M372 472q-41 0 -78.5 -13.5t-67.5 -39.5t-51 -63.5t-28 -85.5h358q7 48 0.5 85.5t-24.5 63.5t-46 39.5t-63 13.5zM533 572h-41l-87 108l-119 -108h-41l143 128h41z" />
    <glyph glyph-name="edieresis" unicode="&#xeb;" horiz-adv-x="576" 
d="M377 503q45 0 80.5 -16t57.5 -49t29.5 -82.5t-4.5 -115.5h-398q-14 -100 30 -156t130 -56q34 0 65 9t55.5 25.5t40.5 39t20 50.5h38q-5 -35 -25 -63.5t-50 -49t-68 -31.5t-81 -11q-52 0 -92 17t-66 49.5t-35.5 79.5t-0.5 107q10 60 34 107t59.5 79.5t81.5 49.5t99 17z
M372 472q-41 0 -78.5 -13.5t-67.5 -39.5t-51 -63.5t-28 -85.5h358q7 48 0.5 85.5t-24.5 63.5t-46 39.5t-63 13.5zM285 672h35l-14 -85h-35zM489 672h35l-14 -85h-35z" />
    <glyph glyph-name="igrave" unicode="&#xec;" horiz-adv-x="227" 
d="M263 572h-39l-107 128h44zM167 500h40l-67 -419q-4 -25 7.5 -39t34.5 -14l-4 -31q-43 0 -63.5 21t-14.5 62z" />
    <glyph glyph-name="iacute" unicode="&#xed;" horiz-adv-x="227" 
d="M276 700h44l-146 -128h-39zM167 500h40l-67 -419q-4 -25 7.5 -39t34.5 -14l-4 -31q-43 0 -63.5 21t-14.5 62z" />
    <glyph glyph-name="icircumflex" unicode="&#xee;" horiz-adv-x="227" 
d="M167 500h40l-67 -419q-4 -25 7.5 -39t34.5 -14l-4 -31q-43 0 -63.5 21t-14.5 62zM343 572h-41l-87 108l-119 -108h-41l143 128h41z" />
    <glyph glyph-name="idieresis" unicode="&#xef;" horiz-adv-x="227" 
d="M95 672h35l-14 -85h-35zM299 672h35l-14 -85h-35zM167 500h40l-67 -419q-4 -25 7.5 -39t34.5 -14l-4 -31q-43 0 -63.5 21t-14.5 62z" />
    <glyph glyph-name="eth" unicode="&#xf0;" horiz-adv-x="582" 
d="M486 640q-21 21 -47 33t-55.5 18t-60.5 7t-62 1l5 29q40 0 76.5 -2t68.5 -9t58.5 -20.5t47.5 -35.5l93 66l-4 -33l-74 -50q35 -47 44 -131.5t-13 -224.5q-13 -79 -39 -134.5t-61.5 -90t-79.5 -50.5t-92 -16q-51 0 -90 17t-63.5 49.5t-33.5 79.5t0 107t33 107t58.5 79.5
t78 49.5t92.5 17q65 0 108.5 -29.5t62.5 -83.5q9 87 -0.5 142.5t-33.5 90.5l-96 -67l5 32zM517 250q17 106 -25.5 164t-125.5 58q-42 0 -79 -15t-66 -43.5t-49.5 -70t-28.5 -93.5q-8 -53 -1 -94t27 -69.5t52.5 -43.5t74.5 -15q41 0 77.5 15t66 43.5t49.5 69.5t28 94z" />
    <glyph glyph-name="ntilde" unicode="&#xf1;" horiz-adv-x="587" 
d="M128 0h-40l79 500h38l-18 -122q34 60 87.5 92.5t118.5 32.5q82 0 125.5 -48t30.5 -134l-50 -321h-39l50 321q11 72 -24.5 111.5t-103.5 39.5q-40 0 -75.5 -15t-63.5 -43.5t-48 -70t-28 -93.5zM240 594q6 37 32 57.5t59 20.5q26 0 40.5 -8.5t25.5 -19t23.5 -19t34.5 -8.5
q24 0 40.5 13.5t20.5 36.5h29q-6 -37 -33 -57.5t-59 -20.5q-25 0 -39.5 8.5t-26.5 18.5t-24.5 18.5t-32.5 8.5q-24 0 -40.5 -13t-20.5 -36h-29z" />
    <glyph glyph-name="ograve" unicode="&#xf2;" horiz-adv-x="597" 
d="M103 250q10 60 34.5 107t60.5 79.5t81.5 49.5t97.5 17t92.5 -17t66 -49.5t35 -79.5t0.5 -107t-33.5 -107t-60.5 -79.5t-82 -49.5t-98 -17t-92 17t-66 49.5t-35.5 79.5t-0.5 107zM143 250q-8 -53 -0.5 -94t28.5 -69.5t54.5 -43.5t76.5 -15t81.5 15t68.5 43.5t51 69.5
t29 94q8 52 0.5 93.5t-28.5 70t-54.5 43.5t-76.5 15q-88 0 -150.5 -58t-79.5 -164zM461 572h-39l-107 128h44z" />
    <glyph glyph-name="oacute" unicode="&#xf3;" horiz-adv-x="597" 
d="M103 250q10 60 34.5 107t60.5 79.5t81.5 49.5t97.5 17t92.5 -17t66 -49.5t35 -79.5t0.5 -107t-33.5 -107t-60.5 -79.5t-82 -49.5t-98 -17t-92 17t-66 49.5t-35.5 79.5t-0.5 107zM143 250q-8 -53 -0.5 -94t28.5 -69.5t54.5 -43.5t76.5 -15t81.5 15t68.5 43.5t51 69.5
t29 94q8 52 0.5 93.5t-28.5 70t-54.5 43.5t-76.5 15q-88 0 -150.5 -58t-79.5 -164zM447 700h44l-146 -128h-39z" />
    <glyph glyph-name="ocircumflex" unicode="&#xf4;" horiz-adv-x="597" 
d="M103 250q10 60 34.5 107t60.5 79.5t81.5 49.5t97.5 17t92.5 -17t66 -49.5t35 -79.5t0.5 -107t-33.5 -107t-60.5 -79.5t-82 -49.5t-98 -17t-92 17t-66 49.5t-35.5 79.5t-0.5 107zM143 250q-8 -53 -0.5 -94t28.5 -69.5t54.5 -43.5t76.5 -15t81.5 15t68.5 43.5t51 69.5
t29 94q8 52 0.5 93.5t-28.5 70t-54.5 43.5t-76.5 15q-88 0 -150.5 -58t-79.5 -164zM533 572h-41l-87 108l-119 -108h-41l143 128h41z" />
    <glyph glyph-name="otilde" unicode="&#xf5;" horiz-adv-x="597" 
d="M103 250q10 60 34.5 107t60.5 79.5t81.5 49.5t97.5 17t92.5 -17t66 -49.5t35 -79.5t0.5 -107t-33.5 -107t-60.5 -79.5t-82 -49.5t-98 -17t-92 17t-66 49.5t-35.5 79.5t-0.5 107zM143 250q-8 -53 -0.5 -94t28.5 -69.5t54.5 -43.5t76.5 -15t81.5 15t68.5 43.5t51 69.5
t29 94q8 52 0.5 93.5t-28.5 70t-54.5 43.5t-76.5 15q-88 0 -150.5 -58t-79.5 -164zM245 594q6 37 32 57.5t59 20.5q26 0 40.5 -8.5t25.5 -19t23.5 -19t34.5 -8.5q24 0 40.5 13.5t20.5 36.5h29q-6 -37 -33 -57.5t-59 -20.5q-25 0 -39.5 8.5t-26.5 18.5t-24.5 18.5t-32.5 8.5
q-24 0 -40.5 -13t-20.5 -36h-29z" />
    <glyph glyph-name="odieresis" unicode="&#xf6;" horiz-adv-x="597" 
d="M103 250q10 60 34.5 107t60.5 79.5t81.5 49.5t97.5 17t92.5 -17t66 -49.5t35 -79.5t0.5 -107t-33.5 -107t-60.5 -79.5t-82 -49.5t-98 -17t-92 17t-66 49.5t-35.5 79.5t-0.5 107zM143 250q-8 -53 -0.5 -94t28.5 -69.5t54.5 -43.5t76.5 -15t81.5 15t68.5 43.5t51 69.5
t29 94q8 52 0.5 93.5t-28.5 70t-54.5 43.5t-76.5 15q-88 0 -150.5 -58t-79.5 -164zM285 672h35l-14 -85h-35zM489 672h35l-14 -85h-35z" />
    <glyph glyph-name="divide" unicode="&#xf7;" horiz-adv-x="489" 
d="M115 311h357l-6 -30h-356zM246 174h51l-13 -81h-51zM298 500h51l-13 -81h-51z" />
    <glyph glyph-name="oslash" unicode="&#xf8;" horiz-adv-x="597" 
d="M142 59q-28 33 -38.5 80.5t-0.5 110.5q10 60 34.5 107t60.5 79.5t81.5 49.5t97.5 17q42 0 76 -11.5t60 -32.5l38 41h37l-56 -60q28 -33 38.5 -80.5t0.5 -109.5q-9 -60 -33.5 -107t-60.5 -79.5t-82 -49.5t-98 -17q-84 0 -136 43l-37 -40h-37zM142 250q-9 -53 -1.5 -93.5
t27.5 -69.5l320 345q-43 41 -115 41q-44 0 -82 -15t-68.5 -43.5t-51.5 -70t-29 -94.5zM533 250q8 52 0.5 92.5t-27.5 69.5l-320 -345q45 -40 116 -40q43 0 81.5 15t69 43.5t51.5 70t29 94.5z" />
    <glyph glyph-name="ugrave" unicode="&#xf9;" horiz-adv-x="587" 
d="M539 500h39l-79 -500h-38l17 122q-34 -60 -87.5 -92.5t-118.5 -32.5q-41 0 -73 12t-52.5 35.5t-29 57t-1.5 76.5l51 322h40l-52 -322q-11 -72 24.5 -111t103.5 -39q40 0 75.5 15t64 43.5t48 69.5t28.5 94zM457 572h-39l-107 128h44z" />
    <glyph glyph-name="uacute" unicode="&#xfa;" horiz-adv-x="587" 
d="M539 500h39l-79 -500h-38l17 122q-34 -60 -87.5 -92.5t-118.5 -32.5q-41 0 -73 12t-52.5 35.5t-29 57t-1.5 76.5l51 322h40l-52 -322q-11 -72 24.5 -111t103.5 -39q40 0 75.5 15t64 43.5t48 69.5t28.5 94zM452 700h44l-146 -128h-39z" />
    <glyph glyph-name="ucircumflex" unicode="&#xfb;" horiz-adv-x="587" 
d="M539 500h39l-79 -500h-38l17 122q-34 -60 -87.5 -92.5t-118.5 -32.5q-41 0 -73 12t-52.5 35.5t-29 57t-1.5 76.5l51 322h40l-52 -322q-11 -72 24.5 -111t103.5 -39q40 0 75.5 15t64 43.5t48 69.5t28.5 94zM528 572h-41l-87 108l-119 -108h-41l143 128h41z" />
    <glyph glyph-name="udieresis" unicode="&#xfc;" horiz-adv-x="587" 
d="M539 500h39l-79 -500h-38l17 122q-34 -60 -87.5 -92.5t-118.5 -32.5q-41 0 -73 12t-52.5 35.5t-29 57t-1.5 76.5l51 322h40l-52 -322q-11 -72 24.5 -111t103.5 -39q40 0 75.5 15t64 43.5t48 69.5t28.5 94zM281 672h35l-14 -85h-35zM485 672h35l-14 -85h-35z" />
    <glyph glyph-name="yacute" unicode="&#xfd;" horiz-adv-x="528" 
d="M230 -94q-35 -60 -90.5 -92t-120.5 -32l5 31q49 0 94.5 24.5t71.5 68.5l57 94h-5l-131 500h41l118 -459l264 459h41zM422 700h44l-146 -128h-39z" />
    <glyph glyph-name="thorn" unicode="&#xfe;" horiz-adv-x="606" 
d="M202 725h40l-55 -347q34 60 87.5 92.5t117.5 32.5q51 0 90 -17t64 -49.5t34 -79.5t0 -107t-33.5 -107t-59.5 -79.5t-79.5 -49.5t-95.5 -17q-64 0 -107 31.5t-59 91.5l-53 -335h-40zM167 250q-8 -53 -1.5 -94t25.5 -69.5t50 -43.5t71 -15q43 0 81 15t68 43.5t51 69.5
t29 94q8 52 0.5 93.5t-28.5 70t-54.5 43.5t-76.5 15q-40 0 -75.5 -15t-63.5 -43.5t-48 -70t-28 -93.5z" />
    <glyph glyph-name="ydieresis" unicode="&#xff;" horiz-adv-x="528" 
d="M230 -94q-35 -60 -90.5 -92t-120.5 -32l5 31q49 0 94.5 24.5t71.5 68.5l57 94h-5l-131 500h41l118 -459l264 459h41zM251 672h35l-14 -85h-35zM455 672h35l-14 -85h-35z" />
    <glyph glyph-name="dotlessi" unicode="&#x131;" horiz-adv-x="227" 
d="M167 500h40l-67 -419q-4 -25 7.5 -39t34.5 -14l-4 -31q-43 0 -63.5 21t-14.5 62z" />
    <glyph glyph-name="OE" unicode="&#x152;" horiz-adv-x="916" 
d="M491 24q-60 -27 -131 -27q-65 0 -115 24t-81 69.5t-42 111t2 148.5t44.5 148.5t77.5 111t103.5 69.5t122.5 24q69 0 122 -28l4 25h371l-5 -32h-333l-46 -292h302l-5 -32h-302l-49 -312h338l-5 -32h-376zM367 30q72 0 130 34l90 571q-47 35 -118 35q-56 0 -106.5 -21.5
t-90.5 -62.5t-68 -100.5t-40 -135.5t-3 -135.5t36 -100.5t70 -62.5t100 -21.5z" />
    <glyph glyph-name="oe" unicode="&#x153;" horiz-adv-x="1004" 
d="M805 503q45 0 80.5 -16t57.5 -49t29 -82.5t-5 -115.5h-398q-7 -50 1.5 -89.5t29.5 -66.5t54 -41.5t75 -14.5q34 0 65.5 9t55.5 25.5t40 39t20 50.5h39q-6 -35 -25.5 -63.5t-49.5 -49t-68.5 -31.5t-80.5 -11q-81 0 -130.5 41.5t-58.5 118.5q-32 -77 -95.5 -118.5
t-143.5 -41.5q-52 0 -92 17t-66 49.5t-35.5 79.5t-0.5 107q10 60 34.5 107t60.5 79.5t81.5 49.5t97.5 17q80 0 129.5 -41.5t58.5 -118.5q32 77 94 118.5t146 41.5zM143 250q-8 -53 -0.5 -94t28.5 -69.5t54.5 -43.5t76.5 -15t81.5 15t68.5 43.5t51 69.5t29 94q8 52 0.5 93.5
t-28.5 70t-54.5 43.5t-76.5 15q-88 0 -150.5 -58t-79.5 -164zM800 472q-42 0 -79.5 -13.5t-67.5 -39.5t-50.5 -63.5t-28.5 -85.5h358q8 48 1.5 85.5t-24.5 63.5t-46 39.5t-63 13.5z" />
    <glyph glyph-name="Scaron" unicode="&#x160;" horiz-adv-x="613" 
d="M127 212q-6 -41 4.5 -74.5t35 -57.5t60.5 -37t81 -13t83.5 10.5t67.5 30.5t48 48.5t25 64.5q7 43 -7.5 69.5t-42 43t-64.5 26.5t-76.5 18.5t-76.5 19.5t-64.5 29.5t-41.5 48t-6 76.5q7 44 28.5 79t54.5 59t76 37t92 13t89 -14.5t66.5 -41t38 -63.5t4.5 -82h-39
q6 37 -3.5 68t-31.5 53.5t-55 34.5t-73 12q-41 0 -76 -10.5t-62.5 -30.5t-45 -48.5t-23.5 -64.5q-6 -41 8.5 -66t42.5 -40.5t65.5 -24.5t76.5 -17.5t76 -19.5t64.5 -31t41 -51.5t5.5 -80.5q-7 -45 -30.5 -80t-59 -59t-81.5 -36.5t-98 -12.5q-54 0 -97 15.5t-72 43.5t-42 68
t-5 88h39zM295 900h40l87 -107l120 107h40l-142 -128h-42z" />
    <glyph glyph-name="scaron" unicode="&#x161;" horiz-adv-x="499" 
d="M122 152q-8 -56 29.5 -90t102.5 -34q64 0 108.5 27.5t52.5 76.5q6 40 -14.5 60t-55 31t-75 18t-74.5 20t-54 37t-13 70q11 64 64 99.5t129 35.5q37 0 67.5 -10.5t51 -29.5t30 -45.5t4.5 -59.5h-38q8 51 -26.5 82.5t-93.5 31.5q-58 0 -99 -27.5t-49 -76.5q-5 -29 6 -46
t32 -27.5t49 -17t57.5 -12.5t57.5 -14t48 -22.5t30.5 -37.5t4.5 -59q-5 -32 -22.5 -57t-44.5 -42.5t-62.5 -26.5t-75.5 -9q-41 0 -73.5 11t-55 31.5t-32.5 49t-5 63.5h39zM216 700h40l87 -107l120 107h40l-142 -128h-42z" />
    <glyph glyph-name="Ydieresis" unicode="&#x178;" horiz-adv-x="676" 
d="M364 293l-203 407h47l181 -370l301 370h47l-333 -407l-46 -293h-40zM356 872h35l-14 -85h-35zM560 872h35l-14 -85h-35z" />
    <glyph glyph-name="Zcaron" unicode="&#x17d;" horiz-adv-x="636" 
d="M176 700h518l-5 -31l-577 -637h473l-5 -32h-519l5 31l577 637h-472zM316 900h40l87 -107l120 107h40l-142 -128h-42z" />
    <glyph glyph-name="zcaron" unicode="&#x17e;" horiz-adv-x="511" 
d="M139 500h391l-5 -30l-420 -440h356l-5 -30h-401l5 30l420 440h-346zM222 700h40l87 -107l120 107h40l-142 -128h-42z" />
    <glyph glyph-name="florin" unicode="&#x192;" horiz-adv-x="344" 
d="M370 728q11 0 20.5 -1t20.5 -3l-5 -30q-18 3 -39 3q-47 0 -78.5 -22.5t-38.5 -64.5l-17 -110h143l-5 -30h-143l-89 -562q-10 -60 -53 -93t-109 -33l5 31q45 0 77.5 24t39.5 69l90 564h-72l5 30h71l17 108q9 58 51.5 89t108.5 31z" />
    <glyph glyph-name="uni0237" unicode="&#x237;" horiz-adv-x="216" 
d="M113 -92q-10 -60 -53.5 -93t-108.5 -33l5 31q45 0 77.5 24t39.5 69l94 594h40z" />
    <glyph glyph-name="circumflex" unicode="&#x2c6;" horiz-adv-x="339" 
d="M404 572h-41l-87 108l-119 -108h-41l143 128h41z" />
    <glyph glyph-name="caron" unicode="&#x2c7;" horiz-adv-x="339" 
d="M136 700h40l87 -107l120 107h40l-142 -128h-42z" />
    <glyph glyph-name="breve" unicode="&#x2d8;" horiz-adv-x="471" 
d="M237 673q-6 -38 20 -61.5t71 -23.5t79 23.5t40 61.5h32q-4 -26 -18 -46.5t-34.5 -35.5t-47 -23t-55.5 -8q-59 0 -93.5 31t-26.5 82h33z" />
    <glyph glyph-name="tilde" unicode="&#x2dc;" horiz-adv-x="328" 
d="M111 594q6 37 32 57.5t59 20.5q26 0 40.5 -8.5t25.5 -19t23.5 -19t34.5 -8.5q24 0 40.5 13.5t20.5 36.5h29q-6 -37 -33 -57.5t-59 -20.5q-25 0 -39.5 8.5t-26.5 18.5t-24.5 18.5t-32.5 8.5q-24 0 -40.5 -13t-20.5 -36h-29v0z" />
    <glyph glyph-name="endash" unicode="&#x2013;" horiz-adv-x="539" 
d="M112 290h407l-6 -30h-407z" />
    <glyph glyph-name="emdash" unicode="&#x2014;" horiz-adv-x="798" 
d="M112 290h667l-6 -30h-667z" />
    <glyph glyph-name="quoteleft" unicode="&#x2018;" horiz-adv-x="205" 
d="M210 487h-60l13 84q4 28 12.5 52t19.5 42t24 28t27 10l-4 -29q-14 0 -27.5 -29t-20.5 -74h29z" />
    <glyph glyph-name="quoteright" unicode="&#x2019;" horiz-adv-x="205" 
d="M185 700h60l-14 -84q-8 -57 -30.5 -94t-50.5 -37l4 28q14 0 27 29.5t20 73.5h-29z" />
    <glyph glyph-name="quotesinglbase" unicode="&#x201a;" horiz-adv-x="205" 
d="M88 84h59l-12 -84q-5 -28 -13.5 -52t-19 -41.5t-23.5 -27.5t-27 -10l5 29q14 0 26.5 29t20.5 73h-29z" />
    <glyph glyph-name="quotedblleft" unicode="&#x201c;" horiz-adv-x="335" 
d="M210 487h-60l13 84q4 28 12.5 52t19.5 42t24 28t27 10l-4 -29q-14 0 -27.5 -29t-20.5 -74h29zM340 487h-60l13 84q4 28 12.5 52t19.5 42t24 28t27 10l-5 -29q-14 0 -27 -29t-20 -74h29z" />
    <glyph glyph-name="quotedblright" unicode="&#x201d;" horiz-adv-x="335" 
d="M185 700h60l-14 -84q-8 -57 -30.5 -94t-50.5 -37l4 28q14 0 27 29.5t20 73.5h-29zM315 700h60l-14 -84q-8 -57 -30.5 -94t-50.5 -37l4 28q14 0 27 29.5t20 73.5h-29z" />
    <glyph glyph-name="quotedblbase" unicode="&#x201e;" horiz-adv-x="335" 
d="M88 84h59l-12 -84q-5 -28 -13.5 -52t-19 -41.5t-23.5 -27.5t-27 -10l5 29q14 0 26.5 29t20.5 73h-29zM217 84h60l-12 -84q-5 -28 -13.5 -52t-19 -41.5t-23.5 -27.5t-27 -10l5 29q14 0 26.5 29t20.5 73h-29z" />
    <glyph glyph-name="dagger" unicode="&#x2020;" horiz-adv-x="512" 
d="M126 503h191l31 197h36l-30 -197h191l-5 -31h-191l-91 -572h-36l91 572h-192z" />
    <glyph glyph-name="daggerdbl" unicode="&#x2021;" horiz-adv-x="512" 
d="M480 97h-191l-31 -197h-36l30 197h-191l6 31h191l55 344h-192l5 31h191l31 197h36l-30 -197h191l-5 -31h-191l-54 -344h191z" />
    <glyph glyph-name="bullet" unicode="&#x2022;" horiz-adv-x="334" 
d="M115 325q8 48 40.5 75.5t78.5 27.5t70 -27.5t16 -75.5t-40 -74.5t-79 -26.5q-46 0 -70 26.5t-16 74.5z" />
    <glyph glyph-name="ellipsis" unicode="&#x2026;" horiz-adv-x="568" 
d="M83 84h60l-13 -84h-59zM264 84h60l-13 -84h-59zM445 84h60l-12 -84h-60z" />
    <glyph glyph-name="perthousand" unicode="&#x2030;" horiz-adv-x="1004" 
d="M654 700h37l-509 -700h-37zM141 570q11 63 52.5 98t100.5 35q60 0 90.5 -35t20.5 -98q-10 -62 -51.5 -96.5t-101.5 -34.5q-59 0 -90 34.5t-21 96.5zM171 570q-8 -50 15.5 -76.5t71.5 -26.5q47 0 78.5 26.5t39.5 76.5q8 51 -15 77.5t-70 26.5q-48 0 -80 -26.5t-40 -77.5z
M394 129q10 63 51.5 97.5t101.5 34.5t91 -34.5t21 -97.5q-11 -63 -52.5 -97.5t-101.5 -34.5t-90.5 34.5t-20.5 97.5zM423 129q-8 -50 15.5 -76.5t70.5 -26.5t79.5 26.5t40.5 76.5q8 51 -16 77.5t-71 26.5t-79 -26.5t-40 -77.5zM708 129q10 63 51.5 97.5t101.5 34.5t91 -34.5
t20 -97.5q-10 -63 -51.5 -97.5t-101.5 -34.5t-90.5 34.5t-20.5 97.5zM737 129q-8 -50 15.5 -76.5t70.5 -26.5t79.5 26.5t40.5 76.5q8 51 -16 77.5t-71 26.5t-79 -26.5t-40 -77.5z" />
    <glyph glyph-name="guilsinglleft" unicode="&#x2039;" horiz-adv-x="301" 
d="M297 450l-7 -43l-155 -132l114 -132l-8 -43l-136 157l6 36z" />
    <glyph glyph-name="guilsinglright" unicode="&#x203a;" horiz-adv-x="301" 
d="M90 100l7 43l155 132l-114 132l7 43l136 -157l-5 -36z" />
    <glyph glyph-name="Euro" unicode="&#x20ac;" horiz-adv-x="759" 
d="M116 436h79q21 63 55.5 113t79 84t98 52t112.5 18q54 0 97.5 -15.5t73 -44t42 -69t4.5 -89.5h-39q6 42 -4.5 76t-35.5 58t-61.5 37.5t-82.5 13.5q-51 0 -96.5 -15.5t-84.5 -45.5t-69 -73.5t-49 -99.5h328l-5 -30h-331q-7 -26 -12 -56q-3 -16 -4 -31t-2 -29h331l-6 -30
h-326q4 -111 63.5 -170.5t160.5 -59.5q46 0 87 13.5t73.5 37.5t54.5 58t28 76h40q-8 -49 -33.5 -89.5t-64 -69t-87 -44t-102.5 -15.5q-118 0 -187.5 68.5t-72.5 194.5h-80l5 30h76q1 14 2 29t4 31q2 14 5 28l6 28h-75z" />
    <glyph glyph-name="trademark" unicode="&#x2122;" horiz-adv-x="785" 
d="M143 700h281l-3 -22h-125l-52 -328h-30l52 328h-126zM481 700h45l86 -313l184 313h45l-55 -350h-30l49 311l-183 -311h-32l-84 311l-50 -311h-30z" />
    </font>
</defs>
</svg>
