<?xml version="1.0" standalone="no"?>
<!DOCTYPE svg PUBLIC "-//W3C//DTD SVG 1.1//EN" "http://www.w3.org/Graphics/SVG/1.1/DTD/svg11.dtd" >
<svg xmlns="http://www.w3.org/2000/svg" xmlns:xlink="http://www.w3.org/1999/xlink" version="1.1">
<metadata>
Created by FontForge 20200314 at Wed Jan 18 04:50:44 2012
 By Unknown
Neou is a trademark of PYRS Fontlab Ltd. / Made with FontLab.
</metadata>
<defs>
<font id="Neou-Thin" horiz-adv-x="341" >
  <font-face 
    font-family="Neou Thin"
    font-weight="100"
    font-stretch="normal"
    units-per-em="1000"
    panose-1="0 0 0 0 0 0 0 0 0 0"
    ascent="715"
    descent="-285"
    x-height="715"
    cap-height="715"
    bbox="0 -282 1021 850"
    underline-thickness="50"
    underline-position="-99"
    stemh="19"
    stemv="19"
    unicode-range="U+0020-201D"
  />
<missing-glyph horiz-adv-x="500" 
d="M125 63h250v590h-250v-590zM63 0v715h375v-715h-375z" />
    <glyph glyph-name=".notdef" horiz-adv-x="500" 
d="M125 63h250v590h-250v-590zM63 0v715h375v-715h-375z" />
    <glyph glyph-name="space" unicode=" " 
 />
    <glyph glyph-name="exclam" unicode="!" horiz-adv-x="151" 
d="M23 39c11 0 20 -8 20 -19s-9 -20 -20 -20s-20 9 -20 20s9 19 20 19zM33 715v-605h-20v605h20z" />
    <glyph glyph-name="quotedbl" unicode="&#x22;" horiz-adv-x="192" 
d="M0 596v118h19v-118h-19zM62 714h19v-118h-19v118z" />
    <glyph glyph-name="numbersign" unicode="#" horiz-adv-x="578" 
d="M490 483h-127l-19 -250h131v-19h-132l-17 -213h-19l16 213h-178l-17 -213h-19l17 213h-126v19h127l19 250h-131v19h133l16 213h20l-17 -213h179l16 213h19l-16 -213h125v-19zM325 233l19 250h-178l-20 -250h179z" />
    <glyph glyph-name="dollar" unicode="$" horiz-adv-x="517" 
d="M273 364c84 -17 147 -91 147 -181c0 -101 -82 -183 -182 -183h-18v-43h-19v43h-18c-101 0 -183 82 -183 183v4h19v-4c0 -90 74 -164 164 -164v0h18v331c-31 3 -72 9 -86 20v0v0c-57 31 -96 92 -96 161c0 101 81 183 182 184v37h19v-37c97 -1 176 -78 181 -174h-20
c-5 86 -75 154 -161 155v-329s35 -2 53 -3zM39 531c0 -90 72 -163 162 -164v329c-90 -1 -162 -74 -162 -165zM200 367h1v0h-1zM199 367v0v0zM238 19c90 0 163 74 163 164c0 91 -73 165 -163 165v0c-7 0 -18 1 -18 1v-330h18v0z" />
    <glyph glyph-name="percent" unicode="%" horiz-adv-x="578" 
d="M471 715h19l-471 -715h-19zM369 242c67 0 121 -54 121 -121c0 -66 -54 -121 -121 -121c-66 0 -120 55 -120 121c0 67 54 121 120 121zM369 20c56 0 102 45 102 101s-46 102 -102 102s-101 -46 -101 -102s45 -101 101 -101zM121 466c-67 0 -121 54 -121 121
c0 66 54 120 121 120c66 0 120 -54 120 -120c0 -67 -54 -121 -120 -121zM121 688c-56 0 -102 -46 -102 -101c0 -56 46 -102 102 -102s101 46 101 102c0 55 -45 101 -101 101z" />
    <glyph glyph-name="ampersand" unicode="&#x26;" horiz-adv-x="636" 
d="M550 33l12 -15c-17 -11 -37 -18 -59 -18c-56 0 -103 44 -106 100h-1v0c-30 -60 -91 -100 -162 -100h-51c-101 0 -183 82 -183 183c0 90 64 164 147 181c-64 28 -108 93 -108 167c0 102 82 184 182 184h23c96 0 172 -86 172 -183v0h-20v0c0 87 -67 158 -152 164v0h-23v0
c-90 0 -163 -74 -163 -165c0 -90 73 -164 163 -164v0h175v84h20v-84h79v-19h-79v-248c0 -45 41 -81 87 -81c17 0 34 6 47 14zM234 19c84 0 153 64 162 147v182h-213v0c-90 0 -164 -74 -164 -165c0 -90 74 -164 164 -164v0h51v0z" />
    <glyph glyph-name="quoteright" unicode="&#x2019;" horiz-adv-x="159" 
d="M28 715h23l-41 -119h-10z" />
    <glyph glyph-name="parenleft" unicode="(" horiz-adv-x="239" 
d="M147 20v-19v0c-82 0 -147 157 -147 357s65 357 147 357v0v-19v0c-69 0 -128 -155 -128 -338s59 -338 128 -338v0z" />
    <glyph glyph-name="parenright" unicode=")" horiz-adv-x="251" 
d="M0 1v19v0c69 0 128 155 128 338s-59 338 -128 338v0v19v0c82 0 147 -157 147 -357s-65 -357 -147 -357v0z" />
    <glyph glyph-name="asterisk" unicode="*" horiz-adv-x="245" 
d="M136 607c4 -3 6 -9 3 -13c-3 -5 -9 -6 -13 -4l-46 28v-54c0 -5 -5 -9 -10 -9s-9 4 -9 9v54l-46 -28c-5 -2 -11 -1 -14 4c-1 4 -1 10 4 13l46 28l-46 28c-5 3 -5 8 -4 13c3 5 9 6 14 3l46 -27v53c0 6 4 10 9 10s10 -4 10 -10v-53l46 27c4 3 10 2 13 -3s1 -10 -3 -13
l-47 -28z" />
    <glyph glyph-name="plus" unicode="+" horiz-adv-x="420" 
d="M333 357v-19h-157v-157h-19v157h-157v19h157v157h19v-157h157z" />
    <glyph glyph-name="comma" unicode="," horiz-adv-x="168" 
d="M0 -98l28 118h23l-41 -118h-10z" />
    <glyph glyph-name="hyphen" unicode="-" horiz-adv-x="338" 
d="M215 338h-215v19h215v-19z" />
    <glyph glyph-name="period" unicode="." horiz-adv-x="155" 
d="M43 20c0 -11 -9 -20 -20 -20s-20 9 -20 20s9 19 20 19s20 -8 20 -19z" />
    <glyph glyph-name="slash" unicode="/" horiz-adv-x="354" 
d="M268 715l-249 -715h-19l249 715h19z" />
    <glyph glyph-name="zero" unicode="0" horiz-adv-x="652" 
d="M326 696c-184 0 -250 -175 -250 -339c0 -99 21 -182 60 -240c43 -65 107 -98 190 -98s147 33 190 98c39 58 60 141 60 240c0 164 -66 339 -250 339zM326 0c-90 0 -159 36 -206 106c-42 62 -63 149 -63 251s23 189 66 252c47 69 118 106 203 106s156 -37 203 -106
c43 -63 66 -150 66 -252s-21 -189 -63 -251c-47 -70 -116 -106 -206 -106z" />
    <glyph glyph-name="one" unicode="1" horiz-adv-x="652" 
d="M405 715h19v-715h-19v687l-164 -163l-13 13l177 178v0z" />
    <glyph glyph-name="two" unicode="2" horiz-adv-x="652" 
d="M151 19h387v-19h-413v19v0v0v0v0l344 356c27 34 43 77 43 125c0 108 -85 196 -190 196c-104 0 -189 -88 -189 -196h-19c0 118 94 215 208 215c115 0 209 -97 209 -215c0 -60 -24 -114 -62 -153z" />
    <glyph glyph-name="three" unicode="3" horiz-adv-x="652" 
d="M386 364c84 -17 148 -91 148 -181c0 -101 -82 -183 -183 -183h-51c-95 0 -173 73 -182 166h19c9 -83 79 -147 163 -147v0h51v0c90 0 164 74 164 164c0 91 -74 165 -164 165v0h-82v19h43v0c91 0 164 74 164 164c0 91 -73 165 -164 165v0h-22v0c-85 -6 -153 -77 -153 -164
v0h-19v0c0 97 76 183 172 183h22c101 0 183 -82 183 -184c0 -74 -45 -139 -109 -167z" />
    <glyph glyph-name="four" unicode="4" horiz-adv-x="652" 
d="M529 277v-20h-45v-257h-19v257h-342v20l340 438l2 -2v2h19v-438h45zM147 277h318v409z" />
    <glyph glyph-name="five" unicode="5" horiz-adv-x="652" 
d="M299 430c119 0 215 -97 215 -216s-96 -214 -215 -214c-64 0 -122 27 -161 71v31c35 -51 94 -84 161 -84c108 0 196 88 196 196c0 109 -88 197 -196 197c-67 0 -126 -33 -161 -84v31v0v357h9h10h313v-19h-313v-319c38 33 87 53 142 53z" />
    <glyph glyph-name="six" unicode="6" horiz-adv-x="652" 
d="M542 499h-19v0c0 109 -89 197 -197 197s-197 -88 -197 -197v0v-89v-107c34 75 110 127 197 127c119 0 216 -97 216 -216s-97 -214 -216 -214c-116 0 -211 91 -216 206v0v293c0 119 97 216 216 216s216 -97 216 -216v0zM326 411c-108 0 -197 -88 -197 -197
c0 -108 89 -196 197 -196s197 88 197 196c0 109 -89 197 -197 197z" />
    <glyph glyph-name="seven" unicode="7" horiz-adv-x="652" 
d="M556 715v-19v0v0l-334 -696h-22l333 696h-437v19h460z" />
    <glyph glyph-name="eight" unicode="8" horiz-adv-x="652" 
d="M406 364c84 -17 147 -91 147 -181c0 -101 -82 -183 -183 -183h-88c-101 0 -183 82 -183 183c0 90 63 164 147 181c-64 28 -108 93 -108 167v1h-1v0c0 97 76 183 172 183h34c96 0 172 -86 172 -183v0h-1v-1c0 -74 -44 -139 -108 -167zM157 531c0 -90 73 -164 163 -164v0
h12v0c90 0 163 74 163 164c0 91 -73 165 -163 165v0h-12v0c-90 0 -163 -74 -163 -165zM370 19c90 0 164 74 164 164c0 91 -74 165 -164 165v0h-88v0c-90 0 -164 -74 -164 -165c0 -90 74 -164 164 -164v0h88v0z" />
    <glyph glyph-name="nine" unicode="9" horiz-adv-x="652" 
d="M110 214h19v0c0 -108 89 -196 197 -196s197 88 197 196v0v89v107c-34 -75 -110 -127 -197 -127c-119 0 -216 97 -216 216s97 216 216 216c116 0 211 -92 216 -207v0v-294c0 -119 -97 -214 -216 -214s-216 95 -216 214v0zM326 303c108 0 197 88 197 196
c0 109 -89 197 -197 197s-197 -88 -197 -197c0 -108 89 -196 197 -196z" />
    <glyph glyph-name="colon" unicode=":" horiz-adv-x="156" 
d="M23 39c11 0 20 -8 20 -19c0 -10 -7 -18 -17 -20h-3h-3c-9 2 -17 10 -17 20c0 11 9 19 20 19zM23 339c-11 0 -20 8 -20 19s9 20 20 20s20 -9 20 -20s-9 -19 -20 -19z" />
    <glyph glyph-name="semicolon" unicode=";" horiz-adv-x="163" 
d="M0 -98l28 118h23l-41 -118h-10zM31 339c-10 0 -19 8 -19 19s9 20 19 20c11 0 20 -9 20 -20s-9 -19 -20 -19z" />
    <glyph glyph-name="equal" unicode="=" horiz-adv-x="402" 
d="M0 430h325v-19h-325v19zM0 266v19h325v-19h-325z" />
    <glyph glyph-name="question" unicode="?" horiz-adv-x="505" 
d="M216 39c11 0 20 -8 20 -19s-9 -20 -20 -20s-20 9 -20 20s9 19 20 19zM208 715c115 0 208 -97 208 -215c0 -60 -23 -114 -61 -153l-78 -78c-1 -2 -53 -37 -53 -153h-20c0 126 55 162 58 165l93 94c27 34 43 78 43 125c0 108 -85 196 -190 196c-104 0 -190 -88 -190 -196
h-18c0 118 93 215 208 215z" />
    <glyph glyph-name="at" unicode="@" horiz-adv-x="1121" 
d="M1004 102v0v0c-25 -59 -84 -100 -153 -100c-80 0 -147 56 -163 131l-3 -7c-37 -73 -110 -126 -197 -126c-120 0 -217 96 -217 215c0 120 97 217 217 217c87 0 163 -53 197 -128v128h19v-189v-79c1 -79 67 -143 147 -143c59 0 112 34 136 84c17 47 15 56 15 110
c0 264 -220 479 -491 479s-492 -215 -492 -479c0 -263 221 -478 492 -478c108 0 208 35 290 93h32c-88 -70 -200 -112 -322 -112c-282 0 -511 224 -511 497c0 275 229 499 511 499c281 0 510 -224 510 -499c0 -41 0 -56 -7 -82c-2 -11 -5 -21 -10 -31zM488 18
c108 0 197 89 197 197c0 109 -89 197 -197 197c-109 0 -198 -88 -198 -197c0 -108 89 -197 198 -197z" />
    <glyph glyph-name="A" unicode="A" horiz-adv-x="750" 
d="M629 0l-106 239h-396l-106 -239h-21l314 715h21l315 -715h-21zM135 259h380l-190 432z" />
    <glyph glyph-name="B" unicode="B" horiz-adv-x="578" 
d="M331 364c84 -17 147 -91 147 -181c0 -101 -82 -183 -183 -183h-295v0v0v715h257c101 0 183 -82 183 -184c0 -74 -45 -139 -109 -167zM19 696v-329h238v0c90 0 163 74 163 164c0 91 -73 165 -163 165v0h-238zM295 19c91 0 164 74 164 164c0 91 -73 165 -164 165v0h-276
v-329h276v0z" />
    <glyph glyph-name="C" unicode="C" horiz-adv-x="808" 
d="M689 293h19c-30 -167 -176 -293 -351 -293c-197 0 -357 160 -357 357c0 198 160 358 357 358c175 0 321 -127 351 -293h-19c-30 156 -168 274 -332 274c-187 0 -338 -152 -338 -339c0 -186 151 -338 338 -338c164 0 302 118 332 274z" />
    <glyph glyph-name="D" unicode="D" horiz-adv-x="674" 
d="M217 715c197 0 357 -160 357 -358c0 -197 -160 -357 -357 -357h-216h-1v715h1v0h216zM217 19c187 0 339 152 339 338c0 187 -152 339 -339 339v0h-198v-677h198v0z" />
    <glyph glyph-name="E" unicode="E" horiz-adv-x="550" 
d="M450 696h-431v-329h315v-19h-315v-329h431v-19h-450v715h450v-19z" />
    <glyph glyph-name="F" unicode="F" horiz-adv-x="569" 
d="M19 348v-348h-19v715h469v-19h-450v-329h334v-19h-334z" />
    <glyph glyph-name="G" unicode="G" horiz-adv-x="808" 
d="M377 293h331v0v0c-30 -167 -176 -293 -351 -293c-197 0 -357 160 -357 357c0 198 160 358 357 358c175 0 321 -127 351 -293h-19c-30 156 -168 274 -332 274c-187 0 -338 -152 -338 -339c0 -186 151 -338 338 -338c158 0 290 108 328 255h-308v19z" />
    <glyph glyph-name="H" unicode="H" horiz-adv-x="663" 
d="M544 715h19v-715h-19v348h-525v-348l-19 -3v718h19v-348h525v348z" />
    <glyph glyph-name="I" unicode="I" horiz-adv-x="385" 
d="M285 696h-133v-677h133v-19h-285v19h133v677h-133v19h285v-19z" />
    <glyph glyph-name="J" unicode="J" horiz-adv-x="457" 
d="M338 715h19v-358c0 -197 -160 -357 -357 -357v19c186 0 338 152 338 338v358z" />
    <glyph glyph-name="K" unicode="K" horiz-adv-x="593" 
d="M466 0l-380 380l-67 -67v-313h-19v715h19v-375l375 375h28l-322 -322l393 -393h-27z" />
    <glyph glyph-name="L" unicode="L" horiz-adv-x="553" 
d="M19 19h434v-19h-453v715h19v-696z" />
    <glyph glyph-name="M" unicode="M" horiz-adv-x="785" 
d="M666 715h19v-715h-19v667l-314 -667h-21l-312 667v-667h-19v715h19v0l323 -691l324 691v0z" />
    <glyph glyph-name="N" unicode="N" horiz-adv-x="672" 
d="M552 715h20v-715h-20l-533 681v-681h-19v715h19v0v0v0v0l533 -682v682z" />
    <glyph glyph-name="O" unicode="O" horiz-adv-x="814" 
d="M357 696c-187 0 -338 -152 -338 -339c0 -186 151 -338 338 -338c186 0 338 152 338 338c0 187 -152 339 -338 339zM357 0c-197 0 -357 160 -357 357c0 198 160 358 357 358s357 -160 357 -358c0 -197 -160 -357 -357 -357z" />
    <glyph glyph-name="P" unicode="P" horiz-adv-x="571" 
d="M19 0h-19v715h288c101 0 183 -82 183 -184c0 -101 -82 -183 -183 -183h-269v-348zM19 696v-329h269v0c90 0 163 74 163 164c0 91 -73 165 -163 165v0h-269z" />
    <glyph glyph-name="Q" unicode="Q" horiz-adv-x="814" 
d="M714 357c0 -95 -37 -181 -98 -245l98 -98l-14 -14l-98 98c-64 -61 -150 -98 -245 -98c-197 0 -357 160 -357 357c0 198 160 358 357 358s357 -160 357 -358zM357 19c90 0 171 35 232 92l-122 122l14 13l122 -121c57 61 92 142 92 232c0 187 -152 339 -338 339
c-187 0 -338 -152 -338 -339c0 -186 151 -338 338 -338z" />
    <glyph glyph-name="R" unicode="R" horiz-adv-x="559" 
d="M276 348h-208l391 -348h-27l-391 348h-22v-348h-19v715h276c101 0 183 -82 183 -184c0 -101 -82 -183 -183 -183zM19 696v-329h257v0c90 0 164 74 164 164c0 91 -74 165 -164 165v0h-257z" />
    <glyph glyph-name="S" unicode="S" horiz-adv-x="606" 
d="M329 364c101 -15 177 -91 177 -181c0 -101 -98 -183 -220 -183h-66c-121 0 -220 82 -220 183v4h23v-4c0 -90 89 -164 197 -164v0h66v0c109 0 197 74 197 164c0 91 -88 165 -197 165v0c-110 -3 -152 22 -152 22c-69 41 -111 92 -111 161c0 102 99 184 220 184h20
c117 0 214 -77 220 -174h-24c-6 86 -91 155 -196 155v0h-20v0c-108 0 -197 -74 -197 -165c0 -90 89 -164 197 -164v0c-9 0 0 0 0 0s57 1 86 -3z" />
    <glyph glyph-name="T" unicode="T" horiz-adv-x="618" 
d="M518 715v-19h-250v-696h-19v696h-249v19h518z" />
    <glyph glyph-name="U" unicode="U" horiz-adv-x="650" 
d="M530 715h20v-440c0 -152 -124 -275 -275 -275c-152 0 -275 123 -275 275v0v440h19v-440v0c0 -141 115 -256 256 -256s256 115 256 256h-1v440z" />
    <glyph glyph-name="V" unicode="V" horiz-adv-x="699" 
d="M0 715h19l283 -690l278 690h19l-288 -715v0h-19v0z" />
    <glyph glyph-name="W" unicode="W" horiz-adv-x="934" 
d="M815 715h19l-194 -715h-19l-204 680l-196 -680h-19l-202 715h19l192 -680l196 680v0h20v0l203 -680z" />
    <glyph glyph-name="X" unicode="X" horiz-adv-x="648" 
d="M548 715l-262 -358l262 -357h-24l-250 341l-250 -341h-24l262 357l-262 358h24l250 -341l250 341h24z" />
    <glyph glyph-name="Y" unicode="Y" horiz-adv-x="648" 
d="M548 715l-264 -361v-354h-20v354v0l-264 361h24l250 -341l250 341h24z" />
    <glyph glyph-name="Z" unicode="Z" horiz-adv-x="612" 
d="M512 715v-19l-489 -677h489v-19h-512v19l489 677h-489v19h512z" />
    <glyph glyph-name="bracketleft" unicode="[" 
 />
    <glyph glyph-name="backslash" unicode="\" horiz-adv-x="361" 
d="M249 0l-249 715h19l249 -715h-19z" />
    <glyph glyph-name="bracketright" unicode="]" 
 />
    <glyph glyph-name="asciicircum" unicode="^" 
 />
    <glyph glyph-name="underscore" unicode="_" horiz-adv-x="524" 
d="M402 -18h-402v18h402v-18z" />
    <glyph glyph-name="quoteleft" unicode="&#x2018;" horiz-adv-x="160" 
d="M51 715l-28 -119h-23l41 119h10z" />
    <glyph glyph-name="a" unicode="a" horiz-adv-x="750" 
d="M629 0l-106 239h-396l-106 -239h-21l314 715h21l315 -715h-21zM135 259h380l-190 432z" />
    <glyph glyph-name="b" unicode="b" horiz-adv-x="578" 
d="M331 364c84 -17 147 -91 147 -181c0 -101 -82 -183 -183 -183h-295v0v0v715h257c101 0 183 -82 183 -184c0 -74 -45 -139 -109 -167zM19 696v-329h238v0c90 0 163 74 163 164c0 91 -73 165 -163 165v0h-238zM295 19c91 0 164 74 164 164c0 91 -73 165 -164 165v0h-276
v-329h276v0z" />
    <glyph glyph-name="c" unicode="c" horiz-adv-x="808" 
d="M689 293h19c-30 -167 -176 -293 -351 -293c-197 0 -357 160 -357 357c0 198 160 358 357 358c175 0 321 -127 351 -293h-19c-30 156 -168 274 -332 274c-187 0 -338 -152 -338 -339c0 -186 151 -338 338 -338c164 0 302 118 332 274z" />
    <glyph glyph-name="d" unicode="d" horiz-adv-x="674" 
d="M217 715c197 0 357 -160 357 -358c0 -197 -160 -357 -357 -357h-216h-1v715h1v0h216zM217 19c187 0 339 152 339 338c0 187 -152 339 -339 339v0h-198v-677h198v0z" />
    <glyph glyph-name="e" unicode="e" horiz-adv-x="550" 
d="M450 696h-431v-329h315v-19h-315v-329h431v-19h-450v715h450v-19z" />
    <glyph glyph-name="f" unicode="f" horiz-adv-x="569" 
d="M19 348v-348h-19v715h469v-19h-450v-329h334v-19h-334z" />
    <glyph glyph-name="g" unicode="g" horiz-adv-x="808" 
d="M377 293h331v0v0c-30 -167 -176 -293 -351 -293c-197 0 -357 160 -357 357c0 198 160 358 357 358c175 0 321 -127 351 -293h-19c-30 156 -168 274 -332 274c-187 0 -338 -152 -338 -339c0 -186 151 -338 338 -338c158 0 290 108 328 255h-308v19z" />
    <glyph glyph-name="h" unicode="h" horiz-adv-x="663" 
d="M544 715h19v-715h-19v348h-525v-348l-19 -3v718h19v-348h525v348z" />
    <glyph glyph-name="i" unicode="i" horiz-adv-x="385" 
d="M285 696h-133v-677h133v-19h-285v19h133v677h-133v19h285v-19z" />
    <glyph glyph-name="j" unicode="j" horiz-adv-x="457" 
d="M338 715h19v-358c0 -197 -160 -357 -357 -357v19c186 0 338 152 338 338v358z" />
    <glyph glyph-name="k" unicode="k" horiz-adv-x="593" 
d="M466 0l-380 380l-67 -67v-313h-19v715h19v-375l375 375h28l-322 -322l393 -393h-27z" />
    <glyph glyph-name="l" unicode="l" horiz-adv-x="553" 
d="M19 19h434v-19h-453v715h19v-696z" />
    <glyph glyph-name="m" unicode="m" horiz-adv-x="785" 
d="M666 715h19v-715h-19v667l-314 -667h-21l-312 667v-667h-19v715h19v0l323 -691l324 691v0z" />
    <glyph glyph-name="n" unicode="n" horiz-adv-x="672" 
d="M552 715h20v-715h-20l-533 681v-681h-19v715h19v0v0v0v0l533 -682v682z" />
    <glyph glyph-name="o" unicode="o" horiz-adv-x="814" 
d="M357 696c-187 0 -338 -152 -338 -339c0 -186 151 -338 338 -338c186 0 338 152 338 338c0 187 -152 339 -338 339zM357 0c-197 0 -357 160 -357 357c0 198 160 358 357 358s357 -160 357 -358c0 -197 -160 -357 -357 -357z" />
    <glyph glyph-name="p" unicode="p" horiz-adv-x="571" 
d="M19 0h-19v715h288c101 0 183 -82 183 -184c0 -101 -82 -183 -183 -183h-269v-348zM19 696v-329h269v0c90 0 163 74 163 164c0 91 -73 165 -163 165v0h-269z" />
    <glyph glyph-name="q" unicode="q" horiz-adv-x="814" 
d="M714 357c0 -95 -37 -181 -98 -245l98 -98l-14 -14l-98 98c-64 -61 -150 -98 -245 -98c-197 0 -357 160 -357 357c0 198 160 358 357 358s357 -160 357 -358zM357 19c90 0 171 35 232 92l-122 122l14 13l122 -121c57 61 92 142 92 232c0 187 -152 339 -338 339
c-187 0 -338 -152 -338 -339c0 -186 151 -338 338 -338z" />
    <glyph glyph-name="r" unicode="r" horiz-adv-x="559" 
d="M276 348h-208l391 -348h-27l-391 348h-22v-348h-19v715h276c101 0 183 -82 183 -184c0 -101 -82 -183 -183 -183zM19 696v-329h257v0c90 0 164 74 164 164c0 91 -74 165 -164 165v0h-257z" />
    <glyph glyph-name="s" unicode="s" horiz-adv-x="606" 
d="M329 364c101 -15 177 -91 177 -181c0 -101 -98 -183 -220 -183h-66c-121 0 -220 82 -220 183v4h23v-4c0 -90 89 -164 197 -164v0h66v0c109 0 197 74 197 164c0 91 -88 165 -197 165v0c-110 -3 -152 22 -152 22c-69 41 -111 92 -111 161c0 102 99 184 220 184h20
c117 0 214 -77 220 -174h-24c-6 86 -91 155 -196 155v0h-20v0c-108 0 -197 -74 -197 -165c0 -90 89 -164 197 -164v0c-9 0 0 0 0 0s57 1 86 -3z" />
    <glyph glyph-name="t" unicode="t" horiz-adv-x="618" 
d="M518 715v-19h-250v-696h-19v696h-249v19h518z" />
    <glyph glyph-name="u" unicode="u" horiz-adv-x="650" 
d="M530 715h20v-440c0 -152 -124 -275 -275 -275c-152 0 -275 123 -275 275v0v440h19v-440v0c0 -141 115 -256 256 -256s256 115 256 256h-1v440z" />
    <glyph glyph-name="v" unicode="v" horiz-adv-x="699" 
d="M0 715h19l283 -690l278 690h19l-288 -715v0h-19v0z" />
    <glyph glyph-name="w" unicode="w" horiz-adv-x="934" 
d="M815 715h19l-194 -715h-19l-204 680l-196 -680h-19l-202 715h19l192 -680l196 680v0h20v0l203 -680z" />
    <glyph glyph-name="x" unicode="x" horiz-adv-x="648" 
d="M548 715l-262 -358l262 -357h-24l-250 341l-250 -341h-24l262 357l-262 358h24l250 -341l250 341h24z" />
    <glyph glyph-name="y" unicode="y" horiz-adv-x="648" 
d="M548 715l-264 -361v-354h-20v354v0l-264 361h24l250 -341l250 341h24z" />
    <glyph glyph-name="z" unicode="z" horiz-adv-x="612" 
d="M512 715v-19l-489 -677h489v-19h-512v19l489 677h-489v19h512z" />
    <glyph glyph-name="asciitilde" unicode="~" horiz-adv-x="241" 
d="M122 696l6 -9c-9 -15 -20 -22 -32 -22c-11 0 -20 4 -29 9s-21 11 -36 11c-13 0 -20 -9 -25 -18l-6 10c8 14 19 21 33 21c9 0 21 -4 31 -9c17 -8 27 -11 32 -11c12 0 20 9 26 18z" />
    <glyph glyph-name="exclamdown" unicode="&#xa1;" horiz-adv-x="151" 
d="M23 676c-11 0 -19 8 -19 19s8 20 19 20s20 -9 20 -20s-9 -19 -20 -19zM14 1v605h19v-605h-19z" />
    <glyph glyph-name="quotesingle" unicode="'" horiz-adv-x="134" 
d="M23 714v-118h-20v118h20z" />
    <glyph glyph-name="quotedblleft" unicode="&#x201c;" horiz-adv-x="237" 
d="M129 715l-28 -119h-23l40 119h11zM23 596h-23l41 119h10z" />
    <glyph glyph-name="endash" unicode="&#x2013;" horiz-adv-x="456" 
d="M333 338h-333v19h333v-19z" />
    <glyph glyph-name="quotedblright" unicode="&#x201d;" horiz-adv-x="237" 
d="M0 596l28 119h23l-41 -119h-10zM105 715h24l-41 -119h-10z" />
    <glyph glyph-name="questiondown" unicode="&#xbf;" horiz-adv-x="483" 
d="M200 676c-11 0 -20 8 -20 19s9 20 20 20s20 -9 20 -20s-9 -19 -20 -19zM208 0c-115 0 -208 97 -208 215c0 60 23 114 62 153l77 78c2 2 54 37 54 153h19c0 -126 -55 -162 -58 -165l-92 -94c-27 -34 -44 -78 -44 -125c0 -108 85 -196 190 -196s190 88 190 196h18
c0 -118 -93 -215 -208 -215z" />
    <glyph glyph-name="grave" unicode="`" horiz-adv-x="215" 
d="M108 630h-10l-98 85h23z" />
    <glyph glyph-name="acute" unicode="&#xb4;" horiz-adv-x="213" 
d="M85 715h23l-98 -85h-10z" />
    <glyph glyph-name="circumflex" unicode="&#x2c6;" horiz-adv-x="309" 
d="M192 630l-91 79l-91 -79h-10l85 85h32l85 -85h-10z" />
    <glyph glyph-name="dieresis" unicode="&#xa8;" horiz-adv-x="318" 
d="M27 699c14 0 26 -12 26 -27c0 -14 -12 -26 -26 -26c-15 0 -27 12 -27 26c0 15 12 27 27 27zM174 699c15 0 26 -12 26 -27c0 -14 -11 -26 -26 -26s-27 12 -27 26c0 15 12 27 27 27z" />
    <glyph glyph-name="emdash" unicode="&#x2014;" horiz-adv-x="456" 
d="M333 338h-333v19h333v-19z" />
    <glyph glyph-name="AE" unicode="&#xc6;" 
 />
    <glyph glyph-name="Oslash" unicode="&#xd8;" 
 />
    <glyph glyph-name="ae" unicode="&#xe6;" 
 />
    <glyph glyph-name="oslash" unicode="&#xf8;" 
 />
    <glyph glyph-name="germandbls" unicode="&#xdf;" 
 />
    <glyph glyph-name="Eth" unicode="&#xd0;" 
 />
    <glyph glyph-name="Thorn" unicode="&#xde;" 
 />
    <glyph glyph-name="divide" unicode="&#xf7;" 
 />
    <glyph glyph-name="brokenbar" unicode="&#xa6;" horiz-adv-x="1000" 
 />
    <glyph glyph-name="eth" unicode="&#xf0;" 
 />
    <glyph glyph-name="multiply" unicode="&#xd7;" 
 />
    <glyph glyph-name="Aacute" unicode="&#xc1;" horiz-adv-x="739" 
d="M629 0l-106 239h-396l-106 -239h-21l314 715h21l315 -715h-21zM135 259h380l-190 432zM410 850h24l-99 -85h-10z" />
    <glyph glyph-name="Acircumflex" unicode="&#xc2;" horiz-adv-x="739" 
d="M629 0l-106 239h-396l-106 -239h-21l314 715h21l315 -715h-21zM135 259h380l-190 432zM414 765l-91 79l-91 -79h-10l85 85h32l85 -85h-10z" />
    <glyph glyph-name="Adieresis" unicode="&#xc4;" horiz-adv-x="739" 
d="M629 0l-106 239h-396l-106 -239h-21l314 715h21l315 -715h-21zM135 259h380l-190 432zM249 818c15 0 27 -12 27 -26c0 -15 -12 -27 -27 -27s-27 12 -27 27c0 14 12 26 27 26zM396 818c15 0 27 -12 27 -26c0 -15 -12 -27 -27 -27s-27 12 -27 27c0 14 12 26 27 26z" />
    <glyph glyph-name="Agrave" unicode="&#xc0;" horiz-adv-x="739" 
d="M629 0l-106 239h-396l-106 -239h-21l314 715h21l315 -715h-21zM135 259h380l-190 432zM329 765h-10l-98 85h23z" />
    <glyph glyph-name="Aring" unicode="&#xc5;" 
 />
    <glyph glyph-name="Atilde" unicode="&#xc3;" horiz-adv-x="739" 
d="M629 0l-106 239h-396l-106 -239h-21l314 715h21l315 -715h-21zM135 259h380l-190 432zM377 796l7 -9c-10 -15 -21 -22 -33 -22c-10 0 -20 5 -28 9c-10 6 -22 11 -37 11c-12 0 -20 -9 -25 -17l-6 9c8 14 19 21 33 21c10 0 21 -4 31 -9c17 -7 27 -11 32 -11
c12 0 20 9 26 18z" />
    <glyph glyph-name="Ccedilla" unicode="&#xc7;" horiz-adv-x="785" 
d="M357 19c164 0 302 118 332 274h19c-30 -165 -174 -291 -347 -293v-28c10 7 22 10 34 10c37 0 66 -29 66 -66c0 -36 -29 -66 -66 -66c-31 0 -58 23 -64 52h20c6 -18 23 -32 44 -32c26 0 47 21 47 46c0 26 -21 47 -47 47c-13 0 -26 -6 -34 -15h-24v0v52
c-188 11 -337 167 -337 357c0 197 160 358 357 358c175 0 321 -127 351 -293h-19c-30 156 -168 274 -332 274c-187 0 -338 -152 -338 -339s151 -338 338 -338z" />
    <glyph glyph-name="Eacute" unicode="&#xc9;" horiz-adv-x="486" 
d="M450 696h-431v-329h315v-19h-315v-329h431v-19h-450v715h450v-19zM282 850h23l-98 -85h-10z" />
    <glyph glyph-name="Ecircumflex" unicode="&#xca;" horiz-adv-x="486" 
d="M450 696h-431v-329h315v-19h-315v-329h431v-19h-450v715h450v-19zM307 765l-91 79l-91 -79h-10l85 85h32l85 -85h-10z" />
    <glyph glyph-name="Edieresis" unicode="&#xcb;" horiz-adv-x="486" 
d="M450 696h-431v-329h315v-19h-315v-329h431v-19h-450v715h450v-19zM148 818c15 0 27 -12 27 -26c0 -15 -12 -27 -27 -27s-27 12 -27 27c0 14 12 26 27 26zM295 818c15 0 27 -12 27 -26c0 -15 -12 -27 -27 -27s-27 12 -27 27c0 14 12 26 27 26z" />
    <glyph glyph-name="Egrave" unicode="&#xc8;" horiz-adv-x="486" 
d="M450 696h-431v-329h315v-19h-315v-329h431v-19h-450v715h450v-19zM226 765h-10l-98 85h23z" />
    <glyph glyph-name="Iacute" unicode="&#xcd;" horiz-adv-x="372" 
d="M285 696h-133v-677h133v-19h-285v19h133v677h-133v19h285v-19zM223 850h23l-98 -85h-10z" />
    <glyph glyph-name="Icircumflex" unicode="&#xce;" horiz-adv-x="372" 
d="M285 696h-133v-677h133v-19h-285v19h133v677h-133v19h285v-19zM233 765l-91 79l-90 -79h-11l85 85h32l85 -85h-10z" />
    <glyph glyph-name="Idieresis" unicode="&#xcf;" horiz-adv-x="372" 
d="M285 696h-133v-677h133v-19h-285v19h133v677h-133v19h285v-19zM67 818c15 0 27 -12 27 -26c0 -15 -12 -27 -27 -27s-27 12 -27 27c0 14 12 26 27 26zM214 818c15 0 27 -12 27 -26c0 -15 -12 -27 -27 -27s-27 12 -27 27c0 14 12 26 27 26z" />
    <glyph glyph-name="Igrave" unicode="&#xcc;" horiz-adv-x="372" 
d="M285 696h-133v-677h133v-19h-285v19h133v677h-133v19h285v-19zM186 765h-10l-98 85h23z" />
    <glyph glyph-name="Ntilde" unicode="&#xd1;" horiz-adv-x="682" 
d="M552 715h20v-715h-20l-533 681v-681h-19v715h19v0v0v0v0l533 -682v682zM330 796l7 -9c-10 -15 -21 -22 -33 -22c-10 0 -20 5 -28 9c-10 6 -22 11 -37 11c-12 0 -20 -9 -25 -17l-6 9c8 14 19 21 33 21c10 0 21 -4 31 -9c17 -7 27 -11 32 -11c12 0 20 9 26 18z" />
    <glyph glyph-name="Oacute" unicode="&#xd3;" horiz-adv-x="814" 
d="M357 0c197 0 357 160 357 357c0 198 -160 358 -357 358s-357 -160 -357 -358c0 -197 160 -357 357 -357zM357 696c186 0 338 -152 338 -339c0 -186 -152 -338 -338 -338c-187 0 -338 152 -338 338c0 187 151 339 338 339zM432 850h23l-98 -85h-10z" />
    <glyph glyph-name="Ocircumflex" unicode="&#xd4;" horiz-adv-x="814" 
d="M357 0c197 0 357 160 357 357c0 198 -160 358 -357 358s-357 -160 -357 -358c0 -197 160 -357 357 -357zM357 696c186 0 338 -152 338 -339c0 -186 -152 -338 -338 -338c-187 0 -338 152 -338 338c0 187 151 339 338 339zM448 765l-91 79l-90 -79h-11l85 85h32l85 -85
h-10z" />
    <glyph glyph-name="Odieresis" unicode="&#xd6;" horiz-adv-x="814" 
d="M357 0c197 0 357 160 357 357c0 198 -160 358 -357 358s-357 -160 -357 -358c0 -197 160 -357 357 -357zM357 696c186 0 338 -152 338 -339c0 -186 -152 -338 -338 -338c-187 0 -338 152 -338 338c0 187 151 339 338 339zM281 818c15 0 27 -12 27 -26
c0 -15 -12 -27 -27 -27s-27 12 -27 27c0 14 12 26 27 26zM428 818c15 0 27 -12 27 -26c0 -15 -12 -27 -27 -27s-27 12 -27 27c0 14 12 26 27 26z" />
    <glyph glyph-name="Ograve" unicode="&#xd2;" horiz-adv-x="814" 
d="M357 0c197 0 357 160 357 357c0 198 -160 358 -357 358s-357 -160 -357 -358c0 -197 160 -357 357 -357zM357 696c186 0 338 -152 338 -339c0 -186 -152 -338 -338 -338c-187 0 -338 152 -338 338c0 187 151 339 338 339zM399 765h-10l-98 85h23z" />
    <glyph glyph-name="Otilde" unicode="&#xd5;" horiz-adv-x="814" 
d="M357 0c197 0 357 160 357 357c0 198 -160 358 -357 358s-357 -160 -357 -358c0 -197 160 -357 357 -357zM357 696c186 0 338 -152 338 -339c0 -186 -152 -338 -338 -338c-187 0 -338 152 -338 338c0 187 151 339 338 339zM413 796l7 -9c-10 -15 -21 -22 -33 -22
c-10 0 -20 5 -28 9c-10 6 -22 11 -37 11c-12 0 -20 -9 -25 -17l-6 9c8 14 19 21 33 21c10 0 21 -4 31 -9c17 -7 27 -11 32 -11c12 0 20 9 26 18z" />
    <glyph glyph-name="Uacute" unicode="&#xda;" horiz-adv-x="662" 
d="M530 715h20v-440c0 -152 -124 -275 -275 -275c-152 0 -275 123 -275 275v0v440h19v-440v0c0 -141 115 -256 256 -256s256 115 256 256h-1v440zM335 850h23l-98 -85h-10z" />
    <glyph glyph-name="Ucircumflex" unicode="&#xdb;" horiz-adv-x="662" 
d="M530 715h20v-440c0 -152 -124 -275 -275 -275c-152 0 -275 123 -275 275v0v440h19v-440v0c0 -141 115 -256 256 -256s256 115 256 256h-1v440zM361 765l-91 79l-90 -79h-11l85 85h32l85 -85h-10z" />
    <glyph glyph-name="Udieresis" unicode="&#xdc;" horiz-adv-x="662" 
d="M530 715h20v-440c0 -152 -124 -275 -275 -275c-152 0 -275 123 -275 275v0v440h19v-440v0c0 -141 115 -256 256 -256s256 115 256 256h-1v440zM186 818c15 0 27 -12 27 -26c0 -15 -12 -27 -27 -27s-27 12 -27 27c0 14 12 26 27 26zM333 818c15 0 27 -12 27 -26
c0 -15 -12 -27 -27 -27s-27 12 -27 27c0 14 12 26 27 26z" />
    <glyph glyph-name="Ugrave" unicode="&#xd9;" horiz-adv-x="662" 
d="M530 715h20v-440c0 -152 -124 -275 -275 -275c-152 0 -275 123 -275 275v0v440h19v-440v0c0 -141 115 -256 256 -256s256 115 256 256h-1v440zM308 765h-10l-98 85h23z" />
    <glyph glyph-name="Yacute" unicode="&#xdd;" 
 />
    <glyph glyph-name="aacute" unicode="&#xe1;" horiz-adv-x="739" 
d="M629 0l-106 239h-396l-106 -239h-21l314 715h21l315 -715h-21zM135 259h380l-190 432zM410 850h24l-99 -85h-10z" />
    <glyph glyph-name="acircumflex" unicode="&#xe2;" horiz-adv-x="739" 
d="M629 0l-106 239h-396l-106 -239h-21l314 715h21l315 -715h-21zM135 259h380l-190 432zM414 765l-91 79l-91 -79h-10l85 85h32l85 -85h-10z" />
    <glyph glyph-name="adieresis" unicode="&#xe4;" horiz-adv-x="739" 
d="M629 0l-106 239h-396l-106 -239h-21l314 715h21l315 -715h-21zM135 259h380l-190 432zM249 818c15 0 27 -12 27 -26c0 -15 -12 -27 -27 -27s-27 12 -27 27c0 14 12 26 27 26zM396 818c15 0 27 -12 27 -26c0 -15 -12 -27 -27 -27s-27 12 -27 27c0 14 12 26 27 26z" />
    <glyph glyph-name="agrave" unicode="&#xe0;" horiz-adv-x="739" 
d="M629 0l-106 239h-396l-106 -239h-21l314 715h21l315 -715h-21zM135 259h380l-190 432zM329 765h-10l-98 85h23z" />
    <glyph glyph-name="aring" unicode="&#xe5;" 
 />
    <glyph glyph-name="atilde" unicode="&#xe3;" horiz-adv-x="739" 
d="M629 0l-106 239h-396l-106 -239h-21l314 715h21l315 -715h-21zM135 259h380l-190 432zM377 796l7 -9c-10 -15 -21 -22 -33 -22c-10 0 -20 5 -28 9c-10 6 -22 11 -37 11c-12 0 -20 -9 -25 -17l-6 9c8 14 19 21 33 21c10 0 21 -4 31 -9c17 -7 27 -11 32 -11
c12 0 20 9 26 18z" />
    <glyph glyph-name="ccedilla" unicode="&#xe7;" horiz-adv-x="785" 
d="M357 19c164 0 302 118 332 274h19c-30 -165 -174 -291 -347 -293v-28c10 7 22 10 34 10c37 0 66 -29 66 -66c0 -36 -29 -66 -66 -66c-31 0 -58 23 -64 52h20c6 -18 23 -32 44 -32c26 0 47 21 47 46c0 26 -21 47 -47 47c-13 0 -26 -6 -34 -15h-24v0v52
c-188 11 -337 167 -337 357c0 197 160 358 357 358c175 0 321 -127 351 -293h-19c-30 156 -168 274 -332 274c-187 0 -338 -152 -338 -339s151 -338 338 -338z" />
    <glyph glyph-name="eacute" unicode="&#xe9;" horiz-adv-x="486" 
d="M450 696h-431v-329h315v-19h-315v-329h431v-19h-450v715h450v-19zM282 850h23l-98 -85h-10z" />
    <glyph glyph-name="ecircumflex" unicode="&#xea;" horiz-adv-x="486" 
d="M450 696h-431v-329h315v-19h-315v-329h431v-19h-450v715h450v-19zM307 765l-91 79l-91 -79h-10l85 85h32l85 -85h-10z" />
    <glyph glyph-name="edieresis" unicode="&#xeb;" horiz-adv-x="486" 
d="M450 696h-431v-329h315v-19h-315v-329h431v-19h-450v715h450v-19zM148 818c15 0 27 -12 27 -26c0 -15 -12 -27 -27 -27s-27 12 -27 27c0 14 12 26 27 26zM295 818c15 0 27 -12 27 -26c0 -15 -12 -27 -27 -27s-27 12 -27 27c0 14 12 26 27 26z" />
    <glyph glyph-name="egrave" unicode="&#xe8;" horiz-adv-x="486" 
d="M450 696h-431v-329h315v-19h-315v-329h431v-19h-450v715h450v-19zM226 765h-10l-98 85h23z" />
    <glyph glyph-name="iacute" unicode="&#xed;" horiz-adv-x="372" 
d="M285 696h-133v-677h133v-19h-285v19h133v677h-133v19h285v-19zM223 850h23l-98 -85h-10z" />
    <glyph glyph-name="icircumflex" unicode="&#xee;" horiz-adv-x="372" 
d="M285 696h-133v-677h133v-19h-285v19h133v677h-133v19h285v-19zM233 765l-91 79l-90 -79h-11l85 85h32l85 -85h-10z" />
    <glyph glyph-name="idieresis" unicode="&#xef;" horiz-adv-x="372" 
d="M285 696h-133v-677h133v-19h-285v19h133v677h-133v19h285v-19zM67 818c15 0 27 -12 27 -26c0 -15 -12 -27 -27 -27s-27 12 -27 27c0 14 12 26 27 26zM214 818c15 0 27 -12 27 -26c0 -15 -12 -27 -27 -27s-27 12 -27 27c0 14 12 26 27 26z" />
    <glyph glyph-name="igrave" unicode="&#xec;" horiz-adv-x="372" 
d="M285 696h-133v-677h133v-19h-285v19h133v677h-133v19h285v-19zM186 765h-10l-98 85h23z" />
    <glyph glyph-name="ntilde" unicode="&#xf1;" horiz-adv-x="682" 
d="M552 715h20v-715h-20l-533 681v-681h-19v715h19v0v0v0v0l533 -682v682zM330 796l7 -9c-10 -15 -21 -22 -33 -22c-10 0 -20 5 -28 9c-10 6 -22 11 -37 11c-12 0 -20 -9 -25 -17l-6 9c8 14 19 21 33 21c10 0 21 -4 31 -9c17 -7 27 -11 32 -11c12 0 20 9 26 18z" />
    <glyph glyph-name="oacute" unicode="&#xf3;" horiz-adv-x="814" 
d="M357 0c197 0 357 160 357 357c0 198 -160 358 -357 358s-357 -160 -357 -358c0 -197 160 -357 357 -357zM357 696c186 0 338 -152 338 -339c0 -186 -152 -338 -338 -338c-187 0 -338 152 -338 338c0 187 151 339 338 339zM432 850h23l-98 -85h-10z" />
    <glyph glyph-name="ocircumflex" unicode="&#xf4;" horiz-adv-x="814" 
d="M357 0c197 0 357 160 357 357c0 198 -160 358 -357 358s-357 -160 -357 -358c0 -197 160 -357 357 -357zM357 696c186 0 338 -152 338 -339c0 -186 -152 -338 -338 -338c-187 0 -338 152 -338 338c0 187 151 339 338 339zM448 765l-91 79l-90 -79h-11l85 85h32l85 -85
h-10z" />
    <glyph glyph-name="odieresis" unicode="&#xf6;" horiz-adv-x="814" 
d="M357 0c197 0 357 160 357 357c0 198 -160 358 -357 358s-357 -160 -357 -358c0 -197 160 -357 357 -357zM357 696c186 0 338 -152 338 -339c0 -186 -152 -338 -338 -338c-187 0 -338 152 -338 338c0 187 151 339 338 339zM281 818c15 0 27 -12 27 -26
c0 -15 -12 -27 -27 -27s-27 12 -27 27c0 14 12 26 27 26zM428 818c15 0 27 -12 27 -26c0 -15 -12 -27 -27 -27s-27 12 -27 27c0 14 12 26 27 26z" />
    <glyph glyph-name="ograve" unicode="&#xf2;" horiz-adv-x="814" 
d="M357 0c197 0 357 160 357 357c0 198 -160 358 -357 358s-357 -160 -357 -358c0 -197 160 -357 357 -357zM357 696c186 0 338 -152 338 -339c0 -186 -152 -338 -338 -338c-187 0 -338 152 -338 338c0 187 151 339 338 339zM399 765h-10l-98 85h23z" />
    <glyph glyph-name="otilde" unicode="&#xf5;" horiz-adv-x="814" 
d="M357 0c197 0 357 160 357 357c0 198 -160 358 -357 358s-357 -160 -357 -358c0 -197 160 -357 357 -357zM357 696c186 0 338 -152 338 -339c0 -186 -152 -338 -338 -338c-187 0 -338 152 -338 338c0 187 151 339 338 339zM413 796l7 -9c-10 -15 -21 -22 -33 -22
c-10 0 -20 5 -28 9c-10 6 -22 11 -37 11c-12 0 -20 -9 -25 -17l-6 9c8 14 19 21 33 21c10 0 21 -4 31 -9c17 -7 27 -11 32 -11c12 0 20 9 26 18z" />
    <glyph glyph-name="uacute" unicode="&#xfa;" horiz-adv-x="662" 
d="M530 715h20v-440c0 -152 -124 -275 -275 -275c-152 0 -275 123 -275 275v0v440h19v-440v0c0 -141 115 -256 256 -256s256 115 256 256h-1v440zM335 850h23l-98 -85h-10z" />
    <glyph glyph-name="ucircumflex" unicode="&#xfb;" horiz-adv-x="662" 
d="M530 715h20v-440c0 -152 -124 -275 -275 -275c-152 0 -275 123 -275 275v0v440h19v-440v0c0 -141 115 -256 256 -256s256 115 256 256h-1v440zM361 765l-91 79l-90 -79h-11l85 85h32l85 -85h-10z" />
    <glyph glyph-name="udieresis" unicode="&#xfc;" horiz-adv-x="662" 
d="M530 715h20v-440c0 -152 -124 -275 -275 -275c-152 0 -275 123 -275 275v0v440h19v-440v0c0 -141 115 -256 256 -256s256 115 256 256h-1v440zM186 818c15 0 27 -12 27 -26c0 -15 -12 -27 -27 -27s-27 12 -27 27c0 14 12 26 27 26zM333 818c15 0 27 -12 27 -26
c0 -15 -12 -27 -27 -27s-27 12 -27 27c0 14 12 26 27 26z" />
    <glyph glyph-name="ugrave" unicode="&#xf9;" horiz-adv-x="662" 
d="M530 715h20v-440c0 -152 -124 -275 -275 -275c-152 0 -275 123 -275 275v0v440h19v-440v0c0 -141 115 -256 256 -256s256 115 256 256h-1v440zM308 765h-10l-98 85h23z" />
    <glyph glyph-name="ydieresis" unicode="&#xff;" 
 />
    </font>
</defs>
</svg>
