<?xml version="1.0" standalone="no"?>
<!DOCTYPE svg PUBLIC "-//W3C//DTD SVG 1.1//EN" "http://www.w3.org/Graphics/SVG/1.1/DTD/svg11.dtd" >
<svg xmlns="http://www.w3.org/2000/svg" xmlns:xlink="http://www.w3.org/1999/xlink" version="1.1">
<metadata>
Created by FontForge 20200314 at Tue Apr 14 18:04:43 2015
 By Unknown
Copyright (c) 2013 by Andriy Konstantynov. All rights reserved.
</metadata>
<defs>
<font id="ClinicaW01-ExtraLight" horiz-adv-x="216" >
  <font-face 
    font-family="ClinicaW01-ExtraLight"
    font-weight="300"
    font-stretch="normal"
    units-per-em="1000"
    panose-1="2 11 0 3 3 2 0 2 0 4"
    ascent="800"
    descent="-200"
    x-height="500"
    cap-height="700"
    bbox="-35 -218 997 924"
    underline-thickness="50"
    underline-position="-175"
    unicode-range="U+0020-2122"
  />
<missing-glyph horiz-adv-x="225" 
 />
    <glyph glyph-name=".notdef" horiz-adv-x="225" 
 />
    <glyph glyph-name=".null" horiz-adv-x="0" 
 />
    <glyph glyph-name="nonmarkingreturn" horiz-adv-x="333" 
 />
    <glyph glyph-name="space" unicode=" " horiz-adv-x="225" 
 />
    <glyph glyph-name="exclam" unicode="!" 
d="M128 0h-40v98h40v-98zM128 203h-40v497h40v-497z" />
    <glyph glyph-name="quotedbl" unicode="&#x22;" horiz-adv-x="354" 
d="M120 494h-29l-3 206h35zM264 494h-30l-2 206h35z" />
    <glyph glyph-name="numbersign" unicode="#" horiz-adv-x="675" 
d="M440 177h-264l-30 -177h-37l31 177h-95v30h100l48 286h-95v30h101l31 177h36l-31 -177h264l31 177h36l-31 -177h96v-30h-101l-49 -286h96v-30h-101l-30 -177h-37zM181 207h264l48 286h-263z" />
    <glyph glyph-name="dollar" unicode="$" horiz-adv-x="613" 
d="M281 -1q-49 3 -90.5 19.5t-71.5 44t-47 65.5t-17 84h39q0 -41 16 -74.5t44.5 -57.5t66.5 -37t83 -13t81.5 10.5t63 30.5t41 48.5t14.5 64.5q0 43 -18.5 69.5t-49 43t-69.5 26.5t-79.5 18.5t-79.5 19.5t-69.5 29.5t-49 48t-18.5 76.5q0 43 15 77t43 58t66.5 37t85.5 15v98
h37v-99q44 -3 81.5 -19t65 -42t43 -61t15.5 -77h-39q0 37 -14.5 68t-40 53.5t-60.5 34.5t-75 12q-41 0 -74.5 -10.5t-57.5 -30.5t-37 -48.5t-13 -64.5q0 -41 18.5 -66t49 -40.5t69 -24.5t79 -17.5t79.5 -19.5t69.5 -31t49 -51.5t18.5 -80.5q0 -44 -16.5 -78t-46.5 -57.5
t-71.5 -37t-91.5 -14.5v-98h-37v99z" />
    <glyph glyph-name="percent" unicode="%" horiz-adv-x="745" 
d="M559 700h37l-410 -700h-37zM52 570q0 63 36 98t95 35q60 0 96 -35t36 -98q0 -62 -36 -96.5t-96 -34.5q-59 0 -95 34.5t-36 96.5zM81 570q0 -50 28 -76.5t75 -26.5t75 26.5t28 76.5q0 51 -28 77.5t-75 26.5t-75 -26.5t-28 -77.5zM428 129q0 63 36.5 97.5t96.5 34.5
t96 -34.5t36 -97.5t-36 -97.5t-96 -34.5t-96.5 34.5t-36.5 97.5zM458 129q0 -50 27.5 -76.5t75.5 -26.5q47 0 74.5 26.5t27.5 76.5q0 51 -27.5 77.5t-74.5 26.5q-48 0 -75.5 -26.5t-27.5 -77.5z" />
    <glyph glyph-name="ampersand" unicode="&#x26;" horiz-adv-x="602" 
d="M540 323q0 -61 -17 -113.5t-46 -93.5l103 -116h-45l-80 93q-40 -45 -95.5 -70.5t-121.5 -25.5q-91 0 -146 49t-55 139q0 44 13.5 76.5t35.5 57.5t50.5 43.5t58.5 34.5q-28 42 -44.5 85t-16.5 83q0 65 38 101.5t101 36.5q58 0 97 -32t39 -96q0 -38 -13 -66t-35.5 -50
t-52 -39t-61.5 -34l202 -244q26 36 40 81.5t14 99.5h37zM238 29q57 0 106 23t84 65l-212 252q-27 -15 -52.5 -31.5t-45 -38.5t-31 -50t-11.5 -65q0 -72 43.5 -113.5t118.5 -41.5zM172 563q0 -34 15 -72t41 -77q29 15 55 30t45.5 33.5t31 42.5t11.5 56q0 25 -8 43.5
t-21.5 29.5t-31 16.5t-36.5 5.5q-45 0 -73.5 -27.5t-28.5 -80.5z" />
    <glyph glyph-name="quotesingle" unicode="'" horiz-adv-x="211" 
d="M120 494h-29l-3 206h35z" />
    <glyph glyph-name="parenleft" unicode="(" horiz-adv-x="265" 
d="M227 -132q-34 0 -62 30t-48.5 86.5t-31.5 138.5t-11 187t11 187t31.5 139t48.5 87t62 30v-30q-26 0 -47 -28t-36 -81t-23.5 -129.5t-8.5 -174.5t8.5 -174.5t23.5 -129.5t36 -81t47 -28v-29z" />
    <glyph glyph-name="parenright" unicode=")" horiz-adv-x="265" 
d="M47 753q34 0 62 -30t48 -87t31 -139t11 -187t-11 -187t-31 -138.5t-48 -86.5t-62 -30v29q26 0 47 28t36 81t23.5 129.5t8.5 174.5t-8.5 174.5t-23.5 129.5t-36 81t-47 28v30z" />
    <glyph glyph-name="asterisk" unicode="*" horiz-adv-x="472" 
d="M89 624l132 -77v153h30v-153l133 77l15 -27l-133 -75l133 -76l-15 -26l-133 76v-153h-30v153l-132 -76l-15 26l131 76l-131 75z" />
    <glyph glyph-name="plus" unicode="+" horiz-adv-x="489" 
d="M66 314h163v168h30v-168h164v-30h-164v-167h-30v167h-163v30z" />
    <glyph glyph-name="comma" unicode="," horiz-adv-x="205" 
d="M75 84h60v-84q0 -56 -17 -93.5t-45 -37.5v29q14 0 22.5 29t8.5 73h-29v84z" />
    <glyph glyph-name="hyphen" unicode="-" horiz-adv-x="334" 
d="M66 290h202v-30h-202v30z" />
    <glyph glyph-name="period" unicode="." horiz-adv-x="205" 
d="M75 84h60v-84h-60v84z" />
    <glyph glyph-name="slash" unicode="/" horiz-adv-x="373" 
d="M292 700h39l-250 -800h-39z" />
    <glyph glyph-name="zero" unicode="0" horiz-adv-x="657" 
d="M69 350q0 83 19 148.5t53.5 111t82 69.5t104.5 24q58 0 105.5 -24t82 -69.5t53.5 -111t19 -148.5t-19 -148.5t-53.5 -111t-82 -69.5t-105.5 -24q-57 0 -104.5 24t-82 69.5t-53.5 111t-19 148.5zM109 350q0 -76 16 -135.5t45 -101t69.5 -63t88.5 -21.5q49 0 89.5 21.5
t69.5 63t45 101t16 135.5t-16 135.5t-45 101t-69.5 63t-89.5 21.5q-48 0 -88.5 -21.5t-69.5 -63t-45 -101t-16 -135.5z" />
    <glyph glyph-name="one" unicode="1" horiz-adv-x="312" 
d="M51 631q39 0 64 3.5t40 11.5t21 21t6 33h36v-700h-40v604h-127v27z" />
    <glyph glyph-name="two" unicode="2" horiz-adv-x="581" 
d="M71 32q0 40 29.5 76t73.5 70.5t96 70.5t96 74.5t73.5 82.5t29.5 96q0 39 -13 70.5t-36.5 53t-56.5 33.5t-72 12t-73 -12.5t-59 -35t-39.5 -53.5t-14.5 -69h-39q0 45 17 82.5t47.5 64t72 41t89.5 14.5t87.5 -13.5t68 -39.5t44.5 -63.5t16 -84.5q0 -57 -29.5 -104.5
t-73.5 -87.5t-95 -75.5t-95 -68.5t-73.5 -66t-29.5 -68h405v-32h-446v32v0z" />
    <glyph glyph-name="three" unicode="3" horiz-adv-x="609" 
d="M229 375h66q38 0 70 10t54.5 29.5t35 46.5t12.5 62q0 69 -44.5 108.5t-122.5 39.5q-39 0 -71.5 -11t-56 -31.5t-37 -49t-13.5 -63.5h-39q0 42 16.5 76.5t45.5 59t68.5 38t86.5 13.5q96 0 151.5 -47t55.5 -131q0 -60 -31 -101t-84 -60q67 -14 108 -60.5t41 -118.5
q0 -44 -17 -79t-47.5 -59t-73 -37t-94.5 -13q-48 0 -89 13.5t-71.5 39t-48 60.5t-17.5 79h40q0 -36 14 -65.5t39 -50.5t59 -32.5t74 -11.5q42 0 77.5 10.5t61 31t39.5 49.5t14 66t-12.5 66t-36 49.5t-55.5 31.5t-71 11h-97v31z" />
    <glyph glyph-name="four" unicode="4" horiz-adv-x="583" 
d="M412 147h-366v32l351 521h53v-521h80v-32h-80v-147h-38v147zM412 179v479l-325 -479h325z" />
    <glyph glyph-name="five" unicode="5" horiz-adv-x="609" 
d="M135 700h367v-32h-331l-32 -280q28 31 71.5 47.5t94.5 16.5q52 0 95.5 -17t74.5 -47.5t48 -72.5t17 -93q0 -53 -16.5 -94.5t-47 -70.5t-73 -44.5t-94.5 -15.5q-48 0 -89 13.5t-71.5 38.5t-48 60.5t-17.5 78.5h40q0 -36 14 -65t39 -50t59 -32.5t74 -11.5q42 0 77.5 13
t61 38t39.5 61t14 81q0 43 -14.5 80t-41 63.5t-63.5 41.5t-81 15q-56 0 -100.5 -22t-64.5 -60h-40z" />
    <glyph glyph-name="six" unicode="6" horiz-adv-x="596" 
d="M529 222q0 -53 -17 -94.5t-47.5 -70.5t-73 -44.5t-93.5 -15.5q-77 0 -122.5 32t-69 83t-30.5 113.5t-7 124.5q0 81 17 146.5t48 111t73.5 70.5t93.5 25q42 0 78 -11.5t62.5 -32t41.5 -49.5t15 -64h-38q0 28 -12 51t-33.5 39.5t-50.5 25.5t-63 9q-41 0 -76 -20.5t-61 -64
t-41 -110t-16 -157.5q9 24 25.5 47t41 41.5t56.5 29.5t73 11q50 0 91.5 -15t71.5 -44t46.5 -71t16.5 -96zM119 222q0 -45 13 -81t36.5 -61t56.5 -38t73 -13q42 0 77 13t60.5 38t39.5 61t14 81q0 46 -14 82t-39.5 61t-60.5 38t-77 13q-80 0 -129.5 -50.5t-49.5 -143.5z" />
    <glyph glyph-name="seven" unicode="7" horiz-adv-x="551" 
d="M47 700h453v-32l-275 -668h-42l275 668h-411v32z" />
    <glyph glyph-name="eight" unicode="8" horiz-adv-x="582" 
d="M89 534q0 40 15 71.5t41.5 53t63.5 33t82 11.5t82 -11.5t63.5 -33t41.5 -53t15 -71.5q0 -60 -31.5 -99t-85.5 -56q64 -17 103 -64.5t39 -121.5q0 -46 -16.5 -82.5t-46.5 -61.5t-72 -38.5t-92 -13.5t-92 13.5t-72 38.5t-46.5 61.5t-16.5 82.5q0 74 39 121.5t103 64.5
q-53 17 -85 56t-32 99zM104 196q0 -40 13.5 -71t38.5 -52.5t59 -32.5t76 -11t76 11t59 32.5t38.5 52.5t13.5 71q0 39 -13.5 70t-38.5 52.5t-59 32.5t-76 11t-76 -11t-59 -32.5t-38.5 -52.5t-13.5 -70zM128 531q0 -65 45.5 -101t117.5 -36t117.5 36t45.5 101
q0 67 -45.5 103.5t-117.5 36.5t-117.5 -36.5t-45.5 -103.5z" />
    <glyph glyph-name="nine" unicode="9" horiz-adv-x="582" 
d="M69 487q0 51 16 91t45.5 68t70 42.5t89.5 14.5q75 0 119 -30.5t67 -80t30 -113t7 -129.5q0 -83 -15 -148.5t-44 -111t-72.5 -69.5t-101.5 -24q-42 0 -78 11.5t-62 32t-41 49.5t-15 64h38q0 -28 12 -51t33.5 -39.5t50.5 -25.5t63 -9q48 0 85.5 21.5t62 66t36 113
t8.5 162.5q-7 -20 -22.5 -41t-39 -39t-55.5 -29.5t-71 -11.5q-48 0 -88 14.5t-68.5 42t-44 68t-15.5 91.5zM463 487q0 88 -48 136t-125 48q-40 0 -73.5 -12.5t-57.5 -36t-37 -58t-13 -77.5q0 -44 13 -78t37 -57.5t57.5 -36t73.5 -12.5q38 0 70 12.5t55 36t35.5 57.5t12.5 78
z" />
    <glyph glyph-name="colon" unicode=":" horiz-adv-x="197" 
d="M71 84h55v-84h-55v84zM71 500h55v-84h-55v84z" />
    <glyph glyph-name="semicolon" unicode=";" horiz-adv-x="197" 
d="M71 500h55v-84h-55v84zM71 80h55v-80q0 -56 -17 -93.5t-45 -37.5v29q14 0 22.5 29t8.5 73h-24v80z" />
    <glyph glyph-name="less" unicode="&#x3c;" horiz-adv-x="596" 
d="M48 306v37l500 213v-38l-455 -194l455 -193v-39z" />
    <glyph glyph-name="equal" unicode="=" horiz-adv-x="539" 
d="M66 234h407v-30h-407v30zM66 445h407v-29h-407v29z" />
    <glyph glyph-name="greater" unicode="&#x3e;" horiz-adv-x="596" 
d="M548 343v-37l-500 -214v39l454 193l-454 194v38z" />
    <glyph glyph-name="question" unicode="?" horiz-adv-x="563" 
d="M262 223q0 42 14 69t35 46.5t45 34.5t45 33t35 42.5t14 63.5q0 37 -12.5 66.5t-34.5 50t-53 31.5t-68 11q-38 0 -70.5 -12.5t-56 -35t-37 -53.5t-13.5 -69h-39q0 45 16.5 82.5t45.5 64t68.5 41t85.5 14.5t84 -13t65.5 -37.5t42.5 -60t15 -80.5t-14 -73t-35 -47t-45 -33.5
t-45 -32t-35 -41.5t-14 -62v-20h-39v20zM262 98h39v-98h-39v98z" />
    <glyph glyph-name="at" unicode="@" horiz-adv-x="830" 
d="M557 349q0 85 -40.5 131.5t-105.5 46.5q-71 0 -113.5 -46.5t-42.5 -131.5q0 -84 42.5 -130.5t113.5 -46.5q65 0 105.5 46.5t40.5 130.5zM564 250q-20 -51 -61.5 -78t-95.5 -27q-41 0 -75 14t-58.5 40t-38 64t-13.5 86t13.5 86.5t38 64.5t58.5 40t75 14q53 0 92.5 -26
t59.5 -75l1 95h30v-332q0 -20 12.5 -32.5t32.5 -12.5t37.5 7t30 27t19.5 54.5t7 90.5q0 76 -23 136.5t-65 101.5t-100.5 63t-128.5 22q-69 0 -126.5 -22t-98.5 -63t-63.5 -101.5t-22.5 -136.5q0 -77 22.5 -137t63.5 -101t98.5 -63t126.5 -22q48 0 90 11.5t77 32.5l19 -26
q-38 -23 -85 -35.5t-101 -12.5q-76 0 -139 24t-108.5 69.5t-70.5 111t-25 148.5t25 148.5t70.5 111t108.5 69.5t139 24q78 0 142.5 -24t110 -69.5t71 -111t25.5 -148.5q0 -61 -8.5 -100.5t-25 -63t-40 -32.5t-52.5 -9q-35 0 -53 18t-18 47v40z" />
    <glyph glyph-name="A" unicode="A" horiz-adv-x="670" 
d="M312 700h46l275 -700h-41l-86 215h-342l-85 -215h-42zM174 248h322l-161 411z" />
    <glyph glyph-name="B" unicode="B" horiz-adv-x="633" 
d="M94 700h229q95 0 151 -46t56 -130q0 -60 -31 -100.5t-84 -59.5q68 -14 108.5 -60t40.5 -118q0 -44 -15.5 -78.5t-43 -58.5t-66.5 -36.5t-85 -12.5h-260v700zM350 32q39 0 71 10.5t55 30.5t35.5 49t12.5 66t-12.5 66t-35.5 49t-55 30.5t-71 10.5h-215v-312h215zM135 668
v-292h183q77 0 124.5 38.5t47.5 107.5t-46 107.5t-126 38.5h-183z" />
    <glyph glyph-name="C" unicode="C" horiz-adv-x="708" 
d="M377 670q-60 0 -109 -21.5t-84.5 -62.5t-55 -100.5t-19.5 -135.5t19.5 -135.5t55 -100.5t84.5 -62.5t109 -21.5q46 0 85 13.5t67.5 37.5t44.5 58t16 76h40q0 -49 -19.5 -89.5t-53 -69t-79.5 -44t-100 -15.5q-69 0 -125.5 24t-97.5 69.5t-63.5 111t-22.5 148.5t22.5 148.5
t63.5 111t97.5 69.5t125.5 24q54 0 100 -15.5t79.5 -44t53 -69t19.5 -89.5h-40q0 42 -16 76t-44.5 58t-67.5 37.5t-85 13.5z" />
    <glyph glyph-name="D" unicode="D" horiz-adv-x="678" 
d="M72 700h237q67 0 122 -23.5t94.5 -68.5t61.5 -110t22 -148t-22 -148t-61.5 -110t-94.5 -68.5t-122 -23.5h-237v700zM307 32q58 0 106.5 21.5t83 62t53.5 100t19 134.5t-19 134.5t-53.5 100t-83 62t-106.5 21.5h-194v-636h194z" />
    <glyph glyph-name="E" unicode="E" horiz-adv-x="584" 
d="M94 700h434v-32h-393v-292h361v-32h-361v-312h398v-32h-439v700z" />
    <glyph glyph-name="F" unicode="F" horiz-adv-x="558" 
d="M479 344h-344v-344h-41v700h413v-32h-372v-292h344v-32z" />
    <glyph glyph-name="G" unicode="G" horiz-adv-x="708" 
d="M405 355h225v-355h-35l-2 121q-29 -60 -85 -92t-130 -32q-69 0 -125.5 24t-97.5 69.5t-63.5 111t-22.5 148.5t22.5 148.5t63.5 111t97.5 69.5t125.5 24q54 0 100 -15.5t79.5 -44t53 -68.5t19.5 -89h-40q0 42 -16 76t-44.5 58t-67.5 37t-85 13q-60 0 -109 -21.5
t-84.5 -62.5t-55 -100.5t-19.5 -135.5t19.5 -135.5t55 -100.5t85 -62.5t109.5 -21.5q48 0 87.5 15t68 43t44 68.5t15.5 92.5v74h-188v32z" />
    <glyph glyph-name="H" unicode="H" horiz-adv-x="693" 
d="M559 344h-424v-344h-41v700h41v-324h424v324h40v-700h-40v344z" />
    <glyph glyph-name="I" unicode="I" horiz-adv-x="229" 
d="M94 700h41v-700h-41v700z" />
    <glyph glyph-name="J" unicode="J" horiz-adv-x="562" 
d="M428 700h40v-517q0 -42 -15 -76.5t-42 -58.5t-63.5 -37.5t-78.5 -13.5t-78.5 13.5t-63.5 37.5t-42 58.5t-15 76.5v40h41v-40q0 -34 12 -62t33 -48.5t50 -31.5t63 -11t63 11t50.5 31.5t33.5 48.5t12 62v517z" />
    <glyph glyph-name="K" unicode="K" horiz-adv-x="600" 
d="M231 368l-96 -103v-265h-41v700h41v-381l353 381h49l-280 -303l307 -397h-48z" />
    <glyph glyph-name="L" unicode="L" horiz-adv-x="567" 
d="M520 0h-426v700h41v-668h385v-32z" />
    <glyph glyph-name="M" unicode="M" horiz-adv-x="870" 
d="M94 700h57l284 -651l284 651h56v-700h-39v640l-280 -640h-42l-280 640v-640h-40v700z" />
    <glyph glyph-name="N" unicode="N" horiz-adv-x="716" 
d="M134 0h-40v700h40l448 -635v635h39v-700h-40l-447 635v-635z" />
    <glyph glyph-name="O" unicode="O" horiz-adv-x="755" 
d="M69 350q0 83 22.5 148.5t63.5 111t97.5 69.5t125.5 24t125.5 -24t97.5 -69.5t63.5 -111t22.5 -148.5t-22.5 -148.5t-63.5 -111t-97.5 -69.5t-125.5 -24t-125.5 24t-97.5 69.5t-63.5 111t-22.5 148.5zM109 350q0 -76 19.5 -135.5t55 -100.5t85 -62.5t109.5 -21.5t109 21.5
t84.5 62.5t55 100.5t19.5 135.5t-19.5 135.5t-55 100.5t-84.5 62.5t-109 21.5t-109.5 -21.5t-85 -62.5t-55 -100.5t-19.5 -135.5z" />
    <glyph glyph-name="P" unicode="P" horiz-adv-x="613" 
d="M94 700h241q46 0 84.5 -13t66.5 -38.5t43 -62t15 -82.5t-15 -82.5t-43 -61.5t-66.5 -38.5t-84.5 -13.5h-200v-308h-41v700zM135 668v-328h195q39 0 71 11.5t55.5 32.5t36 51.5t12.5 68.5q0 39 -12.5 69.5t-36 51.5t-55.5 32t-71 11h-195z" />
    <glyph glyph-name="Q" unicode="Q" horiz-adv-x="755" 
d="M69 350q0 83 22.5 148.5t63.5 111t97.5 69.5t125.5 24t125.5 -24t97.5 -69.5t63.5 -111t22.5 -148.5q0 -87 -24.5 -153.5t-67.5 -111.5l100 -84l-20 -25l-104 87q-80 -66 -193 -66q-69 0 -125.5 24t-97.5 69.5t-63.5 111t-22.5 148.5zM443 213l123 -104q38 42 59 102.5
t21 138.5q0 76 -19.5 135.5t-55 100.5t-84.5 62.5t-109 21.5t-109.5 -21.5t-85 -62.5t-55 -100.5t-19.5 -135.5t19.5 -135.5t55 -100.5t85 -62.5t109.5 -21.5q98 0 165 56l-121 101z" />
    <glyph glyph-name="R" unicode="R" horiz-adv-x="614" 
d="M94 700h241q46 0 84.5 -13t66.5 -38t43 -61.5t15 -82.5q0 -88 -52.5 -139.5t-137.5 -56.5l212 -309h-47l-205 309h-179v-309h-41v700zM135 668v-327h195q39 0 71 11t55.5 32t36 51.5t12.5 69.5q0 78 -48.5 120.5t-126.5 42.5h-195z" />
    <glyph glyph-name="S" unicode="S" horiz-adv-x="613" 
d="M94 212q0 -41 16 -74.5t44.5 -57.5t66.5 -37t83 -13t81.5 10.5t63 30.5t41 48.5t14.5 64.5q0 43 -18.5 69.5t-49 43t-69.5 26.5t-79.5 18.5t-79.5 19.5t-69.5 29.5t-49 48t-18.5 76.5q0 44 16.5 79t45.5 59t70 37t90 13t91 -14.5t73 -41t48.5 -63.5t17.5 -82h-39
q0 37 -14.5 68t-40 53.5t-60.5 34.5t-75 12q-41 0 -74.5 -10.5t-57.5 -30.5t-37 -48.5t-13 -64.5q0 -41 18.5 -66t49 -40.5t69 -24.5t79 -17.5t79.5 -19.5t69.5 -31t49 -51.5t18.5 -80.5q0 -45 -17.5 -80t-49.5 -59t-76 -36.5t-96 -12.5q-54 0 -99.5 15.5t-79 43.5t-52.5 68
t-19 88h39z" />
    <glyph glyph-name="T" unicode="T" horiz-adv-x="648" 
d="M51 700h546v-32h-253v-668h-40v668h-253v32z" />
    <glyph glyph-name="U" unicode="U" horiz-adv-x="718" 
d="M584 700h41v-468q0 -53 -20.5 -96.5t-56 -74t-84 -47.5t-105.5 -17t-105.5 17t-84 47.5t-55.5 74t-20 96.5v468h40v-468q0 -45 17 -82.5t47 -64t71.5 -41t89.5 -14.5t89.5 14.5t71.5 41t47 64t17 82.5v468z" />
    <glyph glyph-name="V" unicode="V" horiz-adv-x="681" 
d="M363 0h-45l-281 700h41l262 -659l263 659h41z" />
    <glyph glyph-name="W" unicode="W" horiz-adv-x="1034" 
d="M515 645l-201 -645h-44l-233 700h41l214 -653l203 653h41l204 -653l215 653h42l-235 -700h-45z" />
    <glyph glyph-name="X" unicode="X" horiz-adv-x="677" 
d="M314 353l-263 347h48l240 -318l241 318h48l-265 -347l269 -353h-48l-245 325l-246 -325h-48z" />
    <glyph glyph-name="Y" unicode="Y" horiz-adv-x="676" 
d="M318 293l-267 407h47l240 -370l242 370h47l-269 -407v-293h-40v293z" />
    <glyph glyph-name="Z" unicode="Z" horiz-adv-x="636" 
d="M66 700h518v-31l-477 -637h473v-32h-519v31l476 637h-471v32z" />
    <glyph glyph-name="bracketleft" unicode="[" horiz-adv-x="279" 
d="M88 750h153v-30h-116v-820h116v-30h-153v880z" />
    <glyph glyph-name="backslash" unicode="\" horiz-adv-x="373" 
d="M331 -100h-39l-250 800h39z" />
    <glyph glyph-name="bracketright" unicode="]" horiz-adv-x="279" 
d="M190 -130h-152v30h116v820h-116v30h152v-880z" />
    <glyph glyph-name="asciicircum" unicode="^" horiz-adv-x="507" 
d="M470 500h-45l-171 176l-172 -176h-44l195 200h41z" />
    <glyph glyph-name="underscore" unicode="_" horiz-adv-x="407" 
d="M0 -50h407v-30h-407v30z" />
    <glyph glyph-name="grave" unicode="`" 
d="M191 572h-38l-127 128h44z" />
    <glyph glyph-name="a" unicode="a" horiz-adv-x="533" 
d="M405 122q-26 -60 -76.5 -92.5t-117.5 -32.5q-65 0 -106 33.5t-41 94.5q0 80 77.5 123.5t222.5 43.5h41v46q0 63 -40.5 98.5t-105.5 35.5q-32 0 -59.5 -9t-47.5 -24.5t-31.5 -37.5t-11.5 -49h-39q0 34 14.5 62t40 47.5t60 30.5t74.5 11q41 0 75 -11t58.5 -32.5t38 -52
t13.5 -69.5v-338h-38zM364 263q-128 0 -194 -36t-66 -100q0 -48 30.5 -73.5t81.5 -25.5q42 0 76.5 14.5t59.5 42.5t39 68t14 91v19h-41z" />
    <glyph glyph-name="b" unicode="b" horiz-adv-x="606" 
d="M88 725h40v-345q24 60 72.5 91.5t112.5 31.5q51 0 93 -17t72 -49.5t46.5 -79.5t16.5 -107t-16.5 -107t-46.5 -79.5t-72 -49.5t-93 -17q-64 0 -112.5 32t-72.5 92l-2 -121h-38v725zM128 250q0 -106 49.5 -164t130.5 -58q43 0 79 15t61.5 43.5t39.5 69.5t14 94
q0 52 -14 93.5t-39.5 70t-61.5 43.5t-79 15q-81 0 -130.5 -58t-49.5 -164z" />
    <glyph glyph-name="c" unicode="c" horiz-adv-x="562" 
d="M298 472q-43 0 -79 -15t-61.5 -43.5t-39.5 -70t-14 -93.5q0 -53 14 -94t39.5 -69.5t61.5 -43.5t79 -15q32 0 60 9t48.5 26t32 40t11.5 52h39q0 -36 -14.5 -65t-40.5 -49.5t-61 -32t-75 -11.5q-52 0 -95 17t-74 49.5t-48 79.5t-17 107t17 107t48 79.5t74 49.5t95 17
q40 0 75 -11.5t61 -32t40.5 -49.5t14.5 -65h-39q0 28 -11.5 51.5t-32 40.5t-48.5 26t-60 9z" />
    <glyph glyph-name="d" unicode="d" horiz-adv-x="601" 
d="M517 0h-37l-2 122q-25 -60 -73 -92.5t-113 -32.5q-50 0 -92 17t-72 49.5t-47 79.5t-17 107t17 107t47 79.5t72 49.5t92 17q65 0 113 -31.5t73 -91.5v345h39v-725zM478 250q0 52 -13 93.5t-37 70t-57.5 43.5t-73.5 15q-43 0 -78.5 -15t-61 -43.5t-39.5 -70t-14 -93.5
q0 -53 14 -94t39.5 -69.5t61 -43.5t78.5 -15q40 0 73.5 15t57.5 43.5t37 69.5t13 94z" />
    <glyph glyph-name="e" unicode="e" horiz-adv-x="576" 
d="M298 503q45 0 83 -16t65 -49t42 -82.5t14 -115.5h-397q1 -50 15 -89.5t39.5 -66.5t61 -41.5t77.5 -14.5q34 0 64 9t51.5 25.5t34 39t12.5 50.5h38q0 -35 -15 -63.5t-42 -49t-63.5 -31.5t-79.5 -11q-52 0 -95 17t-74 49.5t-48 79.5t-17 107t16.5 107t47 79.5t74 49.5
t96.5 17zM298 472q-42 0 -77 -13.5t-61 -39.5t-40.5 -63.5t-14.5 -85.5h358q0 48 -12.5 85.5t-34.5 63.5t-52.5 39.5t-65.5 13.5z" />
    <glyph glyph-name="f" unicode="f" horiz-adv-x="344" 
d="M255 728q11 0 21 -1t21 -3v-30q-20 3 -40 3q-46 0 -74.5 -22.5t-28.5 -64.5v-110h143v-30h-143v-470h-40v470h-81v30h81v108q0 58 37.5 89t103.5 31z" />
    <glyph glyph-name="g" unicode="g" horiz-adv-x="606" 
d="M298 -187q40 0 73 12.5t57 36.5t37 58t13 78v122q-25 -60 -73 -91.5t-113 -31.5q-50 0 -92 17t-72 49.5t-47 79.5t-17 107t17 107t47 79.5t72 49.5t92 17q65 0 113 -32t73 -92l2 121h37v-502q0 -51 -16 -91t-45 -67.5t-69.5 -42.5t-88.5 -15q-47 0 -86.5 11.5t-69 32.5
t-46 50.5t-16.5 65.5h38q0 -29 13.5 -52.5t37.5 -40.5t57 -26.5t72 -9.5zM478 250q0 52 -13 93.5t-37 70t-57.5 43.5t-73.5 15q-43 0 -78.5 -15t-61 -43.5t-39.5 -70t-14 -93.5q0 -53 14 -94t39.5 -69.5t61 -43.5t78.5 -15q40 0 73.5 15t57.5 43.5t37 69.5t13 94z" />
    <glyph glyph-name="h" unicode="h" horiz-adv-x="583" 
d="M128 0h-40v725h40v-346q25 60 73 92t113 32q82 0 133.5 -47.5t51.5 -134.5v-321h-39v321q0 72 -42.5 111.5t-109.5 39.5q-81 0 -130.5 -58t-49.5 -164v-250z" />
    <glyph glyph-name="i" unicode="i" 
d="M88 700h40v-96h-40v96zM88 500h40v-500h-40v500z" />
    <glyph glyph-name="j" unicode="j" 
d="M88 700h40v-96h-40v96zM128 -92q0 -60 -38.5 -93t-104.5 -33v31q46 0 74.5 24t28.5 69v594h40v-592z" />
    <glyph glyph-name="k" unicode="k" horiz-adv-x="484" 
d="M194 249l-66 -75v-174h-40v725h40v-497l241 272h48l-200 -223l226 -277h-46z" />
    <glyph glyph-name="l" unicode="l" horiz-adv-x="236" 
d="M88 725h40v-634q0 -30 15.5 -46.5t40.5 -16.5v-31q-45 0 -70.5 23.5t-25.5 68.5v636z" />
    <glyph glyph-name="m" unicode="m" horiz-adv-x="847" 
d="M128 0h-40v500h38l2 -122q21 60 61.5 92.5t95.5 32.5q58 0 98.5 -34t51.5 -94q22 63 65.5 95.5t99.5 32.5q71 0 115 -47.5t44 -134.5v-321h-39v321q0 72 -35 111.5t-91 39.5q-33 0 -60.5 -15t-47.5 -43.5t-31.5 -70t-11.5 -93.5v-250h-39v321q0 72 -34.5 111.5
t-91.5 39.5q-67 0 -108.5 -58t-41.5 -164v-250z" />
    <glyph glyph-name="n" unicode="n" horiz-adv-x="587" 
d="M128 0h-40v500h38l2 -122q25 60 73 92.5t113 32.5q82 0 133.5 -47.5t51.5 -134.5v-321h-39v321q0 72 -42.5 111.5t-109.5 39.5q-81 0 -130.5 -58t-49.5 -164v-250z" />
    <glyph glyph-name="o" unicode="o" horiz-adv-x="597" 
d="M64 250q0 60 17 107t48 79.5t74 49.5t95 17t95 -17t74 -49.5t48 -79.5t17 -107t-17 -107t-48 -79.5t-74 -49.5t-95 -17t-95 17t-74 49.5t-48 79.5t-17 107zM104 250q0 -53 14 -94t39.5 -69.5t61.5 -43.5t79 -15t79 15t62 43.5t40 69.5t14 94q0 52 -14 93.5t-40 70
t-62 43.5t-79 15t-79 -15t-61.5 -43.5t-39.5 -70t-14 -93.5z" />
    <glyph glyph-name="p" unicode="p" horiz-adv-x="606" 
d="M88 500h38l2 -122q24 60 72.5 92.5t112.5 32.5q51 0 93 -17t72 -49.5t46.5 -79.5t16.5 -107t-16.5 -107t-46.5 -79.5t-72 -49.5t-93 -17q-64 0 -112.5 31.5t-72.5 91.5v-335h-40v715zM128 250q0 -106 49.5 -164t130.5 -58q43 0 79 15t61.5 43.5t39.5 69.5t14 94
q0 52 -14 93.5t-39.5 70t-61.5 43.5t-79 15q-81 0 -130.5 -58t-49.5 -164z" />
    <glyph glyph-name="q" unicode="q" horiz-adv-x="601" 
d="M517 -215h-39v335q-25 -60 -73 -91.5t-113 -31.5q-50 0 -92 17t-72 49.5t-47 79.5t-17 107t17 107t47 79.5t72 49.5t92 17q65 0 113 -32t73 -92l2 121h37v-715zM478 250q0 52 -13 93.5t-37 70t-57.5 43.5t-73.5 15q-43 0 -78.5 -15t-61 -43.5t-39.5 -70t-14 -93.5
q0 -53 14 -94t39.5 -69.5t61 -43.5t78.5 -15q40 0 73.5 15t57.5 43.5t37 69.5t13 94z" />
    <glyph glyph-name="r" unicode="r" horiz-adv-x="372" 
d="M128 0h-40v500h37l3 -124q25 62 73.5 94.5t114.5 32.5v-33q-42 0 -76.5 -15.5t-59 -44.5t-38.5 -71t-14 -95v-244z" />
    <glyph glyph-name="s" unicode="s" horiz-adv-x="499" 
d="M99 152q0 -28 11.5 -50.5t32 -39t48.5 -25.5t60 -9q63 0 103 27.5t40 76.5q0 40 -24 60t-59.5 31t-77.5 18t-77.5 20t-59.5 37t-24 70q0 64 47.5 99.5t123.5 35.5q37 0 69 -10.5t55.5 -29.5t37 -45.5t13.5 -59.5h-37q0 25 -10.5 46t-29.5 36t-44 23.5t-54 8.5
q-59 0 -95.5 -27.5t-36.5 -76.5q0 -38 24 -57t59.5 -29t77.5 -16.5t77.5 -20t59.5 -39.5t24 -74q0 -32 -13.5 -57t-37.5 -42.5t-58 -26.5t-74 -9q-41 0 -75.5 11t-60 31.5t-40 49t-14.5 63.5h39z" />
    <glyph glyph-name="t" unicode="t" horiz-adv-x="362" 
d="M264 -3q-66 0 -103.5 31t-37.5 89v353h-90v30h90v105h40v-105h143v-30h-143v-355q0 -42 28.5 -64.5t74.5 -22.5q20 0 40 3v-30q-11 -2 -21 -3t-21 -1z" />
    <glyph glyph-name="u" unicode="u" horiz-adv-x="587" 
d="M460 500h39v-500h-38l-1 122q-25 -60 -73.5 -92.5t-113.5 -32.5q-41 0 -75 12t-58.5 35.5t-38 57t-13.5 76.5v322h40v-322q0 -72 42 -111t109 -39q40 0 73.5 15t57.5 43.5t37 69.5t13 94v250z" />
    <glyph glyph-name="v" unicode="v" horiz-adv-x="530" 
d="M287 0h-44l-211 500h40l193 -460l192 460h41z" />
    <glyph glyph-name="w" unicode="w" horiz-adv-x="793" 
d="M395 447l-146 -447h-43l-174 500h40l156 -456l148 456h40l148 -456l156 456h42l-177 -500h-42z" />
    <glyph glyph-name="x" unicode="x" horiz-adv-x="535" 
d="M244 253l-198 247h46l175 -220l175 220h47l-199 -247l204 -253h-46l-181 227l-180 -227h-46z" />
    <glyph glyph-name="y" unicode="y" horiz-adv-x="528" 
d="M245 -94q-25 -60 -75.5 -92t-115.5 -32v31q50 0 90.5 24.5t60.5 68.5l42 94h-5l-210 500h41l191 -459l191 459h41z" />
    <glyph glyph-name="z" unicode="z" horiz-adv-x="511" 
d="M60 500h391v-30l-351 -440h356v-30h-401v30l351 440h-346v30z" />
    <glyph glyph-name="braceleft" unicode="{" horiz-adv-x="331" 
d="M152 203q0 44 -29 68.5t-76 24.5v30q47 0 76 24t29 69v209q0 60 37.5 92.5t103.5 32.5v-30q-47 0 -76 -24t-29 -69v-206q0 -43 -19.5 -71t-54.5 -42q35 -14 54.5 -42.5t19.5 -70.5v-205q0 -45 29 -69t76 -24v-30q-66 0 -103.5 32.5t-37.5 92.5v208z" />
    <glyph glyph-name="bar" unicode="|" horiz-adv-x="213" 
d="M88 700h37v-800h-37v800z" />
    <glyph glyph-name="braceright" unicode="}" horiz-adv-x="331" 
d="M179 419q0 -44 28.5 -68.5t76.5 -24.5v-30q-48 0 -76.5 -24.5t-28.5 -68.5v-208q0 -60 -38 -92.5t-103 -32.5v30q47 0 75.5 24t28.5 69v205q0 42 19.5 70.5t54.5 42.5q-35 14 -54.5 42t-19.5 71v206q0 45 -28.5 69t-75.5 24v30q65 0 103 -32.5t38 -92.5v-209z" />
    <glyph glyph-name="asciitilde" unicode="~" horiz-adv-x="438" 
d="M47 254q0 50 27.5 76.5t65.5 26.5q27 0 45.5 -13t34.5 -28t33 -28t42 -13q28 0 46.5 19t18.5 53h31q0 -49 -28 -76t-65 -27q-29 0 -48 13t-35 28t-32.5 28t-39.5 13q-29 0 -47 -18.5t-18 -53.5h-31v0z" />
    <glyph glyph-name="exclamdown" unicode="&#xa1;" 
d="M88 500h40v-98h-40v98zM88 297h40v-497h-40v497z" />
    <glyph glyph-name="cent" unicode="&#xa2;" horiz-adv-x="562" 
d="M280 -1q-48 2 -88 20t-68.5 50.5t-44 78t-15.5 102.5t15.5 102.5t44 77.5t68.5 50t88 21v99h37v-99q37 -2 68.5 -14.5t54.5 -32.5t36 -48t13 -61h-39q0 28 -11.5 51.5t-32 40.5t-48.5 26t-60 9q-43 0 -79 -15t-61.5 -43.5t-39.5 -70t-14 -93.5q0 -53 14 -94t39.5 -69.5
t61.5 -43.5t79 -15q32 0 60 9t48.5 26t32 40t11.5 52h39q0 -33 -13 -61t-36 -48.5t-54.5 -32.5t-68.5 -14v-99h-37v99z" />
    <glyph glyph-name="sterling" unicode="&#xa3;" horiz-adv-x="574" 
d="M46 340h71v178q0 42 15 76t41.5 58t63 37.5t78.5 13.5t78 -13.5t62.5 -37.5t41.5 -58t15 -76v-41h-39v41q0 34 -12 62t-33 48t-50 31t-63 11t-63 -11t-50 -31t-33 -48t-12 -62v-178h260v-32h-260v-276h369v-32h-480v32h71v276h-71v32z" />
    <glyph glyph-name="currency" unicode="&#xa4;" horiz-adv-x="512" 
d="M96 325q0 66 32 107l-82 82l21 21l81 -82q41 38 108 38q66 0 107 -38l82 82l21 -21l-82 -82q33 -42 33 -107t-33 -107l82 -82l-21 -21l-82 81q-42 -37 -107 -37q-66 0 -108 37l-81 -81l-21 21l82 82q-32 41 -32 107zM128 325q0 -64 35.5 -100t92.5 -36q58 0 93 36t35 100
t-35 100t-93 36q-57 0 -92.5 -36t-35.5 -100z" />
    <glyph glyph-name="yen" unicode="&#xa5;" horiz-adv-x="676" 
d="M173 243h145v50l-267 407h47l240 -370l242 370h47l-269 -407v-50h145v-28h-145v-89h145v-27h-145v-99h-40v99h-146v27h146v89h-145v28z" />
    <glyph glyph-name="brokenbar" unicode="&#xa6;" horiz-adv-x="213" 
d="M88 250h37v-350h-37v350zM125 350h-37v350h37v-350z" />
    <glyph glyph-name="section" unicode="&#xa7;" horiz-adv-x="539" 
d="M99 -63q0 -28 13 -50.5t36.5 -39t55 -25.5t68.5 -9q36 0 65.5 9t51 25.5t33.5 40.5t12 53q0 37 -15.5 60t-41 37t-58 22t-66.5 15.5t-66.5 17t-58 26.5t-41 44t-15.5 70q0 62 31.5 103.5t85.5 56.5q-24 8 -45.5 19t-37 27.5t-25 39.5t-9.5 56q0 39 14 70.5t39 53t60.5 33
t77.5 11.5q41 0 76.5 -10.5t62 -29.5t41.5 -45.5t15 -59.5h-37q0 25 -12 46t-33.5 36t-50.5 23.5t-62 8.5q-68 0 -110 -36.5t-42 -97.5q0 -36 15.5 -58.5t41 -36.5t58 -22t66.5 -15.5t66.5 -17.5t58 -27.5t41 -46t15.5 -72.5q0 -60 -33.5 -100t-90.5 -55q25 -8 47.5 -18.5
t39.5 -27.5t27 -41.5t10 -59.5q0 -37 -15 -66.5t-41.5 -49.5t-63.5 -31t-82 -11t-83.5 11t-67 31.5t-44.5 49t-16 63.5h39zM436 241q0 36 -15 59t-40 37t-57 22.5t-65 15.5q-66 -2 -107.5 -40t-41.5 -101q0 -36 14.5 -58t38 -35.5t53.5 -21t62 -14.5q70 2 114 38.5t44 97.5z
" />
    <glyph glyph-name="dieresis" unicode="&#xa8;" horiz-adv-x="414" 
d="M87 672h36v-85h-36v85zM291 672h36v-85h-36v85z" />
    <glyph glyph-name="copyright" unicode="&#xa9;" horiz-adv-x="807" 
d="M69 350q0 83 24.5 148.5t68.5 111t105.5 69.5t135.5 24q75 0 137 -24t106 -69.5t68.5 -111t24.5 -148.5t-24.5 -148.5t-68.5 -111t-106 -69.5t-137 -24q-74 0 -135.5 24t-105.5 69.5t-68.5 111t-24.5 148.5zM102 350q0 -77 22 -136.5t61.5 -101t95 -63t122.5 -21.5
t122.5 21.5t95.5 63t62 101t22 136.5q0 76 -22 136t-62 101.5t-95.5 63t-122.5 21.5t-122.5 -21.5t-95 -63t-61.5 -101.5t-22 -136zM419 537q-75 0 -121 -49t-46 -138t46 -138t121 -49q28 0 52 8.5t41.5 23.5t27.5 36.5t10 47.5h33q0 -32 -13 -58.5t-35 -45.5t-52.5 -29
t-64.5 -10q-44 0 -81 14.5t-63.5 42t-41 67t-14.5 90.5t14.5 90.5t41 67t63.5 42t81 14.5q34 0 64.5 -10.5t52.5 -29t35 -45t13 -58.5h-33q0 26 -10 47.5t-27.5 36.5t-41.5 23.5t-52 8.5z" />
    <glyph glyph-name="ordfeminine" unicode="&#xaa;" horiz-adv-x="404" 
d="M297 431q-18 -40 -53 -61.5t-83 -21.5q-47 0 -77 23.5t-30 66.5q0 56 56 87t159 31h28v31q0 42 -28 65.5t-73 23.5t-74 -22t-29 -59h-34q0 24 10.5 44t29 34t43.5 21.5t54 7.5q60 0 98 -30.5t38 -84.5v-237h-33zM269 532q-88 0 -134 -24t-46 -68q0 -32 21.5 -49t57.5 -17
q57 0 93 38t36 107v13h-28z" />
    <glyph glyph-name="guillemotleft" unicode="&#xab;" horiz-adv-x="459" 
d="M385 450v-43l-134 -132l134 -132v-43l-161 157v36zM226 450v-43l-134 -132l134 -132v-43l-161 157v36z" />
    <glyph glyph-name="logicalnot" unicode="&#xac;" horiz-adv-x="513" 
d="M66 365h357v-165h-35v135h-322v30z" />
    <glyph glyph-name="uni00AD" unicode="&#xad;" horiz-adv-x="359" 
d="M66 290h227v-30h-227v30z" />
    <glyph glyph-name="registered" unicode="&#xae;" horiz-adv-x="807" 
d="M69 350q0 83 24.5 148.5t68.5 111t105.5 69.5t135.5 24q75 0 137 -24t106 -69.5t68.5 -111t24.5 -148.5t-24.5 -148.5t-68.5 -111t-106 -69.5t-137 -24q-74 0 -135.5 24t-105.5 69.5t-68.5 111t-24.5 148.5zM102 350q0 -77 22 -136.5t61.5 -101t95 -63t122.5 -21.5
t122.5 21.5t95.5 63t62 101t22 136.5q0 76 -22 136t-62 101.5t-95.5 63t-122.5 21.5t-122.5 -21.5t-95 -63t-61.5 -101.5t-22 -136zM295 531h129q48 0 78 -26t30 -73q0 -44 -25.5 -69t-67.5 -30l105 -152h-35l-99 152h-84v-152h-31v350zM326 509v-154h92q38 0 61 20t23 57
t-23 57t-61 20h-92z" />
    <glyph glyph-name="macron" unicode="&#xaf;" horiz-adv-x="414" 
d="M90 643h234v-30h-234v30z" />
    <glyph glyph-name="degree" unicode="&#xb0;" horiz-adv-x="334" 
d="M64 600q0 48 28.5 75.5t74.5 27.5t74 -27.5t28 -75.5t-28 -74.5t-74 -26.5t-74.5 26.5t-28.5 74.5zM92 600q0 -36 20 -55.5t55 -19.5q34 0 54.5 19.5t20.5 55.5q0 37 -20.5 56.5t-54.5 19.5q-35 0 -55 -19.5t-20 -56.5z" />
    <glyph glyph-name="plusminus" unicode="&#xb1;" horiz-adv-x="489" 
d="M66 343h163v168h30v-168h164v-30h-164v-168h-30v168h-163v30zM66 107h357v-30h-357v30z" />
    <glyph glyph-name="uni00B2" unicode="&#xb2;" horiz-adv-x="317" 
d="M43 372q0 19 14.5 36.5t37 34.5t48 35t48 37t37 40t14.5 46q0 35 -23 56.5t-61 21.5t-62.5 -22t-24.5 -57h-30q0 46 33.5 73.5t84.5 27.5t82 -26t31 -74q0 -28 -14.5 -51t-36.5 -43.5t-47.5 -38t-47.5 -33.5t-36.5 -31.5t-14.5 -31.5h201v-22h-233v22v0z" />
    <glyph glyph-name="uni00B3" unicode="&#xb3;" horiz-adv-x="329" 
d="M126 541h33q37 0 60 18.5t23 51.5q0 32 -21.5 50t-59.5 18q-37 0 -60.5 -20t-23.5 -53h-29q0 44 32.5 69.5t82.5 25.5t79.5 -23.5t29.5 -65.5q0 -29 -16 -50t-42 -30q34 -8 54 -31.5t20 -58.5q0 -45 -32.5 -69t-88.5 -24q-51 0 -85 26t-34 71h30q0 -34 25 -54.5t64 -20.5
q41 0 66 19t25 54t-23 55t-61 20h-48v22z" />
    <glyph glyph-name="acute" unicode="&#xb4;" 
d="M147 700h44l-127 -128h-38z" />
    <glyph glyph-name="mu" unicode="&#xb5;" horiz-adv-x="587" 
d="M88 500h40v-322q0 -72 42 -111t109 -39q40 0 73.5 15t57.5 43.5t37 69.5t13 94v250h39v-500h-38l-1 122q-25 -60 -72.5 -92.5t-111.5 -32.5q-52 0 -90 21t-58 60v-228h-40v650z" />
    <glyph glyph-name="paragraph" unicode="&#xb6;" horiz-adv-x="594" 
d="M347 -100h-39v408h-30q-47 0 -85 13.5t-66 38.5t-43 61.5t-15 82.5t15 82.5t43 62t66 38.5t85 13h69v-800zM462 700h38v-800h-38v800z" />
    <glyph glyph-name="periodcentered" unicode="&#xb7;" horiz-adv-x="197" 
d="M71 307h55v-76h-55v76z" />
    <glyph glyph-name="cedilla" unicode="&#xb8;" horiz-adv-x="301" 
d="M167 0v-20q0 -27 11 -39.5t24.5 -21.5t24.5 -19.5t11 -33.5q0 -32 -22 -50.5t-55 -18.5q-24 0 -41.5 9t-29.5 23v27q14 -14 31 -23t38 -9q25 0 37.5 12t12.5 30q0 17 -11 25t-24.5 17t-24.5 24.5t-11 47.5v20h29z" />
    <glyph glyph-name="uni00B9" unicode="&#xb9;" horiz-adv-x="184" 
d="M33 664q42 0 56 7.5t14 28.5h27v-350h-31v295h-66v19z" />
    <glyph glyph-name="ordmasculine" unicode="&#xba;" horiz-adv-x="447" 
d="M54 525q0 84 47 130.5t123 46.5q37 0 68.5 -12t53.5 -35t34.5 -55.5t12.5 -74.5t-12.5 -74.5t-34.5 -55.5t-53.5 -35t-68.5 -12q-76 0 -123 46.5t-47 130.5zM89 525q0 -72 37.5 -111.5t97.5 -39.5t97.5 39.5t37.5 111.5t-37.5 111.5t-97.5 39.5t-97.5 -39.5t-37.5 -111.5
z" />
    <glyph glyph-name="guillemotright" unicode="&#xbb;" horiz-adv-x="459" 
d="M74 100v43l135 132l-135 132v43l162 -157v-36zM233 100v43l134 132l-134 132v43l161 -157v-36z" />
    <glyph glyph-name="onequarter" unicode="&#xbc;" horiz-adv-x="614" 
d="M33 664q42 0 56 7.5t14 28.5h27v-350h-31v295h-66v19zM445 700h36l-350 -700h-36zM505 72h-185v23l174 255h39v-255h39v-23h-39v-72h-28v72zM505 95v225l-156 -225h156z" />
    <glyph glyph-name="onehalf" unicode="&#xbd;" horiz-adv-x="659" 
d="M33 664q42 0 56 7.5t14 28.5h27v-350h-31v295h-66v19zM446 700h36l-350 -700h-36zM384 22q0 19 14.5 36.5t37 34.5t48 35t48 37t37 40t14.5 46q0 35 -23 56.5t-61 21.5t-62.5 -22t-24.5 -57h-30q0 46 33.5 73.5t84.5 27.5t82 -26t31 -74q0 -28 -14.5 -51t-36.5 -43.5
t-47.5 -38t-47.5 -33.5t-36.5 -31.5t-14.5 -31.5h201v-22h-233v22z" />
    <glyph glyph-name="threequarters" unicode="&#xbe;" horiz-adv-x="712" 
d="M126 541h33q37 0 60 18.5t23 51.5q0 32 -21.5 50t-59.5 18q-37 0 -60.5 -20t-23.5 -53h-29q0 44 32.5 69.5t82.5 25.5t79.5 -23.5t29.5 -65.5q0 -29 -16 -50t-42 -30q34 -8 54 -31.5t20 -58.5q0 -45 -32.5 -69t-88.5 -24q-51 0 -85 26t-34 71h30q0 -34 25 -54.5t64 -20.5
q41 0 66 19t25 54t-23 55t-61 20h-48v22zM541 700h36l-350 -700h-36zM603 72h-185v23l174 255h39v-255h39v-23h-39v-72h-28v72zM603 95v225l-156 -225h156z" />
    <glyph glyph-name="questiondown" unicode="&#xbf;" horiz-adv-x="563" 
d="M303 277q0 -42 -14 -69t-35 -46.5t-45 -34.5t-45 -33t-35 -42.5t-14 -63.5q0 -37 12 -66.5t34.5 -50t53 -31.5t68.5 -11q37 0 69.5 12.5t56.5 35t37.5 54t13.5 69.5h38q0 -45 -16.5 -82.5t-45.5 -64.5t-68.5 -41.5t-85.5 -14.5t-84 13t-65.5 37.5t-42.5 60t-15 80.5
q0 44 14 72.5t35 47.5t45 33.5t45 32t35 41.5t14 62v20h40v-20zM303 402h-40v98h40v-98z" />
    <glyph glyph-name="Agrave" unicode="&#xc0;" horiz-adv-x="670" 
d="M312 700h46l275 -700h-41l-86 215h-342l-85 -215h-42zM174 248h322l-161 411zM407 772h-38l-127 128h44z" />
    <glyph glyph-name="Aacute" unicode="&#xc1;" horiz-adv-x="670" 
d="M312 700h46l275 -700h-41l-86 215h-342l-85 -215h-42zM174 248h322l-161 411zM374 900h44l-127 -128h-38z" />
    <glyph glyph-name="Acircumflex" unicode="&#xc2;" horiz-adv-x="670" 
d="M312 700h46l275 -700h-41l-86 215h-342l-85 -215h-42zM174 248h322l-161 411zM478 772h-40l-104 108l-103 -108h-40l123 128h41z" />
    <glyph glyph-name="Atilde" unicode="&#xc3;" horiz-adv-x="670" 
d="M312 700h46l275 -700h-41l-86 215h-342l-85 -215h-42zM174 248h322l-161 411zM187 794q0 37 23 57.5t57 20.5q26 0 41.5 -8.5t28 -19t26.5 -19t36 -8.5q23 0 37.5 13.5t14.5 36.5h30q0 -37 -24 -57.5t-56 -20.5q-24 0 -40.5 8.5t-30 18.5t-27 18.5t-33.5 8.5
q-24 0 -38.5 -13t-14.5 -36h-30z" />
    <glyph glyph-name="Adieresis" unicode="&#xc4;" horiz-adv-x="670" 
d="M312 700h46l275 -700h-41l-86 215h-342l-85 -215h-42zM174 248h322l-161 411zM215 872h36v-85h-36v85zM419 872h36v-85h-36v85z" />
    <glyph glyph-name="Aring" unicode="&#xc5;" horiz-adv-x="670" 
d="M312 700h46l275 -700h-41l-86 215h-342l-85 -215h-42zM174 248h322l-161 411zM248 836q0 42 24 65t63 23t63 -23t24 -65q0 -41 -24 -63.5t-63 -22.5t-63 22.5t-24 63.5zM275 836q0 -29 16 -45t44 -16t44 16t16 45q0 30 -16 46t-44 16t-44 -16t-16 -46z" />
    <glyph glyph-name="AE" unicode="&#xc6;" horiz-adv-x="765" 
d="M337 215h-173l-85 -215h-42l273 700h399v-32h-333v-292h301v-32h-301v-312h338v-32h-377v215zM337 248v420h-3l-160 -420h163z" />
    <glyph glyph-name="Ccedilla" unicode="&#xc7;" horiz-adv-x="708" 
d="M377 670q-60 0 -109 -21.5t-84.5 -62.5t-55 -100.5t-19.5 -135.5t19.5 -135.5t55 -100.5t84.5 -62.5t109 -21.5q46 0 85 13.5t67.5 37.5t44.5 58t16 76h40q0 -48 -18.5 -87.5t-50.5 -68t-76.5 -45t-95.5 -17.5v-17q0 -27 11 -39.5t24.5 -21.5t24.5 -19.5t11 -33.5
q0 -32 -22 -50.5t-55 -18.5q-24 0 -41.5 9t-29.5 23v27q14 -14 31 -23t38 -9q25 0 37.5 12t12.5 30q0 17 -11 25t-24.5 17t-24.5 24.5t-11 47.5v18q-65 3 -118.5 28t-92 70t-59.5 109t-21 145q0 83 22.5 148.5t63.5 111t97.5 69.5t125.5 24q54 0 100 -15.5t79.5 -44t53 -69
t19.5 -89.5h-40q0 42 -16 76t-44.5 58t-67.5 37.5t-85 13.5z" />
    <glyph glyph-name="Egrave" unicode="&#xc8;" horiz-adv-x="584" 
d="M94 700h434v-32h-393v-292h361v-32h-361v-312h398v-32h-439v700zM389 772h-38l-127 128h44z" />
    <glyph glyph-name="Eacute" unicode="&#xc9;" horiz-adv-x="584" 
d="M94 700h434v-32h-393v-292h361v-32h-361v-312h398v-32h-439v700zM365 900h44l-127 -128h-38z" />
    <glyph glyph-name="Ecircumflex" unicode="&#xca;" horiz-adv-x="584" 
d="M94 700h434v-32h-393v-292h361v-32h-361v-312h398v-32h-439v700zM459 772h-40l-104 108l-103 -108h-40l123 128h41z" />
    <glyph glyph-name="Edieresis" unicode="&#xcb;" horiz-adv-x="584" 
d="M94 700h434v-32h-393v-292h361v-32h-361v-312h398v-32h-439v700zM196 872h36v-85h-36v85zM400 872h36v-85h-36v85z" />
    <glyph glyph-name="Igrave" unicode="&#xcc;" horiz-adv-x="229" 
d="M94 700h41v-700h-41v700zM187 772h-38l-127 128h44z" />
    <glyph glyph-name="Iacute" unicode="&#xcd;" horiz-adv-x="229" 
d="M94 700h41v-700h-41v700zM163 900h44l-127 -128h-38z" />
    <glyph glyph-name="Icircumflex" unicode="&#xce;" horiz-adv-x="229" 
d="M94 700h41v-700h-41v700zM258 772h-40l-104 108l-103 -108h-40l123 128h41z" />
    <glyph glyph-name="Idieresis" unicode="&#xcf;" horiz-adv-x="229" 
d="M94 700h41v-700h-41v700zM-5 872h36v-85h-36v85zM199 872h36v-85h-36v85z" />
    <glyph glyph-name="Eth" unicode="&#xd0;" horiz-adv-x="729" 
d="M123 348h-90v31h90v321h237q67 0 122 -23.5t94.5 -68.5t61.5 -110t22 -148t-22 -148t-61.5 -110t-94.5 -68.5t-122 -23.5h-237v348zM358 32q58 0 106.5 21.5t83 62t53.5 100t19 134.5t-19 134.5t-53.5 100t-83 62t-106.5 21.5h-194v-289h198v-31h-198v-316h194z" />
    <glyph glyph-name="Ntilde" unicode="&#xd1;" horiz-adv-x="716" 
d="M134 0h-40v700h40l448 -635v635h39v-700h-40l-447 635v-635zM211 794q0 37 23 57.5t57 20.5q26 0 41.5 -8.5t28 -19t26.5 -19t36 -8.5q23 0 37.5 13.5t14.5 36.5h30q0 -37 -24 -57.5t-56 -20.5q-24 0 -40.5 8.5t-30 18.5t-27 18.5t-33.5 8.5q-24 0 -38.5 -13t-14.5 -36
h-30z" />
    <glyph glyph-name="Ograve" unicode="&#xd2;" horiz-adv-x="755" 
d="M69 350q0 83 22.5 148.5t63.5 111t97.5 69.5t125.5 24t125.5 -24t97.5 -69.5t63.5 -111t22.5 -148.5t-22.5 -148.5t-63.5 -111t-97.5 -69.5t-125.5 -24t-125.5 24t-97.5 69.5t-63.5 111t-22.5 148.5zM109 350q0 -76 19.5 -135.5t55 -100.5t85 -62.5t109.5 -21.5t109 21.5
t84.5 62.5t55 100.5t19.5 135.5t-19.5 135.5t-55 100.5t-84.5 62.5t-109 21.5t-109.5 -21.5t-85 -62.5t-55 -100.5t-19.5 -135.5zM450 772h-38l-127 128h44z" />
    <glyph glyph-name="Oacute" unicode="&#xd3;" horiz-adv-x="755" 
d="M69 350q0 83 22.5 148.5t63.5 111t97.5 69.5t125.5 24t125.5 -24t97.5 -69.5t63.5 -111t22.5 -148.5t-22.5 -148.5t-63.5 -111t-97.5 -69.5t-125.5 -24t-125.5 24t-97.5 69.5t-63.5 111t-22.5 148.5zM109 350q0 -76 19.5 -135.5t55 -100.5t85 -62.5t109.5 -21.5t109 21.5
t84.5 62.5t55 100.5t19.5 135.5t-19.5 135.5t-55 100.5t-84.5 62.5t-109 21.5t-109.5 -21.5t-85 -62.5t-55 -100.5t-19.5 -135.5zM426 900h44l-127 -128h-38z" />
    <glyph glyph-name="Ocircumflex" unicode="&#xd4;" horiz-adv-x="755" 
d="M69 350q0 83 22.5 148.5t63.5 111t97.5 69.5t125.5 24t125.5 -24t97.5 -69.5t63.5 -111t22.5 -148.5t-22.5 -148.5t-63.5 -111t-97.5 -69.5t-125.5 -24t-125.5 24t-97.5 69.5t-63.5 111t-22.5 148.5zM109 350q0 -76 19.5 -135.5t55 -100.5t85 -62.5t109.5 -21.5t109 21.5
t84.5 62.5t55 100.5t19.5 135.5t-19.5 135.5t-55 100.5t-84.5 62.5t-109 21.5t-109.5 -21.5t-85 -62.5t-55 -100.5t-19.5 -135.5zM521 772h-40l-104 108l-103 -108h-40l123 128h41z" />
    <glyph glyph-name="Otilde" unicode="&#xd5;" horiz-adv-x="755" 
d="M69 350q0 83 22.5 148.5t63.5 111t97.5 69.5t125.5 24t125.5 -24t97.5 -69.5t63.5 -111t22.5 -148.5t-22.5 -148.5t-63.5 -111t-97.5 -69.5t-125.5 -24t-125.5 24t-97.5 69.5t-63.5 111t-22.5 148.5zM109 350q0 -76 19.5 -135.5t55 -100.5t85 -62.5t109.5 -21.5t109 21.5
t84.5 62.5t55 100.5t19.5 135.5t-19.5 135.5t-55 100.5t-84.5 62.5t-109 21.5t-109.5 -21.5t-85 -62.5t-55 -100.5t-19.5 -135.5zM230 794q0 37 23 57.5t57 20.5q26 0 41.5 -8.5t28 -19t26.5 -19t36 -8.5q23 0 37.5 13.5t14.5 36.5h30q0 -37 -24 -57.5t-56 -20.5
q-24 0 -40.5 8.5t-30 18.5t-27 18.5t-33.5 8.5q-24 0 -38.5 -13t-14.5 -36h-30z" />
    <glyph glyph-name="Odieresis" unicode="&#xd6;" horiz-adv-x="755" 
d="M69 350q0 83 22.5 148.5t63.5 111t97.5 69.5t125.5 24t125.5 -24t97.5 -69.5t63.5 -111t22.5 -148.5t-22.5 -148.5t-63.5 -111t-97.5 -69.5t-125.5 -24t-125.5 24t-97.5 69.5t-63.5 111t-22.5 148.5zM109 350q0 -76 19.5 -135.5t55 -100.5t85 -62.5t109.5 -21.5t109 21.5
t84.5 62.5t55 100.5t19.5 135.5t-19.5 135.5t-55 100.5t-84.5 62.5t-109 21.5t-109.5 -21.5t-85 -62.5t-55 -100.5t-19.5 -135.5zM258 872h36v-85h-36v85zM462 872h36v-85h-36v85z" />
    <glyph glyph-name="multiply" unicode="&#xd7;" horiz-adv-x="490" 
d="M115 450l130 -130l130 130l21 -21l-130 -130l130 -129l-21 -21l-130 129l-130 -129l-21 21l130 129l-130 130z" />
    <glyph glyph-name="Oslash" unicode="&#xd8;" horiz-adv-x="755" 
d="M161 84q-44 45 -68 112t-24 154q0 83 22.5 148.5t63.5 111t97.5 69.5t125.5 24q57 0 105.5 -16.5t86.5 -48.5l46 62h40l-62 -83q45 -46 69 -113t24 -154q0 -83 -22.5 -148.5t-63.5 -111t-97.5 -69.5t-125.5 -24q-58 0 -107 16.5t-87 48.5l-46 -62h-39zM647 350
q0 77 -20 136t-55 101l-367 -496q68 -62 173 -62q60 0 109.5 21.5t85 63t55 101t19.5 135.5zM108 350q0 -77 19.5 -136t55.5 -101l366 497q-69 61 -171 61q-60 0 -109.5 -21.5t-85.5 -63t-55.5 -101t-19.5 -135.5z" />
    <glyph glyph-name="Ugrave" unicode="&#xd9;" horiz-adv-x="718" 
d="M584 700h41v-468q0 -53 -20.5 -96.5t-56 -74t-84 -47.5t-105.5 -17t-105.5 17t-84 47.5t-55.5 74t-20 96.5v468h40v-468q0 -45 17 -82.5t47 -64t71.5 -41t89.5 -14.5t89.5 14.5t71.5 41t47 64t17 82.5v468zM431 772h-38l-127 128h44z" />
    <glyph glyph-name="Uacute" unicode="&#xda;" horiz-adv-x="718" 
d="M584 700h41v-468q0 -53 -20.5 -96.5t-56 -74t-84 -47.5t-105.5 -17t-105.5 17t-84 47.5t-55.5 74t-20 96.5v468h40v-468q0 -45 17 -82.5t47 -64t71.5 -41t89.5 -14.5t89.5 14.5t71.5 41t47 64t17 82.5v468zM407 900h44l-127 -128h-38z" />
    <glyph glyph-name="Ucircumflex" unicode="&#xdb;" horiz-adv-x="718" 
d="M584 700h41v-468q0 -53 -20.5 -96.5t-56 -74t-84 -47.5t-105.5 -17t-105.5 17t-84 47.5t-55.5 74t-20 96.5v468h40v-468q0 -45 17 -82.5t47 -64t71.5 -41t89.5 -14.5t89.5 14.5t71.5 41t47 64t17 82.5v468zM503 772h-40l-104 108l-103 -108h-40l123 128h41z" />
    <glyph glyph-name="Udieresis" unicode="&#xdc;" horiz-adv-x="718" 
d="M584 700h41v-468q0 -53 -20.5 -96.5t-56 -74t-84 -47.5t-105.5 -17t-105.5 17t-84 47.5t-55.5 74t-20 96.5v468h40v-468q0 -45 17 -82.5t47 -64t71.5 -41t89.5 -14.5t89.5 14.5t71.5 41t47 64t17 82.5v468zM239 872h36v-85h-36v85zM443 872h36v-85h-36v85z" />
    <glyph glyph-name="Yacute" unicode="&#xdd;" horiz-adv-x="676" 
d="M318 293l-267 407h47l240 -370l242 370h47l-269 -407v-293h-40v293zM386 900h44l-127 -128h-38z" />
    <glyph glyph-name="Thorn" unicode="&#xde;" horiz-adv-x="584" 
d="M94 698h41v-149h171q46 0 85 -13t66.5 -38t43 -61.5t15.5 -82.5t-15.5 -82t-43 -61t-66.5 -38.5t-85 -13.5h-171v-159h-41v698zM135 517v-326h167q39 0 71 11t55 32t35.5 51.5t12.5 68.5q0 78 -48 120.5t-126 42.5h-167z" />
    <glyph glyph-name="germandbls" unicode="&#xdf;" horiz-adv-x="601" 
d="M229 152q0 -28 10.5 -50.5t29 -39t44 -25.5t54.5 -9q58 0 94 27.5t36 76.5q0 39 -19 59t-47 31t-61 18t-61 20t-47 37.5t-19 70.5q0 42 16.5 70t37 51.5t37 47t16.5 57.5q0 46 -27.5 74.5t-81.5 28.5q-51 0 -82 -27t-31 -76v-594h-40v593q0 66 40.5 100.5t112.5 34.5
q77 0 112.5 -37.5t35.5 -96.5q0 -40 -16.5 -66.5t-36.5 -49.5t-36.5 -48t-16.5 -62q0 -38 18.5 -57t47 -29.5t61 -17.5t61 -20.5t47 -39t18.5 -72.5q0 -32 -12.5 -57t-34.5 -42.5t-53 -26.5t-68 -9q-38 0 -70 11t-55 31.5t-36.5 49t-13.5 63.5h36z" />
    <glyph glyph-name="agrave" unicode="&#xe0;" horiz-adv-x="533" 
d="M405 122q-26 -60 -76.5 -92.5t-117.5 -32.5q-65 0 -106 33.5t-41 94.5q0 80 77.5 123.5t222.5 43.5h41v46q0 63 -40.5 98.5t-105.5 35.5q-32 0 -59.5 -9t-47.5 -24.5t-31.5 -37.5t-11.5 -49h-39q0 34 14.5 62t40 47.5t60 30.5t74.5 11q41 0 75 -11t58.5 -32.5t38 -52
t13.5 -69.5v-338h-38zM364 263q-128 0 -194 -36t-66 -100q0 -48 30.5 -73.5t81.5 -25.5q42 0 76.5 14.5t59.5 42.5t39 68t14 91v19h-41zM342 572h-38l-127 128h44z" />
    <glyph glyph-name="aacute" unicode="&#xe1;" horiz-adv-x="533" 
d="M405 122q-26 -60 -76.5 -92.5t-117.5 -32.5q-65 0 -106 33.5t-41 94.5q0 80 77.5 123.5t222.5 43.5h41v46q0 63 -40.5 98.5t-105.5 35.5q-32 0 -59.5 -9t-47.5 -24.5t-31.5 -37.5t-11.5 -49h-39q0 34 14.5 62t40 47.5t60 30.5t74.5 11q41 0 75 -11t58.5 -32.5t38 -52
t13.5 -69.5v-338h-38zM364 263q-128 0 -194 -36t-66 -100q0 -48 30.5 -73.5t81.5 -25.5q42 0 76.5 14.5t59.5 42.5t39 68t14 91v19h-41zM300 700h44l-127 -128h-38z" />
    <glyph glyph-name="acircumflex" unicode="&#xe2;" horiz-adv-x="533" 
d="M405 122q-26 -60 -76.5 -92.5t-117.5 -32.5q-65 0 -106 33.5t-41 94.5q0 80 77.5 123.5t222.5 43.5h41v46q0 63 -40.5 98.5t-105.5 35.5q-32 0 -59.5 -9t-47.5 -24.5t-31.5 -37.5t-11.5 -49h-39q0 34 14.5 62t40 47.5t60 30.5t74.5 11q41 0 75 -11t58.5 -32.5t38 -52
t13.5 -69.5v-338h-38zM364 263q-128 0 -194 -36t-66 -100q0 -48 30.5 -73.5t81.5 -25.5q42 0 76.5 14.5t59.5 42.5t39 68t14 91v19h-41zM404 572h-40l-104 108l-103 -108h-40l123 128h41z" />
    <glyph glyph-name="atilde" unicode="&#xe3;" horiz-adv-x="533" 
d="M405 122q-26 -60 -76.5 -92.5t-117.5 -32.5q-65 0 -106 33.5t-41 94.5q0 80 77.5 123.5t222.5 43.5h41v46q0 63 -40.5 98.5t-105.5 35.5q-32 0 -59.5 -9t-47.5 -24.5t-31.5 -37.5t-11.5 -49h-39q0 34 14.5 62t40 47.5t60 30.5t74.5 11q41 0 75 -11t58.5 -32.5t38 -52
t13.5 -69.5v-338h-38zM364 263q-128 0 -194 -36t-66 -100q0 -48 30.5 -73.5t81.5 -25.5q42 0 76.5 14.5t59.5 42.5t39 68t14 91v19h-41zM113 594q0 37 23 57.5t57 20.5q26 0 41.5 -8.5t28 -19t26.5 -19t36 -8.5q23 0 37.5 13.5t14.5 36.5h30q0 -37 -24 -57.5t-56 -20.5
q-24 0 -40.5 8.5t-30 18.5t-27 18.5t-33.5 8.5q-24 0 -38.5 -13t-14.5 -36h-30z" />
    <glyph glyph-name="adieresis" unicode="&#xe4;" horiz-adv-x="533" 
d="M405 122q-26 -60 -76.5 -92.5t-117.5 -32.5q-65 0 -106 33.5t-41 94.5q0 80 77.5 123.5t222.5 43.5h41v46q0 63 -40.5 98.5t-105.5 35.5q-32 0 -59.5 -9t-47.5 -24.5t-31.5 -37.5t-11.5 -49h-39q0 34 14.5 62t40 47.5t60 30.5t74.5 11q41 0 75 -11t58.5 -32.5t38 -52
t13.5 -69.5v-338h-38zM364 263q-128 0 -194 -36t-66 -100q0 -48 30.5 -73.5t81.5 -25.5q42 0 76.5 14.5t59.5 42.5t39 68t14 91v19h-41zM141 672h36v-85h-36v85zM345 672h36v-85h-36v85z" />
    <glyph glyph-name="aring" unicode="&#xe5;" horiz-adv-x="533" 
d="M405 122q-26 -60 -76.5 -92.5t-117.5 -32.5q-65 0 -106 33.5t-41 94.5q0 80 77.5 123.5t222.5 43.5h41v46q0 63 -40.5 98.5t-105.5 35.5q-32 0 -59.5 -9t-47.5 -24.5t-31.5 -37.5t-11.5 -49h-39q0 34 14.5 62t40 47.5t60 30.5t74.5 11q41 0 75 -11t58.5 -32.5t38 -52
t13.5 -69.5v-338h-38zM364 263q-128 0 -194 -36t-66 -100q0 -48 30.5 -73.5t81.5 -25.5q42 0 76.5 14.5t59.5 42.5t39 68t14 91v19h-41zM174 636q0 42 24 65t63 23t63 -23t24 -65q0 -41 -24 -63.5t-63 -22.5t-63 22.5t-24 63.5zM201 636q0 -29 16 -45t44 -16t44 16t16 45
q0 30 -16 46t-44 16t-44 -16t-16 -46z" />
    <glyph glyph-name="ae" unicode="&#xe6;" horiz-adv-x="915" 
d="M637 503q45 0 83 -16t65 -49t42 -82.5t14 -115.5h-397q1 -50 15 -89.5t39.5 -66.5t61 -41.5t77.5 -14.5q34 0 64 9t51.5 25.5t34 39t12.5 50.5h38q0 -35 -15 -63.5t-42 -49t-63.5 -31.5t-79.5 -11q-80 0 -136 41.5t-77 117.5q-20 -71 -72 -115t-141 -44q-65 0 -106 33.5
t-41 94.5q0 80 77.5 123.5t222.5 43.5h41v46q0 63 -40.5 98.5t-105.5 35.5q-32 0 -59.5 -9t-47.5 -24.5t-31.5 -37.5t-11.5 -49h-39q0 34 14.5 62t40 47.5t60 30.5t74.5 11q70 0 117 -34.5t56 -97.5q25 63 77.5 97.5t127.5 34.5zM637 472q-42 0 -77 -13.5t-61 -39.5
t-40.5 -63.5t-14.5 -85.5h358q0 48 -12.5 85.5t-34.5 63.5t-52.5 39.5t-65.5 13.5zM364 263q-128 0 -194 -36t-66 -100q0 -48 30.5 -73.5t81.5 -25.5q42 0 76.5 14.5t59.5 42.5t39 68t14 91v19h-41z" />
    <glyph glyph-name="ccedilla" unicode="&#xe7;" horiz-adv-x="562" 
d="M298 472q-43 0 -79 -15t-61.5 -43.5t-39.5 -70t-14 -93.5q0 -53 14 -94t39.5 -69.5t61.5 -43.5t79 -15q32 0 60 9t48.5 26t32 40t11.5 52h39q0 -34 -13.5 -62t-37 -48.5t-56 -32.5t-69.5 -14v-18q0 -27 11 -39.5t24.5 -21.5t24.5 -19.5t11 -33.5q0 -32 -22 -50.5
t-55 -18.5q-24 0 -41.5 9t-29.5 23v27q14 -14 31 -23t38 -9q25 0 37.5 12t12.5 30q0 17 -11 25t-24.5 17t-24.5 24.5t-11 47.5v17q-49 2 -89.5 20.5t-69.5 50.5t-45 78t-16 104q0 60 17 107t48 79.5t74 49.5t95 17q40 0 75 -11.5t61 -32t40.5 -49.5t14.5 -65h-39
q0 28 -11.5 51.5t-32 40.5t-48.5 26t-60 9z" />
    <glyph glyph-name="egrave" unicode="&#xe8;" horiz-adv-x="576" 
d="M298 503q45 0 83 -16t65 -49t42 -82.5t14 -115.5h-397q1 -50 15 -89.5t39.5 -66.5t61 -41.5t77.5 -14.5q34 0 64 9t51.5 25.5t34 39t12.5 50.5h38q0 -35 -15 -63.5t-42 -49t-63.5 -31.5t-79.5 -11q-52 0 -95 17t-74 49.5t-48 79.5t-17 107t16.5 107t47 79.5t74 49.5
t96.5 17zM298 472q-42 0 -77 -13.5t-61 -39.5t-40.5 -63.5t-14.5 -85.5h358q0 48 -12.5 85.5t-34.5 63.5t-52.5 39.5t-65.5 13.5zM379 572h-38l-127 128h44z" />
    <glyph glyph-name="eacute" unicode="&#xe9;" horiz-adv-x="576" 
d="M298 503q45 0 83 -16t65 -49t42 -82.5t14 -115.5h-397q1 -50 15 -89.5t39.5 -66.5t61 -41.5t77.5 -14.5q34 0 64 9t51.5 25.5t34 39t12.5 50.5h38q0 -35 -15 -63.5t-42 -49t-63.5 -31.5t-79.5 -11q-52 0 -95 17t-74 49.5t-48 79.5t-17 107t16.5 107t47 79.5t74 49.5
t96.5 17zM298 472q-42 0 -77 -13.5t-61 -39.5t-40.5 -63.5t-14.5 -85.5h358q0 48 -12.5 85.5t-34.5 63.5t-52.5 39.5t-65.5 13.5zM337 700h44l-127 -128h-38z" />
    <glyph glyph-name="ecircumflex" unicode="&#xea;" horiz-adv-x="576" 
d="M298 503q45 0 83 -16t65 -49t42 -82.5t14 -115.5h-397q1 -50 15 -89.5t39.5 -66.5t61 -41.5t77.5 -14.5q34 0 64 9t51.5 25.5t34 39t12.5 50.5h38q0 -35 -15 -63.5t-42 -49t-63.5 -31.5t-79.5 -11q-52 0 -95 17t-74 49.5t-48 79.5t-17 107t16.5 107t47 79.5t74 49.5
t96.5 17zM298 472q-42 0 -77 -13.5t-61 -39.5t-40.5 -63.5t-14.5 -85.5h358q0 48 -12.5 85.5t-34.5 63.5t-52.5 39.5t-65.5 13.5zM442 572h-40l-104 108l-103 -108h-40l123 128h41z" />
    <glyph glyph-name="edieresis" unicode="&#xeb;" horiz-adv-x="576" 
d="M298 503q45 0 83 -16t65 -49t42 -82.5t14 -115.5h-397q1 -50 15 -89.5t39.5 -66.5t61 -41.5t77.5 -14.5q34 0 64 9t51.5 25.5t34 39t12.5 50.5h38q0 -35 -15 -63.5t-42 -49t-63.5 -31.5t-79.5 -11q-52 0 -95 17t-74 49.5t-48 79.5t-17 107t16.5 107t47 79.5t74 49.5
t96.5 17zM298 472q-42 0 -77 -13.5t-61 -39.5t-40.5 -63.5t-14.5 -85.5h358q0 48 -12.5 85.5t-34.5 63.5t-52.5 39.5t-65.5 13.5zM178 672h36v-85h-36v85zM382 672h36v-85h-36v85z" />
    <glyph glyph-name="igrave" unicode="&#xec;" 
d="M172 572h-38l-127 128h44zM88 500h40v-500h-40v500z" />
    <glyph glyph-name="iacute" unicode="&#xed;" 
d="M166 700h44l-127 -128h-38zM88 500h40v-500h-40v500z" />
    <glyph glyph-name="icircumflex" unicode="&#xee;" 
d="M88 500h40v-500h-40v500zM252 572h-40l-104 108l-103 -108h-40l123 128h41z" />
    <glyph glyph-name="idieresis" unicode="&#xef;" 
d="M-12 672h36v-85h-36v85zM192 672h36v-85h-36v85zM88 500h40v-500h-40v500z" />
    <glyph glyph-name="eth" unicode="&#xf0;" horiz-adv-x="582" 
d="M386 640q-24 21 -52 33t-58.5 18t-62 7t-62.5 1v29q40 0 76.5 -2t69.5 -9t62.5 -20.5t53.5 -35.5l83 66v-33l-65 -50q42 -47 64.5 -131.5t22.5 -224.5q0 -79 -17 -134.5t-47.5 -90t-72 -50.5t-89.5 -16q-50 0 -92 17t-72 49.5t-46.5 79.5t-16.5 107t16.5 107t45.5 79.5
t70 49.5t90 17q65 0 113.5 -29.5t74.5 -83.5q-4 87 -22.5 142.5t-47.5 90.5l-85 -67v32zM478 250q0 52 -13.5 93.5t-38 70t-59 43.5t-75.5 15q-42 0 -76.5 -15t-59 -43.5t-38.5 -70t-14 -93.5q0 -53 14 -94t38.5 -69.5t59 -43.5t76.5 -15q41 0 75.5 15t59 43.5t38 69.5
t13.5 94z" />
    <glyph glyph-name="ntilde" unicode="&#xf1;" horiz-adv-x="587" 
d="M128 0h-40v500h38l2 -122q25 60 73 92.5t113 32.5q82 0 133.5 -47.5t51.5 -134.5v-321h-39v321q0 72 -42.5 111.5t-109.5 39.5q-81 0 -130.5 -58t-49.5 -164v-250zM146 594q0 37 23 57.5t57 20.5q26 0 41.5 -8.5t28 -19t26.5 -19t36 -8.5q23 0 37.5 13.5t14.5 36.5h30
q0 -37 -24 -57.5t-56 -20.5q-24 0 -40.5 8.5t-30 18.5t-27 18.5t-33.5 8.5q-24 0 -38.5 -13t-14.5 -36h-30z" />
    <glyph glyph-name="ograve" unicode="&#xf2;" horiz-adv-x="597" 
d="M64 250q0 60 17 107t48 79.5t74 49.5t95 17t95 -17t74 -49.5t48 -79.5t17 -107t-17 -107t-48 -79.5t-74 -49.5t-95 -17t-95 17t-74 49.5t-48 79.5t-17 107zM104 250q0 -53 14 -94t39.5 -69.5t61.5 -43.5t79 -15t79 15t62 43.5t40 69.5t14 94q0 52 -14 93.5t-40 70
t-62 43.5t-79 15t-79 -15t-61.5 -43.5t-39.5 -70t-14 -93.5zM370 572h-38l-127 128h44z" />
    <glyph glyph-name="oacute" unicode="&#xf3;" horiz-adv-x="597" 
d="M64 250q0 60 17 107t48 79.5t74 49.5t95 17t95 -17t74 -49.5t48 -79.5t17 -107t-17 -107t-48 -79.5t-74 -49.5t-95 -17t-95 17t-74 49.5t-48 79.5t-17 107zM104 250q0 -53 14 -94t39.5 -69.5t61.5 -43.5t79 -15t79 15t62 43.5t40 69.5t14 94q0 52 -14 93.5t-40 70
t-62 43.5t-79 15t-79 -15t-61.5 -43.5t-39.5 -70t-14 -93.5zM337 700h44l-127 -128h-38z" />
    <glyph glyph-name="ocircumflex" unicode="&#xf4;" horiz-adv-x="597" 
d="M64 250q0 60 17 107t48 79.5t74 49.5t95 17t95 -17t74 -49.5t48 -79.5t17 -107t-17 -107t-48 -79.5t-74 -49.5t-95 -17t-95 17t-74 49.5t-48 79.5t-17 107zM104 250q0 -53 14 -94t39.5 -69.5t61.5 -43.5t79 -15t79 15t62 43.5t40 69.5t14 94q0 52 -14 93.5t-40 70
t-62 43.5t-79 15t-79 -15t-61.5 -43.5t-39.5 -70t-14 -93.5zM442 572h-40l-104 108l-103 -108h-40l123 128h41z" />
    <glyph glyph-name="otilde" unicode="&#xf5;" horiz-adv-x="597" 
d="M64 250q0 60 17 107t48 79.5t74 49.5t95 17t95 -17t74 -49.5t48 -79.5t17 -107t-17 -107t-48 -79.5t-74 -49.5t-95 -17t-95 17t-74 49.5t-48 79.5t-17 107zM104 250q0 -53 14 -94t39.5 -69.5t61.5 -43.5t79 -15t79 15t62 43.5t40 69.5t14 94q0 52 -14 93.5t-40 70
t-62 43.5t-79 15t-79 -15t-61.5 -43.5t-39.5 -70t-14 -93.5zM151 594q0 37 23 57.5t57 20.5q26 0 41.5 -8.5t28 -19t26.5 -19t36 -8.5q23 0 37.5 13.5t14.5 36.5h30q0 -37 -24 -57.5t-56 -20.5q-24 0 -40.5 8.5t-30 18.5t-27 18.5t-33.5 8.5q-24 0 -38.5 -13t-14.5 -36h-30z
" />
    <glyph glyph-name="odieresis" unicode="&#xf6;" horiz-adv-x="597" 
d="M64 250q0 60 17 107t48 79.5t74 49.5t95 17t95 -17t74 -49.5t48 -79.5t17 -107t-17 -107t-48 -79.5t-74 -49.5t-95 -17t-95 17t-74 49.5t-48 79.5t-17 107zM104 250q0 -53 14 -94t39.5 -69.5t61.5 -43.5t79 -15t79 15t62 43.5t40 69.5t14 94q0 52 -14 93.5t-40 70
t-62 43.5t-79 15t-79 -15t-61.5 -43.5t-39.5 -70t-14 -93.5zM178 672h36v-85h-36v85zM382 672h36v-85h-36v85z" />
    <glyph glyph-name="divide" unicode="&#xf7;" horiz-adv-x="489" 
d="M66 311h357v-30h-357v30zM219 174h51v-81h-51v81zM219 500h51v-81h-51v81z" />
    <glyph glyph-name="oslash" unicode="&#xf8;" horiz-adv-x="597" 
d="M133 60q-33 32 -51 80t-18 110q0 60 17 107t48 79.5t74 49.5t95 17q84 0 142 -44l32 41h37l-46 -60q32 -33 50.5 -80.5t18.5 -109.5q0 -60 -17 -107t-48 -79.5t-74 -49.5t-95 -17q-84 0 -143 44l-31 -41h-37zM494 250q0 52 -14 92.5t-39 69.5l-265 -345q49 -40 122 -40
q43 0 79.5 15t62 43.5t40 70t14.5 94.5zM103 250q0 -103 51 -162l266 344q-50 41 -122 41q-44 0 -79.5 -15t-61.5 -43.5t-40 -70t-14 -94.5z" />
    <glyph glyph-name="ugrave" unicode="&#xf9;" horiz-adv-x="587" 
d="M460 500h39v-500h-38l-1 122q-25 -60 -73.5 -92.5t-113.5 -32.5q-41 0 -75 12t-58.5 35.5t-38 57t-13.5 76.5v322h40v-322q0 -72 42 -111t109 -39q40 0 73.5 15t57.5 43.5t37 69.5t13 94v250zM366 572h-38l-127 128h44z" />
    <glyph glyph-name="uacute" unicode="&#xfa;" horiz-adv-x="587" 
d="M460 500h39v-500h-38l-1 122q-25 -60 -73.5 -92.5t-113.5 -32.5q-41 0 -75 12t-58.5 35.5t-38 57t-13.5 76.5v322h40v-322q0 -72 42 -111t109 -39q40 0 73.5 15t57.5 43.5t37 69.5t13 94v250zM342 700h44l-127 -128h-38z" />
    <glyph glyph-name="ucircumflex" unicode="&#xfb;" horiz-adv-x="587" 
d="M460 500h39v-500h-38l-1 122q-25 -60 -73.5 -92.5t-113.5 -32.5q-41 0 -75 12t-58.5 35.5t-38 57t-13.5 76.5v322h40v-322q0 -72 42 -111t109 -39q40 0 73.5 15t57.5 43.5t37 69.5t13 94v250zM437 572h-40l-104 108l-103 -108h-40l123 128h41z" />
    <glyph glyph-name="udieresis" unicode="&#xfc;" horiz-adv-x="587" 
d="M460 500h39v-500h-38l-1 122q-25 -60 -73.5 -92.5t-113.5 -32.5q-41 0 -75 12t-58.5 35.5t-38 57t-13.5 76.5v322h40v-322q0 -72 42 -111t109 -39q40 0 73.5 15t57.5 43.5t37 69.5t13 94v250zM174 672h36v-85h-36v85zM378 672h36v-85h-36v85z" />
    <glyph glyph-name="yacute" unicode="&#xfd;" horiz-adv-x="528" 
d="M245 -94q-25 -60 -75.5 -92t-115.5 -32v31q50 0 90.5 24.5t60.5 68.5l42 94h-5l-210 500h41l191 -459l191 459h41zM312 700h44l-127 -128h-38z" />
    <glyph glyph-name="thorn" unicode="&#xfe;" horiz-adv-x="606" 
d="M88 725h40v-347q24 60 72.5 92.5t112.5 32.5q51 0 93 -17t72 -49.5t46.5 -79.5t16.5 -107t-16.5 -107t-46.5 -79.5t-72 -49.5t-93 -17q-64 0 -112.5 31.5t-72.5 91.5v-335h-40v940zM128 250q0 -106 49.5 -164t130.5 -58q43 0 79 15t61.5 43.5t39.5 69.5t14 94
q0 52 -14 93.5t-39.5 70t-61.5 43.5t-79 15q-81 0 -130.5 -58t-49.5 -164z" />
    <glyph glyph-name="ydieresis" unicode="&#xff;" horiz-adv-x="528" 
d="M245 -94q-25 -60 -75.5 -92t-115.5 -32v31q50 0 90.5 24.5t60.5 68.5l42 94h-5l-210 500h41l191 -459l191 459h41zM144 672h36v-85h-36v85zM348 672h36v-85h-36v85z" />
    <glyph glyph-name="dotlessi" unicode="&#x131;" 
d="M88 500h40v-500h-40v500z" />
    <glyph glyph-name="OE" unicode="&#x152;" horiz-adv-x="916" 
d="M488 24q-57 -27 -127 -27q-65 0 -118.5 24t-92 69.5t-60 111t-21.5 148.5t21.5 148.5t60 111t92 69.5t118.5 24q68 0 127 -28v25h371v-32h-333v-292h302v-32h-302v-312h338v-32h-376v24zM363 30q72 0 125 34v571q-55 35 -125 35q-57 0 -103.5 -21.5t-80 -62.5t-52 -100.5
t-18.5 -135.5t18.5 -135.5t52 -100.5t80 -62.5t103.5 -21.5z" />
    <glyph glyph-name="oe" unicode="&#x153;" horiz-adv-x="1004" 
d="M726 503q45 0 82.5 -16t65 -49t42.5 -82.5t14 -115.5h-398q1 -50 15 -89.5t39.5 -66.5t61 -41.5t77.5 -14.5q34 0 64 9t51.5 25.5t34 39t12.5 50.5h38q0 -35 -15 -63.5t-42 -49t-63.5 -31.5t-78.5 -11q-81 0 -137 41.5t-77 118.5q-21 -77 -77.5 -118.5t-136.5 -41.5
q-52 0 -95 17t-74 49.5t-48 79.5t-17 107t17 107t48 79.5t74 49.5t95 17q80 0 136 -41.5t77 -118.5q21 77 76 118.5t139 41.5zM104 250q0 -53 14 -94t39.5 -69.5t61.5 -43.5t79 -15t79 15t62 43.5t40 69.5t14 94q0 52 -14 93.5t-40 70t-62 43.5t-79 15t-79 -15t-61.5 -43.5
t-39.5 -70t-14 -93.5zM725 472q-41 0 -76.5 -13.5t-61.5 -39.5t-40.5 -63.5t-14.5 -85.5h358q0 48 -12.5 85.5t-34.5 63.5t-52.5 39.5t-65.5 13.5z" />
    <glyph glyph-name="Scaron" unicode="&#x160;" horiz-adv-x="613" 
d="M94 212q0 -41 16 -74.5t44.5 -57.5t66.5 -37t83 -13t81.5 10.5t63 30.5t41 48.5t14.5 64.5q0 43 -18.5 69.5t-49 43t-69.5 26.5t-79.5 18.5t-79.5 19.5t-69.5 29.5t-49 48t-18.5 76.5q0 44 16.5 79t45.5 59t70 37t90 13t91 -14.5t73 -41t48.5 -63.5t17.5 -82h-39
q0 37 -14.5 68t-40 53.5t-60.5 34.5t-75 12q-41 0 -74.5 -10.5t-57.5 -30.5t-37 -48.5t-13 -64.5q0 -41 18.5 -66t49 -40.5t69 -24.5t79 -17.5t79.5 -19.5t69.5 -31t49 -51.5t18.5 -80.5q0 -45 -17.5 -80t-49.5 -59t-76 -36.5t-96 -12.5q-54 0 -99.5 15.5t-79 43.5t-52.5 68
t-19 88h39zM154 900h40l104 -107l103 107h40l-123 -128h-41z" />
    <glyph glyph-name="scaron" unicode="&#x161;" horiz-adv-x="499" 
d="M99 152q0 -28 11.5 -50.5t32 -39t48.5 -25.5t60 -9q63 0 103 27.5t40 76.5q0 40 -24 60t-59.5 31t-77.5 18t-77.5 20t-59.5 37t-24 70q0 64 47.5 99.5t123.5 35.5q37 0 69 -10.5t55.5 -29.5t37 -45.5t13.5 -59.5h-37q0 25 -10.5 46t-29.5 36t-44 23.5t-54 8.5
q-59 0 -95.5 -27.5t-36.5 -76.5q0 -38 24 -57t59.5 -29t77.5 -16.5t77.5 -20t59.5 -39.5t24 -74q0 -32 -13.5 -57t-37.5 -42.5t-58 -26.5t-74 -9q-41 0 -75.5 11t-60 31.5t-40 49t-14.5 63.5h39zM106 700h40l104 -107l103 107h40l-123 -128h-41z" />
    <glyph glyph-name="Ydieresis" unicode="&#x178;" horiz-adv-x="676" 
d="M318 293l-267 407h47l240 -370l242 370h47l-269 -407v-293h-40v293zM218 872h36v-85h-36v85zM422 872h36v-85h-36v85z" />
    <glyph glyph-name="Zcaron" unicode="&#x17d;" horiz-adv-x="636" 
d="M66 700h518v-31l-477 -637h473v-32h-519v31l476 637h-471v32zM175 900h40l104 -107l103 107h40l-123 -128h-41z" />
    <glyph glyph-name="zcaron" unicode="&#x17e;" horiz-adv-x="511" 
d="M60 500h391v-30l-351 -440h356v-30h-401v30l351 440h-346v30zM112 700h40l104 -107l103 107h40l-123 -128h-41z" />
    <glyph glyph-name="florin" unicode="&#x192;" horiz-adv-x="344" 
d="M255 728q11 0 21 -1t21 -3v-30q-20 3 -40 3q-46 0 -74.5 -22.5t-28.5 -64.5v-110h143v-30h-143v-562q0 -60 -38.5 -93t-104.5 -33v31q46 0 74.5 24t28.5 69v564h-71v30h71v108q0 58 37.5 89t103.5 31z" />
    <glyph glyph-name="uni0237" unicode="&#x237;" 
d="M128 -92q0 -60 -38.5 -93t-104.5 -33v31q46 0 74.5 24t28.5 69v594h40v-592z" />
    <glyph glyph-name="circumflex" unicode="&#x2c6;" horiz-adv-x="339" 
d="M313 572h-40l-104 108l-103 -108h-40l123 128h41z" />
    <glyph glyph-name="caron" unicode="&#x2c7;" horiz-adv-x="339" 
d="M26 700h40l104 -107l103 107h40l-123 -128h-41z" />
    <glyph glyph-name="breve" unicode="&#x2d8;" horiz-adv-x="471" 
d="M130 673q0 -38 30 -61.5t75 -23.5t75 23.5t30 61.5h33q0 -26 -10.5 -46.5t-29 -35.5t-44 -23t-54.5 -8t-54 8t-43.5 23t-29 35.5t-10.5 46.5h32z" />
    <glyph glyph-name="tilde" unicode="&#x2dc;" horiz-adv-x="328" 
d="M17 594q0 37 23 57.5t57 20.5q26 0 41.5 -8.5t28 -19t26.5 -19t36 -8.5q23 0 37.5 13.5t14.5 36.5h30q0 -37 -24 -57.5t-56 -20.5q-24 0 -40.5 8.5t-30 18.5t-27 18.5t-33.5 8.5q-24 0 -38.5 -13t-14.5 -36h-30v0z" />
    <glyph glyph-name="endash" unicode="&#x2013;" horiz-adv-x="539" 
d="M66 290h407v-30h-407v30z" />
    <glyph glyph-name="emdash" unicode="&#x2014;" horiz-adv-x="798" 
d="M66 290h667v-30h-667v30z" />
    <glyph glyph-name="quoteleft" unicode="&#x2018;" horiz-adv-x="205" 
d="M133 487h-60v84q0 28 4.5 52t12.5 42t19.5 28t25.5 10v-29q-14 0 -22.5 -29t-8.5 -74h29v-84z" />
    <glyph glyph-name="quoteright" unicode="&#x2019;" horiz-adv-x="205" 
d="M75 700h60v-84q0 -57 -17 -94t-45 -37v28q14 0 22.5 29.5t8.5 73.5h-29v84z" />
    <glyph glyph-name="quotesinglbase" unicode="&#x201a;" horiz-adv-x="205" 
d="M75 84h60v-84q0 -56 -17 -93.5t-45 -37.5v29q14 0 22.5 29t8.5 73h-29v84z" />
    <glyph glyph-name="quotedblleft" unicode="&#x201c;" horiz-adv-x="335" 
d="M133 487h-60v84q0 28 4.5 52t12.5 42t19.5 28t25.5 10v-29q-14 0 -22.5 -29t-8.5 -74h29v-84zM263 487h-60v84q0 28 4.5 52t12.5 42t19.5 28t25.5 10v-29q-14 0 -22.5 -29t-8.5 -74h29v-84z" />
    <glyph glyph-name="quotedblright" unicode="&#x201d;" horiz-adv-x="335" 
d="M75 700h60v-84q0 -57 -17 -94t-45 -37v28q14 0 22.5 29.5t8.5 73.5h-29v84zM205 700h60v-84q0 -57 -17 -94t-45 -37v28q14 0 22.5 29.5t8.5 73.5h-29v84z" />
    <glyph glyph-name="quotedblbase" unicode="&#x201e;" horiz-adv-x="335" 
d="M75 84h60v-84q0 -56 -17 -93.5t-45 -37.5v29q14 0 22.5 29t8.5 73h-29v84zM205 84h60v-84q0 -56 -17 -93.5t-45 -37.5v29q14 0 22.5 29t8.5 73h-29v84z" />
    <glyph glyph-name="dagger" unicode="&#x2020;" horiz-adv-x="512" 
d="M47 503h191v197h36v-197h192v-31h-192v-572h-36v572h-191v31z" />
    <glyph glyph-name="daggerdbl" unicode="&#x2021;" horiz-adv-x="512" 
d="M466 97h-192v-197h-36v197h-191v31h191v344h-191v31h191v197h36v-197h192v-31h-192v-344h192v-31z" />
    <glyph glyph-name="bullet" unicode="&#x2022;" horiz-adv-x="334" 
d="M64 325q0 48 28.5 75.5t74.5 27.5t74 -27.5t28 -75.5t-28 -74.5t-74 -26.5t-74.5 26.5t-28.5 74.5z" />
    <glyph glyph-name="ellipsis" unicode="&#x2026;" horiz-adv-x="568" 
d="M71 84h59v-84h-59v84zM252 84h59v-84h-59v84zM433 84h60v-84h-60v84z" />
    <glyph glyph-name="perthousand" unicode="&#x2030;" horiz-adv-x="1004" 
d="M544 700h37l-399 -700h-37zM52 570q0 63 36 98t95 35q60 0 96 -35t36 -98q0 -62 -36 -96.5t-96 -34.5q-59 0 -95 34.5t-36 96.5zM81 570q0 -50 28 -76.5t75 -26.5t75 26.5t28 76.5q0 51 -28 77.5t-75 26.5t-75 -26.5t-28 -77.5zM374 129q0 63 36 97.5t96 34.5t96 -34.5
t36 -97.5t-36 -97.5t-96 -34.5t-96 34.5t-36 97.5zM403 129q0 -50 28 -76.5t75 -26.5t75 26.5t28 76.5q0 51 -28 77.5t-75 26.5t-75 -26.5t-28 -77.5zM688 129q0 63 36 97.5t96 34.5t96 -34.5t36 -97.5t-36 -97.5t-96 -34.5t-96 34.5t-36 97.5zM717 129q0 -50 28 -76.5
t75 -26.5t75 26.5t28 76.5q0 51 -28 77.5t-75 26.5t-75 -26.5t-28 -77.5z" />
    <glyph glyph-name="guilsinglleft" unicode="&#x2039;" horiz-adv-x="301" 
d="M226 450v-43l-134 -132l134 -132v-43l-161 157v36z" />
    <glyph glyph-name="guilsinglright" unicode="&#x203a;" horiz-adv-x="301" 
d="M74 100v43l135 132l-135 132v43l162 -157v-36z" />
    <glyph glyph-name="Euro" unicode="&#x20ac;" horiz-adv-x="759" 
d="M47 436h80q10 63 36.5 113t65.5 84t90 52t110 18q54 0 100 -15.5t80 -44t53 -69t19 -89.5h-40q0 42 -16 76t-44.5 58t-67.5 37.5t-85 13.5q-51 0 -94 -15.5t-77 -45.5t-57 -73.5t-33 -99.5h327v-30h-331q-3 -27 -3 -56q0 -32 3 -60h331v-30h-326q21 -111 90 -170.5
t170 -59.5q46 0 85 13.5t67.5 37.5t44.5 58t16 76h40q0 -49 -19 -89.5t-53 -69t-80 -44t-100 -15.5q-59 0 -109 17.5t-89 51.5t-65.5 82.5t-37.5 111.5h-81v30h76q-3 28 -3 60v28t2 28h-75v30z" />
    <glyph glyph-name="trademark" unicode="&#x2122;" horiz-adv-x="785" 
d="M33 700h281v-22h-125v-328h-30v328h-126v22zM371 700h45l135 -313l135 313h45v-350h-30v311l-134 -311h-32l-134 311v-311h-30v350z" />
    </font>
</defs>
</svg>
