<?xml version="1.0" standalone="no"?>
<!DOCTYPE svg PUBLIC "-//W3C//DTD SVG 1.1//EN" "http://www.w3.org/Graphics/SVG/1.1/DTD/svg11.dtd" >
<svg xmlns="http://www.w3.org/2000/svg" xmlns:xlink="http://www.w3.org/1999/xlink" version="1.1">
<metadata>
Created by FontForge 20200314 at Tue Apr 14 18:05:45 2015
 By Unknown
Copyright (c) 2013 by Andriy Konstantynov. All rights reserved.
</metadata>
<defs>
<font id="ClinicaW01-Regular" horiz-adv-x="230" >
  <font-face 
    font-family="ClinicaW01-Regular"
    font-weight="400"
    font-stretch="normal"
    units-per-em="1000"
    panose-1="2 11 0 3 3 2 0 2 0 4"
    ascent="800"
    descent="-200"
    x-height="500"
    cap-height="700"
    bbox="-39 -219 1005 927"
    underline-thickness="50"
    underline-position="-175"
    unicode-range="U+0020-2122"
  />
<missing-glyph horiz-adv-x="236" 
 />
    <glyph glyph-name=".notdef" horiz-adv-x="236" 
 />
    <glyph glyph-name=".null" horiz-adv-x="0" 
 />
    <glyph glyph-name="nonmarkingreturn" horiz-adv-x="333" 
 />
    <glyph glyph-name="space" unicode=" " horiz-adv-x="236" 
 />
    <glyph glyph-name="exclam" unicode="!" 
d="M156 0h-83v115h83v-115zM156 211h-83v489h83v-489z" />
    <glyph glyph-name="quotedbl" unicode="&#x22;" horiz-adv-x="364" 
d="M131 482h-50l-9 218h68zM284 482h-51l-9 218h69z" />
    <glyph glyph-name="numbersign" unicode="#" horiz-adv-x="690" 
d="M428 169h-229l-29 -169h-71l29 169h-89v53h98l44 256h-90v53h100l29 169h71l-30 -169h230l29 169h71l-30 -169h90v-53h-99l-44 -256h91v-53h-100l-29 -169h-71zM208 222h229l44 256h-229z" />
    <glyph glyph-name="dollar" unicode="$" horiz-adv-x="613" 
d="M264 -1q-49 4 -89.5 21.5t-70 45.5t-45.5 65.5t-16 83.5h82q0 -36 13.5 -65.5t37 -50t56 -31.5t70.5 -11q77 0 123.5 35.5t46.5 95.5q0 38 -18 62t-47 38.5t-66 23.5t-76 17.5t-76 19.5t-66 31t-47 51t-18 79q0 42 15 76t42 58.5t65 39t84 17.5v99h74v-100
q43 -5 80 -21.5t63 -42.5t41 -60.5t15 -76.5h-83q0 33 -11.5 59.5t-32.5 45t-49.5 29t-62.5 10.5q-35 0 -63 -9.5t-48 -27t-31 -42t-11 -53.5q0 -37 18 -59t47 -36t66 -22.5t76 -17t76 -20t66 -31.5t47 -52.5t18 -81.5q0 -44 -16.5 -78t-45.5 -58t-69.5 -38.5t-89.5 -17.5
v-99h-74v99z" />
    <glyph glyph-name="percent" unicode="%" horiz-adv-x="748" 
d="M546 700h67l-410 -700h-67zM44 566q0 65 38.5 101.5t100.5 36.5q63 0 101.5 -36.5t38.5 -101.5t-38.5 -101t-101.5 -36q-62 0 -100.5 36t-38.5 101zM95 566q0 -44 24 -67t65 -23q40 0 64 23t24 67q0 43 -24 66.5t-64 23.5q-41 0 -65 -23.5t-24 -66.5zM424 133
q0 65 38.5 101.5t101.5 36.5t101.5 -36.5t38.5 -101.5t-38.5 -101t-101.5 -36t-101.5 36t-38.5 101zM475 133q0 -43 24 -66.5t65 -23.5q40 0 64 23.5t24 66.5t-24 66.5t-64 23.5q-41 0 -65 -23.5t-24 -66.5z" />
    <glyph glyph-name="ampersand" unicode="&#x26;" horiz-adv-x="651" 
d="M575 329q0 -60 -17 -113t-47 -92l122 -124h-95l-73 80q-39 -40 -95 -62t-119 -22q-49 0 -89 12.5t-69 37t-45 60t-16 80.5q0 41 12.5 72t33 55t47 43t55.5 35q-29 43 -45.5 85t-16.5 81q0 64 43 105.5t124 41.5q36 0 66.5 -9t52.5 -26.5t34.5 -43.5t12.5 -60
q0 -38 -13.5 -66.5t-36 -50.5t-52.5 -40t-62 -34l168 -199q44 62 44 154h76zM253 55q46 0 87.5 18t71.5 51l-188 213q-22 -13 -42 -27t-35 -32t-24 -40.5t-9 -52.5q0 -60 36.5 -95t102.5 -35zM198 552q0 -28 12 -59.5t35 -65.5q25 13 48 26.5t39.5 29.5t26.5 36t10 47
q0 42 -24.5 60.5t-57.5 18.5q-42 0 -65.5 -25.5t-23.5 -67.5z" />
    <glyph glyph-name="quotesingle" unicode="'" horiz-adv-x="212" 
d="M131 482h-50l-9 218h68z" />
    <glyph glyph-name="parenleft" unicode="(" horiz-adv-x="276" 
d="M243 -156q-40 0 -73.5 30.5t-57.5 89t-37 143t-13 192.5t13 192.5t37 143t57.5 89t73.5 30.5v-53q-48 0 -76.5 -104.5t-28.5 -297.5q0 -194 28.5 -298.5t76.5 -104.5v-52z" />
    <glyph glyph-name="parenright" unicode=")" horiz-adv-x="276" 
d="M39 754q40 0 73.5 -30.5t57.5 -89t37.5 -143t13.5 -192.5t-13.5 -192.5t-37.5 -143t-57.5 -89t-73.5 -30.5v52q48 0 77 104.5t29 298.5q0 193 -29 297.5t-77 104.5v53z" />
    <glyph glyph-name="asterisk" unicode="*" horiz-adv-x="469" 
d="M86 630l122 -71v141h53v-141l122 71l26 -46l-122 -70l122 -70l-26 -45l-122 70v-141h-53v141l-122 -70l-26 45l121 70l-121 70z" />
    <glyph glyph-name="plus" unicode="+" horiz-adv-x="487" 
d="M57 324h160v163h52v-163h160v-52h-160v-163h-52v163h-160v52z" />
    <glyph glyph-name="comma" unicode="," horiz-adv-x="217" 
d="M64 106h93v-106q0 -63 -26 -104t-68 -41v49q17 0 28 27t11 69h-38v106z" />
    <glyph glyph-name="hyphen" unicode="-" horiz-adv-x="322" 
d="M57 301h208v-52h-208v52z" />
    <glyph glyph-name="period" unicode="." horiz-adv-x="218" 
d="M64 106h93v-106h-93v106z" />
    <glyph glyph-name="slash" unicode="/" horiz-adv-x="397" 
d="M286 700h75l-250 -800h-75z" />
    <glyph glyph-name="zero" unicode="0" horiz-adv-x="649" 
d="M54 350q0 84 20 149.5t56 111t85.5 69.5t108.5 24q60 0 109.5 -24t85.5 -69.5t55.5 -111t19.5 -149.5t-19.5 -149.5t-55.5 -111t-85.5 -69.5t-109.5 -24q-59 0 -108.5 24t-85.5 69.5t-56 111t-20 149.5zM139 350q0 -143 51 -219t134 -76q84 0 134.5 76t50.5 219
t-50.5 219t-134.5 76q-83 0 -134 -76t-51 -219z" />
    <glyph glyph-name="one" unicode="1" horiz-adv-x="340" 
d="M42 622q41 0 68 4t43.5 13t23 24t6.5 37h75v-700h-85v575h-131v47z" />
    <glyph glyph-name="two" unicode="2" horiz-adv-x="585" 
d="M61 58q0 35 28 69t70 68t91.5 69.5t91.5 73t70 78t28 85.5q0 64 -40.5 104t-108.5 40q-33 0 -61.5 -10.5t-49.5 -30t-32.5 -47.5t-11.5 -62h-82q0 48 17.5 86.5t49.5 65.5t75.5 42t96.5 15q51 0 93.5 -13.5t73.5 -40t48 -64t17 -85.5q0 -54 -27.5 -100t-69.5 -86
t-90 -74.5t-90 -65.5t-69.5 -60t-27.5 -57h379v-58h-469v58v0z" />
    <glyph glyph-name="three" unicode="3" horiz-adv-x="610" 
d="M232 388h61q67 0 107.5 34.5t40.5 94.5t-38 94t-104 34q-67 0 -109 -37t-42 -102h-81q0 46 17.5 82.5t49 62t74 39.5t93.5 14q105 0 164.5 -47.5t59.5 -133.5q0 -59 -29.5 -99.5t-79.5 -60.5q63 -17 101.5 -62.5t38.5 -114.5q0 -91 -65.5 -140.5t-180.5 -49.5
q-53 0 -97.5 14t-76.5 40.5t-50.5 63.5t-18.5 84h82q0 -33 12 -59.5t33 -45t50.5 -28.5t65.5 -10q72 0 117 36t45 101q0 64 -41 101t-110 37h-89v58z" />
    <glyph glyph-name="four" unicode="4" horiz-adv-x="590" 
d="M397 141h-357v60l330 499h105v-499h70v-60h-70v-141h-78v141zM397 201v419l-279 -419h279z" />
    <glyph glyph-name="five" unicode="5" horiz-adv-x="609" 
d="M120 700h391v-60h-317l-27 -235q26 24 63.5 37t82.5 13q53 0 97 -16.5t76 -47t49.5 -73.5t17.5 -95q0 -108 -65 -167.5t-178 -59.5q-53 0 -97.5 14t-76.5 40t-50.5 63t-18.5 83h82q0 -65 44.5 -103t115.5 -38q72 0 116.5 44t44.5 124q0 40 -12 72.5t-34.5 55.5t-54 36
t-69.5 13q-48 0 -85 -18.5t-54 -52.5h-80z" />
    <glyph glyph-name="six" unicode="6" horiz-adv-x="599" 
d="M545 223q0 -54 -18 -96t-50.5 -71t-77 -44.5t-98.5 -15.5q-74 0 -122 29.5t-75.5 78.5t-38 113t-10.5 134q0 82 18.5 147t51.5 111t79 70.5t100 24.5q46 0 84.5 -12t66.5 -34t44 -53t16 -69h-79q0 50 -37 79.5t-95 29.5q-35 0 -65 -17.5t-52.5 -54t-36 -93t-14.5 -133.5
q11 20 27.5 38.5t39 33t51 23.5t63.5 9q50 0 92 -15.5t72 -44.5t47 -71.5t17 -96.5zM150 223q0 -81 41.5 -124.5t109.5 -43.5q71 0 115 43.5t44 124.5t-44 125t-115 44q-68 0 -109.5 -44t-41.5 -125z" />
    <glyph glyph-name="seven" unicode="7" horiz-adv-x="555" 
d="M41 700h469v-60l-262 -640h-85l261 640h-383v60z" />
    <glyph glyph-name="eight" unicode="8" horiz-adv-x="587" 
d="M75 531q0 41 16 73t45 54.5t69.5 34t88.5 11.5t88.5 -11.5t69 -34t44.5 -54.5t16 -73q0 -59 -31.5 -98.5t-85.5 -56.5q64 -20 102 -66t38 -118q0 -46 -17.5 -82.5t-49.5 -61.5t-76 -38.5t-98 -13.5t-98.5 13.5t-76.5 38.5t-49.5 61.5t-17.5 82.5q0 72 38 118t101 66
q-53 17 -84.5 56.5t-31.5 98.5zM137 200q0 -70 43 -107.5t114 -37.5t114 37.5t43 107.5q0 69 -43 107t-114 38t-114 -38t-43 -107zM158 523q0 -57 37.5 -88.5t98.5 -31.5t98 31.5t37 88.5q0 59 -37 90.5t-98 31.5t-98.5 -31.5t-37.5 -90.5z" />
    <glyph glyph-name="nine" unicode="9" horiz-adv-x="585" 
d="M55 485q0 52 17 92.5t48.5 68.5t74.5 43t96 15q72 0 118.5 -28t73.5 -76.5t37 -113t10 -137.5q0 -83 -16.5 -148.5t-48.5 -111t-78.5 -69.5t-106.5 -24q-46 0 -84.5 12t-66.5 34t-44 53t-16 69h81q0 -50 37 -79.5t95 -29.5q82 0 126 74t40 235q-9 -17 -25 -34.5
t-37.5 -31.5t-49.5 -23t-61 -9q-49 0 -89.5 15t-69.5 43t-45 68.5t-16 92.5zM435 485q0 77 -39.5 118.5t-104.5 41.5q-68 0 -109.5 -41.5t-41.5 -118.5q0 -78 41.5 -119.5t109.5 -41.5q65 0 104.5 41.5t39.5 119.5z" />
    <glyph glyph-name="colon" unicode=":" horiz-adv-x="212" 
d="M61 106h90v-106h-90v106zM61 500h90v-106h-90v106z" />
    <glyph glyph-name="semicolon" unicode=";" horiz-adv-x="212" 
d="M61 500h90v-106h-90v106zM61 102h90v-102q0 -63 -26 -104t-69 -41v49q17 0 28.5 27t11.5 69h-35v102z" />
    <glyph glyph-name="less" unicode="&#x3c;" horiz-adv-x="586" 
d="M43 289v71l500 208v-76l-410 -168l410 -167v-76z" />
    <glyph glyph-name="equal" unicode="=" horiz-adv-x="538" 
d="M57 244h422v-52h-422v52zM57 458h422v-52h-422v52z" />
    <glyph glyph-name="greater" unicode="&#x3e;" horiz-adv-x="586" 
d="M543 360v-71l-500 -208v76l410 167l-410 168v76z" />
    <glyph glyph-name="question" unicode="?" horiz-adv-x="568" 
d="M243 229q0 43 13.5 70.5t33.5 47t43.5 34t43.5 31.5t33.5 40t13.5 59q0 60 -38.5 97t-102.5 37q-32 0 -59 -10.5t-46.5 -30t-30.5 -47.5t-11 -62h-81q0 48 17 86.5t47.5 65.5t72.5 42t93 15q49 0 90 -13t70.5 -38t46 -60.5t16.5 -81.5t-13.5 -74.5t-33.5 -48.5t-44 -34
t-44 -30.5t-33.5 -38t-13.5 -56.5v-18h-83v18zM243 115h83v-115h-83v115z" />
    <glyph glyph-name="at" unicode="@" horiz-adv-x="815" 
d="M518 348q0 73 -32 113t-83 40q-55 0 -88 -40t-33 -113t33 -113t88 -40q51 0 83 40t32 113zM538 247q-20 -47 -58.5 -71.5t-87.5 -24.5q-77 0 -125 51.5t-48 145.5t48 145t125 51q44 0 77 -20t52 -58l4 73h55v-302q0 -20 11 -31.5t31 -11.5q18 0 32.5 6.5t25 24t16 47.5
t5.5 78q0 73 -21 129t-59.5 94.5t-93 58.5t-121.5 20q-66 0 -120 -20t-92.5 -58.5t-59 -94.5t-20.5 -129t20.5 -129t59 -94.5t92.5 -58.5t120 -20q87 0 149 36l38 -42q-80 -46 -187 -46q-78 0 -143 24t-111.5 69.5t-72 111t-25.5 149.5t25.5 149.5t72 111t111.5 69.5t143 24
q79 0 144.5 -24t112 -69.5t72.5 -111t26 -149.5q0 -57 -8.5 -95t-25.5 -61.5t-43 -33t-62 -9.5q-43 0 -63.5 18t-20.5 47v31z" />
    <glyph glyph-name="A" unicode="A" horiz-adv-x="679" 
d="M291 700h98l261 -700h-87l-72 191h-303l-72 -191h-87zM204 251h272l-136 375z" />
    <glyph glyph-name="B" unicode="B" horiz-adv-x="639" 
d="M82 700h254q49 0 89 -12t68.5 -35t44 -56t15.5 -75q0 -58 -29 -97.5t-80 -59.5q64 -17 102 -62t38 -114q0 -45 -16 -80t-45 -59.5t-69.5 -37t-89.5 -12.5h-282v700zM350 60q68 0 108.5 35t40.5 100t-40.5 100.5t-108.5 35.5h-182v-271h182zM168 640v-249h154
q66 0 106 32.5t40 92.5t-39 92t-107 32h-154z" />
    <glyph glyph-name="C" unicode="C" horiz-adv-x="705" 
d="M373 643q-52 0 -95 -19.5t-73.5 -56.5t-47 -92t-16.5 -125q0 -71 16.5 -125.5t47 -91.5t73.5 -56.5t95 -19.5q40 0 74 12t58.5 33.5t38 52.5t13.5 70h85q0 -53 -20 -95t-55.5 -72t-84.5 -46t-107 -16q-71 0 -130 24t-101.5 69.5t-66 111t-23.5 149.5t23.5 149.5t66 111
t101.5 69.5t130 24q58 0 107 -16t84.5 -46t55.5 -72.5t20 -94.5h-85q0 39 -13.5 70t-38 52.5t-58.5 33.5t-74 12z" />
    <glyph glyph-name="D" unicode="D" horiz-adv-x="684" 
d="M66 700h252q69 0 126.5 -23.5t99 -68.5t64 -110t22.5 -148t-22.5 -148t-64 -110t-99 -68.5t-126.5 -23.5h-252v700zM311 60q52 0 95 19t73.5 56t47 91t16.5 124t-16.5 124t-47 91t-73.5 56t-95 19h-158v-580h158z" />
    <glyph glyph-name="E" unicode="E" horiz-adv-x="583" 
d="M82 700h452v-60h-366v-250h331v-60h-331v-270h371v-60h-457v700z" />
    <glyph glyph-name="F" unicode="F" horiz-adv-x="555" 
d="M478 330h-310v-330h-86v700h429v-60h-343v-250h310v-60z" />
    <glyph glyph-name="G" unicode="G" horiz-adv-x="705" 
d="M395 366h247v-366h-71l-5 96q-28 -48 -78 -74t-113 -26q-71 0 -130 24t-101.5 69.5t-66 111t-23.5 149.5t23.5 149.5t66 111t101.5 69.5t130 24q58 0 107 -16t84.5 -45t55.5 -71t20 -94h-85q0 38 -13.5 68.5t-38 52t-58.5 33t-74 11.5q-52 0 -95 -19.5t-73.5 -56.5
t-47 -92t-16.5 -125q0 -71 16.5 -125.5t47.5 -91.5t73.5 -56.5t95.5 -19.5q87 0 139.5 49.5t52.5 141.5v58h-171v60z" />
    <glyph glyph-name="H" unicode="H" horiz-adv-x="701" 
d="M533 330h-365v-330h-86v700h86v-310h365v310h87v-700h-87v330z" />
    <glyph glyph-name="I" unicode="I" horiz-adv-x="250" 
d="M82 700h86v-700h-86v700z" />
    <glyph glyph-name="J" unicode="J" horiz-adv-x="577" 
d="M411 700h86v-509q0 -45 -16.5 -81t-45.5 -61.5t-69 -39t-87 -13.5q-48 0 -88 13.5t-69 39t-45.5 61.5t-16.5 81v38h87v-38q0 -62 36.5 -98t95.5 -36q58 0 95 36t37 98v509z" />
    <glyph glyph-name="K" unicode="K" horiz-adv-x="627" 
d="M255 342l-87 -95v-247h-86v700h86v-345l307 345h99l-268 -298l293 -402h-94z" />
    <glyph glyph-name="L" unicode="L" horiz-adv-x="559" 
d="M520 0h-438v700h86v-640h352v-60z" />
    <glyph glyph-name="M" unicode="M" horiz-adv-x="899" 
d="M82 700h129l238 -600l238 600h130v-700h-83v600l-241 -600h-88l-241 600v-600h-82v700z" />
    <glyph glyph-name="N" unicode="N" horiz-adv-x="718" 
d="M164 0h-82v700h83l388 -566v566h83v-700h-83l-389 566v-566z" />
    <glyph glyph-name="O" unicode="O" horiz-adv-x="745" 
d="M54 350q0 84 23.5 149.5t65.5 111t100.5 69.5t128.5 24q71 0 129.5 -24t100.5 -69.5t65.5 -111t23.5 -149.5t-23.5 -149.5t-65.5 -111t-100.5 -69.5t-129.5 -24q-70 0 -128.5 24t-100.5 69.5t-65.5 111t-23.5 149.5zM141 350q0 -71 16.5 -125.5t47 -91.5t73 -56.5
t94.5 -19.5t95 19.5t73.5 56.5t47 91.5t16.5 125.5q0 70 -16.5 125t-47 92t-73.5 56.5t-95 19.5t-94.5 -19.5t-73 -56.5t-47 -92t-16.5 -125z" />
    <glyph glyph-name="P" unicode="P" horiz-adv-x="621" 
d="M82 700h264q49 0 89.5 -13.5t69.5 -40t45 -64.5t16 -86t-16 -86t-45 -64t-69.5 -40t-89.5 -14h-178v-292h-86v700zM168 640v-288h163q69 0 110 37.5t41 106.5t-41 106.5t-110 37.5h-163z" />
    <glyph glyph-name="Q" unicode="Q" horiz-adv-x="745" 
d="M54 350q0 84 23.5 149.5t65.5 111t100.5 69.5t128.5 24q71 0 129.5 -24t100.5 -69.5t65.5 -111t23.5 -149.5t-23 -149t-65 -110l93 -77l-37 -46l-101 85q-38 -28 -85 -42.5t-101 -14.5q-70 0 -128.5 24t-100.5 69.5t-65.5 111t-23.5 149.5zM431 234l111 -92
q29 37 45.5 89t16.5 119q0 70 -16.5 125t-47 92t-73.5 56.5t-95 19.5t-94.5 -19.5t-73 -56.5t-47 -92t-16.5 -125q0 -71 16.5 -125.5t47 -91.5t73 -56.5t94.5 -19.5q78 0 130 41l-108 90z" />
    <glyph glyph-name="R" unicode="R" horiz-adv-x="624" 
d="M82 700h264q49 0 89.5 -13.5t69.5 -39.5t45 -63.5t16 -85.5q0 -83 -46.5 -134t-124.5 -64l195 -300h-95l-177 296h-150v-296h-86v700zM168 640v-284h163q69 0 110 37t41 105q0 69 -41 105.5t-110 36.5h-163z" />
    <glyph glyph-name="S" unicode="S" horiz-adv-x="613" 
d="M125 215q0 -36 13.5 -65.5t37 -50t56 -31.5t70.5 -11q77 0 123.5 35.5t46.5 95.5q0 38 -18 62t-47 38.5t-66 23.5t-76 17.5t-76 19.5t-66 31t-47 51t-18 79q0 46 17.5 82t49.5 61t75.5 38t96.5 13q52 0 96.5 -14.5t76 -41.5t49.5 -65t18 -84h-83q0 33 -11.5 59.5
t-32.5 45t-49.5 29t-62.5 10.5q-35 0 -63 -9.5t-48 -27t-31 -42t-11 -53.5q0 -37 18 -59t47 -36t66 -22.5t76 -17t76 -20t66 -31.5t47 -52.5t18 -81.5q0 -47 -19 -83.5t-53 -61.5t-81 -37.5t-102 -12.5q-58 0 -106 15.5t-82.5 44t-53.5 69t-19 90.5h82z" />
    <glyph glyph-name="T" unicode="T" horiz-adv-x="644" 
d="M43 700h558v-60h-236v-640h-86v640h-236v60z" />
    <glyph glyph-name="U" unicode="U" horiz-adv-x="715" 
d="M548 700h87v-462q0 -56 -21 -100.5t-58 -76t-88 -48.5t-111 -17t-111 17t-88 48.5t-58 76t-21 100.5v462h87v-462q0 -42 14 -75.5t39.5 -57t60.5 -36t77 -12.5t77 12.5t60.5 36t39.5 57t14 75.5v462z" />
    <glyph glyph-name="V" unicode="V" horiz-adv-x="693" 
d="M395 0h-99l-267 700h87l230 -626l231 626h87z" />
    <glyph glyph-name="W" unicode="W" horiz-adv-x="1034" 
d="M516 590l-171 -590h-98l-218 700h89l178 -612l177 612h87l177 -612l178 612h90l-219 -700h-98z" />
    <glyph glyph-name="X" unicode="X" horiz-adv-x="684" 
d="M291 353l-250 347h97l204 -290l206 290h98l-253 -346l258 -354h-97l-212 297l-211 -297h-97z" />
    <glyph glyph-name="Y" unicode="Y" horiz-adv-x="681" 
d="M297 275l-256 425h94l206 -351l206 351h95l-258 -425v-275h-87v275z" />
    <glyph glyph-name="Z" unicode="Z" horiz-adv-x="628" 
d="M57 700h525v-56l-435 -584h434v-60h-529v56l432 584h-427v60z" />
    <glyph glyph-name="bracketleft" unicode="[" horiz-adv-x="288" 
d="M73 750h182v-52h-108v-798h108v-52h-182v902z" />
    <glyph glyph-name="backslash" unicode="\" horiz-adv-x="397" 
d="M361 -100h-75l-250 800h75z" />
    <glyph glyph-name="bracketright" unicode="]" horiz-adv-x="288" 
d="M214 -152h-181v52h107v798h-107v52h181v-902z" />
    <glyph glyph-name="asciicircum" unicode="^" horiz-adv-x="506" 
d="M473 500h-81l-139 154l-139 -154h-81l185 200h71z" />
    <glyph glyph-name="underscore" unicode="_" horiz-adv-x="422" 
d="M0 -50h422v-52h-422v52z" />
    <glyph glyph-name="grave" unicode="`" 
d="M212 566h-62l-131 134h81z" />
    <glyph glyph-name="a" unicode="a" horiz-adv-x="539" 
d="M381 99q-26 -50 -70 -76.5t-101 -26.5q-70 0 -114 34t-44 96q0 82 76.5 126t216.5 44h36v39q0 54 -33 84t-87 30q-52 0 -86 -28.5t-34 -76.5h-81q0 37 15 66.5t42 50.5t63.5 32t80.5 11q45 0 82 -11.5t64 -33.5t42 -53t15 -71v-335h-78zM345 248q-103 0 -156.5 -30
t-53.5 -86q0 -38 25.5 -59.5t67.5 -21.5q69 0 111 47.5t42 133.5v16h-36z" />
    <glyph glyph-name="b" unicode="b" horiz-adv-x="596" 
d="M73 725h83v-317q25 47 67 71.5t98 24.5q49 0 90 -17t70.5 -50t46 -80t16.5 -107t-16.5 -107t-46 -80t-70.5 -50t-90 -17q-56 0 -98 25.5t-67 73.5l-5 -95h-78v725zM156 250q0 -96 41 -147.5t107 -51.5q70 0 113.5 51.5t43.5 147.5t-43.5 147.5t-113.5 51.5
q-66 0 -107 -51.5t-41 -147.5z" />
    <glyph glyph-name="c" unicode="c" horiz-adv-x="556" 
d="M294 449q-72 0 -115.5 -51.5t-43.5 -147.5t43.5 -147.5t115.5 -51.5q53 0 87.5 31t34.5 84h81q0 -39 -15.5 -70.5t-42.5 -53.5t-64 -34t-80 -12q-54 0 -98.5 17t-77 50t-50 80t-17.5 107t17.5 107t50 80t77 50t98.5 17q43 0 80 -12t64 -34t42.5 -53.5t15.5 -70.5h-81
q0 53 -34.5 84t-87.5 31z" />
    <glyph glyph-name="d" unicode="d" horiz-adv-x="592" 
d="M522 0h-77l-6 98q-24 -50 -66.5 -76t-97.5 -26q-50 0 -91 17t-70 50t-45.5 80t-16.5 107t16.5 107t45.5 80t70 50t91 17q55 0 97.5 -24.5t66.5 -71.5v317h83v-725zM439 250q0 96 -40.5 147.5t-106.5 51.5q-71 0 -114 -51.5t-43 -147.5t43 -147.5t114 -51.5
q66 0 106.5 51.5t40.5 147.5z" />
    <glyph glyph-name="e" unicode="e" horiz-adv-x="568" 
d="M295 504q48 0 88.5 -17t69 -51t43.5 -85.5t12 -120.5h-372q2 -85 45.5 -132t112.5 -47q57 0 94 28.5t37 76.5h80q0 -37 -16 -66.5t-44 -50.5t-66.5 -32t-83.5 -11q-54 0 -98.5 17t-77 50t-50 80t-17.5 107t17.5 107t49 80t76.5 50t100 17zM294 449q-34 0 -62.5 -11.5
t-49.5 -33t-33 -53t-12 -71.5h289q0 40 -10 71.5t-28 53.5t-42 33t-52 11z" />
    <glyph glyph-name="f" unicode="f" horiz-adv-x="353" 
d="M266 729q13 0 24.5 -1.5t22.5 -3.5v-54q-16 4 -40 4q-39 0 -63.5 -19.5t-24.5 -55.5v-99h128v-54h-128v-446h-83v446h-74v54h74v93q0 136 164 136z" />
    <glyph glyph-name="g" unicode="g" horiz-adv-x="596" 
d="M293 -164q66 0 106 42t40 117v97q-24 -47 -66.5 -71.5t-97.5 -24.5q-50 0 -91 17t-70 50t-45.5 80t-16.5 107t16.5 107t45.5 80t70 50t91 17q55 0 97.5 -25.5t66.5 -73.5l6 95h77v-505q0 -50 -17 -90t-47 -67.5t-72 -42t-93 -14.5q-48 0 -89 11.5t-71 33.5t-46.5 52.5
t-16.5 68.5h79q0 -51 40.5 -81t103.5 -30zM439 250q0 96 -40.5 147.5t-106.5 51.5q-71 0 -114 -51.5t-43 -147.5t43 -147.5t114 -51.5q66 0 106.5 51.5t40.5 147.5z" />
    <glyph glyph-name="h" unicode="h" horiz-adv-x="578" 
d="M156 0h-83v725h83v-320q25 48 68 73.5t99 25.5q41 0 75 -12t58.5 -35.5t38 -57t13.5 -75.5v-324h-83v324q0 60 -34 92.5t-88 32.5q-66 0 -106.5 -51.5t-40.5 -147.5v-250z" />
    <glyph glyph-name="i" unicode="i" 
d="M73 700h83v-108h-83v108zM73 500h83v-500h-83v500z" />
    <glyph glyph-name="j" unicode="j" 
d="M73 700h83v-108h-83v108zM156 -73q0 -72 -43 -109t-128 -37v55q40 0 64 21.5t24 62.5v580h83v-573z" />
    <glyph glyph-name="k" unicode="k" horiz-adv-x="508" 
d="M218 225l-62 -72v-153h-83v725h83v-460l203 235h93l-188 -217l212 -283h-87z" />
    <glyph glyph-name="l" unicode="l" horiz-adv-x="250" 
d="M73 725h83v-620q0 -26 13.5 -40t36.5 -14v-55q-133 0 -133 103v626z" />
    <glyph glyph-name="m" unicode="m" horiz-adv-x="841" 
d="M156 0h-83v500h78l5 -100q22 51 59 77.5t85 26.5q53 0 91 -28t53 -79q23 54 67 80.5t94 26.5q72 0 117.5 -47.5t45.5 -132.5v-324h-83v324q0 60 -28 92.5t-73 32.5q-54 0 -88 -51.5t-34 -147.5v-250h-83v324q0 60 -28 92.5t-73 32.5q-54 0 -88 -51.5t-34 -147.5v-250z
" />
    <glyph glyph-name="n" unicode="n" horiz-adv-x="581" 
d="M156 0h-83v500h78l5 -98q25 50 68 76t99 26q41 0 75 -12t58.5 -35.5t38 -57t13.5 -75.5v-324h-83v324q0 60 -34 92.5t-88 32.5q-66 0 -106.5 -51.5t-40.5 -147.5v-250z" />
    <glyph glyph-name="o" unicode="o" horiz-adv-x="589" 
d="M52 250q0 60 17.5 107t50 80t77 50t98.5 17t98.5 -17t76.5 -50t49.5 -80t17.5 -107t-17.5 -107t-49.5 -80t-76.5 -50t-98.5 -17t-98.5 17t-77 50t-50 80t-17.5 107zM135 250q0 -96 44 -147.5t116 -51.5t115.5 51.5t43.5 147.5t-43.5 147.5t-115.5 51.5t-116 -51.5
t-44 -147.5z" />
    <glyph glyph-name="p" unicode="p" horiz-adv-x="596" 
d="M73 500h78l5 -98q25 50 67 76t98 26q49 0 90 -17t70.5 -50t46 -80t16.5 -107t-16.5 -107t-46 -80t-70.5 -50t-90 -17q-56 0 -98 24.5t-67 71.5v-307h-83v715zM156 250q0 -96 41 -147.5t107 -51.5q70 0 113.5 51.5t43.5 147.5t-43.5 147.5t-113.5 51.5q-66 0 -107 -51.5
t-41 -147.5z" />
    <glyph glyph-name="q" unicode="q" horiz-adv-x="592" 
d="M522 -215h-83v307q-24 -47 -66.5 -71.5t-97.5 -24.5q-50 0 -91 17t-70 50t-45.5 80t-16.5 107t16.5 107t45.5 80t70 50t91 17q55 0 97.5 -25.5t66.5 -73.5l6 95h77v-715zM439 250q0 96 -40.5 147.5t-106.5 51.5q-71 0 -114 -51.5t-43 -147.5t43 -147.5t114 -51.5
q66 0 106.5 51.5t40.5 147.5z" />
    <glyph glyph-name="r" unicode="r" horiz-adv-x="377" 
d="M156 0h-83v500h74l9 -105q25 54 70.5 81.5t103.5 27.5v-61q-38 0 -70 -15t-55 -42.5t-36 -66.5t-13 -87v-232z" />
    <glyph glyph-name="s" unicode="s" horiz-adv-x="507" 
d="M130 157q0 -48 34.5 -77t88.5 -29q52 0 84.5 22t32.5 64q0 33 -23 50t-57.5 26.5t-74.5 17t-74.5 21t-57.5 39t-23 72.5q0 33 14 59.5t39 44.5t60 27.5t77 9.5q40 0 74.5 -11t59.5 -30.5t39 -47.5t14 -62h-77q0 43 -31.5 69.5t-79.5 26.5t-77 -22.5t-29 -63.5
q0 -32 23 -48t57.5 -25t74.5 -16t74.5 -21.5t57.5 -41.5t23 -76q0 -33 -15 -59t-41.5 -43.5t-63.5 -27t-82 -9.5q-44 0 -81 11.5t-64 32.5t-42 50.5t-15 66.5h81z" />
    <glyph glyph-name="t" unicode="t" horiz-adv-x="367" 
d="M273 -4q-165 0 -165 136v314h-80v54h80v105h83v-105h129v-54h-129v-320q0 -36 24.5 -55.5t64.5 -19.5q24 0 40 4v-54q-12 -2 -23.5 -3.5t-23.5 -1.5z" />
    <glyph glyph-name="u" unicode="u" horiz-adv-x="581" 
d="M425 500h83v-500h-78l-5 99q-25 -50 -68.5 -76.5t-99.5 -26.5q-41 0 -74.5 12t-58 35t-38 55.5t-13.5 74.5v327h83v-327q0 -58 33.5 -90t87.5 -32q66 0 107 51.5t41 147.5v250z" />
    <glyph glyph-name="v" unicode="v" horiz-adv-x="543" 
d="M318 0h-93l-201 500h83l164 -428l164 428h84z" />
    <glyph glyph-name="w" unicode="w" horiz-adv-x="808" 
d="M403 396l-122 -396h-92l-165 500h86l126 -421l127 421h81l127 -421l127 421h86l-166 -500h-92z" />
    <glyph glyph-name="x" unicode="x" horiz-adv-x="543" 
d="M225 253l-189 247h93l142 -195l143 195h93l-190 -246l196 -254h-94l-148 203l-147 -203h-93z" />
    <glyph glyph-name="y" unicode="y" horiz-adv-x="537" 
d="M281 -80q-53 -139 -224 -139v55q50 0 89 22t56 62l35 80h-15l-198 500h85l159 -425l160 425h85z" />
    <glyph glyph-name="z" unicode="z" horiz-adv-x="500" 
d="M48 500h404v-54l-319 -392h323v-54h-412v54l315 392h-311v54z" />
    <glyph glyph-name="braceleft" unicode="{" horiz-adv-x="332" 
d="M133 188q0 41 -25.5 62.5t-68.5 21.5v55q43 0 68.5 21.5t25.5 61.5v199q0 72 42.5 108.5t123.5 36.5v-54q-42 0 -67 -22t-25 -62v-189q0 -94 -76 -128q37 -16 56.5 -47.5t19.5 -79.5v-188q0 -41 25 -62.5t67 -21.5v-54q-81 0 -123.5 36.5t-42.5 108.5v197z" />
    <glyph glyph-name="bar" unicode="|" horiz-adv-x="221" 
d="M73 700h74v-800h-74v800z" />
    <glyph glyph-name="braceright" unicode="}" horiz-adv-x="332" 
d="M199 411q0 -41 25.5 -62.5t68.5 -21.5v-55q-43 0 -68.5 -21.5t-25.5 -62.5v-197q0 -72 -42.5 -108.5t-123.5 -36.5v54q42 0 67 21.5t25 62.5v188q0 48 19.5 79.5t55.5 47.5q-36 17 -55.5 48.5t-19.5 79.5v189q0 40 -25 62t-67 22v54q81 0 123.5 -36.5t42.5 -108.5v-198z
" />
    <glyph glyph-name="asciitilde" unicode="~" horiz-adv-x="445" 
d="M42 245q0 57 30 88.5t73 31.5q27 0 45 -11.5t33 -25t30.5 -25t37.5 -11.5q24 0 40.5 16.5t16.5 46.5h56q0 -28 -8.5 -50.5t-22.5 -38t-32.5 -23.5t-39.5 -8q-28 0 -46.5 11.5t-34 25.5t-30 25.5t-35.5 11.5q-25 0 -41.5 -16.5t-16.5 -47.5h-55v0z" />
    <glyph glyph-name="exclamdown" unicode="&#xa1;" 
d="M73 500h83v-115h-83v115zM73 289h83v-489h-83v489z" />
    <glyph glyph-name="cent" unicode="&#xa2;" horiz-adv-x="556" 
d="M258 0q-93 10 -149.5 75t-56.5 175q0 55 14.5 99t41.5 76t65 51t85 24v100h74v-100q36 -5 66 -18.5t52 -34.5t34.5 -50t12.5 -63h-81q0 53 -34.5 84t-87.5 31q-72 0 -115.5 -51.5t-43.5 -147.5t43.5 -147.5t115.5 -51.5q53 0 87.5 31t34.5 84h81q0 -35 -12.5 -63.5
t-34.5 -50t-52 -35t-66 -17.5v-100h-74v100z" />
    <glyph glyph-name="sterling" unicode="&#xa3;" horiz-adv-x="582" 
d="M37 351h61v163q0 43 16 78.5t45 60t68.5 38t86.5 13.5t86.5 -13.5t68 -38t44.5 -60t16 -78.5v-43h-84v43q0 59 -36.5 94t-93.5 35t-93.5 -35t-36.5 -94v-163h241v-60h-241v-231h354v-60h-502v60h61v231h-61v60z" />
    <glyph glyph-name="currency" unicode="&#xa4;" horiz-adv-x="517" 
d="M86 325q0 32 7.5 58.5t21.5 47.5l-77 77l37 37l78 -78q44 33 106 33t104 -33l79 78l37 -37l-78 -77q31 -43 31 -106t-31 -106l78 -77l-37 -37l-79 78q-42 -33 -104 -33t-106 33l-78 -78l-37 37l77 77q-14 21 -21.5 47.5t-7.5 58.5zM145 325q0 -58 31 -89.5t83 -31.5
q51 0 82 31.5t31 89.5t-31 89.5t-82 31.5q-52 0 -83 -31.5t-31 -89.5z" />
    <glyph glyph-name="yen" unicode="&#xa5;" horiz-adv-x="681" 
d="M163 248h134v27l-256 425h94l206 -351l206 351h95l-258 -425v-27h134v-45h-134v-74h134v-45h-134v-84h-87v84h-135v45h135v74h-134v45z" />
    <glyph glyph-name="brokenbar" unicode="&#xa6;" horiz-adv-x="221" 
d="M73 250h74v-350h-74v350zM147 350h-74v350h74v-350z" />
    <glyph glyph-name="section" unicode="&#xa7;" horiz-adv-x="547" 
d="M130 -58q0 -24 10.5 -43.5t29.5 -33.5t45.5 -21.5t57.5 -7.5q62 0 99.5 29.5t37.5 80.5q0 43 -26 64.5t-65 33.5t-84 20.5t-84 25.5t-65 48t-26 89q0 59 27.5 99.5t74.5 59.5q-43 17 -72.5 49t-29.5 94q0 41 15.5 73.5t43 55t66.5 34.5t86 12q44 0 82 -11t65.5 -30.5
t43 -47.5t15.5 -62h-77q0 43 -37.5 69.5t-94.5 26.5q-56 0 -90.5 -31t-34.5 -83q0 -42 26 -63.5t65 -33.5t84 -21t84 -27t65 -51t26 -93q0 -57 -29 -95.5t-80 -56.5q22 -9 42 -20.5t35 -28.5t23.5 -40.5t8.5 -56.5q0 -39 -16.5 -70t-45.5 -52.5t-70 -33t-90 -11.5
q-48 0 -88.5 11.5t-70.5 32.5t-46.5 50.5t-16.5 66.5h81zM414 243q0 30 -13 49t-34 31.5t-48 20t-56 13.5q-56 -4 -90.5 -37.5t-34.5 -87.5q0 -29 12.5 -47.5t32.5 -30.5t46.5 -19t54.5 -13q58 4 94 36t36 85z" />
    <glyph glyph-name="dieresis" unicode="&#xa8;" horiz-adv-x="423" 
d="M70 675h70v-96h-70v96zM283 675h71v-96h-71v96z" />
    <glyph glyph-name="copyright" unicode="&#xa9;" horiz-adv-x="799" 
d="M54 350q0 84 25.5 149.5t71 111t109 69.5t139.5 24q77 0 141 -24t109.5 -69.5t70.5 -111t25 -149.5t-25 -149.5t-70.5 -111t-109.5 -69.5t-141 -24q-76 0 -139.5 24t-109 69.5t-71 111t-25.5 149.5zM118 350q0 -72 20 -127.5t56.5 -93.5t88.5 -58t116 -20t116 20t89 58
t57 93.5t20 127.5t-20 127.5t-57 93.5t-89 58t-116 20t-116 -20t-88.5 -58t-56.5 -93.5t-20 -127.5zM412 514q-60 0 -97 -42.5t-37 -121.5q0 -78 37 -120.5t97 -42.5q45 0 74 27.5t29 73.5h62q0 -33 -12.5 -60t-34.5 -46t-52.5 -29t-65.5 -10q-44 0 -80.5 14t-62.5 40.5
t-40.5 65t-14.5 87.5t14.5 87.5t40.5 65.5t62.5 41t80.5 14q35 0 65.5 -10t52.5 -29t34.5 -46t12.5 -60h-62q0 46 -29 73.5t-74 27.5z" />
    <glyph glyph-name="ordfeminine" unicode="&#xaa;" horiz-adv-x="406" 
d="M278 413q-19 -32 -49 -49t-70 -17q-51 0 -83.5 24t-32.5 68q0 58 55 89t155 31h25v25q0 35 -22.5 54.5t-59.5 19.5q-35 0 -57.5 -18.5t-22.5 -50.5h-67q0 53 41.5 83.5t105.5 30.5q67 0 109 -31t42 -88v-234h-65zM253 520q-69 0 -105 -19.5t-36 -56.5q0 -26 17.5 -39
t46.5 -13q45 0 73.5 30.5t28.5 86.5v11h-25z" />
    <glyph glyph-name="guillemotleft" unicode="&#xab;" horiz-adv-x="469" 
d="M407 465v-80l-118 -110l118 -110v-80l-174 162v56zM229 465v-80l-119 -110l119 -110v-80l-175 162v56z" />
    <glyph glyph-name="logicalnot" unicode="&#xac;" horiz-adv-x="508" 
d="M57 376h372v-176h-69v124h-303v52z" />
    <glyph glyph-name="uni00AD" unicode="&#xad;" horiz-adv-x="347" 
d="M57 301h233v-52h-233v52z" />
    <glyph glyph-name="registered" unicode="&#xae;" horiz-adv-x="799" 
d="M54 350q0 84 25.5 149.5t71 111t109 69.5t139.5 24q77 0 141 -24t109.5 -69.5t70.5 -111t25 -149.5t-25 -149.5t-70.5 -111t-109.5 -69.5t-141 -24q-76 0 -139.5 24t-109 69.5t-71 111t-25.5 149.5zM118 350q0 -72 20 -127.5t56.5 -93.5t88.5 -58t116 -20t116 20t89 58
t57 93.5t20 127.5t-20 127.5t-57 93.5t-89 58t-116 20t-116 -20t-88.5 -58t-56.5 -93.5t-20 -127.5zM279 531h141q51 0 83 -27t32 -75q0 -41 -22.5 -66.5t-60.5 -33.5l95 -148h-59l-84 145h-69v-145h-56v350zM335 494v-131h75q32 0 51 17t19 49t-19 48.5t-51 16.5h-75z" />
    <glyph glyph-name="macron" unicode="&#xaf;" horiz-adv-x="423" 
d="M79 651h266v-53h-266v53z" />
    <glyph glyph-name="degree" unicode="&#xb0;" horiz-adv-x="324" 
d="M52 596q0 51 30 79.5t80 28.5t80 -28.5t30 -79.5t-30 -79t-80 -28t-80 28t-30 79zM96 596q0 -32 17.5 -50t48.5 -18q29 0 47 18t18 50t-18 49.5t-47 17.5q-31 0 -48.5 -17.5t-17.5 -49.5z" />
    <glyph glyph-name="plusminus" unicode="&#xb1;" horiz-adv-x="486" 
d="M57 373h160v163h52v-163h160v-52h-160v-163h-52v163h-160v52zM57 122h372v-53h-372v53z" />
    <glyph glyph-name="uni00B2" unicode="&#xb2;" horiz-adv-x="316" 
d="M37 386q0 16 14 32.5t35 33.5t45.5 34.5t45.5 36t35 37.5t14 40q0 29 -19 47.5t-50 18.5q-32 0 -51.5 -19t-19.5 -51h-53q0 49 34.5 77.5t90.5 28.5q54 0 88 -26.5t34 -75.5q0 -26 -14 -48.5t-34.5 -42.5t-44.5 -37t-44.5 -32t-34.5 -28.5t-14 -25.5h188v-36h-245v36v0z
" />
    <glyph glyph-name="uni00B3" unicode="&#xb3;" horiz-adv-x="328" 
d="M127 547h30q32 0 51 16t19 44q0 27 -18 43t-49 16q-32 0 -51 -17.5t-19 -48.5h-52q0 48 35 75t89 27q55 0 86.5 -24t31.5 -67q0 -29 -14.5 -49t-39.5 -30q32 -10 50.5 -32.5t18.5 -56.5q0 -45 -34 -70t-95 -25q-56 0 -92 27.5t-36 75.5h52q0 -31 21 -49t55 -18t54.5 16.5
t20.5 46.5t-19 47.5t-52 17.5h-43v35z" />
    <glyph glyph-name="acute" unicode="&#xb4;" 
d="M130 700h82l-132 -134h-61z" />
    <glyph glyph-name="mu" unicode="&#xb5;" horiz-adv-x="581" 
d="M73 500h83v-327q0 -58 33.5 -90t87.5 -32q66 0 107 51.5t41 147.5v250h83v-500h-78l-5 99q-23 -50 -64 -76.5t-95 -26.5q-79 0 -110 58v-204h-83v650z" />
    <glyph glyph-name="paragraph" unicode="&#xb6;" horiz-adv-x="650" 
d="M384 -100h-79v392h-30q-49 0 -89.5 14t-69.5 40t-45 64t-16 86t16 86t45 64.5t69.5 40t89.5 13.5h109v-800zM489 700h79v-800h-79v800z" />
    <glyph glyph-name="periodcentered" unicode="&#xb7;" horiz-adv-x="212" 
d="M61 322h90v-100h-90v100z" />
    <glyph glyph-name="cedilla" unicode="&#xb8;" horiz-adv-x="302" 
d="M175 0v-20q0 -24 10.5 -35t23 -20t23 -20.5t10.5 -35.5q0 -35 -24 -54t-61 -19q-24 0 -41 8t-29 20v40q13 -12 28 -20t34 -8q21 0 32 10.5t11 25.5t-10.5 23t-22.5 17t-22.5 24t-10.5 44v20h49z" />
    <glyph glyph-name="uni00B9" unicode="&#xb9;" horiz-adv-x="196" 
d="M28 659q43 0 58.5 9t15.5 32h47v-350h-54v280h-67v29z" />
    <glyph glyph-name="ordmasculine" unicode="&#xba;" horiz-adv-x="439" 
d="M43 525q0 85 49 131.5t128 46.5q78 0 127 -47t49 -131t-49 -131t-127 -47q-79 0 -128 46.5t-49 131.5zM112 525q0 -64 29.5 -98.5t78.5 -34.5t78.5 34.5t29.5 98.5t-29.5 98.5t-78.5 34.5t-78.5 -34.5t-29.5 -98.5z" />
    <glyph glyph-name="guillemotright" unicode="&#xbb;" horiz-adv-x="469" 
d="M62 85v80l118 110l-118 110v80l175 -162v-56zM241 85v80l118 110l-118 110v80l175 -162v-56z" />
    <glyph glyph-name="onequarter" unicode="&#xbc;" horiz-adv-x="632" 
d="M28 659q43 0 58.5 9t15.5 32h47v-350h-54v280h-67v29zM442 700h65l-350 -700h-65zM514 69h-181v37l164 244h66v-244h33v-37h-33v-69h-49v69zM514 106v194l-132 -194h132z" />
    <glyph glyph-name="onehalf" unicode="&#xbd;" horiz-adv-x="676" 
d="M28 659q43 0 58.5 9t15.5 32h47v-350h-54v280h-67v29zM443 700h65l-350 -700h-65zM396 36q0 16 14 32.5t35 33.5t45.5 34.5t45.5 36t35 37.5t14 40q0 29 -19 47.5t-50 18.5q-32 0 -51.5 -19t-19.5 -51h-53q0 49 34.5 77.5t90.5 28.5q54 0 88 -26.5t34 -75.5
q0 -26 -14 -48.5t-34.5 -42.5t-44.5 -37t-44.5 -32t-34.5 -28.5t-14 -25.5h187v-36h-244v36z" />
    <glyph glyph-name="threequarters" unicode="&#xbe;" horiz-adv-x="725" 
d="M127 547h30q32 0 51 16t19 44q0 27 -18 43t-49 16q-32 0 -51 -17.5t-19 -48.5h-52q0 48 35 75t89 27q55 0 86.5 -24t31.5 -67q0 -29 -14.5 -49t-39.5 -30q32 -10 50.5 -32.5t18.5 -56.5q0 -45 -34 -70t-95 -25q-56 0 -92 27.5t-36 75.5h52q0 -31 21 -49t55 -18t54.5 16.5
t20.5 46.5t-19 47.5t-52 17.5h-43v35zM533 700h65l-350 -700h-65zM607 69h-180v37l163 244h66v-244h33v-37h-33v-69h-49v69zM607 106v194l-132 -194h132z" />
    <glyph glyph-name="questiondown" unicode="&#xbf;" horiz-adv-x="568" 
d="M327 271q0 -43 -13.5 -70.5t-33.5 -47t-43.5 -34t-43.5 -31.5t-33.5 -40t-13.5 -59q0 -60 38.5 -97t102.5 -37q31 0 58 10.5t47 29.5t31 45.5t11 59.5h81q0 -46 -17 -83.5t-47.5 -64.5t-72.5 -41.5t-93 -14.5q-49 0 -90 13t-70.5 37.5t-46 60.5t-16.5 82t13.5 74.5
t33.5 48.5t44 34t44 30.5t33.5 38t13.5 56.5v18h83v-18zM327 385h-83v115h83v-115z" />
    <glyph glyph-name="Agrave" unicode="&#xc0;" horiz-adv-x="679" 
d="M291 700h98l261 -700h-87l-72 191h-303l-72 -191h-87zM204 251h272l-136 375zM426 766h-62l-131 134h81z" />
    <glyph glyph-name="Aacute" unicode="&#xc1;" horiz-adv-x="679" 
d="M291 700h98l261 -700h-87l-72 191h-303l-72 -191h-87zM204 251h272l-136 375zM357 900h82l-132 -134h-61z" />
    <glyph glyph-name="Acircumflex" unicode="&#xc2;" horiz-adv-x="679" 
d="M291 700h98l261 -700h-87l-72 191h-303l-72 -191h-87zM204 251h272l-136 375zM493 766h-69l-85 99l-86 -99h-68l118 134h71z" />
    <glyph glyph-name="Atilde" unicode="&#xc3;" horiz-adv-x="679" 
d="M291 700h98l261 -700h-87l-72 191h-303l-72 -191h-87zM204 251h272l-136 375zM183 785q0 45 25.5 69t63.5 24q25 0 40 -8t27.5 -17.5t25 -17.5t32.5 -8q21 0 34 12t13 34h51q0 -44 -26.5 -68.5t-62.5 -24.5q-24 0 -40 8t-29 17.5t-25.5 17.5t-30.5 8q-21 0 -34.5 -11.5
t-13.5 -34.5h-50z" />
    <glyph glyph-name="Adieresis" unicode="&#xc4;" horiz-adv-x="679" 
d="M291 700h98l261 -700h-87l-72 191h-303l-72 -191h-87zM204 251h272l-136 375zM198 875h70v-96h-70v96zM411 875h71v-96h-71v96z" />
    <glyph glyph-name="Aring" unicode="&#xc5;" horiz-adv-x="679" 
d="M291 700h98l261 -700h-87l-72 191h-303l-72 -191h-87zM204 251h272l-136 375zM244 834q0 45 26.5 69t68.5 24q43 0 69 -24t26 -69q0 -43 -26 -67t-69 -24q-42 0 -68.5 24t-26.5 67zM286 834q0 -26 14.5 -40t38.5 -14t38 14t14 40t-14 40.5t-38 14.5t-38.5 -14.5
t-14.5 -40.5z" />
    <glyph glyph-name="AE" unicode="&#xc6;" horiz-adv-x="782" 
d="M346 191h-158l-72 -191h-87l260 700h444v-60h-306v-250h271v-60h-271v-270h311v-60h-392v191zM346 251v389h-5l-137 -389h142z" />
    <glyph glyph-name="Ccedilla" unicode="&#xc7;" horiz-adv-x="705" 
d="M373 643q-52 0 -95 -19.5t-73.5 -56.5t-47 -92t-16.5 -125q0 -71 16.5 -125.5t47 -91.5t73.5 -56.5t95 -19.5q40 0 74 12t58.5 33.5t38 52.5t13.5 70h85q0 -50 -18.5 -91t-51 -70.5t-77.5 -46.5t-98 -20v-17q0 -24 10.5 -35t23 -20t23 -20.5t10.5 -35.5q0 -35 -24 -54
t-61 -19q-24 0 -41 8t-29 20v40q13 -12 28 -20t34 -8q21 0 32 10.5t11 25.5t-10.5 23t-22.5 17t-22.5 24t-10.5 44v17q-66 4 -120 30t-93 71.5t-60 108.5t-21 143q0 84 23.5 149.5t66 111t101.5 69.5t130 24q58 0 107 -16t84.5 -46t55.5 -72.5t20 -94.5h-85q0 39 -13.5 70
t-38 52.5t-58.5 33.5t-74 12z" />
    <glyph glyph-name="Egrave" unicode="&#xc8;" horiz-adv-x="583" 
d="M82 700h452v-60h-366v-250h331v-60h-331v-270h371v-60h-457v700zM400 766h-62l-131 134h81z" />
    <glyph glyph-name="Eacute" unicode="&#xc9;" horiz-adv-x="583" 
d="M82 700h452v-60h-366v-250h331v-60h-331v-270h371v-60h-457v700zM338 900h82l-132 -134h-61z" />
    <glyph glyph-name="Ecircumflex" unicode="&#xca;" horiz-adv-x="583" 
d="M82 700h452v-60h-366v-250h331v-60h-331v-270h371v-60h-457v700zM467 766h-69l-85 99l-86 -99h-68l118 134h71z" />
    <glyph glyph-name="Edieresis" unicode="&#xcb;" horiz-adv-x="583" 
d="M82 700h452v-60h-366v-250h331v-60h-331v-270h371v-60h-457v700zM171 875h70v-96h-70v96zM384 875h71v-96h-71v96z" />
    <glyph glyph-name="Igrave" unicode="&#xcc;" horiz-adv-x="250" 
d="M82 700h86v-700h-86v700zM211 766h-62l-131 134h81z" />
    <glyph glyph-name="Iacute" unicode="&#xcd;" horiz-adv-x="250" 
d="M82 700h86v-700h-86v700zM149 900h82l-132 -134h-61z" />
    <glyph glyph-name="Icircumflex" unicode="&#xce;" horiz-adv-x="250" 
d="M82 700h86v-700h-86v700zM279 766h-69l-85 99l-86 -99h-68l118 134h71z" />
    <glyph glyph-name="Idieresis" unicode="&#xcf;" horiz-adv-x="250" 
d="M82 700h86v-700h-86v700zM-17 875h70v-96h-70v96zM196 875h71v-96h-71v96z" />
    <glyph glyph-name="Eth" unicode="&#xd0;" horiz-adv-x="727" 
d="M108 333h-80v55h80v312h252q69 0 126.5 -23.5t99 -68.5t64 -110t22.5 -148t-22.5 -148t-64 -110t-99 -68.5t-126.5 -23.5h-252v333zM353 60q52 0 95 19t73.5 56t47 91t16.5 124t-16.5 124t-47 91t-73.5 56t-95 19h-158v-252h170v-55h-170v-273h158z" />
    <glyph glyph-name="Ntilde" unicode="&#xd1;" horiz-adv-x="718" 
d="M164 0h-82v700h83l388 -566v566h83v-700h-83l-389 566v-566zM203 785q0 45 25.5 69t63.5 24q25 0 40 -8t27.5 -17.5t25 -17.5t32.5 -8q21 0 34 12t13 34h51q0 -44 -26.5 -68.5t-62.5 -24.5q-24 0 -40 8t-29 17.5t-25.5 17.5t-30.5 8q-21 0 -34.5 -11.5t-13.5 -34.5h-50z
" />
    <glyph glyph-name="Ograve" unicode="&#xd2;" horiz-adv-x="745" 
d="M54 350q0 84 23.5 149.5t65.5 111t100.5 69.5t128.5 24q71 0 129.5 -24t100.5 -69.5t65.5 -111t23.5 -149.5t-23.5 -149.5t-65.5 -111t-100.5 -69.5t-129.5 -24q-70 0 -128.5 24t-100.5 69.5t-65.5 111t-23.5 149.5zM141 350q0 -71 16.5 -125.5t47 -91.5t73 -56.5
t94.5 -19.5t95 19.5t73.5 56.5t47 91.5t16.5 125.5q0 70 -16.5 125t-47 92t-73.5 56.5t-95 19.5t-94.5 -19.5t-73 -56.5t-47 -92t-16.5 -125zM459 766h-62l-131 134h81z" />
    <glyph glyph-name="Oacute" unicode="&#xd3;" horiz-adv-x="745" 
d="M54 350q0 84 23.5 149.5t65.5 111t100.5 69.5t128.5 24q71 0 129.5 -24t100.5 -69.5t65.5 -111t23.5 -149.5t-23.5 -149.5t-65.5 -111t-100.5 -69.5t-129.5 -24q-70 0 -128.5 24t-100.5 69.5t-65.5 111t-23.5 149.5zM141 350q0 -71 16.5 -125.5t47 -91.5t73 -56.5
t94.5 -19.5t95 19.5t73.5 56.5t47 91.5t16.5 125.5q0 70 -16.5 125t-47 92t-73.5 56.5t-95 19.5t-94.5 -19.5t-73 -56.5t-47 -92t-16.5 -125zM397 900h82l-132 -134h-61z" />
    <glyph glyph-name="Ocircumflex" unicode="&#xd4;" horiz-adv-x="745" 
d="M54 350q0 84 23.5 149.5t65.5 111t100.5 69.5t128.5 24q71 0 129.5 -24t100.5 -69.5t65.5 -111t23.5 -149.5t-23.5 -149.5t-65.5 -111t-100.5 -69.5t-129.5 -24q-70 0 -128.5 24t-100.5 69.5t-65.5 111t-23.5 149.5zM141 350q0 -71 16.5 -125.5t47 -91.5t73 -56.5
t94.5 -19.5t95 19.5t73.5 56.5t47 91.5t16.5 125.5q0 70 -16.5 125t-47 92t-73.5 56.5t-95 19.5t-94.5 -19.5t-73 -56.5t-47 -92t-16.5 -125zM527 766h-69l-85 99l-86 -99h-68l118 134h71z" />
    <glyph glyph-name="Otilde" unicode="&#xd5;" horiz-adv-x="745" 
d="M54 350q0 84 23.5 149.5t65.5 111t100.5 69.5t128.5 24q71 0 129.5 -24t100.5 -69.5t65.5 -111t23.5 -149.5t-23.5 -149.5t-65.5 -111t-100.5 -69.5t-129.5 -24q-70 0 -128.5 24t-100.5 69.5t-65.5 111t-23.5 149.5zM141 350q0 -71 16.5 -125.5t47 -91.5t73 -56.5
t94.5 -19.5t95 19.5t73.5 56.5t47 91.5t16.5 125.5q0 70 -16.5 125t-47 92t-73.5 56.5t-95 19.5t-94.5 -19.5t-73 -56.5t-47 -92t-16.5 -125zM216 785q0 45 25.5 69t63.5 24q25 0 40 -8t27.5 -17.5t25 -17.5t32.5 -8q21 0 34 12t13 34h51q0 -44 -26.5 -68.5t-62.5 -24.5
q-24 0 -40 8t-29 17.5t-25.5 17.5t-30.5 8q-21 0 -34.5 -11.5t-13.5 -34.5h-50z" />
    <glyph glyph-name="Odieresis" unicode="&#xd6;" horiz-adv-x="745" 
d="M54 350q0 84 23.5 149.5t65.5 111t100.5 69.5t128.5 24q71 0 129.5 -24t100.5 -69.5t65.5 -111t23.5 -149.5t-23.5 -149.5t-65.5 -111t-100.5 -69.5t-129.5 -24q-70 0 -128.5 24t-100.5 69.5t-65.5 111t-23.5 149.5zM141 350q0 -71 16.5 -125.5t47 -91.5t73 -56.5
t94.5 -19.5t95 19.5t73.5 56.5t47 91.5t16.5 125.5q0 70 -16.5 125t-47 92t-73.5 56.5t-95 19.5t-94.5 -19.5t-73 -56.5t-47 -92t-16.5 -125zM231 875h70v-96h-70v96zM444 875h71v-96h-71v96z" />
    <glyph glyph-name="multiply" unicode="&#xd7;" horiz-adv-x="490" 
d="M118 462l127 -127l127 127l37 -37l-127 -127l127 -127l-37 -37l-127 127l-127 -127l-37 37l127 127l-127 127z" />
    <glyph glyph-name="Oslash" unicode="&#xd8;" horiz-adv-x="745" 
d="M144 88q-43 46 -66.5 111.5t-23.5 150.5q0 84 23.5 149.5t65.5 111t100.5 69.5t128.5 24q107 0 183 -53l36 49h73l-64 -87q44 -46 67.5 -112t23.5 -151q0 -84 -23.5 -149.5t-65.5 -111t-100.5 -69.5t-129.5 -24q-107 0 -184 53l-36 -49h-73zM607 350q0 125 -51 202
l-328 -449q58 -50 144 -50q53 0 96.5 19.5t74 57.5t47.5 93.5t17 126.5zM137 350q0 -63 13 -113.5t38 -87.5l328 448q-29 24 -65 37t-79 13q-53 0 -96.5 -19.5t-74 -57.5t-47.5 -93.5t-17 -126.5z" />
    <glyph glyph-name="Ugrave" unicode="&#xd9;" horiz-adv-x="715" 
d="M548 700h87v-462q0 -56 -21 -100.5t-58 -76t-88 -48.5t-111 -17t-111 17t-88 48.5t-58 76t-21 100.5v462h87v-462q0 -42 14 -75.5t39.5 -57t60.5 -36t77 -12.5t77 12.5t60.5 36t39.5 57t14 75.5v462zM444 766h-62l-131 134h81z" />
    <glyph glyph-name="Uacute" unicode="&#xda;" horiz-adv-x="715" 
d="M548 700h87v-462q0 -56 -21 -100.5t-58 -76t-88 -48.5t-111 -17t-111 17t-88 48.5t-58 76t-21 100.5v462h87v-462q0 -42 14 -75.5t39.5 -57t60.5 -36t77 -12.5t77 12.5t60.5 36t39.5 57t14 75.5v462zM382 900h82l-132 -134h-61z" />
    <glyph glyph-name="Ucircumflex" unicode="&#xdb;" horiz-adv-x="715" 
d="M548 700h87v-462q0 -56 -21 -100.5t-58 -76t-88 -48.5t-111 -17t-111 17t-88 48.5t-58 76t-21 100.5v462h87v-462q0 -42 14 -75.5t39.5 -57t60.5 -36t77 -12.5t77 12.5t60.5 36t39.5 57t14 75.5v462zM511 766h-69l-85 99l-86 -99h-68l118 134h71z" />
    <glyph glyph-name="Udieresis" unicode="&#xdc;" horiz-adv-x="715" 
d="M548 700h87v-462q0 -56 -21 -100.5t-58 -76t-88 -48.5t-111 -17t-111 17t-88 48.5t-58 76t-21 100.5v462h87v-462q0 -42 14 -75.5t39.5 -57t60.5 -36t77 -12.5t77 12.5t60.5 36t39.5 57t14 75.5v462zM216 875h70v-96h-70v96zM429 875h71v-96h-71v96z" />
    <glyph glyph-name="Yacute" unicode="&#xdd;" horiz-adv-x="681" 
d="M297 275l-256 425h94l206 -351l206 351h95l-258 -425v-275h-87v275zM365 900h82l-132 -134h-61z" />
    <glyph glyph-name="Thorn" unicode="&#xde;" horiz-adv-x="594" 
d="M82 693h86v-140h152q49 0 89.5 -13.5t69.5 -39t45 -62.5t16 -85q0 -47 -16 -84.5t-45 -63t-69.5 -39t-89.5 -13.5h-152v-153h-86v693zM168 494v-281h137q68 0 109 37t41 103q0 67 -41 104t-109 37h-137z" />
    <glyph glyph-name="germandbls" unicode="&#xdf;" horiz-adv-x="639" 
d="M284 157q0 -48 31.5 -77t80.5 -29q48 0 76.5 22t28.5 64q0 33 -18 49.5t-45 26.5t-58.5 17t-58.5 21t-45 39.5t-18 72.5q0 38 15 64.5t32.5 49.5t32.5 47t15 58q0 42 -23 67t-74 25q-45 0 -72.5 -24t-27.5 -68v-582h-83v577q0 152 183 152q49 0 83.5 -11.5t56 -31.5
t31 -47.5t9.5 -58.5q0 -42 -15 -69t-32.5 -49t-32.5 -44t-15 -55q0 -32 18 -48t45 -25.5t58.5 -16.5t58.5 -22t45 -41.5t18 -74.5q0 -33 -13.5 -59t-38 -43.5t-59 -27t-75.5 -9.5t-75 11.5t-59 32.5t-39 50.5t-14 66.5h73z" />
    <glyph glyph-name="agrave" unicode="&#xe0;" horiz-adv-x="539" 
d="M381 99q-26 -50 -70 -76.5t-101 -26.5q-70 0 -114 34t-44 96q0 82 76.5 126t216.5 44h36v39q0 54 -33 84t-87 30q-52 0 -86 -28.5t-34 -76.5h-81q0 37 15 66.5t42 50.5t63.5 32t80.5 11q45 0 82 -11.5t64 -33.5t42 -53t15 -71v-335h-78zM345 248q-103 0 -156.5 -30
t-53.5 -86q0 -38 25.5 -59.5t67.5 -21.5q69 0 111 47.5t42 133.5v16h-36zM355 566h-62l-131 134h81z" />
    <glyph glyph-name="aacute" unicode="&#xe1;" horiz-adv-x="539" 
d="M381 99q-26 -50 -70 -76.5t-101 -26.5q-70 0 -114 34t-44 96q0 82 76.5 126t216.5 44h36v39q0 54 -33 84t-87 30q-52 0 -86 -28.5t-34 -76.5h-81q0 37 15 66.5t42 50.5t63.5 32t80.5 11q45 0 82 -11.5t64 -33.5t42 -53t15 -71v-335h-78zM345 248q-103 0 -156.5 -30
t-53.5 -86q0 -38 25.5 -59.5t67.5 -21.5q69 0 111 47.5t42 133.5v16h-36zM280 700h82l-132 -134h-61z" />
    <glyph glyph-name="acircumflex" unicode="&#xe2;" horiz-adv-x="539" 
d="M381 99q-26 -50 -70 -76.5t-101 -26.5q-70 0 -114 34t-44 96q0 82 76.5 126t216.5 44h36v39q0 54 -33 84t-87 30q-52 0 -86 -28.5t-34 -76.5h-81q0 37 15 66.5t42 50.5t63.5 32t80.5 11q45 0 82 -11.5t64 -33.5t42 -53t15 -71v-335h-78zM345 248q-103 0 -156.5 -30
t-53.5 -86q0 -38 25.5 -59.5t67.5 -21.5q69 0 111 47.5t42 133.5v16h-36zM416 566h-69l-85 99l-86 -99h-68l118 134h71z" />
    <glyph glyph-name="atilde" unicode="&#xe3;" horiz-adv-x="539" 
d="M381 99q-26 -50 -70 -76.5t-101 -26.5q-70 0 -114 34t-44 96q0 82 76.5 126t216.5 44h36v39q0 54 -33 84t-87 30q-52 0 -86 -28.5t-34 -76.5h-81q0 37 15 66.5t42 50.5t63.5 32t80.5 11q45 0 82 -11.5t64 -33.5t42 -53t15 -71v-335h-78zM345 248q-103 0 -156.5 -30
t-53.5 -86q0 -38 25.5 -59.5t67.5 -21.5q69 0 111 47.5t42 133.5v16h-36zM106 585q0 45 25.5 69t63.5 24q25 0 40 -8t27.5 -17.5t25 -17.5t32.5 -8q21 0 34 12t13 34h51q0 -44 -26.5 -68.5t-62.5 -24.5q-24 0 -40 8t-29 17.5t-25.5 17.5t-30.5 8q-21 0 -34.5 -11.5
t-13.5 -34.5h-50z" />
    <glyph glyph-name="adieresis" unicode="&#xe4;" horiz-adv-x="539" 
d="M381 99q-26 -50 -70 -76.5t-101 -26.5q-70 0 -114 34t-44 96q0 82 76.5 126t216.5 44h36v39q0 54 -33 84t-87 30q-52 0 -86 -28.5t-34 -76.5h-81q0 37 15 66.5t42 50.5t63.5 32t80.5 11q45 0 82 -11.5t64 -33.5t42 -53t15 -71v-335h-78zM345 248q-103 0 -156.5 -30
t-53.5 -86q0 -38 25.5 -59.5t67.5 -21.5q69 0 111 47.5t42 133.5v16h-36zM121 675h70v-96h-70v96zM334 675h71v-96h-71v96z" />
    <glyph glyph-name="aring" unicode="&#xe5;" horiz-adv-x="539" 
d="M381 99q-26 -50 -70 -76.5t-101 -26.5q-70 0 -114 34t-44 96q0 82 76.5 126t216.5 44h36v39q0 54 -33 84t-87 30q-52 0 -86 -28.5t-34 -76.5h-81q0 37 15 66.5t42 50.5t63.5 32t80.5 11q45 0 82 -11.5t64 -33.5t42 -53t15 -71v-335h-78zM345 248q-103 0 -156.5 -30
t-53.5 -86q0 -38 25.5 -59.5t67.5 -21.5q69 0 111 47.5t42 133.5v16h-36zM167 634q0 45 26.5 69t68.5 24q43 0 69 -24t26 -69q0 -43 -26 -67t-69 -24q-42 0 -68.5 24t-26.5 67zM209 634q0 -26 14.5 -40t38.5 -14t38 14t14 40t-14 40.5t-38 14.5t-38.5 -14.5t-14.5 -40.5z
" />
    <glyph glyph-name="ae" unicode="&#xe6;" horiz-adv-x="893" 
d="M620 504q48 0 88.5 -17t69 -51t43.5 -85.5t12 -120.5h-371q1 -85 44.5 -132t112.5 -47q57 0 94 28.5t37 76.5h80q0 -37 -15.5 -66.5t-43.5 -50.5t-66.5 -32t-84.5 -11q-72 0 -124 34t-76 97q-23 -59 -74 -95t-136 -36q-70 0 -114 34t-44 96q0 82 76.5 126t216.5 44h36v39
q0 54 -33 84t-87 30q-52 0 -86 -28.5t-34 -76.5h-81q0 37 15 66.5t42 50.5t63.5 32t80.5 11q64 0 109 -28.5t60 -80.5q26 53 74.5 81t115.5 28zM619 449q-33 0 -62 -11.5t-50 -33t-33 -53t-12 -71.5h289q0 40 -10 71.5t-28 53.5t-42 33t-52 11zM345 248q-103 0 -156.5 -30
t-53.5 -86q0 -38 25.5 -59.5t67.5 -21.5q69 0 111 47.5t42 133.5v16h-36z" />
    <glyph glyph-name="ccedilla" unicode="&#xe7;" horiz-adv-x="556" 
d="M294 449q-72 0 -115.5 -51.5t-43.5 -147.5t43.5 -147.5t115.5 -51.5q53 0 87.5 31t34.5 84h81q0 -36 -13.5 -66t-37 -52t-56 -35t-71.5 -16v-17q0 -24 10.5 -35t23 -20t23 -20.5t10.5 -35.5q0 -35 -24 -54t-61 -19q-24 0 -41 8t-29 20v40q13 -12 28 -20t34 -8
q21 0 32 10.5t11 25.5t-10.5 23t-22.5 17t-22.5 24t-10.5 44v17q-49 4 -89.5 22.5t-69 51t-44 77.5t-15.5 102q0 60 17.5 107t50 80t77 50t98.5 17q43 0 80 -12t64 -34t42.5 -53.5t15.5 -70.5h-81q0 53 -34.5 84t-87.5 31z" />
    <glyph glyph-name="egrave" unicode="&#xe8;" horiz-adv-x="568" 
d="M295 504q48 0 88.5 -17t69 -51t43.5 -85.5t12 -120.5h-372q2 -85 45.5 -132t112.5 -47q57 0 94 28.5t37 76.5h80q0 -37 -16 -66.5t-44 -50.5t-66.5 -32t-83.5 -11q-54 0 -98.5 17t-77 50t-50 80t-17.5 107t17.5 107t49 80t76.5 50t100 17zM294 449q-34 0 -62.5 -11.5
t-49.5 -33t-33 -53t-12 -71.5h289q0 40 -10 71.5t-28 53.5t-42 33t-52 11zM387 566h-62l-131 134h81z" />
    <glyph glyph-name="eacute" unicode="&#xe9;" horiz-adv-x="568" 
d="M295 504q48 0 88.5 -17t69 -51t43.5 -85.5t12 -120.5h-372q2 -85 45.5 -132t112.5 -47q57 0 94 28.5t37 76.5h80q0 -37 -16 -66.5t-44 -50.5t-66.5 -32t-83.5 -11q-54 0 -98.5 17t-77 50t-50 80t-17.5 107t17.5 107t49 80t76.5 50t100 17zM294 449q-34 0 -62.5 -11.5
t-49.5 -33t-33 -53t-12 -71.5h289q0 40 -10 71.5t-28 53.5t-42 33t-52 11zM312 700h82l-132 -134h-61z" />
    <glyph glyph-name="ecircumflex" unicode="&#xea;" horiz-adv-x="568" 
d="M295 504q48 0 88.5 -17t69 -51t43.5 -85.5t12 -120.5h-372q2 -85 45.5 -132t112.5 -47q57 0 94 28.5t37 76.5h80q0 -37 -16 -66.5t-44 -50.5t-66.5 -32t-83.5 -11q-54 0 -98.5 17t-77 50t-50 80t-17.5 107t17.5 107t49 80t76.5 50t100 17zM294 449q-34 0 -62.5 -11.5
t-49.5 -33t-33 -53t-12 -71.5h289q0 40 -10 71.5t-28 53.5t-42 33t-52 11zM448 566h-69l-85 99l-86 -99h-68l118 134h71z" />
    <glyph glyph-name="edieresis" unicode="&#xeb;" horiz-adv-x="568" 
d="M295 504q48 0 88.5 -17t69 -51t43.5 -85.5t12 -120.5h-372q2 -85 45.5 -132t112.5 -47q57 0 94 28.5t37 76.5h80q0 -37 -16 -66.5t-44 -50.5t-66.5 -32t-83.5 -11q-54 0 -98.5 17t-77 50t-50 80t-17.5 107t17.5 107t49 80t76.5 50t100 17zM294 449q-34 0 -62.5 -11.5
t-49.5 -33t-33 -53t-12 -71.5h289q0 40 -10 71.5t-28 53.5t-42 33t-52 11zM152 675h70v-96h-70v96zM365 675h71v-96h-71v96z" />
    <glyph glyph-name="igrave" unicode="&#xec;" 
d="M196 566h-62l-131 134h81zM73 500h83v-500h-83v500z" />
    <glyph glyph-name="iacute" unicode="&#xed;" 
d="M146 700h82l-132 -134h-61zM73 500h83v-500h-83v500z" />
    <glyph glyph-name="icircumflex" unicode="&#xee;" 
d="M73 500h83v-500h-83v500zM269 566h-69l-85 99l-86 -99h-68l118 134h71z" />
    <glyph glyph-name="idieresis" unicode="&#xef;" 
d="M-27 675h70v-96h-70v96zM186 675h71v-96h-71v96zM73 500h83v-500h-83v500z" />
    <glyph glyph-name="eth" unicode="&#xf0;" horiz-adv-x="576" 
d="M353 632q-23 18 -49.5 28t-54.5 15t-57 6t-56 1v47q42 0 80 -2t72.5 -8.5t64 -19t54.5 -32.5l83 61v-44l-53 -40q41 -46 64 -127t23 -212q0 -84 -17 -142.5t-48 -95.5t-74.5 -54t-95.5 -17t-95.5 17t-74.5 50t-48 80t-17 107t16 107t45.5 80t70 50t89.5 17
q56 0 99.5 -23.5t70.5 -67.5q-3 72 -19.5 119t-42.5 76l-84 -61v44zM441 250q0 96 -41.5 147.5t-110.5 51.5t-110.5 -51.5t-41.5 -147.5t41.5 -147.5t110.5 -51.5t110.5 51.5t41.5 147.5z" />
    <glyph glyph-name="ntilde" unicode="&#xf1;" horiz-adv-x="581" 
d="M156 0h-83v500h78l5 -98q25 50 68 76t99 26q41 0 75 -12t58.5 -35.5t38 -57t13.5 -75.5v-324h-83v324q0 60 -34 92.5t-88 32.5q-66 0 -106.5 -51.5t-40.5 -147.5v-250zM134 585q0 45 25.5 69t63.5 24q25 0 40 -8t27.5 -17.5t25 -17.5t32.5 -8q21 0 34 12t13 34h51
q0 -44 -26.5 -68.5t-62.5 -24.5q-24 0 -40 8t-29 17.5t-25.5 17.5t-30.5 8q-21 0 -34.5 -11.5t-13.5 -34.5h-50z" />
    <glyph glyph-name="ograve" unicode="&#xf2;" horiz-adv-x="589" 
d="M52 250q0 60 17.5 107t50 80t77 50t98.5 17t98.5 -17t76.5 -50t49.5 -80t17.5 -107t-17.5 -107t-49.5 -80t-76.5 -50t-98.5 -17t-98.5 17t-77 50t-50 80t-17.5 107zM135 250q0 -96 44 -147.5t116 -51.5t115.5 51.5t43.5 147.5t-43.5 147.5t-115.5 51.5t-116 -51.5
t-44 -147.5zM381 566h-62l-131 134h81z" />
    <glyph glyph-name="oacute" unicode="&#xf3;" horiz-adv-x="589" 
d="M52 250q0 60 17.5 107t50 80t77 50t98.5 17t98.5 -17t76.5 -50t49.5 -80t17.5 -107t-17.5 -107t-49.5 -80t-76.5 -50t-98.5 -17t-98.5 17t-77 50t-50 80t-17.5 107zM135 250q0 -96 44 -147.5t116 -51.5t115.5 51.5t43.5 147.5t-43.5 147.5t-115.5 51.5t-116 -51.5
t-44 -147.5zM312 700h82l-132 -134h-61z" />
    <glyph glyph-name="ocircumflex" unicode="&#xf4;" horiz-adv-x="589" 
d="M52 250q0 60 17.5 107t50 80t77 50t98.5 17t98.5 -17t76.5 -50t49.5 -80t17.5 -107t-17.5 -107t-49.5 -80t-76.5 -50t-98.5 -17t-98.5 17t-77 50t-50 80t-17.5 107zM135 250q0 -96 44 -147.5t116 -51.5t115.5 51.5t43.5 147.5t-43.5 147.5t-115.5 51.5t-116 -51.5
t-44 -147.5zM449 566h-69l-85 99l-86 -99h-68l118 134h71z" />
    <glyph glyph-name="otilde" unicode="&#xf5;" horiz-adv-x="589" 
d="M52 250q0 60 17.5 107t50 80t77 50t98.5 17t98.5 -17t76.5 -50t49.5 -80t17.5 -107t-17.5 -107t-49.5 -80t-76.5 -50t-98.5 -17t-98.5 17t-77 50t-50 80t-17.5 107zM135 250q0 -96 44 -147.5t116 -51.5t115.5 51.5t43.5 147.5t-43.5 147.5t-115.5 51.5t-116 -51.5
t-44 -147.5zM139 585q0 45 25.5 69t63.5 24q25 0 40 -8t27.5 -17.5t25 -17.5t32.5 -8q21 0 34 12t13 34h51q0 -44 -26.5 -68.5t-62.5 -24.5q-24 0 -40 8t-29 17.5t-25.5 17.5t-30.5 8q-21 0 -34.5 -11.5t-13.5 -34.5h-50z" />
    <glyph glyph-name="odieresis" unicode="&#xf6;" horiz-adv-x="589" 
d="M52 250q0 60 17.5 107t50 80t77 50t98.5 17t98.5 -17t76.5 -50t49.5 -80t17.5 -107t-17.5 -107t-49.5 -80t-76.5 -50t-98.5 -17t-98.5 17t-77 50t-50 80t-17.5 107zM135 250q0 -96 44 -147.5t116 -51.5t115.5 51.5t43.5 147.5t-43.5 147.5t-115.5 51.5t-116 -51.5
t-44 -147.5zM153 675h70v-96h-70v96zM366 675h71v-96h-71v96z" />
    <glyph glyph-name="divide" unicode="&#xf7;" horiz-adv-x="486" 
d="M57 314h372v-52h-372v52zM205 173h76v-95h-76v95zM205 500h76v-95h-76v95z" />
    <glyph glyph-name="oslash" unicode="&#xf8;" horiz-adv-x="589" 
d="M117 65q-31 32 -48 78.5t-17 106.5t17.5 107t50 80t77 50t98.5 17q77 0 136 -37l26 33h64l-50 -65q31 -32 48.5 -78.5t17.5 -106.5t-17.5 -107t-49.5 -80t-76.5 -50t-98.5 -17q-81 0 -138 36l-25 -32h-65zM458 250q0 78 -31 129l-232 -298q40 -33 100 -33q73 0 118 52.5
t45 149.5zM131 250q0 -40 8 -72t22 -57l232 297q-40 34 -98 34q-74 0 -119 -52.5t-45 -149.5z" />
    <glyph glyph-name="ugrave" unicode="&#xf9;" horiz-adv-x="581" 
d="M425 500h83v-500h-78l-5 99q-25 -50 -68.5 -76.5t-99.5 -26.5q-41 0 -74.5 12t-58 35t-38 55.5t-13.5 74.5v327h83v-327q0 -58 33.5 -90t87.5 -32q66 0 107 51.5t41 147.5v250zM377 566h-62l-131 134h81z" />
    <glyph glyph-name="uacute" unicode="&#xfa;" horiz-adv-x="581" 
d="M425 500h83v-500h-78l-5 99q-25 -50 -68.5 -76.5t-99.5 -26.5q-41 0 -74.5 12t-58 35t-38 55.5t-13.5 74.5v327h83v-327q0 -58 33.5 -90t87.5 -32q66 0 107 51.5t41 147.5v250zM315 700h82l-132 -134h-61z" />
    <glyph glyph-name="ucircumflex" unicode="&#xfb;" horiz-adv-x="581" 
d="M425 500h83v-500h-78l-5 99q-25 -50 -68.5 -76.5t-99.5 -26.5q-41 0 -74.5 12t-58 35t-38 55.5t-13.5 74.5v327h83v-327q0 -58 33.5 -90t87.5 -32q66 0 107 51.5t41 147.5v250zM445 566h-69l-85 99l-86 -99h-68l118 134h71z" />
    <glyph glyph-name="udieresis" unicode="&#xfc;" horiz-adv-x="581" 
d="M425 500h83v-500h-78l-5 99q-25 -50 -68.5 -76.5t-99.5 -26.5q-41 0 -74.5 12t-58 35t-38 55.5t-13.5 74.5v327h83v-327q0 -58 33.5 -90t87.5 -32q66 0 107 51.5t41 147.5v250zM149 675h70v-96h-70v96zM362 675h71v-96h-71v96z" />
    <glyph glyph-name="yacute" unicode="&#xfd;" horiz-adv-x="537" 
d="M281 -80q-53 -139 -224 -139v55q50 0 89 22t56 62l35 80h-15l-198 500h85l159 -425l160 425h85zM293 700h82l-132 -134h-61z" />
    <glyph glyph-name="thorn" unicode="&#xfe;" horiz-adv-x="596" 
d="M73 725h83v-323q25 50 67 76t98 26q49 0 90 -17t70.5 -50t46 -80t16.5 -107t-16.5 -107t-46 -80t-70.5 -50t-90 -17q-56 0 -98 24.5t-67 71.5v-307h-83v940zM156 250q0 -96 41 -147.5t107 -51.5q70 0 113.5 51.5t43.5 147.5t-43.5 147.5t-113.5 51.5q-66 0 -107 -51.5
t-41 -147.5z" />
    <glyph glyph-name="ydieresis" unicode="&#xff;" horiz-adv-x="537" 
d="M281 -80q-53 -139 -224 -139v55q50 0 89 22t56 62l35 80h-15l-198 500h85l159 -425l160 425h85zM127 675h70v-96h-70v96zM340 675h71v-96h-71v96z" />
    <glyph glyph-name="dotlessi" unicode="&#x131;" 
d="M73 500h83v-500h-83v500z" />
    <glyph glyph-name="OE" unicode="&#x152;" horiz-adv-x="907" 
d="M471 20q-54 -24 -120 -24t-120.5 24t-93.5 69.5t-61 111t-22 149.5t22 149.5t61 111t93.5 69.5t120.5 24q64 0 120 -25v21h387v-60h-306v-250h271v-60h-271v-270h311v-60h-392v20zM356 57q70 0 115 41v503q-48 42 -115 42q-48 0 -88 -19.5t-68 -56.5t-43.5 -92
t-15.5 -125q0 -71 15.5 -125.5t43.5 -91.5t68 -56.5t88 -19.5z" />
    <glyph glyph-name="oe" unicode="&#x153;" horiz-adv-x="967" 
d="M693 504q48 0 88.5 -17t69.5 -51t43.5 -85.5t11.5 -120.5h-371q1 -85 44.5 -132t112.5 -47q57 0 94 28.5t37 76.5h81q0 -37 -16 -66.5t-44 -50.5t-66.5 -32t-84.5 -11q-72 0 -124 34t-75 98q-24 -64 -76 -98t-123 -34q-54 0 -98.5 17t-77 50t-50 80t-17.5 107t17.5 107
t50 80t77 50t98.5 17q71 0 123 -34t75 -98q23 64 74.5 98t125.5 34zM135 250q0 -96 44 -147.5t116 -51.5t115.5 51.5t43.5 147.5t-43.5 147.5t-115.5 51.5t-116 -51.5t-44 -147.5zM692 449q-33 0 -62 -11.5t-50 -33t-33 -53t-12 -71.5h290q0 40 -10 71.5t-28 53.5t-42.5 33
t-52.5 11z" />
    <glyph glyph-name="Scaron" unicode="&#x160;" horiz-adv-x="613" 
d="M125 215q0 -36 13.5 -65.5t37 -50t56 -31.5t70.5 -11q77 0 123.5 35.5t46.5 95.5q0 38 -18 62t-47 38.5t-66 23.5t-76 17.5t-76 19.5t-66 31t-47 51t-18 79q0 46 17.5 82t49.5 61t75.5 38t96.5 13q52 0 96.5 -14.5t76 -41.5t49.5 -65t18 -84h-83q0 33 -11.5 59.5
t-32.5 45t-49.5 29t-62.5 10.5q-35 0 -63 -9.5t-48 -27t-31 -42t-11 -53.5q0 -37 18 -59t47 -36t66 -22.5t76 -17t76 -20t66 -31.5t47 -52.5t18 -81.5q0 -47 -19 -83.5t-53 -61.5t-81 -37.5t-102 -12.5q-58 0 -106 15.5t-82.5 44t-53.5 69t-19 90.5h82zM146 900h68l86 -99
l85 99h69l-119 -134h-71z" />
    <glyph glyph-name="scaron" unicode="&#x161;" horiz-adv-x="507" 
d="M130 157q0 -48 34.5 -77t88.5 -29q52 0 84.5 22t32.5 64q0 33 -23 50t-57.5 26.5t-74.5 17t-74.5 21t-57.5 39t-23 72.5q0 33 14 59.5t39 44.5t60 27.5t77 9.5q40 0 74.5 -11t59.5 -30.5t39 -47.5t14 -62h-77q0 43 -31.5 69.5t-79.5 26.5t-77 -22.5t-29 -63.5
q0 -32 23 -48t57.5 -25t74.5 -16t74.5 -21.5t57.5 -41.5t23 -76q0 -33 -15 -59t-41.5 -43.5t-63.5 -27t-82 -9.5q-44 0 -81 11.5t-64 32.5t-42 50.5t-15 66.5h81zM101 700h68l86 -99l85 99h69l-119 -134h-71z" />
    <glyph glyph-name="Ydieresis" unicode="&#x178;" horiz-adv-x="681" 
d="M297 275l-256 425h94l206 -351l206 351h95l-258 -425v-275h-87v275zM199 875h70v-96h-70v96zM412 875h71v-96h-71v96z" />
    <glyph glyph-name="Zcaron" unicode="&#x17d;" horiz-adv-x="628" 
d="M57 700h525v-56l-435 -584h434v-60h-529v56l432 584h-427v60zM160 900h68l86 -99l85 99h69l-119 -134h-71z" />
    <glyph glyph-name="zcaron" unicode="&#x17e;" horiz-adv-x="500" 
d="M48 500h404v-54l-319 -392h323v-54h-412v54l315 392h-311v54zM96 700h68l86 -99l85 99h69l-119 -134h-71z" />
    <glyph glyph-name="florin" unicode="&#x192;" horiz-adv-x="353" 
d="M266 729q13 0 24.5 -1.5t22.5 -3.5v-54q-16 4 -40 4q-39 0 -63.5 -19.5t-24.5 -55.5v-99h128v-54h-128v-519q0 -72 -43.5 -109t-127.5 -37v55q40 0 64 21.5t24 62.5v526h-64v54h64v93q0 136 164 136z" />
    <glyph glyph-name="uni0237" unicode="&#x237;" 
d="M156 -73q0 -72 -43 -109t-128 -37v55q40 0 64 21.5t24 62.5v580h83v-573z" />
    <glyph glyph-name="circumflex" unicode="&#x2c6;" horiz-adv-x="346" 
d="M327 566h-69l-85 99l-86 -99h-68l118 134h71z" />
    <glyph glyph-name="caron" unicode="&#x2c7;" horiz-adv-x="346" 
d="M19 700h68l86 -99l85 99h69l-119 -134h-71z" />
    <glyph glyph-name="breve" unicode="&#x2d8;" horiz-adv-x="472" 
d="M142 681q0 -36 26.5 -58t67.5 -22t67.5 22t26.5 58h61q0 -59 -43.5 -92.5t-111.5 -33.5q-67 0 -110.5 33.5t-43.5 92.5h60z" />
    <glyph glyph-name="tilde" unicode="&#x2dc;" horiz-adv-x="335" 
d="M12 585q0 45 25.5 69t63.5 24q25 0 40 -8t27.5 -17.5t25 -17.5t32.5 -8q21 0 34 12t13 34h51q0 -44 -26.5 -68.5t-62.5 -24.5q-24 0 -40 8t-29 17.5t-25.5 17.5t-30.5 8q-21 0 -34.5 -11.5t-13.5 -34.5h-50v0z" />
    <glyph glyph-name="endash" unicode="&#x2013;" horiz-adv-x="536" 
d="M57 301h422v-52h-422v52z" />
    <glyph glyph-name="emdash" unicode="&#x2014;" horiz-adv-x="796" 
d="M57 301h682v-52h-682v52z" />
    <glyph glyph-name="quoteleft" unicode="&#x2018;" horiz-adv-x="217" 
d="M156 453h-93v106q0 63 26 104t68 41v-49q-17 0 -28.5 -27t-11.5 -69h39v-106z" />
    <glyph glyph-name="quoteright" unicode="&#x2019;" horiz-adv-x="217" 
d="M64 700h93v-106q0 -31 -7 -57.5t-19 -45.5t-29.5 -30t-38.5 -11v48q17 0 28 27t11 69h-38v106z" />
    <glyph glyph-name="quotesinglbase" unicode="&#x201a;" horiz-adv-x="217" 
d="M64 106h93v-106q0 -63 -26 -104t-68 -41v49q17 0 28 27t11 69h-38v106z" />
    <glyph glyph-name="quotedblleft" unicode="&#x201c;" horiz-adv-x="370" 
d="M156 453h-93v106q0 63 26 104t68 41v-49q-17 0 -28.5 -27t-11.5 -69h39v-106zM309 453h-94v106q0 63 26 104t69 41v-49q-17 0 -28.5 -27t-11.5 -69h39v-106z" />
    <glyph glyph-name="quotedblright" unicode="&#x201d;" horiz-adv-x="370" 
d="M64 700h93v-106q0 -31 -7 -57.5t-19 -45.5t-29.5 -30t-38.5 -11v48q17 0 28 27t11 69h-38v106zM216 700h94v-106q0 -31 -7 -57.5t-19.5 -45.5t-30 -30t-38.5 -11v48q17 0 28.5 27t11.5 69h-39v106z" />
    <glyph glyph-name="quotedblbase" unicode="&#x201e;" horiz-adv-x="370" 
d="M64 106h93v-106q0 -63 -26 -104t-68 -41v49q17 0 28 27t11 69h-38v106zM216 106h94v-106q0 -63 -26 -104t-69 -41v49q17 0 28.5 27t11.5 69h-39v106z" />
    <glyph glyph-name="dagger" unicode="&#x2020;" horiz-adv-x="517" 
d="M39 509h183v191h74v-191h182v-54h-182v-555h-74v555h-183v54z" />
    <glyph glyph-name="daggerdbl" unicode="&#x2021;" horiz-adv-x="517" 
d="M478 91h-182v-191h-74v191h-183v54h183v310h-183v54h183v191h74v-191h182v-54h-182v-310h182v-54z" />
    <glyph glyph-name="bullet" unicode="&#x2022;" horiz-adv-x="324" 
d="M52 325q0 51 30 79.5t80 28.5t80 -28.5t30 -79.5q0 -50 -30 -78.5t-80 -28.5t-80 28.5t-30 78.5z" />
    <glyph glyph-name="ellipsis" unicode="&#x2026;" horiz-adv-x="608" 
d="M61 106h93v-106h-93v106zM255 106h94v-106h-94v106zM450 106h94v-106h-94v106z" />
    <glyph glyph-name="perthousand" unicode="&#x2030;" horiz-adv-x="1029" 
d="M533 700h66l-397 -700h-65zM44 566q0 65 38.5 101.5t100.5 36.5q63 0 101.5 -36.5t38.5 -101.5t-38.5 -101t-101.5 -36q-62 0 -100.5 36t-38.5 101zM95 566q0 -44 24 -67t65 -23q40 0 64 23t24 67q0 43 -24 66.5t-64 23.5q-41 0 -65 -23.5t-24 -66.5zM382 133
q0 65 38.5 101.5t101.5 36.5t101.5 -36.5t38.5 -101.5t-38.5 -101t-101.5 -36t-101.5 36t-38.5 101zM433 133q0 -43 24 -66.5t65 -23.5q40 0 64 23.5t24 66.5t-24 66.5t-64 23.5q-41 0 -65 -23.5t-24 -66.5zM705 133q0 65 38.5 101.5t101.5 36.5t101 -36.5t38 -101.5
t-38 -101t-101 -36t-101.5 36t-38.5 101zM756 133q0 -43 24 -66.5t65 -23.5q40 0 64 23.5t24 66.5t-24 66.5t-64 23.5q-41 0 -65 -23.5t-24 -66.5z" />
    <glyph glyph-name="guilsinglleft" unicode="&#x2039;" horiz-adv-x="291" 
d="M229 465v-80l-119 -110l119 -110v-80l-175 162v56z" />
    <glyph glyph-name="guilsinglright" unicode="&#x203a;" horiz-adv-x="291" 
d="M62 85v80l118 110l-118 110v80l175 -162v-56z" />
    <glyph glyph-name="Euro" unicode="&#x20ac;" horiz-adv-x="758" 
d="M41 448h76q12 61 40 108.5t68 80.5t91.5 50t111.5 17q58 0 107 -16t84.5 -46t55.5 -72.5t20 -94.5h-84q0 39 -13.5 70t-38 52.5t-58.5 33.5t-75 12q-85 0 -143 -50t-78 -145h276v-50h-284q-2 -12 -2 -24v-24v-26t2 -24h284v-51h-276q21 -94 79 -143t142 -49q41 0 75 12
t58.5 33.5t38 52.5t13.5 70h84q0 -53 -20 -95t-55.5 -72t-84.5 -46t-107 -16q-120 0 -202 66t-108 187h-77v51h69q-2 12 -2 24v26v24t2 24h-69v50z" />
    <glyph glyph-name="trademark" unicode="&#x2122;" horiz-adv-x="800" 
d="M28 700h287v-37h-116v-313h-55v313h-116v37zM365 700h83l111 -286l110 286h84v-350h-53v289l-114 -289h-55l-113 289v-289h-53v350z" />
    </font>
</defs>
</svg>
