<?xml version="1.0" standalone="no"?>
<!DOCTYPE svg PUBLIC "-//W3C//DTD SVG 1.1//EN" "http://www.w3.org/Graphics/SVG/1.1/DTD/svg11.dtd" >
<svg xmlns="http://www.w3.org/2000/svg" xmlns:xlink="http://www.w3.org/1999/xlink" version="1.1">
<metadata>
Created by FontForge 20200314 at Tue Apr 14 18:06:42 2015
 By Unknown
Copyright (c) 2013 by Andriy Konstantynov. All rights reserved.
</metadata>
<defs>
<font id="ClinicaW01-SemiBold" horiz-adv-x="246" >
  <font-face 
    font-family="ClinicaW01-SemiBold"
    font-weight="600"
    font-stretch="normal"
    units-per-em="1000"
    panose-1="2 11 0 3 3 2 0 2 0 4"
    ascent="800"
    descent="-200"
    x-height="500"
    cap-height="700"
    bbox="-45 -220 1022 932"
    underline-thickness="50"
    underline-position="-175"
    unicode-range="U+0020-2122"
  />
<missing-glyph horiz-adv-x="249" 
 />
    <glyph glyph-name=".notdef" horiz-adv-x="249" 
 />
    <glyph glyph-name=".null" horiz-adv-x="0" 
 />
    <glyph glyph-name="nonmarkingreturn" horiz-adv-x="333" 
 />
    <glyph glyph-name="space" unicode=" " horiz-adv-x="249" 
 />
    <glyph glyph-name="exclam" unicode="!" 
d="M190 0h-134v135h134v-135zM190 219h-134v481h134v-481z" />
    <glyph glyph-name="quotedbl" unicode="&#x22;" horiz-adv-x="376" 
d="M144 467h-75l-16 233h107zM307 467h-75l-17 233h108z" />
    <glyph glyph-name="numbersign" unicode="#" horiz-adv-x="707" 
d="M414 160h-188l-29 -160h-111l28 160h-81v79h95l38 222h-84v78h99l28 161h112l-29 -161h189l28 161h112l-29 -161h82v-78h-96l-39 -222h85v-79h-98l-29 -160h-111zM239 239h189l38 222h-188z" />
    <glyph glyph-name="dollar" unicode="$" horiz-adv-x="614" 
d="M243 0q-99 12 -156.5 70t-57.5 150h133q0 -64 37 -98t100 -34t99 29t36 77q0 34 -17 54t-44.5 32.5t-62.5 20t-71.5 15.5t-71.5 19.5t-62.5 32t-44.5 53t-17 82.5q0 83 55 134.5t145 62.5v100h118v-100q43 -7 78.5 -24.5t61 -44t39 -61t13.5 -76.5h-133q0 55 -32 86.5
t-84 31.5q-56 0 -88.5 -31t-32.5 -76q0 -32 17 -51t44.5 -31t62.5 -19.5t72 -16t72 -20.5t62.5 -33t44.5 -53.5t17 -82.5q0 -44 -15.5 -78.5t-44 -59.5t-67.5 -40t-87 -21v-99h-118v100z" />
    <glyph glyph-name="percent" unicode="%" horiz-adv-x="752" 
d="M531 700h102l-410 -700h-102zM35 560q0 68 41 106.5t108 38.5t107.5 -38.5t40.5 -106.5q0 -67 -40.5 -104.5t-107.5 -37.5t-108 37.5t-41 104.5zM111 560q0 -35 19.5 -54.5t53.5 -19.5q32 0 51.5 19.5t19.5 54.5t-19.5 55t-51.5 20q-34 0 -53.5 -20t-19.5 -55zM420 137
q0 68 40.5 106.5t107.5 38.5t108 -38.5t41 -106.5q0 -66 -41 -104t-108 -38t-107.5 38t-40.5 104zM495 137q0 -35 20 -54.5t53 -19.5q32 0 51.5 19.5t19.5 54.5t-19.5 55t-51.5 20q-33 0 -53 -20t-20 -55z" />
    <glyph glyph-name="ampersand" unicode="&#x26;" horiz-adv-x="708" 
d="M615 337q0 -58 -17 -112t-47 -92l142 -133h-152l-65 65q-38 -33 -93.5 -51.5t-117.5 -18.5q-53 0 -96.5 12.5t-75 37t-49 60.5t-17.5 82q0 37 11 66.5t29.5 53.5t43 43t51.5 35q-29 42 -46 83t-17 79q0 31 12 60t37 50.5t62.5 34.5t88.5 13q44 0 80.5 -10.5t63 -30
t41.5 -48t15 -64.5q0 -37 -14 -65.5t-37 -51t-53 -41t-62 -35.5l130 -146q32 52 32 124h120zM270 84q34 0 67 13t56 36l-160 167q-31 -20 -53 -46t-22 -67q0 -45 28.5 -74t83.5 -29zM228 539q0 -41 37 -96q43 23 72.5 47.5t29.5 63.5q0 30 -19 46t-47 16q-37 0 -55 -24
t-18 -53z" />
    <glyph glyph-name="quotesingle" unicode="'" horiz-adv-x="213" 
d="M144 467h-75l-16 233h107z" />
    <glyph glyph-name="parenleft" unicode="(" horiz-adv-x="289" 
d="M262 -184q-48 0 -87.5 32t-68 92t-44 147.5t-15.5 198.5t15.5 198t44 147.5t68 92t87.5 31.5v-78q-44 0 -69 -99.5t-25 -291.5t25 -291.5t69 -99.5v-79z" />
    <glyph glyph-name="parenright" unicode=")" horiz-adv-x="289" 
d="M30 755q48 0 87.5 -31.5t68 -92t44 -147.5t15.5 -198t-15.5 -198.5t-44 -147.5t-68 -92t-87.5 -32v79q45 0 69.5 99.5t24.5 291.5t-24.5 291.5t-69.5 99.5v78z" />
    <glyph glyph-name="asterisk" unicode="*" horiz-adv-x="465" 
d="M83 637l110 -64v127h79v-127l109 64l40 -68l-110 -64l110 -63l-40 -68l-109 64v-127h-79v127l-110 -64l-39 68l110 63l-110 64z" />
    <glyph glyph-name="plus" unicode="+" horiz-adv-x="484" 
d="M47 336h155v157h79v-157h155v-79h-155v-157h-79v157h-155v79z" />
    <glyph glyph-name="comma" unicode="," horiz-adv-x="232" 
d="M51 130h132v-130q0 -36 -9.5 -65.5t-27 -50.5t-42 -33t-54.5 -12v72q21 0 35.5 24.5t14.5 64.5h-49v130z" />
    <glyph glyph-name="hyphen" unicode="-" horiz-adv-x="307" 
d="M47 314h213v-78h-213v78z" />
    <glyph glyph-name="period" unicode="." horiz-adv-x="232" 
d="M51 130h132v-130h-132v130z" />
    <glyph glyph-name="slash" unicode="/" horiz-adv-x="426" 
d="M279 700h118l-250 -800h-118z" />
    <glyph glyph-name="zero" unicode="0" horiz-adv-x="640" 
d="M38 350q0 84 20.5 150t58 111.5t89.5 69.5t114 24t114 -24t89.5 -69.5t58 -111.5t20.5 -150t-20.5 -150t-58 -111.5t-89.5 -69.5t-114 -24t-114 24t-89.5 69.5t-58 111.5t-20.5 150zM175 350q0 -131 39.5 -198.5t105.5 -67.5t105 67.5t39 198.5t-39 198.5t-105 67.5
t-105.5 -67.5t-39.5 -198.5z" />
    <glyph glyph-name="one" unicode="1" horiz-adv-x="371" 
d="M32 612q43 0 72 4.5t47 14.5t25.5 27t7.5 42h120v-700h-137v541h-135v71z" />
    <glyph glyph-name="two" unicode="2" horiz-adv-x="588" 
d="M49 88q0 29 26.5 61t66.5 65.5t86.5 68.5t86.5 71t66.5 72.5t26.5 73.5q0 24 -8 45t-23 37t-36.5 25t-48.5 9q-54 0 -86.5 -34t-32.5 -94h-132q0 50 18 90t51 68.5t80 43.5t105 15q54 0 100 -14t79 -40t51.5 -64t18.5 -87q0 -51 -26 -95.5t-64.5 -83.5t-83.5 -73
t-83.5 -62.5t-64.5 -53t-26 -44.5h349v-88h-496v88v0z" />
    <glyph glyph-name="three" unicode="3" horiz-adv-x="612" 
d="M237 402h53q56 0 88.5 28.5t32.5 79.5q0 49 -30.5 77.5t-81.5 28.5q-57 0 -88.5 -31.5t-31.5 -90.5h-131q0 49 19 88.5t52.5 66.5t80 41.5t101.5 14.5q115 0 179.5 -48.5t64.5 -136.5q0 -56 -27 -96t-75 -61q60 -21 95 -65.5t35 -110.5q0 -91 -68 -141.5t-194 -50.5
q-58 0 -106 14.5t-83 42t-54.5 67t-19.5 89.5h131q0 -59 35 -91.5t98 -32.5q57 0 91.5 30t34.5 84t-32.5 85t-91.5 31h-77v88z" />
    <glyph glyph-name="four" unicode="4" horiz-adv-x="598" 
d="M379 134h-346v91l306 475h164v-475h59v-91h-59v-134h-124v134zM379 225v351l-225 -351h225z" />
    <glyph glyph-name="five" unicode="5" horiz-adv-x="608" 
d="M104 700h417v-92h-300l-22 -184q25 17 56 26t66 9q55 0 100.5 -16.5t78 -46.5t50.5 -73.5t18 -97.5q0 -110 -66.5 -170t-191.5 -60q-57 0 -105.5 14.5t-83 41.5t-54 65.5t-19.5 87.5h131q0 -57 35 -88.5t96 -31.5q57 0 91 37t34 104q0 71 -37 111t-100 40
q-39 0 -68 -15.5t-41 -44.5h-126z" />
    <glyph glyph-name="six" unicode="6" horiz-adv-x="601" 
d="M563 224q0 -54 -19 -96.5t-53 -72t-82 -45t-105 -15.5q-71 0 -121.5 26t-82.5 73t-46.5 113t-14.5 146q0 82 20 147.5t55.5 111t84.5 69.5t108 24q50 0 92 -12.5t72 -36t47 -57t17 -75.5h-127q0 43 -27.5 67.5t-73.5 24.5q-28 0 -52 -14t-42.5 -43t-30 -73.5
t-14.5 -104.5q27 29 67.5 51t97.5 22q51 0 93.5 -15.5t72.5 -45t47 -72.5t17 -97zM186 224q0 -68 31.5 -104t85.5 -36q57 0 90 36t33 104q0 69 -33 104.5t-90 35.5q-54 0 -85.5 -35.5t-31.5 -104.5z" />
    <glyph glyph-name="seven" unicode="7" horiz-adv-x="558" 
d="M33 700h490v-92l-248 -608h-136l245 608h-351v92z" />
    <glyph glyph-name="eight" unicode="8" horiz-adv-x="593" 
d="M59 527q0 42 17.5 75.5t48.5 56t74.5 34.5t96.5 12t96.5 -12t75 -34.5t49 -56t17.5 -75.5q0 -57 -31 -96.5t-85 -59.5q63 -21 100 -66.5t37 -112.5q0 -47 -19 -83.5t-53 -62t-81.5 -38.5t-105.5 -13q-57 0 -105 13t-82 38.5t-53 62t-19 83.5q0 67 37 112.5t100 66.5
q-53 20 -84 59.5t-31 96.5zM174 204q0 -58 33 -89t89 -31q57 0 90 31t33 89q0 59 -33 89.5t-90 30.5q-56 0 -89 -30.5t-33 -89.5zM193 514q0 -49 27.5 -75t75.5 -26t76 26t28 75q0 50 -28 76t-76 26t-75.5 -26t-27.5 -76z" />
    <glyph glyph-name="nine" unicode="9" horiz-adv-x="590" 
d="M39 483q0 52 18.5 93.5t51.5 70t79.5 43.5t102.5 15q70 0 119 -25.5t80 -72t45.5 -113t14.5 -147.5q0 -83 -19 -148.5t-54.5 -110.5t-85.5 -69t-111 -24q-51 0 -93 12.5t-72 36t-46.5 57t-16.5 75.5h129q0 -43 28 -67.5t74 -24.5q65 0 101.5 59t34.5 188
q-24 -28 -63.5 -49.5t-93.5 -21.5q-50 0 -91 15t-70 43.5t-45.5 70t-16.5 94.5zM403 483q0 65 -30 99t-81 34q-54 0 -85 -34t-31 -99q0 -66 31 -99.5t85 -33.5q51 0 81 33.5t30 99.5z" />
    <glyph glyph-name="colon" unicode=":" horiz-adv-x="229" 
d="M49 130h131v-130h-131v130zM49 500h131v-130h-131v130z" />
    <glyph glyph-name="semicolon" unicode=";" horiz-adv-x="229" 
d="M49 500h131v-130h-131v130zM49 128h131v-128q0 -36 -9.5 -65.5t-27 -50.5t-42 -33t-54.5 -12v72q20 0 35 24.5t15 64.5h-48v128z" />
    <glyph glyph-name="less" unicode="&#x3c;" horiz-adv-x="574" 
d="M37 269v111l500 202v-120l-358 -137l358 -138v-119z" />
    <glyph glyph-name="equal" unicode="=" horiz-adv-x="537" 
d="M47 256h439v-79h-439v79zM47 472h439v-78h-439v78z" />
    <glyph glyph-name="greater" unicode="&#x3e;" horiz-adv-x="574" 
d="M537 380v-111l-500 -201v119l358 138l-358 137v120z" />
    <glyph glyph-name="question" unicode="?" horiz-adv-x="575" 
d="M221 236q0 43 13 71.5t32 48t41.5 34t41.5 30.5t32 37t13 53q0 45 -29 75.5t-80 30.5t-81.5 -34t-30.5 -94h-131q0 50 17.5 90t50 68.5t78 43.5t101.5 15q53 0 97 -13t76 -38t50 -61.5t18 -82.5q0 -47 -13 -76.5t-32.5 -50t-42 -34.5t-42 -29t-32.5 -34t-13 -50v-17h-134
v17zM221 135h134v-135h-134v135z" />
    <glyph glyph-name="at" unicode="@" horiz-adv-x="799" 
d="M473 347q0 60 -22 92.5t-57 32.5q-38 0 -59.5 -32.5t-21.5 -92.5q0 -61 21.5 -93.5t59.5 -32.5q35 0 57 32.5t22 93.5zM508 243q-18 -42 -55 -63t-79 -21q-70 0 -114 49.5t-44 138.5t44 137.5t114 48.5q68 0 104 -53l6 49h84v-268q0 -21 10.5 -30.5t28.5 -9.5
q15 0 26.5 6t19 20.5t11.5 39.5t4 63q0 137 -72 208t-198 71q-125 0 -197 -71t-72 -208t72 -208t197 -71q74 0 130 27l58 -60q-81 -43 -188 -43q-80 0 -146 24t-113.5 69.5t-74 111.5t-26.5 150t26.5 150t74 111.5t113.5 69.5t146 24q81 0 147.5 -24t114.5 -69.5
t74.5 -111.5t26.5 -150q0 -52 -8 -88.5t-26.5 -59t-48 -33t-71.5 -10.5q-52 0 -75.5 17.5t-23.5 47.5v19z" />
    <glyph glyph-name="A" unicode="A" horiz-adv-x="689" 
d="M265 700h161l244 -700h-139l-58 164h-256l-57 -164h-140zM239 256h213l-106 331z" />
    <glyph glyph-name="B" unicode="B" horiz-adv-x="646" 
d="M67 700h285q51 0 93 -12t72 -35t46.5 -56.5t16.5 -76.5q0 -55 -27 -94t-74 -60q60 -20 94.5 -64.5t34.5 -110.5q0 -45 -17 -80.5t-47.5 -60t-73.5 -37.5t-94 -13h-309v700zM349 91q57 0 89.5 29.5t32.5 83.5t-32.5 83t-89.5 29h-142v-225h142zM207 608v-200h118
q55 0 86.5 25.5t31.5 74.5t-31 74.5t-87 25.5h-118z" />
    <glyph glyph-name="C" unicode="C" horiz-adv-x="700" 
d="M367 612q-86 0 -137.5 -66.5t-51.5 -195.5t51.5 -195.5t137.5 -66.5q70 0 111 38.5t41 110.5h136q0 -57 -21 -101.5t-58.5 -76t-89.5 -48t-115 -16.5q-74 0 -135 24t-105 69.5t-68.5 111.5t-24.5 150t24.5 150t68.5 111.5t105 69.5t135 24q63 0 115 -16.5t89.5 -48
t58.5 -76t21 -101.5h-136q0 72 -41 110.5t-111 38.5z" />
    <glyph glyph-name="D" unicode="D" horiz-adv-x="692" 
d="M59 700h269q72 0 132 -23.5t103 -68.5t66.5 -110t23.5 -148t-23.5 -148t-66.5 -110t-103 -68.5t-132 -23.5h-269v700zM315 91q93 0 145.5 66t52.5 193t-52.5 192.5t-145.5 65.5h-116v-517h116z" />
    <glyph glyph-name="E" unicode="E" horiz-adv-x="582" 
d="M67 700h474v-92h-334v-202h295v-92h-295v-223h339v-91h-479v700z" />
    <glyph glyph-name="F" unicode="F" horiz-adv-x="550" 
d="M477 314h-270v-314h-140v700h448v-92h-308v-202h270v-92z" />
    <glyph glyph-name="G" unicode="G" horiz-adv-x="700" 
d="M384 379h271v-379h-111l-9 68q-28 -36 -70.5 -54.5t-93.5 -18.5q-74 0 -135 24t-105 69.5t-68.5 111.5t-24.5 150t24.5 150t68.5 111.5t105 69.5t135 24q63 0 115 -16t89.5 -46.5t58.5 -74.5t21 -99h-136q0 69 -41 106t-111 37q-86 0 -137.5 -66.5t-51.5 -195.5
t52 -195.5t141 -66.5q75 0 119.5 40.5t44.5 118.5v40h-151v92z" />
    <glyph glyph-name="H" unicode="H" horiz-adv-x="710" 
d="M503 314h-296v-314h-140v700h140v-294h296v294h140v-700h-140v314z" />
    <glyph glyph-name="I" unicode="I" horiz-adv-x="273" 
d="M67 700h140v-700h-140v700z" />
    <glyph glyph-name="J" unicode="J" horiz-adv-x="595" 
d="M391 700h141v-500q0 -48 -18 -86t-50 -64.5t-76.5 -40.5t-97.5 -14t-97.5 14t-76.5 40.5t-50 64.5t-18 86v36h141v-36q0 -54 26.5 -83t74.5 -29q47 0 74 29t27 83v500z" />
    <glyph glyph-name="K" unicode="K" horiz-adv-x="658" 
d="M283 311l-76 -84v-227h-140v700h140v-303l252 303h157l-253 -291l277 -409h-148z" />
    <glyph glyph-name="L" unicode="L" horiz-adv-x="550" 
d="M520 0h-453v700h140v-609h313v-91z" />
    <glyph glyph-name="M" unicode="M" horiz-adv-x="932" 
d="M67 700h214l184 -541l185 541h216v-700h-134v553l-196 -553h-141l-195 553v-553h-133v700z" />
    <glyph glyph-name="N" unicode="N" horiz-adv-x="720" 
d="M200 0h-133v700h133l320 -485v485h133v-700h-134l-319 485v-485z" />
    <glyph glyph-name="O" unicode="O" horiz-adv-x="733" 
d="M38 350q0 84 24 150t67.5 111.5t104 69.5t132.5 24q73 0 133.5 -24t104 -69.5t67.5 -111.5t24 -150t-24 -150t-67.5 -111.5t-104 -69.5t-133.5 -24q-72 0 -132.5 24t-104 69.5t-67.5 111.5t-24 150zM178 350q0 -129 50.5 -195.5t137.5 -66.5q88 0 138 66.5t50 195.5
t-50 195.5t-138 66.5q-87 0 -137.5 -66.5t-50.5 -195.5z" />
    <glyph glyph-name="P" unicode="P" horiz-adv-x="629" 
d="M67 700h292q52 0 94.5 -14.5t73 -42t47.5 -67t17 -89.5t-17 -89.5t-47.5 -67t-73 -42t-94.5 -14.5h-152v-274h-140v700zM207 608v-242h126q57 0 89.5 31t32.5 90t-32.5 90t-89.5 31h-126z" />
    <glyph glyph-name="Q" unicode="Q" horiz-adv-x="733" 
d="M38 350q0 84 24 150t67.5 111.5t104 69.5t132.5 24q73 0 133.5 -24t104 -69.5t67.5 -111.5t24 -150q0 -81 -22 -144t-61 -108l84 -69l-56 -70l-98 82q-74 -46 -176 -46q-72 0 -132.5 24t-104 69.5t-67.5 111.5t-24 150zM417 260l97 -80q40 65 40 170q0 129 -50 195.5
t-138 66.5q-87 0 -137.5 -66.5t-50.5 -195.5t50.5 -195.5t137.5 -66.5q53 0 89 24l-94 78z" />
    <glyph glyph-name="R" unicode="R" horiz-adv-x="635" 
d="M67 700h292q52 0 94.5 -14t73 -41t47.5 -66t17 -89q0 -78 -41 -129t-110 -70l177 -291h-149l-146 281h-115v-281h-140v700zM207 608v-235h126q57 0 89.5 30t32.5 87q0 58 -32.5 88t-89.5 30h-126z" />
    <glyph glyph-name="S" unicode="S" horiz-adv-x="614" 
d="M162 220q0 -64 37 -98t100 -34t99 29t36 77q0 34 -17 54t-44.5 32.5t-62.5 20t-71.5 15.5t-71.5 19.5t-62.5 32t-44.5 53t-17 82.5q0 48 19 85.5t53 63.5t81.5 39.5t103.5 13.5q57 0 104 -15t80 -42.5t51 -66.5t18 -87h-133q0 55 -32 86.5t-84 31.5q-56 0 -88.5 -31
t-32.5 -76q0 -32 17 -51t44.5 -31t62.5 -19.5t72 -16t72 -20.5t62.5 -33t44.5 -53.5t17 -82.5t-20.5 -88t-56.5 -63.5t-86 -38.5t-109 -13q-63 0 -113.5 15.5t-86 44.5t-55 70.5t-19.5 94.5h133z" />
    <glyph glyph-name="T" unicode="T" horiz-adv-x="638" 
d="M33 700h573v-92h-216v-608h-141v608h-216v92z" />
    <glyph glyph-name="U" unicode="U" horiz-adv-x="710" 
d="M506 700h141v-456q0 -58 -21.5 -104t-60.5 -78.5t-92.5 -49.5t-117.5 -17t-117.5 17t-92.5 49.5t-60.5 78.5t-21.5 104v456h140v-456q0 -75 41 -115.5t111 -40.5t110.5 40.5t40.5 115.5v456z" />
    <glyph glyph-name="V" unicode="V" horiz-adv-x="707" 
d="M432 0h-160l-252 700h139l193 -587l194 587h140z" />
    <glyph glyph-name="W" unicode="W" horiz-adv-x="1034" 
d="M517 527l-137 -527h-160l-200 700h144l136 -565l147 565h141l146 -565l136 565h144l-200 -700h-159z" />
    <glyph glyph-name="X" unicode="X" horiz-adv-x="693" 
d="M265 354l-236 346h154l164 -257l164 257h155l-238 -346l245 -354h-155l-171 265l-172 -265h-154z" />
    <glyph glyph-name="Y" unicode="Y" horiz-adv-x="686" 
d="M273 254l-244 446h150l164 -329l166 329h150l-246 -446v-254h-140v254z" />
    <glyph glyph-name="Z" unicode="Z" horiz-adv-x="619" 
d="M47 700h533v-85l-387 -524h389v-91h-540v85l380 523h-375v92z" />
    <glyph glyph-name="bracketleft" unicode="[" horiz-adv-x="298" 
d="M56 750h215v-79h-98v-771h98v-79h-215v929z" />
    <glyph glyph-name="backslash" unicode="\" horiz-adv-x="426" 
d="M397 -100h-118l-250 800h118z" />
    <glyph glyph-name="bracketright" unicode="]" horiz-adv-x="298" 
d="M242 -179h-215v79h97v771h-97v79h215v-929z" />
    <glyph glyph-name="asciicircum" unicode="^" horiz-adv-x="505" 
d="M478 500h-124l-102 129l-101 -129h-124l173 200h105z" />
    <glyph glyph-name="underscore" unicode="_" horiz-adv-x="439" 
d="M0 -50h439v-79h-439v79z" />
    <glyph glyph-name="grave" unicode="`" 
d="M236 559h-89l-137 141h125z" />
    <glyph glyph-name="a" unicode="a" horiz-adv-x="546" 
d="M353 72q-25 -37 -61.5 -57t-82.5 -20q-76 0 -124 34.5t-48 98.5q0 84 76 129t209 45h31v28q0 45 -24 68.5t-66 23.5q-38 0 -61.5 -22.5t-23.5 -64.5h-130q0 39 16 70.5t44.5 53.5t68 34t86.5 12q49 0 90.5 -11.5t71 -34t46 -55t16.5 -74.5v-330h-124zM322 231
q-73 0 -111.5 -23.5t-38.5 -68.5q0 -29 19 -45t51 -16q51 0 81 36.5t30 102.5v14h-31z" />
    <glyph glyph-name="b" unicode="b" horiz-adv-x="584" 
d="M56 725h134v-284q23 32 58.5 48t80.5 16q48 0 88 -17t68.5 -50t44.5 -80.5t16 -107.5t-16 -107.5t-44.5 -80.5t-68.5 -50t-88 -17q-91 0 -139 69l-10 -64h-124v725zM190 250q0 -85 29.5 -128.5t78.5 -43.5q53 0 84 43.5t31 128.5t-31 128.5t-84 43.5q-49 0 -78.5 -43.5
t-29.5 -128.5z" />
    <glyph glyph-name="c" unicode="c" horiz-adv-x="549" 
d="M289 422q-54 0 -86 -43.5t-32 -128.5t32 -128.5t86 -43.5q39 0 63 26.5t24 74.5h130q0 -43 -16 -77t-44.5 -58t-68.5 -36.5t-87 -12.5q-56 0 -102.5 17t-80 50t-52 80.5t-18.5 107.5t18.5 107.5t52 80.5t80 50t102.5 17q47 0 87 -12.5t68.5 -36.5t44.5 -58t16 -77h-130
q0 48 -24 74.5t-63 26.5z" />
    <glyph glyph-name="d" unicode="d" horiz-adv-x="582" 
d="M528 0h-124l-10 71q-23 -38 -59 -57t-81 -19q-48 0 -88 17t-68.5 50t-44.5 80.5t-16 107.5t16 107.5t44.5 80.5t68.5 50t88 17q45 0 81 -16t59 -48v284h134v-725zM394 250q0 85 -29.5 128.5t-79.5 43.5q-52 0 -83 -43.5t-31 -128.5t31 -128.5t83 -43.5q50 0 79.5 43.5
t29.5 128.5z" />
    <glyph glyph-name="e" unicode="e" horiz-adv-x="559" 
d="M290 505q52 0 95.5 -17.5t74 -53.5t45.5 -90t9 -127h-341q1 -66 33 -102.5t83 -36.5q42 0 68.5 22.5t26.5 61.5h129q0 -39 -16.5 -70t-45.5 -52.5t-70.5 -33t-90.5 -11.5q-56 0 -102.5 17t-80 50t-52 80.5t-18.5 107.5t18.5 107.5t51.5 80.5t79.5 50t103.5 17zM289 422
q-49 0 -82 -34t-33 -96h209q0 64 -27 97t-67 33z" />
    <glyph glyph-name="f" unicode="f" horiz-adv-x="363" 
d="M279 730q14 0 27 -1.5t26 -3.5v-83q-14 5 -40 5q-32 0 -51.5 -15.5t-19.5 -45.5v-86h111v-82h-111v-418h-134v418h-65v82h65v76q0 79 45 116.5t147 37.5z" />
    <glyph glyph-name="g" unicode="g" horiz-adv-x="584" 
d="M287 -137q49 0 78 33t29 94v69q-23 -32 -59 -48t-81 -16q-48 0 -88 17t-68.5 50t-44.5 80.5t-16 107.5t16 107.5t44.5 80.5t68.5 50t88 17q92 0 140 -69l10 64h124v-510q0 -50 -17.5 -89t-49.5 -66t-76 -41t-98 -14q-50 0 -92 12t-72.5 34t-47.5 54t-17 73h126
q0 -42 28.5 -66t74.5 -24zM394 250q0 85 -29.5 128.5t-79.5 43.5q-52 0 -83 -43.5t-31 -128.5t31 -128.5t83 -43.5q50 0 79.5 43.5t29.5 128.5z" />
    <glyph glyph-name="h" unicode="h" horiz-adv-x="572" 
d="M190 0h-134v725h134v-289q49 69 143 69q41 0 75 -12t58.5 -35.5t38 -56.5t13.5 -75v-326h-134v326q0 46 -23.5 71t-62.5 25q-50 0 -79 -43.5t-29 -128.5v-250z" />
    <glyph glyph-name="i" unicode="i" 
d="M56 700h134v-123h-134v123zM56 500h134v-500h-134v500z" />
    <glyph glyph-name="j" unicode="j" 
d="M56 700h134v-123h-134v123zM190 -51q0 -85 -50 -127t-155 -42v83q33 0 52 18.5t19 54.5v564h134v-551z" />
    <glyph glyph-name="k" unicode="k" horiz-adv-x="536" 
d="M246 196l-56 -66v-130h-134v725h134v-417l157 192h146l-175 -211l196 -289h-134z" />
    <glyph glyph-name="l" unicode="l" horiz-adv-x="266" 
d="M56 725h134v-604q0 -21 11 -32t29 -11v-83q-92 0 -133 27t-41 89v614z" />
    <glyph glyph-name="m" unicode="m" horiz-adv-x="834" 
d="M190 0h-134v500h124l10 -74q22 38 54 58.5t73 20.5q47 0 82.5 -21.5t54.5 -60.5q12 21 30 36.5t39 25.5t43.5 15t43.5 5q75 0 121.5 -47t46.5 -132v-326h-134v326q0 46 -19.5 71t-51.5 25q-40 0 -64.5 -43.5t-24.5 -128.5v-250h-134v326q0 46 -19.5 71t-51.5 25
q-41 0 -65 -43.5t-24 -128.5v-250z" />
    <glyph glyph-name="n" unicode="n" horiz-adv-x="574" 
d="M190 0h-134v500h124l10 -71q49 76 143 76q41 0 75 -12t58.5 -35.5t38 -56.5t13.5 -75v-326h-134v326q0 46 -23.5 71t-62.5 25q-50 0 -79 -43.5t-29 -128.5v-250z" />
    <glyph glyph-name="o" unicode="o" horiz-adv-x="580" 
d="M37 250q0 60 18.5 107.5t52 80.5t80 50t102.5 17t102.5 -17t80 -50t52 -80.5t18.5 -107.5t-18.5 -107.5t-52 -80.5t-80 -50t-102.5 -17t-102.5 17t-80 50t-52 80.5t-18.5 107.5zM171 250q0 -85 32.5 -128.5t86.5 -43.5q55 0 87 43.5t32 128.5t-32 128.5t-87 43.5
q-54 0 -86.5 -43.5t-32.5 -128.5z" />
    <glyph glyph-name="p" unicode="p" horiz-adv-x="584" 
d="M56 500h124l10 -71q23 38 58.5 57t80.5 19q48 0 88 -17t68.5 -50t44.5 -80.5t16 -107.5t-16 -107.5t-44.5 -80.5t-68.5 -50t-88 -17q-45 0 -80.5 16t-58.5 48v-274h-134v715zM190 250q0 -85 29.5 -128.5t78.5 -43.5q53 0 84 43.5t31 128.5t-31 128.5t-84 43.5
q-49 0 -78.5 -43.5t-29.5 -128.5z" />
    <glyph glyph-name="q" unicode="q" horiz-adv-x="582" 
d="M528 -215h-134v274q-23 -32 -59 -48t-81 -16q-48 0 -88 17t-68.5 50t-44.5 80.5t-16 107.5t16 107.5t44.5 80.5t68.5 50t88 17q92 0 140 -69l10 64h124v-715zM394 250q0 85 -29.5 128.5t-79.5 43.5q-52 0 -83 -43.5t-31 -128.5t31 -128.5t83 -43.5q50 0 79.5 43.5
t29.5 128.5z" />
    <glyph glyph-name="r" unicode="r" horiz-adv-x="383" 
d="M190 0h-134v500h117l17 -84q24 45 65 67t91 22v-93q-33 0 -61.5 -14.5t-49.5 -40t-33 -61.5t-12 -79v-217z" />
    <glyph glyph-name="s" unicode="s" horiz-adv-x="516" 
d="M166 163q0 -40 24.5 -62.5t64.5 -22.5q39 0 62.5 16t23.5 48q0 27 -22 40t-54.5 21.5t-71 15.5t-71 22t-54.5 42t-22 75q0 35 15.5 62.5t43.5 46t67.5 28.5t86.5 10q44 0 80.5 -11t63 -31.5t41.5 -50t15 -65.5h-123q0 35 -22.5 55t-57.5 20q-34 0 -55 -17t-21 -47
q0 -26 22 -38.5t54.5 -20.5t71 -15.5t71 -23t54.5 -44t22 -77.5q0 -34 -16.5 -61t-46 -45.5t-70.5 -28t-91 -9.5q-47 0 -86.5 11.5t-68 33.5t-44.5 53t-16 70h130z" />
    <glyph glyph-name="t" unicode="t" horiz-adv-x="373" 
d="M283 -5q-102 0 -147 37t-45 117v269h-69v82h69v105h134v-105h111v-82h-111v-279q0 -30 19.5 -45.5t51.5 -15.5q12 0 21.5 1t18.5 4v-83q-14 -2 -26.5 -3.5t-26.5 -1.5z" />
    <glyph glyph-name="u" unicode="u" horiz-adv-x="574" 
d="M384 500h134v-500h-124l-10 72q-25 -37 -62.5 -57t-83.5 -20q-40 0 -73.5 11.5t-57.5 34t-37.5 54t-13.5 72.5v333h134v-333q0 -43 23 -66t62 -23q50 0 79.5 43.5t29.5 128.5v250z" />
    <glyph glyph-name="v" unicode="v" horiz-adv-x="558" 
d="M354 0h-150l-189 500h133l131 -391l131 391h132z" />
    <glyph glyph-name="w" unicode="w" horiz-adv-x="825" 
d="M412 336l-94 -336h-149l-154 500h138l92 -380l102 380h131l101 -380l93 380h138l-155 -500h-149z" />
    <glyph glyph-name="x" unicode="x" horiz-adv-x="553" 
d="M203 254l-178 246h147l104 -167l104 167h148l-179 -246l185 -254h-147l-111 175l-110 -175h-147z" />
    <glyph glyph-name="y" unicode="y" horiz-adv-x="548" 
d="M323 -64q-28 -79 -90.5 -117.5t-171.5 -38.5v83q50 0 87.5 19t50.5 54l25 64h-26l-183 500h136l123 -386l122 386h137z" />
    <glyph glyph-name="z" unicode="z" horiz-adv-x="487" 
d="M34 500h418v-82l-281 -336h285v-82h-425v82l274 336h-271v82z" />
    <glyph glyph-name="braceleft" unicode="{" horiz-adv-x="333" 
d="M111 171q0 36 -21.5 54.5t-59.5 18.5v83q38 0 59.5 19t21.5 54v187q0 85 47.5 126.5t147.5 41.5v-82q-35 0 -56 -19t-21 -54v-171q0 -104 -78 -143q78 -39 78 -144v-169q0 -35 21 -54t56 -19v-83q-100 0 -147.5 42t-47.5 127v185z" />
    <glyph glyph-name="bar" unicode="|" horiz-adv-x="229" 
d="M56 700h117v-800h-117v800z" />
    <glyph glyph-name="braceright" unicode="}" horiz-adv-x="333" 
d="M222 401q0 -35 21.5 -54t59.5 -19v-83q-38 0 -59.5 -19t-21.5 -54v-186q0 -85 -47.5 -127t-147.5 -42v83q35 0 56 19t21 54v170q0 103 78 143q-78 40 -78 144v170q0 35 -21 54t-56 19v82q100 0 147.5 -41.5t47.5 -126.5v-186z" />
    <glyph glyph-name="asciitilde" unicode="~" horiz-adv-x="453" 
d="M35 235q0 33 9 59t25 43.5t36.5 27t44.5 9.5q26 0 43.5 -9.5t32 -21.5t28 -21.5t31.5 -9.5q20 0 34.5 13t14.5 39h85q0 -32 -9 -58t-25 -44t-36.5 -27.5t-44.5 -9.5q-28 0 -45.5 10t-31.5 21.5t-27 21.5t-31 10q-20 0 -35 -13.5t-15 -39.5h-84v0z" />
    <glyph glyph-name="exclamdown" unicode="&#xa1;" 
d="M56 500h134v-136h-134v136zM56 280h134v-480h-134v480z" />
    <glyph glyph-name="cent" unicode="&#xa2;" horiz-adv-x="549" 
d="M231 1q-88 15 -141 79.5t-53 169.5t53 169t141 79v102h118v-102q70 -14 113.5 -59.5t43.5 -117.5h-130q0 48 -24 74.5t-63 26.5q-54 0 -86 -43.5t-32 -128.5t32 -128.5t86 -43.5q39 0 63 26.5t24 74.5h130q0 -72 -43.5 -118t-113.5 -59v-102h-118v101z" />
    <glyph glyph-name="sterling" unicode="&#xa3;" horiz-adv-x="591" 
d="M27 364h49v146q0 46 17.5 82t49 61t74.5 38.5t95 13.5t96 -13.5t75 -38.5t48.5 -61t17.5 -82v-46h-137v46q0 47 -26.5 74.5t-71.5 27.5t-71.5 -27.5t-26.5 -74.5v-146h221v-92h-221v-181h338v-91h-527v91h49v181h-49v92z" />
    <glyph glyph-name="currency" unicode="&#xa4;" horiz-adv-x="523" 
d="M74 325q0 60 27 104l-72 73l55 56l75 -75q44 27 102 27q30 0 55.5 -7t47.5 -20l75 75l55 -56l-73 -73q28 -44 28 -104q0 -32 -7 -57.5t-21 -47.5l73 -72l-55 -56l-75 75q-22 -13 -47.5 -20t-55.5 -7q-58 0 -102 27l-75 -75l-55 56l72 72q-13 22 -20 47.5t-7 57.5z
M165 325q0 -51 25.5 -78t70.5 -27t70.5 27t25.5 78t-25.5 78t-70.5 27t-70.5 -27t-25.5 -78z" />
    <glyph glyph-name="yen" unicode="&#xa5;" horiz-adv-x="686" 
d="M151 255h121l-243 445h150l164 -329l166 329h150l-246 -445h122v-66h-122v-57h122v-65h-122v-67h-140v67h-122v65h122v57h-122v66z" />
    <glyph glyph-name="brokenbar" unicode="&#xa6;" horiz-adv-x="229" 
d="M56 250h117v-350h-117v350zM173 350h-117v350h117v-350z" />
    <glyph glyph-name="section" unicode="&#xa7;" horiz-adv-x="556" 
d="M166 -52q0 -40 30 -62.5t79 -22.5t77.5 23t28.5 66q0 26 -14.5 42.5t-38 26.5t-53.5 17t-61.5 14.5t-61.5 18.5t-53.5 30t-38 47.5t-14.5 72.5q0 54 23 93.5t62 62.5q-36 20 -60.5 52.5t-24.5 91.5q0 44 17 78t48 57.5t74 36t94 12.5q48 0 88.5 -11t70 -31.5t45.5 -50
t16 -65.5h-123q0 35 -28 55t-73 20q-42 0 -68.5 -24.5t-26.5 -66.5q0 -26 14.5 -42.5t38 -26.5t53.5 -17t61.5 -15.5t61.5 -20.5t53.5 -32t38 -51t14.5 -77q0 -51 -23.5 -88t-65.5 -59q38 -19 63.5 -52t25.5 -94q0 -42 -17.5 -74.5t-50 -55t-77.5 -34.5t-99 -12
q-51 0 -94.5 11.5t-74.5 33.5t-48.5 53t-17.5 70h130zM389 245q0 22 -10 37t-27 25t-39.5 16.5t-46.5 12.5q-42 -7 -68 -34.5t-26 -71.5q0 -22 9.5 -36.5t26 -24.5t37.5 -16t45 -12q45 6 72 33t27 71z" />
    <glyph glyph-name="dieresis" unicode="&#xa8;" horiz-adv-x="434" 
d="M49 680h111v-110h-111v110zM274 680h111v-110h-111v110z" />
    <glyph glyph-name="copyright" unicode="&#xa9;" horiz-adv-x="790" 
d="M38 350q0 84 26 150t73.5 111.5t113 69.5t144.5 24t145 -24t113 -69.5t73 -111.5t26 -150t-26 -150t-73 -111.5t-113 -69.5t-145 -24t-144.5 24t-113 69.5t-73.5 111.5t-26 150zM136 350q0 -133 69.5 -202.5t189.5 -69.5t189 69.5t69 202.5t-69 202.5t-189 69.5
t-189.5 -69.5t-69.5 -202.5zM404 487q-44 0 -70 -34.5t-26 -101.5t26 -101.5t70 -34.5q32 0 51.5 22t19.5 61h96q0 -34 -12.5 -61.5t-34.5 -46.5t-52.5 -29t-66.5 -10q-88 0 -142 52.5t-54 147.5t54 147.5t142 52.5q36 0 66.5 -10t52.5 -29t34.5 -46.5t12.5 -61.5h-96
q0 39 -19.5 61t-51.5 22z" />
    <glyph glyph-name="ordfeminine" unicode="&#xaa;" horiz-adv-x="408" 
d="M255 393q-18 -23 -42.5 -35t-55.5 -12q-57 0 -92 24.5t-35 69.5q0 60 54.5 91.5t149.5 31.5h21v17q0 28 -16 43t-43 15q-24 0 -38.5 -14.5t-14.5 -41.5h-105q0 57 44 89.5t114 32.5q75 0 121 -32.5t46 -91.5v-230h-101zM234 506q-46 0 -70.5 -14t-24.5 -43
q0 -18 12.5 -27.5t33.5 -9.5q32 0 51 22t19 64v8h-21z" />
    <glyph glyph-name="guillemotleft" unicode="&#xab;" horiz-adv-x="481" 
d="M433 481v-121l-100 -86l100 -85v-121l-190 167v79zM231 481v-121l-100 -86l100 -85v-121l-190 167v79z" />
    <glyph glyph-name="logicalnot" unicode="&#xac;" horiz-adv-x="502" 
d="M47 389h389v-189h-108v111h-281v78z" />
    <glyph glyph-name="uni00AD" unicode="&#xad;" horiz-adv-x="332" 
d="M47 314h238v-78h-238v78z" />
    <glyph glyph-name="registered" unicode="&#xae;" horiz-adv-x="790" 
d="M38 350q0 84 26 150t73.5 111.5t113 69.5t144.5 24t145 -24t113 -69.5t73 -111.5t26 -150t-26 -150t-73 -111.5t-113 -69.5t-145 -24t-144.5 24t-113 69.5t-73.5 111.5t-26 150zM136 350q0 -133 69.5 -202.5t189.5 -69.5t189 69.5t69 202.5t-69 202.5t-189 69.5
t-189.5 -69.5t-69.5 -202.5zM261 531h156q54 0 87 -28t33 -79q0 -38 -19.5 -63t-52.5 -36l87 -144h-90l-67 137h-50v-137h-84v350zM345 477v-106h55q26 0 41 13.5t15 39.5t-15 39.5t-41 13.5h-55z" />
    <glyph glyph-name="macron" unicode="&#xaf;" horiz-adv-x="434" 
d="M66 659h302v-78h-302v78z" />
    <glyph glyph-name="degree" unicode="&#xb0;" horiz-adv-x="312" 
d="M37 590q0 54 32.5 84.5t86.5 30.5t86 -30.5t32 -84.5q0 -53 -32 -82.5t-86 -29.5t-86.5 29.5t-32.5 82.5zM100 590q0 -27 15 -42t41 -15q24 0 39 15t15 42q0 28 -15 43t-39 15q-26 0 -41 -15t-15 -43z" />
    <glyph glyph-name="plusminus" unicode="&#xb1;" horiz-adv-x="483" 
d="M47 408h155v157h79v-157h155v-79h-155v-157h-79v157h-155v79zM47 139h389v-79h-389v79z" />
    <glyph glyph-name="uni00B2" unicode="&#xb2;" horiz-adv-x="314" 
d="M29 402q0 13 13 28t33 31.5t43 34t43 35.5t33 35t13 34q0 20 -14 35.5t-37 15.5q-24 0 -38.5 -15.5t-14.5 -42.5h-79q0 51 36 80.5t97 29.5q58 0 94.5 -27t36.5 -76q0 -24 -12.5 -46t-32 -41.5t-41.5 -36t-41.5 -30.5t-32 -25t-12.5 -19h172v-52h-259v52v0z" />
    <glyph glyph-name="uni00B3" unicode="&#xb3;" horiz-adv-x="326" 
d="M129 555h25q26 0 41 13t15 36q0 21 -14 34t-37 13q-54 0 -54 -57h-78q0 52 37 80.5t97 28.5t94 -24t34 -69q0 -28 -13 -48t-36 -31q29 -11 46 -33t17 -54q0 -47 -35.5 -72t-101.5 -25q-62 0 -100.5 29t-38.5 80h78q0 -56 61 -56q26 0 41 13t15 38q0 24 -14.5 38t-41.5 14
h-37v52z" />
    <glyph glyph-name="acute" unicode="&#xb4;" 
d="M111 700h125l-137 -141h-89z" />
    <glyph glyph-name="mu" unicode="&#xb5;" horiz-adv-x="574" 
d="M56 500h134v-333q0 -43 23 -66t62 -23q50 0 79.5 43.5t29.5 128.5v250h134v-500h-124l-10 72q-21 -37 -54.5 -57t-75.5 -20q-46 0 -64 32v-177h-134v650z" />
    <glyph glyph-name="paragraph" unicode="&#xb6;" horiz-adv-x="714" 
d="M428 -100h-127v374h-31q-52 0 -94.5 14.5t-73 42t-47 67t-16.5 89.5t16.5 89.5t47 67t73 42t94.5 14.5h158v-800zM520 700h127v-800h-127v800z" />
    <glyph glyph-name="periodcentered" unicode="&#xb7;" horiz-adv-x="229" 
d="M49 339h131v-127h-131v127z" />
    <glyph glyph-name="cedilla" unicode="&#xb8;" horiz-adv-x="303" 
d="M184 0v-20q0 -19 10 -28.5t21.5 -18.5t21.5 -22t10 -38q0 -40 -27 -59.5t-68 -19.5q-24 0 -40 6.5t-29 16.5v56q12 -10 25 -16t28 -6q18 0 27 8t9 20q0 13 -9.5 21t-21 17.5t-21 23.5t-9.5 39v20h73z" />
    <glyph glyph-name="uni00B9" unicode="&#xb9;" horiz-adv-x="210" 
d="M21 654q45 0 62.5 10t17.5 36h71v-350h-81v262h-70v42z" />
    <glyph glyph-name="ordmasculine" unicode="&#xba;" horiz-adv-x="430" 
d="M30 525q0 42 13.5 75.5t38 56.5t58.5 35t75 12q82 0 133 -47t51 -132t-51 -132t-133 -47q-41 0 -75 12t-58.5 35t-38 56.5t-13.5 75.5zM139 525q0 -55 20.5 -84t55.5 -29t55.5 29t20.5 84t-20.5 84t-55.5 29t-55.5 -29t-20.5 -84z" />
    <glyph glyph-name="guillemotright" unicode="&#xbb;" horiz-adv-x="481" 
d="M47 68v121l101 86l-101 85v121l191 -167v-79zM249 68v121l101 86l-101 85v121l191 -167v-79z" />
    <glyph glyph-name="onequarter" unicode="&#xbc;" horiz-adv-x="652" 
d="M21 654q45 0 62.5 10t17.5 36h71v-350h-81v262h-70v42zM439 700h99l-350 -700h-99zM524 65h-175v54l150 231h98v-231h28v-54h-28v-65h-73v65zM524 119v157l-103 -157h103z" />
    <glyph glyph-name="onehalf" unicode="&#xbd;" horiz-adv-x="696" 
d="M21 654q45 0 62.5 10t17.5 36h71v-350h-81v262h-70v42zM439 700h99l-350 -700h-99zM409 52q0 13 13 28t33 31.5t43 34t43 35.5t33 35t13 34q0 20 -14 35.5t-37 15.5q-24 0 -38.5 -15.5t-14.5 -42.5h-79q0 51 36 80.5t97 29.5q58 0 94.5 -27t36.5 -76q0 -24 -12.5 -46
t-32 -41.5t-41.5 -36t-41.5 -30.5t-32 -25t-12.5 -19h171v-52h-258v52z" />
    <glyph glyph-name="threequarters" unicode="&#xbe;" horiz-adv-x="740" 
d="M129 555h25q26 0 41 13t15 36q0 21 -14 34t-37 13q-54 0 -54 -57h-78q0 52 37 80.5t97 28.5t94 -24t34 -69q0 -28 -13 -48t-36 -31q29 -11 46 -33t17 -54q0 -47 -35.5 -72t-101.5 -25q-62 0 -100.5 29t-38.5 80h78q0 -56 61 -56q26 0 41 13t15 38q0 24 -14.5 38t-41.5 14
h-37v52zM524 700h99l-350 -700h-99zM611 65h-174v54l150 231h98v-231h27v-54h-27v-65h-74v65zM611 119v157l-102 -157h102z" />
    <glyph glyph-name="questiondown" unicode="&#xbf;" horiz-adv-x="575" 
d="M355 264q0 -43 -13 -71.5t-32 -48t-41.5 -34t-41.5 -30.5t-32 -37t-13 -53q0 -45 29 -75.5t80 -30.5t81.5 31t30.5 85h131q0 -47 -17.5 -85t-50 -64.5t-78 -41t-101.5 -14.5q-53 0 -97 13t-76 38t-50 61t-18 83q0 46 13 76t32.5 50t42 34t42 29t32.5 34.5t13 50.5v16h134
v-16zM355 364h-134v136h134v-136z" />
    <glyph glyph-name="Agrave" unicode="&#xc0;" horiz-adv-x="689" 
d="M265 700h161l244 -700h-139l-58 164h-256l-57 -164h-140zM239 256h213l-106 331zM447 759h-89l-137 141h125z" />
    <glyph glyph-name="Aacute" unicode="&#xc1;" horiz-adv-x="689" 
d="M265 700h161l244 -700h-139l-58 164h-256l-57 -164h-140zM239 256h213l-106 331zM339 900h125l-137 -141h-89z" />
    <glyph glyph-name="Acircumflex" unicode="&#xc2;" horiz-adv-x="689" 
d="M265 700h161l244 -700h-139l-58 164h-256l-57 -164h-140zM239 256h213l-106 331zM511 759h-101l-66 89l-64 -89h-102l114 141h105z" />
    <glyph glyph-name="Atilde" unicode="&#xc3;" horiz-adv-x="689" 
d="M265 700h161l244 -700h-139l-58 164h-256l-57 -164h-140zM239 256h213l-106 331zM178 775q0 53 29 82t71 29q24 0 39.5 -7.5t27.5 -16.5t23 -16.5t27 -7.5q18 0 30 11t12 32h75q0 -52 -29.5 -81.5t-71.5 -29.5q-24 0 -39.5 7t-27.5 16t-23 16t-26 7q-18 0 -30 -10.5
t-12 -30.5h-75z" />
    <glyph glyph-name="Adieresis" unicode="&#xc4;" horiz-adv-x="689" 
d="M265 700h161l244 -700h-139l-58 164h-256l-57 -164h-140zM239 256h213l-106 331zM176 880h111v-110h-111v110zM401 880h111v-110h-111v110z" />
    <glyph glyph-name="Aring" unicode="&#xc5;" horiz-adv-x="689" 
d="M265 700h161l244 -700h-139l-58 164h-256l-57 -164h-140zM239 256h213l-106 331zM241 832q0 47 28.5 73.5t75.5 26.5t75 -26.5t28 -73.5q0 -46 -28 -72t-75 -26t-75.5 26t-28.5 72zM301 832q0 -46 44 -46q19 0 30.5 12t11.5 34t-11.5 34t-30.5 12q-44 0 -44 -46z" />
    <glyph glyph-name="AE" unicode="&#xc6;" horiz-adv-x="801" 
d="M356 164h-139l-57 -164h-140l244 700h496v-92h-274v-202h235v-92h-235v-223h279v-91h-409v164zM356 256v352h-7l-110 -352h117z" />
    <glyph glyph-name="Ccedilla" unicode="&#xc7;" horiz-adv-x="700" 
d="M367 612q-86 0 -137.5 -66.5t-51.5 -195.5t51.5 -195.5t137.5 -66.5q70 0 111 38.5t41 110.5h136q0 -53 -18 -95.5t-51 -73t-79 -49t-101 -22.5v-17q0 -19 10 -28.5t21.5 -18.5t21.5 -22t10 -38q0 -40 -27 -59.5t-68 -19.5q-24 0 -40 6.5t-29 16.5v56q12 -10 25 -16
t28 -6q18 0 27 8t9 20q0 13 -9.5 21t-21 17.5t-21 23.5t-9.5 39v17q-66 6 -120.5 32t-93.5 71t-60 108t-21 142q0 84 24.5 150t68.5 111.5t105 69.5t135 24q63 0 115 -16.5t89.5 -48t58.5 -76t21 -101.5h-136q0 72 -41 110.5t-111 38.5z" />
    <glyph glyph-name="Egrave" unicode="&#xc8;" horiz-adv-x="582" 
d="M67 700h474v-92h-334v-202h295v-92h-295v-223h339v-91h-479v700zM412 759h-89l-137 141h125z" />
    <glyph glyph-name="Eacute" unicode="&#xc9;" horiz-adv-x="582" 
d="M67 700h474v-92h-334v-202h295v-92h-295v-223h339v-91h-479v700zM307 900h125l-137 -141h-89z" />
    <glyph glyph-name="Ecircumflex" unicode="&#xca;" horiz-adv-x="582" 
d="M67 700h474v-92h-334v-202h295v-92h-295v-223h339v-91h-479v700zM475 759h-101l-66 89l-64 -89h-102l114 141h105z" />
    <glyph glyph-name="Edieresis" unicode="&#xcb;" horiz-adv-x="582" 
d="M67 700h474v-92h-334v-202h295v-92h-295v-223h339v-91h-479v700zM141 880h111v-110h-111v110zM366 880h111v-110h-111v110z" />
    <glyph glyph-name="Igrave" unicode="&#xcc;" horiz-adv-x="273" 
d="M67 700h140v-700h-140v700zM239 759h-89l-137 141h125z" />
    <glyph glyph-name="Iacute" unicode="&#xcd;" horiz-adv-x="273" 
d="M67 700h140v-700h-140v700zM134 900h125l-137 -141h-89z" />
    <glyph glyph-name="Icircumflex" unicode="&#xce;" horiz-adv-x="273" 
d="M67 700h140v-700h-140v700zM303 759h-101l-66 89l-64 -89h-102l114 141h105z" />
    <glyph glyph-name="Idieresis" unicode="&#xcf;" horiz-adv-x="273" 
d="M67 700h140v-700h-140v700zM-31 880h111v-110h-111v110zM194 880h111v-110h-111v110z" />
    <glyph glyph-name="Eth" unicode="&#xd0;" horiz-adv-x="724" 
d="M91 316h-69v82h69v302h270q72 0 132 -23.5t102.5 -68.5t66.5 -110t24 -148t-24 -148t-66.5 -110t-102.5 -68.5t-132 -23.5h-270v316zM348 91q92 0 144.5 66t52.5 193t-52.5 192.5t-144.5 65.5h-117v-210h139v-82h-139v-225h117z" />
    <glyph glyph-name="Ntilde" unicode="&#xd1;" horiz-adv-x="720" 
d="M200 0h-133v700h133l320 -485v485h133v-700h-134l-319 485v-485zM193 775q0 53 29 82t71 29q24 0 39.5 -7.5t27.5 -16.5t23 -16.5t27 -7.5q18 0 30 11t12 32h75q0 -52 -29.5 -81.5t-71.5 -29.5q-24 0 -39.5 7t-27.5 16t-23 16t-26 7q-18 0 -30 -10.5t-12 -30.5h-75z" />
    <glyph glyph-name="Ograve" unicode="&#xd2;" horiz-adv-x="733" 
d="M38 350q0 84 24 150t67.5 111.5t104 69.5t132.5 24q73 0 133.5 -24t104 -69.5t67.5 -111.5t24 -150t-24 -150t-67.5 -111.5t-104 -69.5t-133.5 -24q-72 0 -132.5 24t-104 69.5t-67.5 111.5t-24 150zM178 350q0 -129 50.5 -195.5t137.5 -66.5q88 0 138 66.5t50 195.5
t-50 195.5t-138 66.5q-87 0 -137.5 -66.5t-50.5 -195.5zM469 759h-89l-137 141h125z" />
    <glyph glyph-name="Oacute" unicode="&#xd3;" horiz-adv-x="733" 
d="M38 350q0 84 24 150t67.5 111.5t104 69.5t132.5 24q73 0 133.5 -24t104 -69.5t67.5 -111.5t24 -150t-24 -150t-67.5 -111.5t-104 -69.5t-133.5 -24q-72 0 -132.5 24t-104 69.5t-67.5 111.5t-24 150zM178 350q0 -129 50.5 -195.5t137.5 -66.5q88 0 138 66.5t50 195.5
t-50 195.5t-138 66.5q-87 0 -137.5 -66.5t-50.5 -195.5zM364 900h125l-137 -141h-89z" />
    <glyph glyph-name="Ocircumflex" unicode="&#xd4;" horiz-adv-x="733" 
d="M38 350q0 84 24 150t67.5 111.5t104 69.5t132.5 24q73 0 133.5 -24t104 -69.5t67.5 -111.5t24 -150t-24 -150t-67.5 -111.5t-104 -69.5t-133.5 -24q-72 0 -132.5 24t-104 69.5t-67.5 111.5t-24 150zM178 350q0 -129 50.5 -195.5t137.5 -66.5q88 0 138 66.5t50 195.5
t-50 195.5t-138 66.5q-87 0 -137.5 -66.5t-50.5 -195.5zM533 759h-101l-66 89l-64 -89h-102l114 141h105z" />
    <glyph glyph-name="Otilde" unicode="&#xd5;" horiz-adv-x="733" 
d="M38 350q0 84 24 150t67.5 111.5t104 69.5t132.5 24q73 0 133.5 -24t104 -69.5t67.5 -111.5t24 -150t-24 -150t-67.5 -111.5t-104 -69.5t-133.5 -24q-72 0 -132.5 24t-104 69.5t-67.5 111.5t-24 150zM178 350q0 -129 50.5 -195.5t137.5 -66.5q88 0 138 66.5t50 195.5
t-50 195.5t-138 66.5q-87 0 -137.5 -66.5t-50.5 -195.5zM199 775q0 53 29 82t71 29q24 0 39.5 -7.5t27.5 -16.5t23 -16.5t27 -7.5q18 0 30 11t12 32h75q0 -52 -29.5 -81.5t-71.5 -29.5q-24 0 -39.5 7t-27.5 16t-23 16t-26 7q-18 0 -30 -10.5t-12 -30.5h-75z" />
    <glyph glyph-name="Odieresis" unicode="&#xd6;" horiz-adv-x="733" 
d="M38 350q0 84 24 150t67.5 111.5t104 69.5t132.5 24q73 0 133.5 -24t104 -69.5t67.5 -111.5t24 -150t-24 -150t-67.5 -111.5t-104 -69.5t-133.5 -24q-72 0 -132.5 24t-104 69.5t-67.5 111.5t-24 150zM178 350q0 -129 50.5 -195.5t137.5 -66.5q88 0 138 66.5t50 195.5
t-50 195.5t-138 66.5q-87 0 -137.5 -66.5t-50.5 -195.5zM199 880h111v-110h-111v110zM424 880h111v-110h-111v110z" />
    <glyph glyph-name="multiply" unicode="&#xd7;" horiz-adv-x="490" 
d="M121 476l124 -124l124 124l55 -55l-123 -124l123 -124l-55 -56l-124 124l-124 -124l-55 56l123 124l-123 124z" />
    <glyph glyph-name="Oslash" unicode="&#xd8;" horiz-adv-x="733" 
d="M125 94q-42 45 -64.5 109.5t-22.5 146.5q0 84 24 150t67.5 111.5t104 69.5t132.5 24q48 0 91 -11t79 -31l27 37h111l-67 -93q42 -45 65 -110t23 -147q0 -84 -24 -150t-67.5 -111.5t-104 -69.5t-133.5 -24q-99 0 -171 42l-27 -37h-111zM561 349q0 92 -28 156l-279 -386
q46 -38 112 -38q91 0 143 68.5t52 199.5zM172 349q0 -91 26 -154l279 387q-45 36 -111 36q-90 0 -142 -68t-52 -201z" />
    <glyph glyph-name="Ugrave" unicode="&#xd9;" horiz-adv-x="710" 
d="M506 700h141v-456q0 -58 -21.5 -104t-60.5 -78.5t-92.5 -49.5t-117.5 -17t-117.5 17t-92.5 49.5t-60.5 78.5t-21.5 104v456h140v-456q0 -75 41 -115.5t111 -40.5t110.5 40.5t40.5 115.5v456zM458 759h-89l-137 141h125z" />
    <glyph glyph-name="Uacute" unicode="&#xda;" horiz-adv-x="710" 
d="M506 700h141v-456q0 -58 -21.5 -104t-60.5 -78.5t-92.5 -49.5t-117.5 -17t-117.5 17t-92.5 49.5t-60.5 78.5t-21.5 104v456h140v-456q0 -75 41 -115.5t111 -40.5t110.5 40.5t40.5 115.5v456zM353 900h125l-137 -141h-89z" />
    <glyph glyph-name="Ucircumflex" unicode="&#xdb;" horiz-adv-x="710" 
d="M506 700h141v-456q0 -58 -21.5 -104t-60.5 -78.5t-92.5 -49.5t-117.5 -17t-117.5 17t-92.5 49.5t-60.5 78.5t-21.5 104v456h140v-456q0 -75 41 -115.5t111 -40.5t110.5 40.5t40.5 115.5v456zM521 759h-101l-66 89l-64 -89h-102l114 141h105z" />
    <glyph glyph-name="Udieresis" unicode="&#xdc;" horiz-adv-x="710" 
d="M506 700h141v-456q0 -58 -21.5 -104t-60.5 -78.5t-92.5 -49.5t-117.5 -17t-117.5 17t-92.5 49.5t-60.5 78.5t-21.5 104v456h140v-456q0 -75 41 -115.5t111 -40.5t110.5 40.5t40.5 115.5v456zM187 880h111v-110h-111v110zM412 880h111v-110h-111v110z" />
    <glyph glyph-name="Yacute" unicode="&#xdd;" horiz-adv-x="686" 
d="M273 254l-244 446h150l164 -329l166 329h150l-246 -446v-254h-140v254zM341 900h125l-137 -141h-89z" />
    <glyph glyph-name="Thorn" unicode="&#xde;" horiz-adv-x="606" 
d="M67 687h140v-128h129q52 0 94.5 -14t73 -40.5t47 -65t16.5 -87.5t-16.5 -87t-47 -64.5t-73 -40.5t-94.5 -14h-129v-146h-140v687zM207 467v-230h102q57 0 89.5 30t32.5 85q0 56 -32.5 85.5t-89.5 29.5h-102z" />
    <glyph glyph-name="germandbls" unicode="&#xdf;" horiz-adv-x="683" 
d="M348 163q0 -40 22 -62.5t58 -22.5t57.5 16t21.5 48q0 26 -17 39.5t-43 21.5t-56 15.5t-56 22.5t-43 42t-17 75q0 34 13 58t28.5 46.5t28.5 47t13 57.5q0 37 -19.5 58.5t-64.5 21.5q-38 0 -61 -20.5t-23 -59.5v-567h-134v558q0 88 51 130t167 42q62 0 104 -13t67 -35.5
t35.5 -53t10.5 -64.5q0 -44 -13 -71.5t-28.5 -48.5t-28.5 -40t-13 -46q0 -26 17 -38.5t43 -20.5t56 -15.5t56 -23.5t43 -44t17 -77q0 -34 -15 -61t-42.5 -45.5t-66 -28t-84.5 -9.5q-44 0 -81 11.5t-63.5 33.5t-41.5 53t-15 70h117z" />
    <glyph glyph-name="agrave" unicode="&#xe0;" horiz-adv-x="546" 
d="M353 72q-25 -37 -61.5 -57t-82.5 -20q-76 0 -124 34.5t-48 98.5q0 84 76 129t209 45h31v28q0 45 -24 68.5t-66 23.5q-38 0 -61.5 -22.5t-23.5 -64.5h-130q0 39 16 70.5t44.5 53.5t68 34t86.5 12q49 0 90.5 -11.5t71 -34t46 -55t16.5 -74.5v-330h-124zM322 231
q-73 0 -111.5 -23.5t-38.5 -68.5q0 -29 19 -45t51 -16q51 0 81 36.5t30 102.5v14h-31zM370 559h-89l-137 141h125z" />
    <glyph glyph-name="aacute" unicode="&#xe1;" horiz-adv-x="546" 
d="M353 72q-25 -37 -61.5 -57t-82.5 -20q-76 0 -124 34.5t-48 98.5q0 84 76 129t209 45h31v28q0 45 -24 68.5t-66 23.5q-38 0 -61.5 -22.5t-23.5 -64.5h-130q0 39 16 70.5t44.5 53.5t68 34t86.5 12q49 0 90.5 -11.5t71 -34t46 -55t16.5 -74.5v-330h-124zM322 231
q-73 0 -111.5 -23.5t-38.5 -68.5q0 -29 19 -45t51 -16q51 0 81 36.5t30 102.5v14h-31zM258 700h125l-137 -141h-89z" />
    <glyph glyph-name="acircumflex" unicode="&#xe2;" horiz-adv-x="546" 
d="M353 72q-25 -37 -61.5 -57t-82.5 -20q-76 0 -124 34.5t-48 98.5q0 84 76 129t209 45h31v28q0 45 -24 68.5t-66 23.5q-38 0 -61.5 -22.5t-23.5 -64.5h-130q0 39 16 70.5t44.5 53.5t68 34t86.5 12q49 0 90.5 -11.5t71 -34t46 -55t16.5 -74.5v-330h-124zM322 231
q-73 0 -111.5 -23.5t-38.5 -68.5q0 -29 19 -45t51 -16q51 0 81 36.5t30 102.5v14h-31zM430 559h-101l-66 89l-64 -89h-102l114 141h105z" />
    <glyph glyph-name="atilde" unicode="&#xe3;" horiz-adv-x="546" 
d="M353 72q-25 -37 -61.5 -57t-82.5 -20q-76 0 -124 34.5t-48 98.5q0 84 76 129t209 45h31v28q0 45 -24 68.5t-66 23.5q-38 0 -61.5 -22.5t-23.5 -64.5h-130q0 39 16 70.5t44.5 53.5t68 34t86.5 12q49 0 90.5 -11.5t71 -34t46 -55t16.5 -74.5v-330h-124zM322 231
q-73 0 -111.5 -23.5t-38.5 -68.5q0 -29 19 -45t51 -16q51 0 81 36.5t30 102.5v14h-31zM97 575q0 53 29 82t71 29q24 0 39.5 -7.5t27.5 -16.5t23 -16.5t27 -7.5q18 0 30 11t12 32h75q0 -52 -29.5 -81.5t-71.5 -29.5q-24 0 -39.5 7t-27.5 16t-23 16t-26 7q-18 0 -30 -10.5
t-12 -30.5h-75z" />
    <glyph glyph-name="adieresis" unicode="&#xe4;" horiz-adv-x="546" 
d="M353 72q-25 -37 -61.5 -57t-82.5 -20q-76 0 -124 34.5t-48 98.5q0 84 76 129t209 45h31v28q0 45 -24 68.5t-66 23.5q-38 0 -61.5 -22.5t-23.5 -64.5h-130q0 39 16 70.5t44.5 53.5t68 34t86.5 12q49 0 90.5 -11.5t71 -34t46 -55t16.5 -74.5v-330h-124zM322 231
q-73 0 -111.5 -23.5t-38.5 -68.5q0 -29 19 -45t51 -16q51 0 81 36.5t30 102.5v14h-31zM96 680h111v-110h-111v110zM321 680h111v-110h-111v110z" />
    <glyph glyph-name="aring" unicode="&#xe5;" horiz-adv-x="546" 
d="M353 72q-25 -37 -61.5 -57t-82.5 -20q-76 0 -124 34.5t-48 98.5q0 84 76 129t209 45h31v28q0 45 -24 68.5t-66 23.5q-38 0 -61.5 -22.5t-23.5 -64.5h-130q0 39 16 70.5t44.5 53.5t68 34t86.5 12q49 0 90.5 -11.5t71 -34t46 -55t16.5 -74.5v-330h-124zM322 231
q-73 0 -111.5 -23.5t-38.5 -68.5q0 -29 19 -45t51 -16q51 0 81 36.5t30 102.5v14h-31zM161 632q0 47 28.5 73.5t75.5 26.5t75 -26.5t28 -73.5q0 -46 -28 -72t-75 -26t-75.5 26t-28.5 72zM221 632q0 -46 44 -46q19 0 30.5 12t11.5 34t-11.5 34t-30.5 12q-44 0 -44 -46z" />
    <glyph glyph-name="ae" unicode="&#xe6;" horiz-adv-x="868" 
d="M599 505q52 0 95.5 -17.5t74 -53.5t45.5 -90t9 -127h-341q1 -66 33 -102.5t83 -36.5q42 0 68.5 22.5t26.5 61.5h129q0 -39 -16.5 -70t-45.5 -52.5t-70.5 -33t-90.5 -11.5q-61 0 -108 25.5t-74 73.5q-27 -45 -78 -72t-130 -27q-76 0 -124 34.5t-48 98.5q0 84 76 129
t209 45h31v28q0 45 -24 68.5t-66 23.5q-38 0 -61.5 -22.5t-23.5 -64.5h-130q0 39 16 70.5t44.5 53.5t68 34t86.5 12q57 0 100 -21t65 -60q28 39 71 60t100 21zM598 422q-49 0 -82 -34t-33 -96h210q0 64 -27.5 97t-67.5 33zM322 231q-73 0 -111.5 -23.5t-38.5 -68.5
q0 -29 19 -45t51 -16q51 0 81 36.5t30 102.5v14h-31z" />
    <glyph glyph-name="ccedilla" unicode="&#xe7;" horiz-adv-x="549" 
d="M289 422q-54 0 -86 -43.5t-32 -128.5t32 -128.5t86 -43.5q39 0 63 26.5t24 74.5h130q0 -39 -13 -70.5t-37 -54.5t-57 -38t-73 -19v-17q0 -19 10 -28.5t21.5 -18.5t21.5 -22t10 -38q0 -40 -27 -59.5t-68 -19.5q-24 0 -40 6.5t-29 16.5v56q12 -10 25 -16t28 -6q18 0 27 8
t9 20q0 13 -9.5 21t-21 17.5t-21 23.5t-9.5 39v17q-48 5 -88 24.5t-68.5 51.5t-44 76.5t-15.5 100.5q0 60 18.5 107.5t52 80.5t80 50t102.5 17q47 0 87 -12.5t68.5 -36.5t44.5 -58t16 -77h-130q0 48 -24 74.5t-63 26.5z" />
    <glyph glyph-name="egrave" unicode="&#xe8;" horiz-adv-x="559" 
d="M290 505q52 0 95.5 -17.5t74 -53.5t45.5 -90t9 -127h-341q1 -66 33 -102.5t83 -36.5q42 0 68.5 22.5t26.5 61.5h129q0 -39 -16.5 -70t-45.5 -52.5t-70.5 -33t-90.5 -11.5q-56 0 -102.5 17t-80 50t-52 80.5t-18.5 107.5t18.5 107.5t51.5 80.5t79.5 50t103.5 17zM289 422
q-49 0 -82 -34t-33 -96h209q0 64 -27 97t-67 33zM396 559h-89l-137 141h125z" />
    <glyph glyph-name="eacute" unicode="&#xe9;" horiz-adv-x="559" 
d="M290 505q52 0 95.5 -17.5t74 -53.5t45.5 -90t9 -127h-341q1 -66 33 -102.5t83 -36.5q42 0 68.5 22.5t26.5 61.5h129q0 -39 -16.5 -70t-45.5 -52.5t-70.5 -33t-90.5 -11.5q-56 0 -102.5 17t-80 50t-52 80.5t-18.5 107.5t18.5 107.5t51.5 80.5t79.5 50t103.5 17zM289 422
q-49 0 -82 -34t-33 -96h209q0 64 -27 97t-67 33zM284 700h125l-137 -141h-89z" />
    <glyph glyph-name="ecircumflex" unicode="&#xea;" horiz-adv-x="559" 
d="M290 505q52 0 95.5 -17.5t74 -53.5t45.5 -90t9 -127h-341q1 -66 33 -102.5t83 -36.5q42 0 68.5 22.5t26.5 61.5h129q0 -39 -16.5 -70t-45.5 -52.5t-70.5 -33t-90.5 -11.5q-56 0 -102.5 17t-80 50t-52 80.5t-18.5 107.5t18.5 107.5t51.5 80.5t79.5 50t103.5 17zM289 422
q-49 0 -82 -34t-33 -96h209q0 64 -27 97t-67 33zM455 559h-101l-66 89l-64 -89h-102l114 141h105z" />
    <glyph glyph-name="edieresis" unicode="&#xeb;" horiz-adv-x="559" 
d="M290 505q52 0 95.5 -17.5t74 -53.5t45.5 -90t9 -127h-341q1 -66 33 -102.5t83 -36.5q42 0 68.5 22.5t26.5 61.5h129q0 -39 -16.5 -70t-45.5 -52.5t-70.5 -33t-90.5 -11.5q-56 0 -102.5 17t-80 50t-52 80.5t-18.5 107.5t18.5 107.5t51.5 80.5t79.5 50t103.5 17zM289 422
q-49 0 -82 -34t-33 -96h209q0 64 -27 97t-67 33zM121 680h111v-110h-111v110zM346 680h111v-110h-111v110z" />
    <glyph glyph-name="igrave" unicode="&#xec;" 
d="M222 559h-89l-137 141h125zM56 500h134v-500h-134v500z" />
    <glyph glyph-name="iacute" unicode="&#xed;" 
d="M124 700h125l-137 -141h-89zM56 500h134v-500h-134v500z" />
    <glyph glyph-name="icircumflex" unicode="&#xee;" 
d="M56 500h134v-500h-134v500zM289 559h-101l-66 89l-64 -89h-102l114 141h105z" />
    <glyph glyph-name="idieresis" unicode="&#xef;" 
d="M-45 680h111v-110h-111v110zM180 680h111v-110h-111v110zM56 500h134v-500h-134v500z" />
    <glyph glyph-name="eth" unicode="&#xf0;" horiz-adv-x="569" 
d="M315 623q-22 13 -47 21t-50.5 12t-50.5 5t-47 1v69q88 0 158.5 -10.5t122.5 -45.5l82 54v-57l-40 -29q43 -44 65.5 -120.5t22.5 -197.5q0 -89 -17 -151.5t-49 -102.5t-77.5 -58t-101.5 -18q-54 0 -99.5 17t-77.5 50t-50 80.5t-18 107.5t16 107.5t45 80.5t69 50t89 17
q95 0 149 -65q-2 54 -15 91t-35 61l-84 -56v58zM397 250q0 85 -30 128.5t-81 43.5t-81.5 -43.5t-30.5 -128.5t30.5 -128.5t81.5 -43.5t81 43.5t30 128.5z" />
    <glyph glyph-name="ntilde" unicode="&#xf1;" horiz-adv-x="574" 
d="M190 0h-134v500h124l10 -71q49 76 143 76q41 0 75 -12t58.5 -35.5t38 -56.5t13.5 -75v-326h-134v326q0 46 -23.5 71t-62.5 25q-50 0 -79 -43.5t-29 -128.5v-250zM119 575q0 53 29 82t71 29q24 0 39.5 -7.5t27.5 -16.5t23 -16.5t27 -7.5q18 0 30 11t12 32h75
q0 -52 -29.5 -81.5t-71.5 -29.5q-24 0 -39.5 7t-27.5 16t-23 16t-26 7q-18 0 -30 -10.5t-12 -30.5h-75z" />
    <glyph glyph-name="ograve" unicode="&#xf2;" horiz-adv-x="580" 
d="M37 250q0 60 18.5 107.5t52 80.5t80 50t102.5 17t102.5 -17t80 -50t52 -80.5t18.5 -107.5t-18.5 -107.5t-52 -80.5t-80 -50t-102.5 -17t-102.5 17t-80 50t-52 80.5t-18.5 107.5zM171 250q0 -85 32.5 -128.5t86.5 -43.5q55 0 87 43.5t32 128.5t-32 128.5t-87 43.5
q-54 0 -86.5 -43.5t-32.5 -128.5zM393 559h-89l-137 141h125z" />
    <glyph glyph-name="oacute" unicode="&#xf3;" horiz-adv-x="580" 
d="M37 250q0 60 18.5 107.5t52 80.5t80 50t102.5 17t102.5 -17t80 -50t52 -80.5t18.5 -107.5t-18.5 -107.5t-52 -80.5t-80 -50t-102.5 -17t-102.5 17t-80 50t-52 80.5t-18.5 107.5zM171 250q0 -85 32.5 -128.5t86.5 -43.5q55 0 87 43.5t32 128.5t-32 128.5t-87 43.5
q-54 0 -86.5 -43.5t-32.5 -128.5zM284 700h125l-137 -141h-89z" />
    <glyph glyph-name="ocircumflex" unicode="&#xf4;" horiz-adv-x="580" 
d="M37 250q0 60 18.5 107.5t52 80.5t80 50t102.5 17t102.5 -17t80 -50t52 -80.5t18.5 -107.5t-18.5 -107.5t-52 -80.5t-80 -50t-102.5 -17t-102.5 17t-80 50t-52 80.5t-18.5 107.5zM171 250q0 -85 32.5 -128.5t86.5 -43.5q55 0 87 43.5t32 128.5t-32 128.5t-87 43.5
q-54 0 -86.5 -43.5t-32.5 -128.5zM456 559h-101l-66 89l-64 -89h-102l114 141h105z" />
    <glyph glyph-name="otilde" unicode="&#xf5;" horiz-adv-x="580" 
d="M37 250q0 60 18.5 107.5t52 80.5t80 50t102.5 17t102.5 -17t80 -50t52 -80.5t18.5 -107.5t-18.5 -107.5t-52 -80.5t-80 -50t-102.5 -17t-102.5 17t-80 50t-52 80.5t-18.5 107.5zM171 250q0 -85 32.5 -128.5t86.5 -43.5q55 0 87 43.5t32 128.5t-32 128.5t-87 43.5
q-54 0 -86.5 -43.5t-32.5 -128.5zM123 575q0 53 29 82t71 29q24 0 39.5 -7.5t27.5 -16.5t23 -16.5t27 -7.5q18 0 30 11t12 32h75q0 -52 -29.5 -81.5t-71.5 -29.5q-24 0 -39.5 7t-27.5 16t-23 16t-26 7q-18 0 -30 -10.5t-12 -30.5h-75z" />
    <glyph glyph-name="odieresis" unicode="&#xf6;" horiz-adv-x="580" 
d="M37 250q0 60 18.5 107.5t52 80.5t80 50t102.5 17t102.5 -17t80 -50t52 -80.5t18.5 -107.5t-18.5 -107.5t-52 -80.5t-80 -50t-102.5 -17t-102.5 17t-80 50t-52 80.5t-18.5 107.5zM171 250q0 -85 32.5 -128.5t86.5 -43.5q55 0 87 43.5t32 128.5t-32 128.5t-87 43.5
q-54 0 -86.5 -43.5t-32.5 -128.5zM122 680h111v-110h-111v110zM347 680h111v-110h-111v110z" />
    <glyph glyph-name="divide" unicode="&#xf7;" horiz-adv-x="483" 
d="M47 318h389v-79h-389v79zM189 172h105v-111h-105v111zM189 500h105v-111h-105v111z" />
    <glyph glyph-name="oslash" unicode="&#xf8;" horiz-adv-x="580" 
d="M100 70q-30 32 -46.5 77.5t-16.5 102.5q0 60 18.5 107.5t52 80.5t80 50t102.5 17q74 0 130 -29l19 24h96l-55 -70q30 -32 46.5 -77.5t16.5 -102.5q0 -60 -18.5 -107.5t-52 -80.5t-80 -50t-102.5 -17q-74 0 -130 29l-19 -24h-96zM416 250q0 47 -11 85l-188 -238
q29 -26 73 -26q58 0 92 45.5t34 133.5zM165 250q0 -50 10 -84l188 237q-31 26 -73 26q-57 0 -91 -45.5t-34 -133.5z" />
    <glyph glyph-name="ugrave" unicode="&#xf9;" horiz-adv-x="574" 
d="M384 500h134v-500h-124l-10 72q-25 -37 -62.5 -57t-83.5 -20q-40 0 -73.5 11.5t-57.5 34t-37.5 54t-13.5 72.5v333h134v-333q0 -43 23 -66t62 -23q50 0 79.5 43.5t29.5 128.5v250zM390 559h-89l-137 141h125z" />
    <glyph glyph-name="uacute" unicode="&#xfa;" horiz-adv-x="574" 
d="M384 500h134v-500h-124l-10 72q-25 -37 -62.5 -57t-83.5 -20q-40 0 -73.5 11.5t-57.5 34t-37.5 54t-13.5 72.5v333h134v-333q0 -43 23 -66t62 -23q50 0 79.5 43.5t29.5 128.5v250zM285 700h125l-137 -141h-89z" />
    <glyph glyph-name="ucircumflex" unicode="&#xfb;" horiz-adv-x="574" 
d="M384 500h134v-500h-124l-10 72q-25 -37 -62.5 -57t-83.5 -20q-40 0 -73.5 11.5t-57.5 34t-37.5 54t-13.5 72.5v333h134v-333q0 -43 23 -66t62 -23q50 0 79.5 43.5t29.5 128.5v250zM453 559h-101l-66 89l-64 -89h-102l114 141h105z" />
    <glyph glyph-name="udieresis" unicode="&#xfc;" horiz-adv-x="574" 
d="M384 500h134v-500h-124l-10 72q-25 -37 -62.5 -57t-83.5 -20q-40 0 -73.5 11.5t-57.5 34t-37.5 54t-13.5 72.5v333h134v-333q0 -43 23 -66t62 -23q50 0 79.5 43.5t29.5 128.5v250zM119 680h111v-110h-111v110zM344 680h111v-110h-111v110z" />
    <glyph glyph-name="yacute" unicode="&#xfd;" horiz-adv-x="548" 
d="M323 -64q-28 -79 -90.5 -117.5t-171.5 -38.5v83q50 0 87.5 19t50.5 54l25 64h-26l-183 500h136l123 -386l122 386h137zM272 700h125l-137 -141h-89z" />
    <glyph glyph-name="thorn" unicode="&#xfe;" horiz-adv-x="584" 
d="M56 725h134v-296q23 38 58.5 57t80.5 19q48 0 88 -17t68.5 -50t44.5 -80.5t16 -107.5t-16 -107.5t-44.5 -80.5t-68.5 -50t-88 -17q-45 0 -80.5 16t-58.5 48v-274h-134v940zM190 250q0 -85 29.5 -128.5t78.5 -43.5q53 0 84 43.5t31 128.5t-31 128.5t-84 43.5
q-49 0 -78.5 -43.5t-29.5 -128.5z" />
    <glyph glyph-name="ydieresis" unicode="&#xff;" horiz-adv-x="548" 
d="M323 -64q-28 -79 -90.5 -117.5t-171.5 -38.5v83q50 0 87.5 19t50.5 54l25 64h-26l-183 500h136l123 -386l122 386h137zM106 680h111v-110h-111v110zM331 680h111v-110h-111v110z" />
    <glyph glyph-name="dotlessi" unicode="&#x131;" 
d="M56 500h134v-500h-134v500z" />
    <glyph glyph-name="OE" unicode="&#x152;" horiz-adv-x="897" 
d="M451 15q-52 -20 -112 -20q-67 0 -122.5 24t-95 69.5t-61.5 111.5t-22 150t22 150t61.5 111.5t95 69.5t122.5 24q61 0 112 -21v16h405v-92h-274v-202h235v-92h-235v-223h279v-91h-410v15zM348 88q65 0 103 50v423q-39 51 -103 51q-78 0 -124 -66.5t-46 -195.5t46 -195.5
t124 -66.5z" />
    <glyph glyph-name="oe" unicode="&#x153;" horiz-adv-x="924" 
d="M655 505q52 0 95.5 -17.5t74 -53.5t45.5 -90t9 -127h-341q1 -66 33 -102.5t83 -36.5q42 0 68.5 22.5t26.5 61.5h129q0 -39 -16.5 -70t-45.5 -52.5t-70.5 -33t-90.5 -11.5q-62 0 -109 25.5t-73 73.5q-27 -48 -74.5 -73.5t-108.5 -25.5q-56 0 -102.5 17t-80 50t-52 80.5
t-18.5 107.5t18.5 107.5t52 80.5t80 50t102.5 17q61 0 108 -25.5t74 -74.5q27 49 73.5 74.5t109.5 25.5zM171 250q0 -85 32.5 -128.5t86.5 -43.5q55 0 87 43.5t32 128.5t-32 128.5t-87 43.5q-54 0 -86.5 -43.5t-32.5 -128.5zM654 422q-49 0 -82 -34t-33 -96h210
q0 64 -27.5 97t-67.5 33z" />
    <glyph glyph-name="Scaron" unicode="&#x160;" horiz-adv-x="614" 
d="M162 220q0 -64 37 -98t100 -34t99 29t36 77q0 34 -17 54t-44.5 32.5t-62.5 20t-71.5 15.5t-71.5 19.5t-62.5 32t-44.5 53t-17 82.5q0 48 19 85.5t53 63.5t81.5 39.5t103.5 13.5q57 0 104 -15t80 -42.5t51 -66.5t18 -87h-133q0 55 -32 86.5t-84 31.5q-56 0 -88.5 -31
t-32.5 -76q0 -32 17 -51t44.5 -31t62.5 -19.5t72 -16t72 -20.5t62.5 -33t44.5 -53.5t17 -82.5t-20.5 -88t-56.5 -63.5t-86 -38.5t-109 -13q-63 0 -113.5 15.5t-86 44.5t-55 70.5t-19.5 94.5h133zM136 900h102l65 -90l65 90h101l-114 -141h-105z" />
    <glyph glyph-name="scaron" unicode="&#x161;" horiz-adv-x="516" 
d="M166 163q0 -40 24.5 -62.5t64.5 -22.5q39 0 62.5 16t23.5 48q0 27 -22 40t-54.5 21.5t-71 15.5t-71 22t-54.5 42t-22 75q0 35 15.5 62.5t43.5 46t67.5 28.5t86.5 10q44 0 80.5 -11t63 -31.5t41.5 -50t15 -65.5h-123q0 35 -22.5 55t-57.5 20q-34 0 -55 -17t-21 -47
q0 -26 22 -38.5t54.5 -20.5t71 -15.5t71 -23t54.5 -44t22 -77.5q0 -34 -16.5 -61t-46 -45.5t-70.5 -28t-91 -9.5q-47 0 -86.5 11.5t-68 33.5t-44.5 53t-16 70h130zM94 700h102l65 -90l65 90h101l-114 -141h-105z" />
    <glyph glyph-name="Ydieresis" unicode="&#x178;" horiz-adv-x="686" 
d="M273 254l-244 446h150l164 -329l166 329h150l-246 -446v-254h-140v254zM175 880h111v-110h-111v110zM400 880h111v-110h-111v110z" />
    <glyph glyph-name="Zcaron" unicode="&#x17d;" horiz-adv-x="619" 
d="M47 700h533v-85l-387 -524h389v-91h-540v85l380 523h-375v92zM142 900h102l65 -90l65 90h101l-114 -141h-105z" />
    <glyph glyph-name="zcaron" unicode="&#x17e;" horiz-adv-x="487" 
d="M34 500h418v-82l-281 -336h285v-82h-425v82l274 336h-271v82zM77 700h102l65 -90l65 90h101l-114 -141h-105z" />
    <glyph glyph-name="florin" unicode="&#x192;" horiz-adv-x="363" 
d="M279 730q14 0 27 -1.5t26 -3.5v-83q-14 5 -40 5q-32 0 -51.5 -15.5t-19.5 -45.5v-86h111v-82h-111v-469q0 -85 -49.5 -127t-155.5 -42v83q33 0 52 18.5t19 54.5v482h-55v82h55v76q0 79 45 116.5t147 37.5z" />
    <glyph glyph-name="uni0237" unicode="&#x237;" 
d="M190 -51q0 -85 -50 -127t-155 -42v83q33 0 52 18.5t19 54.5v564h134v-551z" />
    <glyph glyph-name="circumflex" unicode="&#x2c6;" horiz-adv-x="354" 
d="M343 559h-101l-66 89l-64 -89h-102l114 141h105z" />
    <glyph glyph-name="caron" unicode="&#x2c7;" horiz-adv-x="354" 
d="M10 700h102l65 -90l65 90h101l-114 -141h-105z" />
    <glyph glyph-name="breve" unicode="&#x2d8;" horiz-adv-x="474" 
d="M156 689q0 -34 22.5 -54t58.5 -20t58.5 20t22.5 54h93q0 -33 -12.5 -59t-35.5 -44.5t-55 -28t-71 -9.5t-71 9.5t-55 28t-35.5 44.5t-12.5 59h93z" />
    <glyph glyph-name="tilde" unicode="&#x2dc;" horiz-adv-x="343" 
d="M5 575q0 53 29 82t71 29q24 0 39.5 -7.5t27.5 -16.5t23 -16.5t27 -7.5q18 0 30 11t12 32h75q0 -52 -29.5 -81.5t-71.5 -29.5q-24 0 -39.5 7t-27.5 16t-23 16t-26 7q-18 0 -30 -10.5t-12 -30.5h-75v0z" />
    <glyph glyph-name="endash" unicode="&#x2013;" horiz-adv-x="533" 
d="M47 314h439v-78h-439v78z" />
    <glyph glyph-name="emdash" unicode="&#x2014;" horiz-adv-x="793" 
d="M47 314h699v-78h-699v78z" />
    <glyph glyph-name="quoteleft" unicode="&#x2018;" horiz-adv-x="232" 
d="M183 414h-133v130q0 36 9.5 65.5t27 50.5t42 33t54.5 12v-72q-20 0 -35 -24t-15 -65h50v-130z" />
    <glyph glyph-name="quoteright" unicode="&#x2019;" horiz-adv-x="232" 
d="M51 700h132v-130q0 -36 -9.5 -65.5t-27 -50.5t-42 -33t-54.5 -12v72q21 0 35.5 24.5t14.5 64.5h-49v130z" />
    <glyph glyph-name="quotesinglbase" unicode="&#x201a;" horiz-adv-x="232" 
d="M51 130h132v-130q0 -36 -9.5 -65.5t-27 -50.5t-42 -33t-54.5 -12v72q21 0 35.5 24.5t14.5 64.5h-49v130z" />
    <glyph glyph-name="quotedblleft" unicode="&#x201c;" horiz-adv-x="411" 
d="M183 414h-133v130q0 36 9.5 65.5t27 50.5t42 33t54.5 12v-72q-20 0 -35 -24t-15 -65h50v-130zM361 414h-132v130q0 36 9.5 65.5t27 50.5t42 33t54.5 12v-72q-21 0 -35.5 -24t-14.5 -65h49v-130z" />
    <glyph glyph-name="quotedblright" unicode="&#x201d;" horiz-adv-x="411" 
d="M51 700h132v-130q0 -36 -9.5 -65.5t-27 -50.5t-42 -33t-54.5 -12v72q21 0 35.5 24.5t14.5 64.5h-49v130zM229 700h133v-130q0 -36 -9.5 -65.5t-27 -50.5t-42 -33t-54.5 -12v72q20 0 35 24.5t15 64.5h-50v130z" />
    <glyph glyph-name="quotedblbase" unicode="&#x201e;" horiz-adv-x="411" 
d="M51 130h132v-130q0 -36 -9.5 -65.5t-27 -50.5t-42 -33t-54.5 -12v72q21 0 35.5 24.5t14.5 64.5h-49v130zM229 130h133v-130q0 -36 -9.5 -65.5t-27 -50.5t-42 -33t-54.5 -12v72q20 0 35 24.5t15 64.5h-50v130z" />
    <glyph glyph-name="dagger" unicode="&#x2020;" horiz-adv-x="523" 
d="M30 516h173v184h117v-184h172v-82h-172v-534h-117v534h-173v82z" />
    <glyph glyph-name="daggerdbl" unicode="&#x2021;" horiz-adv-x="523" 
d="M492 84h-172v-184h-117v184h-173v81h173v269h-173v82h173v184h117v-184h172v-82h-172v-269h172v-81z" />
    <glyph glyph-name="bullet" unicode="&#x2022;" horiz-adv-x="312" 
d="M37 325q0 54 32.5 84.5t86.5 30.5t86 -30.5t32 -84.5q0 -53 -32 -83t-86 -30t-86.5 30t-32.5 83z" />
    <glyph glyph-name="ellipsis" unicode="&#x2026;" horiz-adv-x="654" 
d="M49 130h133v-130h-133v130zM260 130h132v-130h-132v130zM470 130h133v-130h-133v130z" />
    <glyph glyph-name="perthousand" unicode="&#x2030;" horiz-adv-x="1057" 
d="M520 700h99l-393 -700h-99zM35 560q0 68 41 106.5t108 38.5t107.5 -38.5t40.5 -106.5q0 -67 -40.5 -104.5t-107.5 -37.5t-108 37.5t-41 104.5zM111 560q0 -35 19.5 -54.5t53.5 -19.5q32 0 51.5 19.5t19.5 54.5t-19.5 55t-51.5 20q-34 0 -53.5 -20t-19.5 -55zM392 137
q0 68 41 106.5t108 38.5t107.5 -38.5t40.5 -106.5q0 -66 -40.5 -104t-107.5 -38t-108 38t-41 104zM468 137q0 -35 19.5 -54.5t53.5 -19.5q32 0 51.5 19.5t19.5 54.5t-19.5 55t-51.5 20q-34 0 -53.5 -20t-19.5 -55zM725 137q0 68 41 106.5t107 38.5q68 0 108.5 -38.5
t40.5 -106.5q0 -66 -40.5 -104t-108.5 -38q-66 0 -107 38t-41 104zM801 137q0 -35 19.5 -54.5t52.5 -19.5q32 0 52 19.5t20 54.5t-20 55t-52 20q-33 0 -52.5 -20t-19.5 -55z" />
    <glyph glyph-name="guilsinglleft" unicode="&#x2039;" horiz-adv-x="279" 
d="M231 481v-121l-100 -86l100 -85v-121l-190 167v79z" />
    <glyph glyph-name="guilsinglright" unicode="&#x203a;" horiz-adv-x="279" 
d="M47 68v121l101 86l-101 85v121l191 -167v-79z" />
    <glyph glyph-name="Euro" unicode="&#x20ac;" horiz-adv-x="757" 
d="M34 463h73q29 116 114 179t207 63q63 0 115 -16.5t89.5 -48t58 -76t20.5 -101.5h-136q0 72 -40.5 110.5t-110.5 38.5q-66 0 -111 -38t-65 -111h217v-75h-229q-1 -9 -1 -18.5v-19.5v-19.5t1 -18.5h229v-76h-216q20 -73 65 -110.5t110 -37.5q70 0 110.5 38.5t40.5 110.5
h136q0 -57 -20.5 -101.5t-58 -76t-89.5 -48t-115 -16.5q-61 0 -113 16t-93.5 46.5t-70.5 75.5t-44 103h-73v76h61q-1 9 -1 18.5v19.5v19t1 19h-61v75z" />
    <glyph glyph-name="trademark" unicode="&#x2122;" horiz-adv-x="816" 
d="M21 700h296v-54h-106v-296h-84v296h-106v54zM357 700h129l81 -255l83 255h129v-350h-80v265l-90 -265h-84l-88 265v-265h-80v350z" />
    </font>
</defs>
</svg>
